<svg xmlns="http://www.w3.org/2000/svg" viewBox="0 0 220 220"><title>Super User</title><defs><linearGradient id="a" y2="163.214" spreadMethod="reflect" gradientUnits="userSpaceOnUse" x2="109.237" gradientTransform="matrix(1 0 0 1.11922 .748 20.115)" y1="62.865" x1="110.015"><stop stop-color="#1a1a1a" offset="0"/><stop stop-color="#505050" offset="1"/></linearGradient></defs><path stroke-linejoin="round" d="M121.02 82.133h-17.166l-4.955 22.05h17.283l4.837-22.05m-8.848-37.567l-6.135 27.4h17.225l6.193-27.4h9.44l-6.077 27.4h18.404v10.167h-20.705l-4.837 22.05h18.76v10.102h-21.06l-6.135 27.333h-9.438l6.075-27.333H96.6l-6.077 27.333h-9.498l6.135-27.333H68.58v-10.1h20.763l4.955-22.052H75.304V71.965H96.6l6.015-27.4h9.557m-78.495-24.45L.747 78.403l10.13 11.533.06-.065 89.035 101.285-.087.13 10.1 11.502.087-.13.03.032 10.13-11.502-.03-.065L208.83 90.328l10.363-11.794V78.5l.088-.097-5.78-10.194-.29-.327-17.896-31.562h.175l-9.11-16.14h-.174l-.03-.065h-10.362l-.088.065H47.804l-.088-.065h-14.04z" stroke="#0FF" stroke-linecap="round" stroke-width="7.1" fill="url(#a)"/></svg>