<svg id="svg2844" xmlns:rdf="http://www.w3.org/1999/02/22-rdf-syntax-ns#" xmlns="http://www.w3.org/2000/svg" viewBox="0 0 220 220" height="100%" width="100%" version="1.1" xmlns:cc="http://creativecommons.org/ns#" xmlns:dc="http://purl.org/dc/elements/1.1/">
<title id="title2988">Super User</title>
<defs id="defs11">
<linearGradient id="linearGradient2994" y2="163.21393" spreadMethod="reflect" gradientUnits="userSpaceOnUse" x2="109.23652" gradientTransform="matrix(1,0,0,1.11922,0.74839877,20.114522)" y1="62.865494" x1="110.01459">
<stop id="stop3779" stop-color="#1a1a1a" offset="0"/>
<stop id="stop3781" stop-color="#505050" offset="1"/>
</linearGradient>
</defs>
<metadata id="metadata7">
<rdf:RDF>
<cc:Work>
<dc:format>image/svg+xml</dc:format>
<dc:type rdf:resource="http://purl.org/dc/dcmitype/StillImage"/>
<cc:license rdf:resource="http://creativecommons.org/licenses/by-nc-sa/3.0/"/>
<dc:publisher>
<cc:Agent rdf:about="http://openclipart.org/">
<dc:title>Openclipart</dc:title>
</cc:Agent>
</dc:publisher>
<dc:title>Super User</dc:title>
<dc:date>2014-04-09T20:34:25</dc:date>
<dc:description/>
<dc:source/>
<dc:creator>
<cc:Agent>
<dc:title>Chris Zuber</dc:title>
</cc:Agent>
</dc:creator>
<dc:subject>
<rdf:Bag>
<rdf:li>Linux</rdf:li>
<rdf:li>Super User</rdf:li>
<rdf:li>sudo</rdf:li>
</rdf:Bag>
</dc:subject>
<dc:identifier>favicon</dc:identifier>
</cc:Work>
<cc:License rdf:about="http://creativecommons.org/licenses/by-nc-sa/3.0/">
<cc:permits rdf:resource="http://creativecommons.org/ns#Reproduction"/>
<cc:permits rdf:resource="http://creativecommons.org/ns#Distribution"/>
<cc:requires rdf:resource="http://creativecommons.org/ns#Notice"/>
<cc:requires rdf:resource="http://creativecommons.org/ns#Attribution"/>
<cc:prohibits rdf:resource="http://creativecommons.org/ns#CommercialUse"/>
<cc:permits rdf:resource="http://creativecommons.org/ns#DerivativeWorks"/>
<cc:requires rdf:resource="http://creativecommons.org/ns#ShareAlike"/>
</cc:License>
</rdf:RDF>
</metadata>
<path id="path3774" stroke-linejoin="round" d="m121.02004,82.132752-17.16581,0-4.955076,22.051248,17.283786,0,4.8371-22.051248m-8.84836-37.566343-6.13485,27.399003,17.22479,0,6.19385-27.399003,9.43824,0-6.07587,27.399003,18.40458,0,0,10.16734-20.70515,0-4.8371,22.051248,18.75851,0,0,10.10132-21.05908,0-6.13486,27.33298-9.43824,0,6.07587-27.33298-17.283788,0-6.07587,27.33298-9.497232,0,6.134858-27.33298-18.581542,0,0-10.10132,20.764136,0,4.955078-22.051248-18.994465,0,0-10.16734,21.295037,0,6.016878-27.399003,9.55622,0m-78.494489-24.451158-32.928788,58.287704,10.129923,11.533124l0.05838-0.06535,89.035705,101.28468-0.08753,0.13069,10.100039,11.50072,0.0875-0.13069,0.0291,0.0326,10.12992-11.50071-0.0291-0.0654,88.62748-100.79433,10.36346-11.794504v-0.03263l0.0875-0.09796-5.78005-10.193814-0.29193-0.326724-17.89457-31.562139h0.17515l-9.1079-16.140656h-0.17516l-0.0291-0.06535h-10.36346l-0.0875,0.06535h-127.92257l-0.08753-0.06535h-14.041208z" stroke="#0FF" stroke-linecap="round" stroke-dasharray="none" stroke-miterlimit="4" stroke-width="7.09999999999999964" fill="url(#linearGradient2994)"/>
</svg>
