<!-- Created with Inkscape (http://www.inkscape.org/) -->
<svg id="svg2" xmlns:rdf="http://www.w3.org/1999/02/22-rdf-syntax-ns#" xmlns="http://www.w3.org/2000/svg" height="100%" viewBox="0 0 656.81 591.75" width="100%" version="1.0" xmlns:cc="http://creativecommons.org/ns#" xmlns:dc="http://purl.org/dc/elements/1.1/">
<g id="layer1" transform="matrix(-1,0,0,1,708.17725,-114.17)">
<g id="g3257" fill="#000" transform="matrix(0.5478,0,0,0.5478,165.3,314.13)">
<path id="path3176" d="m39.598,563.04c190.45-82.02,519.49-59.39,692.96,53.74,63.17-78.25,41.49-266.81-31.11-288.5,49.97-191.39-49.97-600.56,192.33-613.76,97.11,103.71,157.42-126.34,2.83-70.71-319.58,30.77-208.15,428.58-282.84,664.68-267.76-58.46-716.54,69.76-625.08,141.42,265.87-71.66,593.97-157.45,712.76,87.68-131.99-131.99-620.37-108.42-661.85,25.45z"/>
<g id="g3249">
<path id="path3202" d="m59.397,319.8c-212.14-178.19-690.59-697.5,574.17-444.06-930.55-50.92-808.93,28.281-574.17,444.06z"/>
<path id="path3204" d="m-98.995,36.957c207.42-68.825,457.26-95.224,684.48-50.912-214-15.085-461.96,37.713-661.84,104.65-7.54-17.911-15.082-35.825-22.625-53.738z"/>
<path id="path3206" d="m-31.113,167.06c10.371,19.8,20.742,39.6,31.113,59.4,140.48-90.51,334.7-130.11,534.57-118.79-148.02-76.37-335.64-48.086-565.68,59.39z"/>
<path id="path3208" d="m-87.681-107.29c27.341-12.26,54.683-24.52,82.024-36.77,118.8,143.3,181.02,292.27,220.62,446.89-75.42-145.19-159.33-276.24-302.64-410.12z"/>
<path id="path3210" d="m82.024-158.2c23.566-0.95,47.136-1.89,70.716-2.83,107.48,130.1,152.73,263.04,152.73,398.81-40.54-132-103.71-263.99-223.45-395.98z"/>
<path id="path3212" d="m280.01-155.38c22.63,0.95,45.26,1.89,67.89,2.83,43.37,112.2,75.42,218.73,70.71,336.59-15.09-118.8-69.77-223.45-138.6-339.42z"/>
</g>
<path id="path3234" d="m102.33,514.65c-17.015,0.24-32.892,5.09-45.622,14.97-37.032,28.75-33.575,89.26,7.719,135.09,41.293,45.83,104.87,59.72,141.9,30.97s33.58-89.29-7.72-135.12c-27.09-30.08-63.79-46.38-96.28-45.91zm29.13,57.41c14.22-0.22,30.29,7.49,42.15,21.68,18.09,21.62,19.63,50.16,3.41,63.72s-44.07,7.03-62.16-14.59c-18.078-21.62-19.587-50.19-3.37-63.75,5.57-4.66,12.52-6.95,19.97-7.06z"/>
<path id="path3243" d="m607.21,514.65c-17.02,0.24-32.9,5.09-45.63,14.97-37.03,28.75-33.57,89.26,7.72,135.09,41.3,45.83,104.88,59.72,141.91,30.97s33.57-89.29-7.72-135.12c-27.1-30.08-63.79-46.38-96.28-45.91zm29.12,57.41c14.23-0.22,30.29,7.49,42.16,21.68,18.08,21.62,19.62,50.16,3.41,63.72-16.22,13.56-44.08,7.03-62.16-14.59s-19.59-50.19-3.38-63.75c5.58-4.66,12.52-6.95,19.97-7.06z"/>
</g>
</g>
<metadata id="metadata16">
<rdf:RDF>
<cc:Work>
<dc:format>image/svg+xml</dc:format>
<dc:type rdf:resource="http://purl.org/dc/dcmitype/StillImage"/>
<cc:license rdf:resource="http://creativecommons.org/licenses/publicdomain/"/>
<dc:publisher>
<cc:Agent rdf:about="http://openclipart.org/">
<dc:title>Openclipart</dc:title>
</cc:Agent>
</dc:publisher>
<dc:title/>
</cc:Work>
<cc:License rdf:about="http://creativecommons.org/licenses/publicdomain/">
<cc:permits rdf:resource="http://creativecommons.org/ns#Reproduction"/>
<cc:permits rdf:resource="http://creativecommons.org/ns#Distribution"/>
<cc:permits rdf:resource="http://creativecommons.org/ns#DerivativeWorks"/>
</cc:License>
</rdf:RDF>
</metadata>
</svg>
