<!-- Created with Inkscape (http://www.inkscape.org/) -->
<svg xmlns:rdf="http://www.w3.org/1999/02/22-rdf-syntax-ns#" xmlns="http://www.w3.org/2000/svg" height="100%" width="100%" version="1.1" xmlns:cc="http://creativecommons.org/ns#" xmlns:xlink="http://www.w3.org/1999/xlink" viewBox="0 0 54 52" xmlns:dc="http://purl.org/dc/elements/1.1/">
<metadata>
<rdf:RDF>
<cc:Work rdf:about="">
<dc:format>image/svg+xml</dc:format>
<dc:type rdf:resource="http://purl.org/dc/dcmitype/StillImage"/>
<dc:title/>
</cc:Work>
</rdf:RDF>
</metadata>
<defs>
<linearGradient id="linearGradient2919" y2="412.11" gradientUnits="userSpaceOnUse" y1="527.82" gradientTransform="matrix(0.422801,0,0,0.422801,-191.2152,-76.72476)" x2="1093.2" x1="1091.2">
<stop stop-color="#000" stop-opacity="0.26804122" offset="0"/>
<stop stop-color="#000" stop-opacity="0" offset="1"/>
</linearGradient>
<linearGradient id="linearGradient2916" y2="440.95" gradientUnits="userSpaceOnUse" y1="440.95" gradientTransform="matrix(0.422801,0,0,0.422801,-191.2152,-76.72476)" x2="1408.1" x1="794.61">
<stop stop-color="#000" stop-opacity="0.4742268" offset="0"/>
<stop stop-color="#000" stop-opacity="0" offset="0.5"/>
<stop stop-color="#000" stop-opacity="0.48453608" offset="1"/>
</linearGradient>
<radialGradient id="radialGradient2913" gradientUnits="userSpaceOnUse" cy="429.2" cx="1100.9" gradientTransform="matrix(0.425068,0.01377765,-0.00827183,0.240975,-190.0083,9.708195)" r="337.3">
<stop stop-color="#FFF" stop-opacity="0" offset="0"/>
<stop stop-color="#FFF" stop-opacity="0" offset="0.90947"/>
<stop stop-color="#FFF" stop-opacity="0.28865978" offset="0.94444"/>
<stop stop-color="#FFF" stop-opacity="0" offset="1"/>
</radialGradient>
<linearGradient id="linearGradient7120" y2="715.07" gradientUnits="userSpaceOnUse" y1="527.52" gradientTransform="matrix(0.422801,0,0,0.422801,-191.2152,-78.46747)" x2="1088.2" x1="1084">
<stop stop-color="#000" stop-opacity="0.48453608" offset="0"/>
<stop stop-color="#000" stop-opacity="0" offset="1"/>
</linearGradient>
<radialGradient id="radialGradient7118" gradientUnits="userSpaceOnUse" cy="306.34" cx="1083.6" gradientTransform="matrix(1,0,0,0.278027,0,221.1679)" r="27.562">
<stop stop-color="#FFF" stop-opacity="0.26804122" offset="0"/>
<stop stop-color="#FFF" stop-opacity="0" offset="1"/>
</radialGradient>
<radialGradient id="radialGradient7116" gradientUnits="userSpaceOnUse" cy="392.92" cx="1084.2" gradientTransform="matrix(0.422801,-5.893148e-6,6.509884e-7,0.04670471,-191.1109,70.95223)" r="23.97">
<stop stop-color="#FFF" stop-opacity="0.43298969" offset="0"/>
<stop stop-color="#FFF" stop-opacity="0" offset="1"/>
</radialGradient>
<radialGradient id="radialGradient7114" gradientUnits="userSpaceOnUse" cy="676.96" cx="1126.2" gradientTransform="matrix(0.422801,0,0,0.03605389,-194.7981,182.8488)" r="50.952">
<stop stop-color="#FFF" stop-opacity="0.17525773" offset="0"/>
<stop stop-color="#FFF" stop-opacity="0" offset="1"/>
</radialGradient>
<radialGradient id="radialGradient7112" gradientUnits="userSpaceOnUse" cy="730.19" cx="1117.5" gradientTransform="matrix(0.302862,1.508602e-6,-1.950285e-6,0.391533,-57.17636,-57.21375)" r="51.864">
<stop stop-color="#FFF" stop-opacity="0.12371134" offset="0"/>
<stop stop-color="#FFF" stop-opacity="0" offset="1"/>
</radialGradient>
<radialGradient id="radialGradient7110" gradientUnits="userSpaceOnUse" cy="1121.2" cx="1101.6" gradientTransform="matrix(0.351745,-0.00161626,0.00700341,1.524139,-120.7893,-1268.593)" r="71.438">
<stop stop-color="#FFF" stop-opacity="0.18556701" offset="0"/>
<stop stop-color="#FFF" stop-opacity="0" offset="1"/>
</radialGradient>
<linearGradient id="linearGradient7108" y2="659.46" gradientUnits="userSpaceOnUse" y1="391.53" gradientTransform="matrix(0.422801,0,0,0.422801,-191.2152,-76.72476)" x2="1091.9" x1="1082.6">
<stop stop-color="#674631" offset="0"/>
<stop stop-color="#9f6c4d" offset="1"/>
</linearGradient>
<linearGradient id="linearGradient7106" y2="754.17" gradientUnits="userSpaceOnUse" y1="754.17" gradientTransform="matrix(0.422801,0,0,0.422801,-191.8319,-76.12382)" x2="1439.2" x1="764.77">
<stop stop-color="#00212f" offset="0"/>
<stop stop-color="#3b5b82" offset="0.5"/>
<stop stop-color="#00212f" offset="1"/>
</linearGradient>
<radialGradient id="radialGradient7104" gradientUnits="userSpaceOnUse" cy="868.76" cx="709" gradientTransform="matrix(0.332067,0.09036145,-0.0223797,0.0822424,-107.7557,154.1953)" r="11.849">
<stop stop-color="#FFF" stop-opacity="0.49484536" offset="0"/>
<stop stop-color="#FFF" stop-opacity="0" offset="1"/>
</radialGradient>
<radialGradient id="radialGradient7102" gradientUnits="userSpaceOnUse" cy="857.9" cx="690.23" gradientTransform="matrix(0.331109,0.275075,-0.185544,0.22334,31.25162,-95.47324)" r="4.1674">
<stop stop-color="#FFF" stop-opacity="0.58762884" offset="0"/>
<stop stop-color="#FFF" stop-opacity="0" offset="1"/>
</radialGradient>
<radialGradient id="radialGradient7100" gradientUnits="userSpaceOnUse" cy="589.94" cx="730.01" gradientTransform="matrix(0.345917,0.0998305,-0.01559617,0.05404116,-125.8807,67.43909)" r="23.209">
<stop stop-color="#FFF" stop-opacity="0.51546389" offset="0"/>
<stop stop-color="#FFF" stop-opacity="0" offset="1"/>
</radialGradient>
<linearGradient id="linearGradient7098" y2="558.4" gradientUnits="userSpaceOnUse" y1="537.08" gradientTransform="matrix(0.422801,0,0,0.422801,-191.2152,-76.72476)" x2="738.61" x1="746.28">
<stop stop-color="#FFF" stop-opacity="0.3298969" offset="0"/>
<stop stop-color="#FFF" stop-opacity="0" offset="1"/>
</linearGradient>
<linearGradient id="linearGradient7096" y2="708.88" gradientUnits="userSpaceOnUse" y1="625.24" gradientTransform="matrix(0.422801,0,0,0.422801,-191.2152,-76.72476)" x2="607.33" x1="646.95">
<stop stop-color="#FFF" stop-opacity="0" offset="0"/>
<stop stop-color="#FFF" stop-opacity="0.20618556" offset="0.5"/>
<stop stop-color="#FFF" stop-opacity="0" offset="1"/>
</linearGradient>
<linearGradient id="linearGradient7094" y2="854.51" gradientUnits="userSpaceOnUse" y1="791.31" gradientTransform="matrix(0.422801,0,0,0.422801,-191.2152,-76.72476)" x2="703.72" x1="703.72">
<stop stop-color="#FFF" stop-opacity="0.39175257" offset="0"/>
<stop stop-color="#FFF" stop-opacity="0" offset="1"/>
</linearGradient>
<linearGradient id="linearGradient7092" y2="721.93" xlink:href="#linearGradient3274" gradientUnits="userSpaceOnUse" y1="749.41" gradientTransform="matrix(0.422801,0,0,0.422801,-191.2152,-76.72476)" x2="780.4" x1="790.02"/>
<linearGradient id="linearGradient7090" y2="757.58" xlink:href="#linearGradient3274" gradientUnits="userSpaceOnUse" y1="823.53" gradientTransform="matrix(0.422801,0,0,0.422801,-191.2152,-76.72476)" x2="809.25" x1="743.21"/>
<linearGradient id="linearGradient7088" y2="569.42" xlink:href="#linearGradient3274" gradientUnits="userSpaceOnUse" y1="587.28" gradientTransform="matrix(0.422801,0,0,0.422801,-190.6505,-75.71643)" x2="840.85" x1="752.92"/>
<linearGradient id="linearGradient7086" y2="665.37" gradientUnits="userSpaceOnUse" y1="626.9" gradientTransform="matrix(0.422801,0,0,0.422801,-191.2152,-76.72476)" x2="615.6" x1="564.15">
<stop stop-color="#000" stop-opacity="0.35051546" offset="0"/>
<stop stop-color="#325d80" stop-opacity="0" offset="1"/>
</linearGradient>
<linearGradient id="linearGradient7084" y2="662.11" gradientUnits="userSpaceOnUse" y1="776.86" gradientTransform="matrix(0.422801,0,0,0.422801,-191.2152,-76.72476)" x2="601.68" x1="721.21">
<stop stop-color="#000" stop-opacity="0" offset="0"/>
<stop stop-color="#000" stop-opacity="0.28865978" offset="0.89"/>
<stop stop-color="#000" stop-opacity="0" offset="1"/>
</linearGradient>
<radialGradient id="radialGradient7082" gradientUnits="userSpaceOnUse" cy="711.81" cx="693.84" gradientTransform="matrix(0.422801,0,0,0.67718,-191.2152,-257.7937)" r="109.92">
<stop stop-color="#325d80" offset="0"/>
<stop stop-color="#284d6a" offset="1"/>
</radialGradient>
<linearGradient id="linearGradient3274">
<stop stop-color="#000" stop-opacity="0.11340206" offset="0"/>
<stop stop-color="#000" offset="1"/>
</linearGradient>
</defs>
<g transform="matrix(0.14759653,0,0,0.13139205,-4.9221647,-3.0397217)">
<g transform="translate(-22.13642,-20.93614)">
<g>
<path d="m142.22,161.99s-18.589-12.199-34.273-12.199-34.775,9.0116-42.406,26.722c-11.27,26.157-10.201,39.007-9.8754,45.891,0.48269,10.217-2.0724,61.672,54.394,75.887,9.0242,2.2669,27.884,1.2674,41.245-2.7989l-2.6942-42.3s-10.456-3.4854-15.103,17.427-29.626,13.942-48.215-19.751c-18.589-33.692-4.0663-62.738-4.0663-62.738s9.8754-13.361,24.979-11.037c15.103,2.3236,31.369,13.942,33.111,33.112,0,0-0.5809,5.2281,6.3899,5.2281l-3.4854-53.443z" fill="url(#radialGradient7082)"/>
<path d="m86.457,182.33s-14.523,9.8754-9.2945,46.472c5.2281,36.597,35.435,49.958,54.605,42.406l-9.8754,12.78c-27.301,6.38-54.603-23.82-55.765-59.26-1.162-35.43,20.332-42.4,20.332-42.4z" fill="url(#linearGradient7084)"/>
<path fill="url(#linearGradient7086)" d="m67.233,270.23s-15.473-17.154-10.402-69.311c12.269-42.644,16.52-36.497,33.112-47.053,21.727-10.874,46.347,39.66,46.347,39.66s-24.272-34.432-46.928-26.88c-22.655,7.5518-28.464,44.149-28.464,44.149-0.04008,24.891,6.3354,59.435,6.3354,59.435z"/>
<path d="m143.4,183.37c-6.9708-3.4854-15.679-28.862-15.679-28.862s6.3339,2.388,14.482,7.4711l1.1964,21.391z" fill="url(#linearGradient7088)"/>
<path fill="url(#linearGradient7090)" d="m138.21,258.64c2.2012-3.2142,2.2347,19.768-11.126,23.254,6.9999-6.1007,6.4262-11.214,6.4262-11.214s2.3839-8.6581,4.6999-12.04z"/>
<path d="m142.8,254.2c0.92097,10.528,7.3408,41.034,7.3408,41.034l-2.5879-42.195s-4.8716-0.19582-4.7529,1.1615z" fill="url(#linearGradient7092)"/>
<path fill="url(#linearGradient7094)" d="m86.115,253.13s9.7133,16.02,21.308,24.154c5.7553,3.9298,12.163,5.7627,12.163,5.7627l-18.6-0.22c-2.6162-3.7266-8.4678-10.778-14.864-29.688z"/>
<path d="m81.809,181.16s-20.913,14.523-14.523,58.09" stroke="url(#linearGradient7096)" stroke-dasharray="none" stroke-miterlimit="4" stroke-width="1.01472247" fill="none"/>
<path d="m142.42,162.16s-23.259-15.724-41.437-11.787-6.3899,2.9045,5.809,4.6472,35.822,12.78,35.822,12.78l-0.19381-5.6398z" fill="url(#linearGradient7098)"/>
<path d="m109.11,169.55s15.103,3.4854,17.427,6.9708" stroke="url(#radialGradient7100)" stroke-dasharray="none" stroke-miterlimit="4" stroke-width="3.12872744" fill="none"/>
<path d="m97.75,284.19,5.4346,3.3117" stroke="url(#radialGradient7102)" stroke-dasharray="none" stroke-miterlimit="4" stroke-width="3.12872744" fill="none"/>
<path d="m112.44,290.6s-4.3306-0.16984-10.02-2.8022" stroke="url(#radialGradient7104)" stroke-dasharray="none" stroke-miterlimit="4" stroke-width="3.12872744" fill="none"/>
<path d="m142.19,163.76,12.199,200.41s15.103,78.422,124.31,75.517,45.655,0.0694,71.27-21.465c25.61-21.53,30.39-53.47,30.39-53.47l23.817-190.54s15.627-27.067,11.618-51.12c-4.0663-24.398-34.273-47.053-34.273-47.053s-44.73-32.531-121.99-30.207-114.44,2.3236-127.8,79.003c0,0-0.58091,16.265,10.456,38.921z" fill="url(#linearGradient7106)"/>
<path d="m280.44,202.1c-99.334-0.58088-127.22-48.215-127.22-48.215,9.5446-59.833,101.63-64.864,112.7-65.061,5.6054-0.09883,33.963,1.0983,62.163,11.107,27.823,9.8745,56.244,23.745,61.222,48.726,1.4092,10.521-1.7852,18.367-5.0586,23.128-11.782,17.136-68.469,29.169-103.8,30.315z" fill="url(#linearGradient7108)"/>
<path d="m243.36,437.25s17.533-142.8,39.153-141.53c21.62,1.2718,22.256,140.49,22.256,140.49s-29.463,7.4016-61.409,1.0428z" fill="url(#radialGradient7110)"/>
<path d="m265.89,227.74s17.417,2.2808,32.036,0c14.618-2.2809-5.7021,47.691-5.7021,47.691s-15.551,2.9029-17.417,3.0066c-1.8661,0.10367-15.448-45.099-15.448-45.099l6.5316-5.5985z" fill="url(#radialGradient7112)"/>
<path d="m261.37,206.98s26.291,1.1793,39.956,0.0694" stroke="url(#radialGradient7114)" stroke-dasharray="none" stroke-miterlimit="4" stroke-width="3.12872744" fill="none"/>
<path d="m258.71,89.584s6.7934-1.0451,17.14-0.31354" stroke="url(#radialGradient7116)" stroke-dasharray="none" stroke-miterlimit="4" stroke-width="3.12872744" fill="none"/>
<path transform="matrix(0.422801,0,0,0.422801,-191.2152,-76.72476)" d="m1111.1,306.34c0,4.2321-12.34,7.6629-27.562,7.6629s-27.562-3.4308-27.562-7.6629,12.34-7.6629,27.562-7.6629,27.562,3.4308,27.562,7.6629z" fill="url(#radialGradient7118)"/>
<path fill="url(#linearGradient7120)" d="m283.38,209.63s-97.49,10.122-148.69-65.38c0,0,3.4721,11.506,7.4901,19.449,0.2267,3.1837,0.34258,3.7729,0.72844,10.496,0.76628,13.351,2.2032,37.759,2.2032,37.759s1.7559,10.456,12.212,4.6472c10.456-5.809,17.427-8.7136,33.112-6.3899,15.684,2.3236,56.929,11.618,91.202,11.037,34.273-0.58091,73.194-12.78,94.106-12.199,20.913,0.5809,18.008,9.8754,18.008,9.8754s4.6472,12.199,5.809-1.7427,4.6472-43.568,4.6472-43.568,2.9046-3.4854,8.1327-20.913-26.722,59.833-128.96,56.929z"/>
<path d="m267.12,124.24s51.7,2.3236,84.812,17.427c33.111,15.103,12.78-10.456,12.78-10.456s-29.626-33.692-93.525-33.692-86.555,27.883-86.555,27.883-20.913,22.074,17.427,8.7136c38.34-13.361,65.061-9.8754,65.061-9.8754z" fill="url(#linearGradient2919)"/>
<path d="m153.26,154.44c-0.37134,0.51575,1.059-56.933,114.44-65.658,26.379-2.0299,148.7,25.427,116.63,83.323,0,0,53.338-42.438-11.489-90.859,0,0-41.825-27.883-105.14-27.302-63.318,0.5809-102.52,31.19-107.47,36.597-4.6472,5.0829-31.369,28.464-6.9708,63.899z" fill="url(#linearGradient2916)"/>
<rect rx="1.339" ry="1.339" height="192.86" width="293.94" y="44.071" x="127.41" fill="url(#radialGradient2913)"/>
</g>
</g>
</g>
</svg>
