<svg xmlns="http://www.w3.org/2000/svg"><symbol viewBox="0 0 100 100" version="1.1" id="issues-open"><g transform="translate(3.9889567e-7,-952.3622)"><path d="m445.48,307.37a179.3,161.12,0,1,1,-358.6,0,179.3,161.12,0,1,1,358.6,0z" transform="matrix(0.25283204,0,0,0.28136483,-17.29762,915.87777)" stroke="#333" stroke-miterlimit="4" stroke-width="34.99354553" fill="none"/><path transform="translate(-3.9889567e-7,952.3622)" fill="#333" d="m45.036,73.88,9.7435,0,0,12.191-9.7435,0,0-12.191m0-59.469,9.7435,0,0,31.438-0.95996,17.135-7.7756,0-1.008-17.135,0-31.438"/></g></symbol><symbol xmlns:rdf="http://www.w3.org/1999/02/22-rdf-syntax-ns#" xmlns:cc="http://creativecommons.org/ns#" xmlns:dc="http://purl.org/dc/elements/1.1/" height="512px" width="512px" version="1.1" preserveAspectRatio="xMidYMid" viewBox="0 0 1 1" id="bitcoin"><metadata><rdf:RDF><cc:Work rdf:about=""><dc:format>image/svg+xml</dc:format><dc:type rdf:resource="http://purl.org/dc/dcmitype/StillImage"/><dc:title/></cc:Work></rdf:RDF></metadata><defs><linearGradient id="coin-gradient" x2="0%" y2="100%"><stop stop-color="#f9aa4b" offset="0"/><stop stop-color="#f7931a" offset="1"/></linearGradient></defs><g transform="scale(0.015625)"><path fill="url(#coin-gradient)" d="m63.0359,39.741c-4.274,17.143-21.637,27.576-38.782,23.301-17.138-4.274-27.571-21.638-23.295-38.78,4.272-17.145,21.635-27.579,38.775-23.305,17.144,4.274,27.576,21.64,23.302,38.784z"/><path fill="#FFF" d="m46.1009,27.441c0.637-4.258-2.605-6.547-7.038-8.074l1.438-5.768-3.511-0.875-1.4,5.616c-0.923-0.23-1.871-0.447-2.813-0.662l1.41-5.653-3.509-0.875-1.439,5.766c-0.764-0.174-1.514-0.346-2.242-0.527l0.004-0.018-4.842-1.209-0.934,3.75s2.605,0.597,2.55,0.634c1.422,0.355,1.679,1.296,1.636,2.042l-1.638,6.571c0.098,0.025,0.225,0.061,0.365,0.117-0.117-0.029-0.242-0.061-0.371-0.092l-2.296,9.205c-0.174,0.432-0.615,1.08-1.609,0.834,0.035,0.051-2.552-0.637-2.552-0.637l-1.743,4.019,4.569,1.139c0.85,0.213,1.683,0.436,2.503,0.646l-1.453,5.834,3.507,0.875,1.439-5.772c0.958,0.26,1.888,0.5,2.798,0.726l-1.434,5.745,3.511,0.875,1.453-5.823c5.987,1.133,10.489,0.676,12.384-4.739,1.527-4.36-0.076-6.875-3.226-8.515,2.294-0.529,4.022-2.038,4.483-5.155zm-8.022,11.249c-1.085,4.36-8.426,2.003-10.806,1.412l1.928-7.729c2.38,0.594,10.012,1.77,8.878,6.317zm1.086-11.312c-0.99,3.966-7.1,1.951-9.082,1.457l1.748-7.01c1.982,0.494,8.365,1.416,7.334,5.553z"/></g></symbol><symbol xml:space="preserve" version="1.1" viewBox="0 0 341.7375 277.725" width="100%" height="100%" id="twitter"><g transform="matrix(1.25,0,0,-1.25,0,277.725)"><g transform="scale(0.1,0.1)"><path fill-rule="nonzero" fill="#6babe1" d="M859.797,0c-316.75,0-611.574,92.8516-859.797,251.988,43.8789-5.179,88.5273-7.828,133.801-7.828,262.781,0,504.629,89.672,696.59,240.102-245.442,4.527-452.578,166.687-523.953,389.527,34.246-6.551,69.382-10.059,105.527-10.059,51.148,0,100.703,6.852,147.769,19.668-256.589,51.524-449.929,278.222-449.929,549.982,0,2.37,0.008,4.71,0.047,7.05,75.628-42.01,162.113-67.24,254.054-70.15-150.5,100.58-249.519,272.26-249.519,466.85,0,102.8,27.652,199.14,75.933,281.98,276.645-339.34,689.934-562.64,1156.09-586.03-9.56,41.05-14.53,83.86-14.53,127.82,0,309.75,251.14,560.88,560.91,560.88,161.32,0,307.09-68.12,409.41-177.13,127.76,25.16,247.8,71.84,356.17,136.12-41.88-130.98-130.81-240.9-246.62-310.32,113.46,13.56,221.56,43.71,322.15,88.32-75.2-112.48-170.3-211.27-279.88-290.35,1.08-24.05,1.62-48.24,1.62-72.56,0-741.188-564.16-1595.86-1595.843-1595.86"/></g></g></symbol><symbol xmlns:rdf="http://www.w3.org/1999/02/22-rdf-syntax-ns#" xmlns:cc="http://creativecommons.org/ns#" xmlns:dc="http://purl.org/dc/elements/1.1/" xml:space="preserve" height="100%" viewBox="0 0 266.893 266.895" width="100%" version="1.1" y="0px" x="0px" id="Facebook"><path d="M248.08,262.31c7.854,0,14.223-6.369,14.223-14.225v-229.27c0-7.857-6.368-14.224-14.223-14.224h-229.27c-7.857,0-14.224,6.367-14.224,14.224v229.27c0,7.855,6.366,14.225,14.224,14.225h229.27z" fill="#3C5A99"/><path d="M182.41,262.31v-99.803h33.499l5.016-38.895h-38.515v-24.843c0-11.261,3.127-18.935,19.275-18.935l20.596-0.009v-34.788c-3.562-0.474-15.788-1.533-30.012-1.533-29.695,0-50.025,18.126-50.025,51.413v28.684h-33.585v38.895h33.585v99.803h40.149z" fill="#FFF"/></symbol><symbol xmlns:rdf="http://www.w3.org/1999/02/22-rdf-syntax-ns#" xmlns:cc="http://creativecommons.org/ns#" xmlns:dc="http://purl.org/dc/elements/1.1/" enable-background="new 0 0 134.658 131.646" xml:space="preserve" height="100%" viewBox="0 0 134.658 131.646" width="100%" version="1.1" y="0px" x="0px" id="Google_plus"><metadata><rdf:RDF><cc:Work rdf:about=""><dc:format>image/svg+xml</dc:format><dc:type rdf:resource="http://purl.org/dc/dcmitype/StillImage"/><dc:title/></cc:Work></rdf:RDF></metadata><path d="M126.52,4.109h-118.38c-2.177,0-3.94,1.763-3.94,3.938v115.55c0,2.179,1.763,3.942,3.94,3.942h118.37c2.177,0,3.94-1.764,3.94-3.942v-115.54c0-2.176-1.77-3.939-3.94-3.939z" fill="#DC4A38"/><path d="M70.479,71.845l-3.983-3.093c-1.213-1.006-2.872-2.334-2.872-4.765,0-2.441,1.659-3.993,3.099-5.43,4.64-3.652,9.276-7.539,9.276-15.73,0-8.423-5.3-12.854-7.84-14.956h6.849l7.189-4.517h-21.779c-5.976,0-14.588,1.414-20.893,6.619-4.752,4.1-7.07,9.753-7.07,14.842,0,8.639,6.633,17.396,18.346,17.396,1.106,0,2.316-0.109,3.534-0.222-0.547,1.331-1.1,2.439-1.1,4.32,0,3.431,1.763,5.535,3.317,7.528-4.977,0.342-14.268,0.893-21.117,5.103-6.523,3.879-8.508,9.525-8.508,13.51,0,8.202,7.731,15.842,23.762,15.842,19.01,0,29.074-10.519,29.074-20.932,0.001-7.649-4.419-11.415-9.284-15.513zm-14.479-12.738c-9.51,0-13.818-12.294-13.818-19.712,0-2.888,0.547-5.87,2.428-8.199,1.773-2.218,4.861-3.657,7.744-3.657,9.168,0,13.923,12.404,13.923,20.382,0,1.996-0.22,5.533-2.762,8.09-1.778,1.774-4.753,3.096-7.515,3.096zm0.109,44.543c-11.826,0-19.452-5.657-19.452-13.523,0-7.864,7.071-10.524,9.504-11.405,4.64-1.561,10.611-1.779,11.607-1.779,1.105,0,1.658,0,2.538,0.111,8.407,5.983,12.056,8.965,12.056,14.629,0,6.859-5.639,11.967-16.253,11.967z" fill="#FFF"/><polygon points="98.393,58.938,98.393,47.863,92.923,47.863,92.923,58.938,81.866,58.938,81.866,64.469,92.923,64.469,92.923,75.612,98.393,75.612,98.393,64.469,109.51,64.469,109.51,58.938" fill="#FFF"/></symbol><symbol xmlns:rdf="http://www.w3.org/1999/02/22-rdf-syntax-ns#" xmlns:cc="http://creativecommons.org/ns#" xmlns:dc="http://purl.org/dc/elements/1.1/" id="github" xml:space="preserve" viewBox="0 0 150.97 147.24187" version="1.1"><metadata id="metadata8"><rdf:RDF><cc:Work rdf:about=""><dc:format>image/svg+xml</dc:format><dc:type rdf:resource="http://purl.org/dc/dcmitype/StillImage"/><dc:title>GitHub Octocat Mark</dc:title><dc:date>2014-04-19</dc:date><dc:creator><cc:Agent><dc:title>shgysk8zer0</dc:title></cc:Agent></dc:creator><dc:publisher><cc:Agent><dc:title/></cc:Agent></dc:publisher><dc:source>https://github.com/logos</dc:source><dc:subject><rdf:Bag><rdf:li>GitHub</rdf:li><rdf:li>Octocat</rdf:li><rdf:li>Git</rdf:li></rdf:Bag></dc:subject><dc:description>GitHub Octocat Mark logo</dc:description></cc:Work></rdf:RDF></metadata><defs id="defs6"/><g id="g10" fill="#1b1817" transform="matrix(1.25,0,0,-1.25,-395.09235,565.13009)"><path id="path28" d="m376.46188,452.10407c-33.347,0-60.388-27.035-60.388-60.388,0-26.68,17.303-49.316,41.297-57.301,3.018-0.559,4.126,1.31,4.126,2.905,0,1.439-0.056,6.197-0.082,11.243-16.8-3.653-20.345,7.125-20.345,7.125-2.747,6.979-6.705,8.836-6.705,8.836-5.479,3.748,0.413,3.671,0.413,3.671,6.064-0.426,9.257-6.224,9.257-6.224,5.386-9.231,14.127-6.562,17.573-5.019,0.543,3.902,2.107,6.567,3.834,8.075-13.413,1.526-27.513,6.705-27.513,29.844,0,6.592,2.359,11.98,6.222,16.209-0.627,1.521-2.694,7.663,0.586,15.981,0,0,5.071,1.622,16.61-6.191,4.817,1.338,9.983,2.009,15.115,2.033,5.132-0.024,10.302-0.695,15.128-2.033,11.526,7.813,16.59,6.191,16.59,6.191,3.287-8.318,1.22-14.46,0.593-15.981,3.872-4.229,6.214-9.617,6.214-16.209,0-23.195-14.127-28.301-27.574-29.796,2.166-1.874,4.096-5.549,4.096-11.183,0-8.08-0.069-14.583-0.069-16.572,0-1.608,1.086-3.49,4.147-2.898,23.982,7.994,41.263,30.622,41.263,57.294,0,33.353-27.037,60.388-60.388,60.388" fill-rule="evenodd"/><path id="path32" d="m338.94628,365.40088c-0.133-0.301-0.605-0.391-1.035-0.185-0.439,0.198-0.684,0.607-0.542,0.908,0.13,0.308,0.602,0.394,1.04,0.188,0.438-0.197,0.688-0.61,0.537-0.911" fill-rule="nonzero"/><path id="path36" d="m341.39258,362.67237c-0.288-0.267-0.852-0.143-1.233,0.279-0.396,0.421-0.469,0.985-0.177,1.255,0.297,0.267,0.843,0.142,1.238-0.279,0.396-0.426,0.473-0.984,0.172-1.255" fill-rule="nonzero"/><path id="path40" d="m343.77348,359.19488c-0.37-0.25801-0.976-0.017-1.35,0.52-0.37,0.538-0.37,1.18199,0.009,1.44,0.374,0.25799,0.971,0.025,1.35-0.50701,0.369-0.54599,0.369-1.18999-0.009-1.45299" fill-rule="nonzero"/><path id="path44" d="m347.03518,355.83448c-0.331-0.365-1.036-0.267-1.552,0.232-0.528,0.486-0.675,1.177-0.344,1.542,0.336,0.366,1.045,0.263,1.565-0.231,0.524-0.486,0.683-1.182,0.331-1.543" fill-rule="nonzero"/><path id="path48" d="m351.53518,353.88337c-0.147-0.473-0.825-0.687-1.509-0.486-0.683,0.207-1.13,0.76-0.992,1.238,0.142,0.476,0.824,0.7,1.513,0.485,0.682-0.206,1.13-0.756,0.988-1.237" fill-rule="nonzero"/><path id="path52" d="m356.47758,353.52197c0.017-0.498-0.563-0.911-1.281-0.92-0.722-0.016-1.307,0.387-1.315,0.877,0,0.503,0.568,0.911,1.289,0.924,0.718,0.014,1.307-0.387,1.307-0.881" fill-rule="nonzero"/><path id="path56" d="m361.07618,354.30428c0.086-0.485-0.413-0.984-1.126-1.117-0.701-0.129-1.35,0.172-1.439,0.653-0.087,0.498,0.42,0.997,1.121,1.126,0.714,0.124,1.353-0.168,1.444-0.662" fill-rule="nonzero"/></g></symbol><symbol viewBox="0 0 99.999597 100.0002" height="100%" width="100%" version="1.1" id="copyleft"><g transform="matrix(0.10204037,0,0,0.10204106,1.7249971e-5,-1.7250029e-5)"><circle stroke-width="100" d="M 930,490 C 930,733.00529 733.00529,930 490,930 246.99471,930 50,733.00529 50,490 50,246.99471 246.99471,50 490,50 733.00529,50 930,246.99471 930,490 z" cy="490" stroke="#333" cx="490" r="440" fill="none"/><path d="m486,215c-130,0-239,91-267,213h131c24-52,76-88,136-88,83,0,150,67,150,150s-67,150-150,150c-60,0-112-36-136-87h-131c28,121,137,212,267,212,152,0,275-123,275-275s-123-275-275-275z" fill="#333"/></g></symbol><symbol xmlns:rdf="http://www.w3.org/1999/02/22-rdf-syntax-ns#" xmlns:cc="http://creativecommons.org/ns#" xmlns:dc="http://purl.org/dc/elements/1.1/" version="1.0" viewBox="0 0 120 42" id="CreativeCommons"><metadata><rdf:RDF><cc:Work rdf:about=""><dc:format>image/svg+xml</dc:format><dc:type rdf:resource="http://purl.org/dc/dcmitype/StillImage"/><dc:title/></cc:Work></rdf:RDF></metadata><g><g transform="matrix(0.9937807,0,0,0.9936694,-177.69409,-74.436409)"><path fill="#aab2ab" nodetypes="ccccccc" d="M182.24,75.39l114.06,0.203c1.59,0,3.02-0.237,3.02,3.18l-0.14,37.567h-119.82v-37.706c0-1.685,0.16-3.244,2.88-3.244z"/><g transform="matrix(0.872921,0,0,0.872921,50.12536,143.2144)"><path d="M187.21-55.679c0.01,8.68-7.03,15.721-15.71,15.727-8.68,0.005-15.72-7.028-15.73-15.708v-0.019c0-8.682,7.03-15.722,15.71-15.727,8.68-0.006,15.72,7.028,15.73,15.708v0.019z" rx="22.939548" ry="22.939548" cy="264.3577" cx="296.35416" type="arc" fill="#FFF"/><g transform="translate(-289.6157,99.0653)"><path d="M473.88-167.55c3.49,3.49,5.23,7.76,5.23,12.81,0,5.04-1.71,9.27-5.14,12.66-3.63,3.58-7.93,5.37-12.88,5.37-4.9,0-9.12-1.78-12.67-5.32-3.55-3.55-5.32-7.79-5.32-12.71,0-4.93,1.77-9.2,5.32-12.81,3.46-3.48,7.68-5.23,12.67-5.23,5.04,0,9.31,1.75,12.79,5.23zm-23.11,2.35c-2.95,2.97-4.42,6.46-4.42,10.46s1.46,7.46,4.37,10.37c2.92,2.92,6.39,4.38,10.42,4.38s7.53-1.48,10.5-4.42c2.83-2.74,4.24-6.18,4.24-10.33,0-4.12-1.43-7.61-4.3-10.48-2.87-2.88-6.35-4.31-10.44-4.31s-7.55,1.44-10.37,4.33zm7.75,8.7c-0.45-0.98-1.12-1.47-2.02-1.47-1.59,0-2.39,1.07-2.39,3.21s0.8,3.21,2.39,3.21c1.05,0,1.8-0.53,2.25-1.57l2.2,1.17c-1.05,1.87-2.63,2.8-4.73,2.8-1.62,0-2.91-0.49-3.89-1.49-0.97-0.99-1.46-2.36-1.46-4.1,0-1.72,0.5-3.08,1.51-4.09,1-1.01,2.25-1.51,3.75-1.51,2.22,0,3.81,0.87,4.78,2.62l-2.39,1.22zm10.36,0c-0.45-0.98-1.11-1.47-1.98-1.47-1.62,0-2.43,1.07-2.43,3.21s0.81,3.21,2.43,3.21c1.05,0,1.79-0.53,2.21-1.57l2.25,1.17c-1.05,1.87-2.62,2.8-4.72,2.8-1.61,0-2.91-0.49-3.88-1.49-0.98-0.99-1.46-2.36-1.46-4.1,0-1.72,0.49-3.08,1.48-4.09s2.25-1.51,3.77-1.51c2.22,0,3.81,0.87,4.77,2.62l-2.44,1.22z"/></g></g><path d="M297.3,74.911h-116.23c-1.25,0-2.26,1.014-2.26,2.261v39.498c0,0.28,0.22,0.51,0.51,0.51h119.73c0.28,0,0.51-0.23,0.51-0.51v-39.498c0-1.247-1.02-2.261-2.26-2.261zm-116.23,1.021h116.23c0.68,0,1.24,0.556,1.24,1.24v27.418h-83.08c-3.04,5.51-8.91,9.24-15.64,9.24-6.74,0-12.6-3.73-15.65-9.24h-4.34v-27.418c0-0.684,0.55-1.24,1.24-1.24z"/><g enable-background="new    " fill="#FFF"><path d="M265.61,112.88c0.08,0.16,0.19,0.29,0.32,0.38,0.13,0.1,0.29,0.17,0.47,0.22,0.18,0.04,0.37,0.07,0.56,0.07,0.13,0,0.27-0.01,0.42-0.04,0.15-0.02,0.29-0.06,0.42-0.12s0.24-0.15,0.32-0.26c0.09-0.11,0.13-0.25,0.13-0.41,0-0.18-0.05-0.33-0.17-0.44-0.11-0.12-0.26-0.21-0.45-0.28-0.19-0.08-0.4-0.14-0.63-0.2-0.24-0.06-0.48-0.12-0.72-0.19-0.25-0.06-0.49-0.13-0.73-0.22-0.23-0.09-0.45-0.21-0.63-0.35-0.19-0.15-0.34-0.33-0.45-0.54-0.12-0.22-0.18-0.48-0.18-0.78,0-0.34,0.08-0.64,0.22-0.89,0.15-0.25,0.34-0.46,0.58-0.63,0.23-0.17,0.5-0.3,0.8-0.38s0.59-0.12,0.89-0.12c0.35,0,0.69,0.04,1.01,0.12,0.31,0.08,0.6,0.2,0.85,0.38,0.25,0.17,0.44,0.4,0.59,0.67s0.22,0.6,0.22,0.98h-1.42c-0.01-0.2-0.06-0.36-0.13-0.49s-0.16-0.24-0.28-0.31c-0.12-0.08-0.25-0.13-0.4-0.16-0.16-0.03-0.32-0.05-0.5-0.05-0.12,0-0.24,0.02-0.35,0.04-0.12,0.03-0.23,0.07-0.32,0.13-0.1,0.06-0.18,0.14-0.24,0.23-0.06,0.1-0.09,0.22-0.09,0.36,0,0.13,0.02,0.24,0.07,0.32s0.15,0.15,0.29,0.22c0.15,0.07,0.35,0.14,0.61,0.21s0.59,0.15,1.01,0.26c0.12,0.02,0.3,0.07,0.52,0.13,0.22,0.07,0.44,0.17,0.65,0.32,0.22,0.14,0.41,0.33,0.57,0.57s0.24,0.55,0.24,0.92c0,0.31-0.06,0.59-0.18,0.85s-0.3,0.49-0.53,0.68-0.52,0.33-0.87,0.44c-0.34,0.11-0.74,0.16-1.2,0.16-0.36,0-0.72-0.05-1.06-0.14-0.35-0.09-0.65-0.23-0.92-0.42-0.26-0.2-0.47-0.44-0.63-0.74-0.15-0.3-0.23-0.65-0.22-1.07h1.42c0,0.23,0.04,0.42,0.12,0.57z"/><path d="M273.87,107.87l2.49,6.66h-1.52l-0.51-1.48h-2.49l-0.52,1.48h-1.48l2.52-6.66h1.51zm0.08,4.08l-0.84-2.44h-0.02l-0.87,2.44h1.73z"/></g><g enable-background="new    " fill="#FFF"><path d="M239.18,107.87c0.32,0,0.61,0.03,0.87,0.08,0.26,0.06,0.48,0.15,0.67,0.28,0.19,0.12,0.33,0.29,0.44,0.5,0.1,0.22,0.15,0.48,0.15,0.79,0,0.33-0.08,0.61-0.23,0.84-0.15,0.22-0.38,0.4-0.68,0.55,0.41,0.12,0.72,0.32,0.93,0.62,0.2,0.29,0.3,0.65,0.3,1.07,0,0.33-0.07,0.63-0.2,0.87-0.13,0.25-0.3,0.45-0.52,0.6-0.23,0.16-0.48,0.27-0.76,0.35-0.29,0.07-0.58,0.11-0.88,0.11h-3.23v-6.66h3.14zm-0.19,2.69c0.26,0,0.48-0.06,0.65-0.18,0.16-0.13,0.25-0.33,0.25-0.61,0-0.15-0.03-0.28-0.09-0.38-0.05-0.1-0.13-0.18-0.22-0.23-0.09-0.06-0.2-0.1-0.32-0.12s-0.25-0.03-0.38-0.03h-1.37v1.55h1.48zm0.09,2.83c0.14,0,0.28-0.01,0.41-0.04s0.24-0.08,0.34-0.14c0.1-0.07,0.18-0.16,0.24-0.27s0.09-0.25,0.09-0.43c0-0.34-0.1-0.58-0.29-0.73-0.19-0.14-0.45-0.22-0.77-0.22h-1.59v1.83h1.57z"/><path d="M241.89,107.87h1.64l1.56,2.63,1.55-2.63h1.64l-2.48,4.1v2.56h-1.46v-2.59l-2.45-4.07z"/></g><g transform="matrix(0.624995,0,0,0.624995,391.2294,176.9332)"><path d="M-175.01-139.12c0.01,9.42-7.62,17.05-17.03,17.06s-17.05-7.62-17.05-17.03v-0.03c-0.01-9.41,7.62-17.04,17.03-17.05s17.05,7.62,17.05,17.03v0.02z" rx="29.209877" ry="29.209877" cy="252.08646" cx="475.97119" type="arc" fill="#FFF"/><g transform="translate(-23.9521,-89.72962)"><path d="M-168.22-68.055c-5.17,0-9.55,1.804-13.13,5.413-3.68,3.734-5.52,8.153-5.52,13.256s1.84,9.492,5.52,13.163c3.67,3.672,8.05,5.508,13.13,5.508,5.14,0,9.59-1.852,13.37-5.555,3.55-3.516,5.32-7.888,5.32-13.116,0-5.226-1.8-9.647-5.42-13.256-3.61-3.609-8.04-5.413-13.27-5.413zm0.05,3.36c4.23,0,7.83,1.493,10.79,4.48,2.99,2.957,4.49,6.566,4.49,10.829,0,4.294-1.46,7.857-4.39,10.689-3.09,3.05-6.72,4.574-10.89,4.574-4.18,0-7.78-1.509-10.8-4.527-3.02-3.019-4.53-6.597-4.53-10.736,0-4.138,1.52-7.748,4.58-10.829,2.93-2.987,6.51-4.48,10.75-4.48z"/><path d="M-176.5-52.021c0.75-4.698,4.06-7.208,8.2-7.208,5.96,0,9.59,4.325,9.59,10.092,0,5.627-3.86,9.999-9.68,9.999-4.01,0-7.59-2.465-8.25-7.301h4.71c0.14,2.511,1.77,3.395,4.1,3.395,2.65,0,4.37-2.465,4.37-6.233,0-3.952-1.49-6.045-4.28-6.045-2.05,0-3.82,0.744-4.19,3.301l1.37-0.007-3.71,3.702-3.7-3.702,1.47,0.007z"/></g></g><g><circle d="m 253.36866,90.224609 c 0,5.96821 -4.83819,10.806401 -10.8064,10.806401 -5.96821,0 -10.8064,-4.838191 -10.8064,-10.806401 0,-5.96821 4.83819,-10.8064 10.8064,-10.8064 5.96821,0 10.8064,4.83819 10.8064,10.8064 z" cy="90.225" cx="242.56" r="10.806" fill="#FFF"/><g><path d="M245.69,87.098c0-0.417-0.34-0.754-0.75-0.754h-4.78c-0.41,0-0.75,0.337-0.75,0.754v4.773h1.33v5.652h3.62v-5.652h1.33v-4.773z"/><circle d="m 244.18212,84.083008 c 0,0.901505 -0.73081,1.63232 -1.63232,1.63232 -0.9015,0 -1.63232,-0.730815 -1.63232,-1.63232 0,-0.901506 0.73082,-1.63232 1.63232,-1.63232 0.90151,0 1.63232,0.730814 1.63232,1.63232 z" cy="84.083" cx="242.55" r="1.6323"/></g><path fill-rule="evenodd" clip-rule="evenodd" d="M242.53,78.318c-3.23,0-5.96,1.128-8.2,3.384-2.3,2.333-3.45,5.095-3.45,8.284s1.15,5.932,3.45,8.227c2.29,2.297,5.03,3.447,8.2,3.447,3.22,0,6-1.16,8.36-3.476,2.22-2.197,3.33-4.93,3.33-8.198,0-3.267-1.13-6.028-3.39-8.284s-5.02-3.384-8.3-3.384zm0.03,2.1c2.65,0,4.9,0.934,6.75,2.801,1.87,1.847,2.81,4.103,2.81,6.767,0,2.684-0.92,4.911-2.75,6.681-1.93,1.906-4.2,2.858-6.81,2.858s-4.85-0.942-6.74-2.829c-1.89-1.886-2.84-4.123-2.84-6.71,0-2.586,0.96-4.842,2.87-6.767,1.83-1.867,4.07-2.801,6.71-2.801z"/></g></g></g></symbol><symbol xmlns:rdf="http://www.w3.org/1999/02/22-rdf-syntax-ns#" xmlns:cc="http://creativecommons.org/ns#" xmlns:dc="http://purl.org/dc/elements/1.1/" id="YouTube" height="100%" viewBox="0 0 100 99.148132" width="100%" version="1.1" y="0px" x="0px"><metadata id="metadata27"><rdf:RDF><cc:Work rdf:about=""><dc:format>image/svg+xml</dc:format><dc:type rdf:resource="http://purl.org/dc/dcmitype/StillImage"/><dc:title/></cc:Work></rdf:RDF></metadata><defs id="defs25"/><path id="rect1942" fill="#e5e5e5" d="M84.18401,0h-69.21103c-8.26938,0-14.97298,6.7036-14.97298,14.97298v69.2026c0,8.26937,6.7036,14.97255,14.97298,14.97255h69.21019c8.2698,0,14.97297-6.7036,15.81683-14.69113v-69.20217c-0.84344-8.55081-7.54746-15.25483-15.81599-15.25483z"/><g id="g12" transform="matrix(0.42192847,0,0,0.42192847,-162.07876,-138.75075)"><path id="path14" d="m433.279,353.763h15.304l1.97,7.879,1.667,5.818,1.364,5.697,1.364,5.939,1.061,4.97h0.606l1.061-4.97,1.212-5.939,1.515-5.697,1.515-5.818,2.121-7.879h14.849l-15.758,47.274v33.577h-14.091v-33.577l-15.76-47.274z"/><path id="path16" d="m497.826,373.642c11.97,0,18.031,5.697,18.031,16.97v27.88c0,11.273-6.061,16.97-18.031,16.97s-18.031-5.697-18.031-16.97v-27.88c0-11.272,6.06-16.97,18.031-16.97zm0,9.698c-3.182,0-4.849,1.939-4.849,5.576v31.272c0,3.515,1.818,5.576,4.849,5.576s4.849-2.061,4.849-5.576v-31.272c-0.001-3.637-1.819-5.576-4.849-5.576z"/><path id="path18" d="m553.433,434.614-1.061-5.212c-5.455,4.485-8.638,6.061-12.426,6.061-3.182,0-6.515-1.455-8.029-3.394-1.668-2.061-2.121-4.243-2.121-10.425v-47.274h13.182v46.911c0,3.03,1.061,4.485,3.484,4.485,1.668,0,3.183-0.606,5.91-2.424v-48.972h13.183v60.244h-12.122z"/></g><path id="rect3708" fill="#cb322c" d="m21.1998,49.25382h56.14813c8.26979,0,14.97339,6.70698,14.97339,14.97678v13.05488c0,8.2698-6.70444,14.97298-14.97339,14.97298h-56.14813c-8.26938,0-14.97298-6.70444-14.97298-14.97298v-13.05488c0-8.2698,6.7036-14.97678,14.97298-14.97678z"/><g id="g26" fill="#linearGradient3805" transform="matrix(0.42192847,0,0,0.42192847,-4.4285612,-4.43235)"><g id="g20" fill="#FFF"><path id="path28" d="M56.337,150.482h-11.983v-9.588h37.328v9.588h-12.535v63.914h-12.81v-63.914z"/><path id="path30" d="m105.372,214.396-0.964-4.737c-4.958,4.077-7.851,5.51-11.294,5.51-2.893,0-5.923-1.321-7.3-3.086-1.515-1.873-1.929-3.856-1.929-9.478v-42.978h11.984v42.646c0,2.756,0.964,4.078,3.168,4.078,1.515,0,2.893-0.552,5.372-2.203v-44.521h11.984v54.77h-11.021v-0.001z"/><path id="path32" d="m129.34,140.895h11.983v23.914c4.683-4.188,7.851-5.841,11.433-5.841,2.756,0,5.785,1.322,7.162,3.085,1.516,1.983,1.93,3.969,1.93,9.809v30.414c0,5.73-0.414,7.715-1.93,9.697-1.377,1.875-4.406,3.196-7.3,3.196-3.582,0-6.612-1.653-11.295-5.951v5.181h-11.983v-73.504zm17.355,65.459c2.203,0,3.168-1.322,3.168-4.078v-30.416c0-2.864-0.965-4.076-3.168-4.076-1.516,0-2.894,0.551-5.372,2.203v34.162c2.48,1.653,3.857,2.205,5.372,2.205z"/><path id="path34" d="m207.163,195.223v1.983c0.138,1.433,0.138,2.425,0.138,2.976,0,9.697-5.923,14.987-16.805,14.987-10.33,0-16.115-5.51-16.115-15.428v-25.456c0-10.358,5.51-15.317,16.666-15.317,9.918,0,16.116,5.179,16.116,13.664v16.089h-20.799v12.012c0,3.969,1.239,5.621,4.407,5.621,1.516,0,2.893-0.662,3.58-1.652,0.689-0.992,0.828-2.204,0.828-6.171v-3.308h11.984zm-11.983-14.216v-9.257c0-2.534-1.652-3.967-4.408-3.967-2.754,0-4.406,1.433-4.406,3.967v9.257h8.814z"/></g></g></symbol><symbol xmlns:rdf="http://www.w3.org/1999/02/22-rdf-syntax-ns#" xmlns:cc="http://creativecommons.org/ns#" xmlns:dc="http://purl.org/dc/elements/1.1/" id="info" version="1.1" xml:space="preserve" height="100%" width="100%" enable-background="new 0 0 22 22" y="0px" x="0px" viewBox="0 0 100 100"><metadata id="metadata12"><rdf:RDF><cc:Work rdf:about=""><dc:format>image/svg+xml</dc:format><dc:type rdf:resource="http://purl.org/dc/dcmitype/StillImage"/><dc:title/></cc:Work></rdf:RDF></metadata><g id="g4" fill="#333" transform="matrix(5.5555556,0,0,5.5555556,-11.111111,-11.111111)"><path id="path6" d="m11,2c-4.971,0-9,4.03-9,9s4.029,9,9,9,9-4.03,9-9-4.029-9-9-9zm1.007,15.01h-2.004v-8.009h2.004v8.009zm-0.13-10.107c-0.245,0.224-0.534,0.336-0.868,0.336-0.346,0-0.64-0.112-0.885-0.336-0.244-0.223-0.367-0.525-0.367-0.905,0-0.392,0.123-0.699,0.367-0.924,0.245-0.223,0.539-0.335,0.885-0.335,0.334,0,0.623,0.112,0.868,0.335,0.244,0.225,0.366,0.532,0.366,0.924,0,0.38-0.122,0.682-0.366,0.905z" fill="#333"/></g></symbol><symbol height="100%" width="100%" version="1.1" viewBox="0 0 90 85" id="people"><g id="g4" fill="#333" transform="translate(0,-967.3622)"><g id="g6" fill="#333" transform="matrix(1.25,0,0,1.25,0,-263.09055)" fill-rule="nonzero"><path id="path8" d="m23.989,984.36c-13.993,0-15.992,5.6375-15.992,16.905v1.879c0,8.3244,8.9482,25.228,16.005,25.228,7.0569,0,15.978-16.904,15.978-25.228v-1.879c0-11.268-1.999-16.905-15.992-16.905z"/><path id="path10" d="M12.25,1024.4c-9.7854,0.2-12.25,1.9-12.25,13.2v9.7499c0,5.003,1.5918,5,6.375,5h35.25c4.7986,0,6.375,0,6.375-4.875v-9.8749c0-11.318-2.5144-12.786-12.375-13-1.0678,1.4295-2.1486,2.8515-3.375,4-2.2444,2.102-4.854,3.8749-8.25,3.8749s-6.1437-1.7684-8.375-3.8749c-1.2828-1.211-2.2998-2.7345-3.375-4.25z"/><path id="path12" d="m55.898,996.36c-10.459,0-11.954,3.9945-11.954,11.977v1.3315c0,5.898,6.6886,17.875,11.963,17.875,5.2749,0,11.944-11.977,11.944-17.875v-1.3315c0-7.9829-1.4942-11.977-11.954-11.977z"/><path id="path14" d="m65.875,1024.9c-0.95518,1.3265-1.9457,2.577-3.125,3.625-1.7603,1.5645-3.9631,2.875-6.75,2.875-1.8153,0-3.3914-0.555-4.75-1.375,0.46445,2.1914,0.625,4.7474,0.625,7.6249v6.75h15.625c3.3655,0,4.5-0.05,4.5-3.5v-7c0-6.8974-1.3663-8.5519-6.125-8.9999z"/></g></g></symbol><symbol viewBox="0 0 100 57.183002" version="1.1" id="envelope"><g transform="translate(-351.98213,-78.363175)"><g fill="#333" transform="matrix(1.2996183,0,0,1.2996138,-120.44121,-17.832957)"><path d="m50.000004,42.584434,37.224669-31.057268-74.449339,0,37.22467,31.057268" transform="translate(351.98213,62.491848)"/><path d="m363.5093,77.049851,36.19677,30.249629,4.47871,0,36.27019-30.249629,0,40.969159-76.94567,0,0-40.969159"/></g></g></symbol></svg>