<svg xmlns:rdf="http://www.w3.org/1999/02/22-rdf-syntax-ns#" xmlns="http://www.w3.org/2000/svg" version="1.1" xmlns:cc="http://creativecommons.org/ns#" xmlns:dc="http://purl.org/dc/elements/1.1/" viewBox="0 0 100 98.34" width="100%" height="100%"><g transform="translate(0,-954.0222)"><g transform="matrix(5.5555555,0,0,5.5555555,-1894.4422,-5797.6377)"><g fill="#FFF" transform="matrix(-0.50055933,0,0,0.50274125,359.02394,779.74862)"><path style="enable-background:accumulate;color:black;" d="m17.78,866.36c-0.72106,0.068-1.4131,0.408-1.9062,0.9375l-15.031,15.031c-0.66238,0.7113-0.93986,1.7728-0.71875,2.7187,0.20547,0.8789,0.83816,1.6189,1.6563,2l14.368-15.15c1.6168-1.6098,2.1528-1.6043,3.7481-0.016l14.414,15.168c0.8098-0.388,1.426-1.1554,1.625-2.0313,0.21481-0.945-0.0549-1.9803-0.71875-2.6874l-15.031-15.031c-0.60766-0.6498-1.5184-1.0046-2.4062-0.9375zm-1.0987,7.7248-12.654,13.357-0.00148,4.1157c-0.00287,8.0057-0.0162,10,7,10l3.0435-0.0312v-10.387c0-1.5977,0.37685-1.5977,1.9772-1.5977h3.9616c1.63,0.00002,2.0523,0.00002,2.0523,1.5862v10.399l2.9342,0.0312c7.0158,0.0746,7.0312-1.9943,7.0312-10l0.0015-4.1157-12.654-13.36c-1.1034-1.0986-1.5811-1.1035-2.6933,0.004z" fill-rule="nonzero" fill="#FFF"/></g></g></g></svg>
