<!-- Created with Inkscape (http://www.inkscape.org/) -->
<svg id="svg2" xmlns:rdf="http://www.w3.org/1999/02/22-rdf-syntax-ns#" xmlns="http://www.w3.org/2000/svg" height="100%" width="100%" version="1.1" xmlns:cc="http://creativecommons.org/ns#" xmlns:dc="http://purl.org/dc/elements/1.1/" viewBox="0 0 100 95">
<metadata id="metadata6">
<rdf:RDF>
<cc:Work rdf:about="">
<dc:format>image/svg+xml</dc:format>
<dc:type rdf:resource="http://purl.org/dc/dcmitype/StillImage"/>
<dc:title/>
</cc:Work>
</rdf:RDF>
</metadata>
<g id="g8" transform="translate(0,-957.36218)">
<g id="g10" fill="#505050" transform="matrix(0.21556702,0,0,0.21646154,-9.1269535,897.54483)" fill-opacity="0.90588236">
<path id="path12" d="m437.15,499.44,0,0zl-162.82-144.19-162.9,144.25v206.12c0,5.3234,4.3016,9.5938,9.625,9.5938h101.81v-90.375c0-5.3234,4.2704-9.625,9.5938-9.625h83.656c5.3234,0,9.5938,4.3016,9.5938,9.625v90.375h101.84c5.3234,0,9.5938-4.2704,9.5938-9.5938v-206.19zm-325.72,0.0625z"/>
<path id="path14" d="M273.39,276.34,42.339,480.93,66.678,508.38,274.33,324.5,481.94,508.38,506.23,480.93,275.23,276.34l-0.89792,1.0397-0.94518-1.0397z"/>
<path id="path16" d="m111.43,305.79,58.571,0-0.51038,34.691-58.061,52.452,0-87.143z"/>
</g>
</g>
</svg>
