<svg xmlns:rdf="http://www.w3.org/1999/02/22-rdf-syntax-ns#" xmlns="http://www.w3.org/2000/svg" enable-background="new 0 0 22 22" xml:space="preserve" width="100%" height="100%" viewBox="0 0 100 100" version="1.1" y="0px" x="0px" xmlns:cc="http://creativecommons.org/ns#" xmlns:dc="http://purl.org/dc/elements/1.1/"><g transform="matrix(5.5555556,0,0,5.5555556,-11.111111,-11.111111)"><path fill="#FFF" d="m11,2c-4.971,0-9,4.03-9,9s4.029,9,9,9,9-4.03,9-9-4.029-9-9-9zm1.007,15.01h-2.004v-8.009h2.004v8.009zm-0.13-10.107c-0.245,0.224-0.534,0.336-0.868,0.336-0.346,0-0.64-0.112-0.885-0.336-0.244-0.223-0.367-0.525-0.367-0.905,0-0.392,0.123-0.699,0.367-0.924,0.245-0.223,0.539-0.335,0.885-0.335,0.334,0,0.623,0.112,0.868,0.335,0.244,0.225,0.366,0.532,0.366,0.924,0,0.38-0.122,0.682-0.366,0.905z"/></g></svg>
