<svg id="svg2" xmlns:rdf="http://www.w3.org/1999/02/22-rdf-syntax-ns#" xmlns="http://www.w3.org/2000/svg" height="100%" width="100%" version="1.1" xmlns:cc="http://creativecommons.org/ns#" xmlns:dc="http://purl.org/dc/elements/1.1/" viewBox="0 0 100 94.45">
<metadata id="metadata24">
<rdf:RDF>
<cc:Work rdf:about="">
<dc:format>image/svg+xml</dc:format>
<dc:type rdf:resource="http://purl.org/dc/dcmitype/StillImage"/>
<dc:title/>
</cc:Work>
</rdf:RDF>
</metadata>
<path id="path8" style="color:#000000;enable-background:accumulate;" d="M47.344,0c-9.953,0.20816-14,1.8294-14,13.906v2.75h66.656v-2.75c0-13.889-5.323-13.906-18.656-13.906h-29.344-4.656zm-14,16.688v5.531,5.562,38.5c-3.531-3.101-8.451-5.031-13.906-5.031-10.739,0-19.438,7.452-19.438,16.656,4.737E-15,9.205,8.6987,16.656,19.438,16.656,10.738,0,19.437-7.451,19.437-16.656,0-0.287,0.017-0.559,0-0.844v-49.281h55.563v38.469c-3.529-3.084-8.437-5-13.876-5-10.738,0-19.437,7.452-19.437,16.656,0,9.205,8.699,16.656,19.437,16.656,10.739,0,19.438-7.451,19.438-16.656v-0.156-61.062h-5.562v5.531h-55.563v-5.531h-5.531z" fill-rule="nonzero" transform="translate(-1.6155415e-6,0)" fill="#333"/>
</svg>
