<svg xmlns:rdf="http://www.w3.org/1999/02/22-rdf-syntax-ns#" xmlns="http://www.w3.org/2000/svg" version="1.1" xmlns:cc="http://creativecommons.org/ns#" xmlns:dc="http://purl.org/dc/elements/1.1/" viewBox="0 0 100 94.45">
<g transform="translate(0,-957.9122)">
<g fill-rule="nonzero" transform="matrix(1.2489157,0,0,1.2489157,0.01951965,-261.94947)" fill="#FFF">
<path style="enable-background:accumulate;color:black;" d="m69,1497.4c0,2.56-3.3579,4.6353-7.5,4.6353s-7.5-2.0753-7.5-4.6353c0-2.5599,3.3579-4.6352,7.5-4.6352s7.5,2.0753,7.5,4.6352z" transform="matrix(2.0758745,0,0,2.8790199,-112.11285,-3271.9257)"/>
<rect style="enable-background:accumulate;color:black;" height="48.891" width="4.4483" y="990.09" x="26.674"/>
<path style="enable-background:accumulate;color:black;" d="m37.884,976.74c-7.9693,0.16667-11.21,1.4511-11.21,11.121v2.2244h53.38v-2.2244c0-11.121-4.2705-11.121-14.946-11.121h-23.487-3.7366z"/>
<path style="enable-background:accumulate;color:black;" d="m26.674,994.53,51.6,0,0,4.4483-51.6,0z"/>
<path style="enable-background:accumulate;color:black;" d="m69,1497.4c0,2.56-3.3579,4.6353-7.5,4.6353s-7.5-2.0753-7.5-4.6353c0-2.5599,3.3579-4.6352,7.5-4.6352s7.5,2.0753,7.5,4.6352z" transform="matrix(2.075875,0,0,2.8790199,-63.181556,-3271.9257)"/>
<rect style="enable-background:accumulate;color:black;" height="48.891" width="4.4483" y="990.09" x="75.606"/>
</g>
</g>
</svg>
