<svg id="svg2" xmlns:rdf="http://www.w3.org/1999/02/22-rdf-syntax-ns#" xmlns="http://www.w3.org/2000/svg" version="1.1" xml:space="preserve" height="100%" width="100%" enable-background="new 0 0 14 21" y="0px" x="0px" xmlns:cc="http://creativecommons.org/ns#" xmlns:dc="http://purl.org/dc/elements/1.1/" viewBox="0 0 66.666664 100"><metadata id="metadata12"><rdf:RDF><cc:Work rdf:about=""><dc:format>image/svg+xml</dc:format><dc:type rdf:resource="http://purl.org/dc/dcmitype/StillImage"/><dc:title/></cc:Work></rdf:RDF></metadata><g id="g4" fill="#333" transform="scale(4.7619048,4.7619048)"><path id="path6" d="m13.998,10.5l0.002,0.002v-0.002h-0.002zm-5.859-5.01c-0.775-0.867-1.516-1.772-2.226-2.716s-1.337-1.869-1.879-2.774h-4.034c0.543,0.905,1.208,1.882,1.995,2.929,0.787,1.048,1.622,2.082,2.502,3.104,0.883,1.022,1.778,1.972,2.688,2.852,0.627,0.608,1.232,1.143,1.815,1.615-0.583,0.473-1.188,1.009-1.815,1.616-0.909,0.88-1.805,1.83-2.688,2.852-0.88,1.022-1.715,2.057-2.502,3.104-0.787,1.048-1.452,2.023-1.995,2.928h4.034c0.542-0.905,1.168-1.829,1.878-2.773s1.451-1.85,2.226-2.717c0.775-0.866,1.562-1.661,2.361-2.385,0.688-0.621,2.531-1.949,3.498-2.625-0.967-0.675-2.81-2.002-3.498-2.624-0.798-0.724-1.585-1.519-2.36-2.386z" fill="#333"/></g></svg>
