<svg xmlns:rdf="http://www.w3.org/1999/02/22-rdf-syntax-ns#" xmlns="http://www.w3.org/2000/svg" version="1.1" xml:space="preserve" height="100%" width="100%" enable-background="new 0 0 22 22" y="0px" x="0px" xmlns:cc="http://creativecommons.org/ns#" xmlns:dc="http://purl.org/dc/elements/1.1/" viewBox="0 0 100 100"><metadata><rdf:RDF><cc:Work rdf:about=""><dc:format>image/svg+xml</dc:format><dc:type rdf:resource="http://purl.org/dc/dcmitype/StillImage"/><dc:title/></cc:Work></rdf:RDF></metadata><path d="M50,0c-27.617,0-50,22.383-50,50s22.383,50,50,50,50-22.383,50-50-22.383-50-50-50zm0,11.111c21.478,0,38.889,17.411,38.889,38.889s-17.411,38.889-38.889,38.889-38.889-17.411-38.889-38.889,17.411-38.889,38.889-38.889z" fill="#4d4d4d"/><path d="m39.033,68.039c1.8944-0.95,4.0111-2.1167,6.3444-3.4944,2.3333-1.3833,4.7278-2.8944,7.1833-4.5278,2.4611-1.6444,4.9-3.3278,7.3111-5.05s4.7056-3.4056,6.8611-5.0444c-2.1611-1.6389-4.4667-3.3278-6.9278-5.05-2.4556-1.7278-4.9167-3.3833-7.3778-4.9778-2.4556-1.6-4.8556-3.0889-7.1833-4.4667-2.3333-1.3833-4.4-2.55-6.2111-3.5v36.111z" fill="#4d4d4d"/></svg>
