<svg id="svg2" xmlns:rdf="http://www.w3.org/1999/02/22-rdf-syntax-ns#" xmlns="http://www.w3.org/2000/svg" version="1.1" height="100%" width="100%" enable-background="new 0 0 14 21" y="0px" x="0px" xmlns:cc="http://creativecommons.org/ns#" xmlns:dc="http://purl.org/dc/elements/1.1/" viewBox="0 0 66.666664 100">
<metadata id="metadata12">
<rdf:RDF>
<cc:Work rdf:about="">
<dc:format>image/svg+xml</dc:format>
<dc:type rdf:resource="http://purl.org/dc/dcmitype/StillImage"/>
<dc:title/>
</cc:Work>
</rdf:RDF>
</metadata>
<g id="g4" fill="#333" transform="scale(4.7619048,4.7619048)">
<path id="path6" d="M0,10.501c0.001,0,0.001-0.001,0.002-0.001-0.001,0-0.001-0.001-0.002-0.001v0.002zm9.503,4.466c-0.883-1.021-1.778-1.972-2.687-2.852-0.628-0.607-1.233-1.142-1.816-1.615,0.583-0.473,1.188-1.008,1.816-1.615,0.909-0.88,1.804-1.83,2.687-2.852,0.882-1.022,1.716-2.056,2.503-3.104,0.786-1.048,1.451-2.024,1.994-2.929h-4.034c-0.542,0.905-1.168,1.83-1.878,2.774-0.711,0.944-1.452,1.849-2.227,2.716-0.775,0.866-1.562,1.661-2.362,2.386-0.687,0.622-2.53,1.948-3.497,2.624,0.967,0.676,2.81,2.002,3.497,2.624,0.8,0.724,1.587,1.52,2.362,2.387,0.774,0.866,1.516,1.771,2.227,2.716,0.71,0.943,1.336,1.868,1.878,2.773h4.034c-0.543-0.905-1.208-1.882-1.994-2.929-0.787-1.048-1.621-2.082-2.503-3.104z" fill="#333"/>
</g>
</svg>
