<!-- Created by sixsixfive and published under CC0 v1.0(http://creativecommons.org/publicdomain/zero/1.0/deed.en) on openclipart.org -->
<svg id="svg2" xmlns:rdf="http://www.w3.org/1999/02/22-rdf-syntax-ns#" xmlns="http://www.w3.org/2000/svg" viewBox="0 0 99.999999 84.858044" height="100%" width="100%" version="1.0" xmlns:cc="http://creativecommons.org/ns#" xmlns:dc="http://purl.org/dc/elements/1.1/">
<g id="g2986" transform="scale(2.5236593,2.5236593)">
<path id="path2843" fill="#f57900" d="M3.8124994,0c-2.1361,0-3.8125,1.6764-3.8125,3.8125v26c0,2.1361,1.6764,3.8125,3.8125,3.8125h32c2.1361,0,3.8125-1.6764,3.8125-3.8125v-26c0-2.1361-1.6764-3.8125-3.8125-3.8125h-32z"/>
<path id="path3809" fill="#ce5c00" d="m6.9066994,2.375a1.1383,1.1383,0,0,0,-0.9375,1.125v4.4062a1.1383,1.1383,0,0,0,1.0938,1.125c11.003,0.33003,19.879,9.6104,20.156,21.125a1.1383,1.1383,0,0,0,1.125,1.0938h4.1875a1.1383,1.1383,0,0,0,1.125,-1.1562c-0.2786-13.88-10.132-25.352-23-27.437-1.1754992-0.19049-2.3557992-0.25131-3.5311992-0.28125a1.1383,1.1383,0,0,0,-0.21875,0zm0,9.375a1.1383,1.1383,0,0,0,-0.9375,1.125v4.25a1.1383,1.1383,0,0,0,1.0625,1.125c6.1446996,0.30084,11.078,5.4586,11.344,11.906a1.1383,1.1383,0,0,0,1.125,1.0625h4.0312a1.1383,1.1383,0,0,0,1.125,-1.1562c-0.28528-9.1882-6.819-16.77-15.375-18.156-0.75274-0.122-1.478-0.12957-2.1562-0.15625a1.1383,1.1383,0,0,0,-0.21875,0zm3.2499996,10.75c-2.3307996-0.0065-4.1874996,1.964-4.1874996,4.3438,0,2.3791,1.8633,4.3373,4.1874996,4.3438,2.3308,0.0065,4.2188-1.9508,4.2188-4.3438,0-2.2478-1.6477-4.112-3.7812-4.3438-0.27284-0.02965-0.35404,0.000187-0.4375,0z"/>
<path id="path3204" fill="#eeeeec" d="M7.0856994,3.5103v4.3944c11.623,0.34861,20.976,10.121,21.267,22.207l4.1711,0.01174c-0.268-13.355-9.746-24.349-22.054-26.343-1.1032992-0.17879-2.2379992-0.24105-3.3838992-0.27024zm0,9.3527v4.2534c6.7466996,0.33031,12.13,5.9687,12.419,12.972l4.0301,0.01174c-0.26914-8.6683-6.4289-15.776-14.429-17.072-0.65958-0.1069-1.3389-0.13766-2.0209-0.16449zm3.0783996,10.751c-1.6922996-0.0047-3.0783996,1.4162-3.0783996,3.2194s1.3845,3.2265,3.0783996,3.2311c1.6923,0.0047,3.0784-1.4162,3.0784-3.2194,0-1.691-1.2208-3.0638-2.7612-3.2311-0.07454-0.0081-0.18444,0.000298-0.31724,0z"/>
</g>
<metadata id="metadata20">
<rdf:RDF>
<cc:Work>
<dc:format>image/svg+xml</dc:format>
<dc:type rdf:resource="http://purl.org/dc/dcmitype/StillImage"/>
<cc:license rdf:resource="http://creativecommons.org/licenses/publicdomain/"/>
<dc:publisher>
<cc:Agent rdf:about="http://openclipart.org/">
<dc:title>Openclipart</dc:title>
</cc:Agent>
</dc:publisher>
<dc:title/>
</cc:Work>
<cc:License rdf:about="http://creativecommons.org/licenses/publicdomain/">
<cc:permits rdf:resource="http://creativecommons.org/ns#Reproduction"/>
<cc:permits rdf:resource="http://creativecommons.org/ns#Distribution"/>
<cc:permits rdf:resource="http://creativecommons.org/ns#DerivativeWorks"/>
</cc:License>
</rdf:RDF>
</metadata>
</svg>
