<svg xmlns:rdf="http://www.w3.org/1999/02/22-rdf-syntax-ns#" xmlns="http://www.w3.org/2000/svg" version="1.1" xmlns:cc="http://creativecommons.org/ns#" xmlns:dc="http://purl.org/dc/elements/1.1/" viewBox="0 0 99 82.5" width="100%" height="100%"><g transform="translate(0,-969.8622)"><g fill-rule="nonzero" transform="matrix(1.2489156,0,0,1.2489156,0.01949292,-261.94937)" fill="#FFF"><path style="enable-background:accumulate;color:black;" d="m17.6,986.33c-14.835,0.2805-17.615,2.4673-17.615,19.397v29.027c0,17.589,3.4955,17.609,24.634,17.609h30.001c21.138,0,24.634,0,24.634-17.609v-29.027c0-19.348-3.4955-19.397-24.634-19.397h-30.001c-2.6423,0-4.8993-0.055-7.0186,0zm9.771,4.4022c1.831-0.055,3.8622,0,6.1929,0h12.111c18.698,0,20.452,0,20.368,15.408v28.339c0,13.606-1.6692,13.619-20.368,13.619h-12.111c-18.645,0-20.368,0-20.368-13.619v-28.339c0-13.499,1.3577-15.197,14.175-15.408zm-22.982,4.5397,4.4038,0,0,4.2647-4.4038,0,0-4.2647zm66.057,0,4.4038,0,0,4.2647-4.4038,0,0-4.2647zm-66.057,8.8044,4.4038,0,0,4.2641-4.4038,0,0-4.2641zm66.057,0,4.4038,0,0,4.2641-4.4038,0,0-4.2641zm-66.057,8.8044,4.4038,0,0,4.2647-4.4038,0,0-4.2647zm66.057,0,4.4038,0,0,4.2647-4.4038,0,0-4.2647zm-66.057,8.8049,4.4038,0,0,4.2642-4.4038,0,0-4.2642zm66.057,0,4.4038,0,0,4.2642-4.4038,0,0-4.2642zm-66.057,8.8039,4.4038,0,0,4.2647-4.4038,0,0-4.2647zm66.057,0,4.4038,0,0,4.2647-4.4038,0,0-4.2647zm-66.057,8.8044,4.4038,0,0,4.2647-4.4038,0,0-4.2647zm66.057,0,4.4038,0,0,4.2647-4.4038,0,0-4.2647z"/><path style="enable-background:accumulate;color:black;" d="m29.084,1003.9c5.0368,0.4125,28.15,12.854,28.15,15.448,0,2.766-26.322,16.751-28.925,15.368-2.6032-1.3827-2.6032-29.353,0-30.736,0.16268-0.088,0.43899-0.1045,0.77478-0.082z"/></g></g></svg>
