<svg xmlns:rdf="http://www.w3.org/1999/02/22-rdf-syntax-ns#" xmlns="http://www.w3.org/2000/svg" version="1.1" xmlns:cc="http://creativecommons.org/ns#" xmlns:xlink="http://www.w3.org/1999/xlink" viewBox="0 0 208 256" xmlns:dc="http://purl.org/dc/elements/1.1/">
<defs>
<linearGradient id="linearGradient8742">
<stop stop-color="#9200FF" offset="0"/>
<stop stop-color="#F0F" stop-opacity="0" offset="1"/>
</linearGradient>
<linearGradient id="linearGradient7303">
<stop stop-color="#000" offset="0"/>
<stop stop-color="#000" stop-opacity="0" offset="1"/>
</linearGradient>
<linearGradient id="linearGradient8074">
<stop stop-color="#000" stop-opacity="0" offset="0"/>
<stop stop-color="#000" offset="0.49306"/>
<stop stop-color="#000" stop-opacity="0" offset="1"/>
</linearGradient>
<linearGradient id="linearGradient7976">
<stop stop-color="#FFF" stop-opacity="0.85" offset="0"/>
<stop stop-color="#FFF" stop-opacity="0.9" offset="1"/>
</linearGradient>
<linearGradient id="linearGradient7931">
<stop stop-color="#000" offset="0"/>
<stop stop-color="#000" stop-opacity="0.360784" offset="0.45461"/>
<stop stop-color="#000" stop-opacity="0" offset="1"/>
</linearGradient>
<linearGradient id="linearGradient14486-9">
<stop stop-color="#8E03A3" offset="0"/>
<stop stop-color="#530260" offset="1"/>
</linearGradient>
<linearGradient id="linearGradient27412" y2="1008.7" xlink:href="#linearGradient14486-9" gradientUnits="userSpaceOnUse" x2="26.993" gradientTransform="matrix(15.9995,0,0,15.9955,-279.247,-17311.2)" y1="992.62" x1="26.993"/>
<linearGradient id="linearGradient27418" y2="-1118.6" gradientUnits="userSpaceOnUse" x2="1278" gradientTransform="matrix(2,0,0,2.00002,-1069,630.656)" y1="-1062.6" x1="1278">
<stop stop-color="#DC85E9" offset="0"/>
<stop stop-color="#F8DCFB" offset="1"/>
</linearGradient>
<linearGradient id="linearGradient27420" y2="184" xlink:href="#linearGradient8742" gradientUnits="userSpaceOnUse" x2="1542" gradientTransform="matrix(-1,0,0,1,2865,-1753.64)" y1="184" x1="1559.5"/>
<linearGradient id="linearGradient27422" y2="184" xlink:href="#linearGradient8742" gradientUnits="userSpaceOnUse" x2="1542" gradientTransform="translate(-123,-1753.64)" y1="184" x1="1559.5"/>
<radialGradient id="radialGradient27424" gradientUnits="userSpaceOnUse" cy="-754.64" cx="152.33" gradientTransform="matrix(4.06286e-6,1.01528,-4.27735,0,-1857.01,-1670.52)" r="15">
<stop stop-color="#800080" offset="0"/>
<stop stop-color="#800080" offset="0.72684"/>
<stop stop-color="#F0F" stop-opacity="0" offset="1"/>
</radialGradient>
<linearGradient id="linearGradient27426" y2="970.5" gradientUnits="userSpaceOnUse" x2="404.5" gradientTransform="matrix(2,0,0,2,513,-3495.64)" y1="970.5" x1="453.5">
<stop stop-color="#E196FB" offset="0"/>
<stop stop-color="#F4C7FA" offset="0.13011"/>
<stop stop-color="#E091F3" offset="0.3136"/>
<stop stop-color="#D764E9" offset="0.44079"/>
<stop stop-color="#E7ADF0" offset="0.68365"/>
<stop stop-color="#E6A9F8" offset="0.75621"/>
<stop stop-color="#E595F2" offset="0.88022"/>
<stop stop-color="#F2CBF8" offset="1"/>
</linearGradient>
<linearGradient id="linearGradient27428" y2="-1568.5" gradientUnits="userSpaceOnUse" x2="1419" gradientTransform="translate(0.022825,4.5e-5)" y1="-1568.5" x1="1322">
<stop stop-color="#9207A7" offset="0"/>
<stop stop-color="#C658BC" offset="0.27255"/>
<stop stop-color="#A42EB6" offset="0.50966"/>
<stop stop-color="#B415CD" offset="0.83376"/>
<stop stop-color="#950BA8" offset="1"/>
</linearGradient>
<radialGradient id="radialGradient27430" gradientUnits="userSpaceOnUse" cy="730.48" cx="518.85" gradientTransform="matrix(0.959821,0,1.35768e-7,0.268231,21.681,534.374)" r="22.89">
<stop stop-color="#DC85E9" offset="0"/>
<stop stop-color="#F2CBF8" offset="1"/>
</radialGradient>
<linearGradient id="linearGradient27434" y2="194" gradientUnits="userSpaceOnUse" x2="1485.9" gradientTransform="matrix(0.984483,0,0,0.972527,-100.349,-1748.97)" y1="169" x1="1510.5">
<stop stop-color="#FFF" offset="0"/>
<stop stop-color="#FFF" stop-opacity="0" offset="1"/>
</linearGradient>
<linearGradient id="linearGradient27436" y2="-1544" gradientUnits="userSpaceOnUse" x2="1383.4" gradientTransform="matrix(0.976263,0.126435,-0.367421,0.97673,-556.181,-210.596)" y1="-1522.4" x1="1354.6">
<stop stop-color="#FFF" offset="0"/>
<stop stop-color="#FFF" stop-opacity="0" offset="1"/>
</linearGradient>
<linearGradient id="linearGradient31097" y2="-782.64" xlink:href="#linearGradient7976" gradientUnits="userSpaceOnUse" x2="209.06" gradientTransform="matrix(8,0,0,8,-379,4583.47)" y1="-754.09" x1="209.06"/>
<linearGradient id="linearGradient31127" y2="243.14" gradientUnits="userSpaceOnUse" x2="294.42" gradientTransform="matrix(15.958,0,0,16.0248,-3396.13,-5573.42)" y1="256.58" x1="294.34">
<stop stop-color="#999" offset="0"/>
<stop stop-color="#E6E6E6" offset="1"/>
</linearGradient>
<linearGradient id="linearGradient31187" y2="-1230.8" xlink:href="#linearGradient7931" gradientUnits="userSpaceOnUse" x2="113.88" gradientTransform="matrix(0.780488,0,0,0.780488,-1401.6341,-520.799)" y1="-1192.6" x1="152"/>
<linearGradient id="linearGradient31207" y2="-1194.6" xlink:href="#linearGradient8074" gradientUnits="userSpaceOnUse" x2="144" gradientTransform="matrix(0.621118,0,0,1,1332.559,-257)" y1="-1194.6" x1="-17"/>
<linearGradient id="linearGradient31227" y2="-1194.6" xlink:href="#linearGradient8074" gradientUnits="userSpaceOnUse" x2="144" gradientTransform="matrix(1.41615,0,0,1,-1655.56,-88.36)" y1="-1194.6" x1="-17"/>
<linearGradient id="linearGradient31247" y2="-1194.6" xlink:href="#linearGradient8074" gradientUnits="userSpaceOnUse" x2="144" gradientTransform="matrix(0.867106,0,0,1,-1578,-275.36)" y1="-1194.6" x1="-17"/>
<linearGradient id="linearGradient31267" y2="-1194.6" xlink:href="#linearGradient8074" gradientUnits="userSpaceOnUse" x2="144" gradientTransform="matrix(0.621118,0,0,1,1332.559,-251)" y1="-1194.6" x1="-17"/>
<linearGradient id="linearGradient31293" y2="276.58" xlink:href="#linearGradient7303" gradientUnits="userSpaceOnUse" x2="389.1" gradientTransform="translate(919,-1753.64)" y1="300.82" x1="364.87"/>
<linearGradient id="linearGradient31313" y2="276.58" xlink:href="#linearGradient7303" gradientUnits="userSpaceOnUse" x2="389.1" gradientTransform="matrix(1,0,0,-1,917,-1379.64)" y1="300.82" x1="364.87"/>
<linearGradient id="linearGradient31333" y2="-1194.6" xlink:href="#linearGradient8074" gradientUnits="userSpaceOnUse" x2="144" gradientTransform="matrix(0.52406816,0,0,1.0000003,-185.04757,-974.56369)" y1="-1194.6" x1="-17"/>
<linearGradient id="linearGradient31353" y2="-1194.6" xlink:href="#linearGradient8074" gradientUnits="userSpaceOnUse" x2="144" gradientTransform="matrix(0.52406816,0,0,1.0000003,-185.75757,-966.78549)" y1="-1194.6" x1="-17"/>
<linearGradient id="linearGradient31373" y2="-1194.6" xlink:href="#linearGradient8074" gradientUnits="userSpaceOnUse" x2="144" gradientTransform="matrix(0.52406816,0,0,1.0000003,-185.75757,-995.0698)" y1="-1194.6" x1="-17"/>
<linearGradient id="linearGradient31393" y2="-1194.6" xlink:href="#linearGradient8074" gradientUnits="userSpaceOnUse" x2="144" gradientTransform="matrix(1.41615,0,0,1,-1655.56,-82.36)" y1="-1194.6" x1="-17"/>
<linearGradient id="linearGradient31413" y2="-1194.6" xlink:href="#linearGradient8074" gradientUnits="userSpaceOnUse" x2="144" gradientTransform="matrix(0.899038,0,0,1,-1580.99,2657.64)" y1="-1194.6" x1="-17"/>
<linearGradient id="linearGradient31433" y2="-1230.8" xlink:href="#linearGradient7931" gradientUnits="userSpaceOnUse" x2="113.88" gradientTransform="matrix(0.780488,0,0,0.780488,1344.3659,-520.799)" y1="-1192.6" x1="152"/>
<linearGradient id="linearGradient31453" y2="276.58" xlink:href="#linearGradient7303" gradientUnits="userSpaceOnUse" x2="389.1" gradientTransform="matrix(-1,0,0,1,1827,-1753.64)" y1="300.82" x1="364.87"/>
<linearGradient id="linearGradient52541" y2="-1558.6" gradientUnits="userSpaceOnUse" x2="1372.9" gradientTransform="translate(0,-0.4994)" y1="-1544.4" x1="1372.9">
<stop stop-color="#FFF" offset="0"/>
<stop stop-color="#A00" stop-opacity="0" offset="1"/>
</linearGradient>
</defs>
<metadata>
<rdf:RDF>
<cc:Work rdf:about="">
<dc:format>image/svg+xml</dc:format>
<dc:type rdf:resource="http://purl.org/dc/dcmitype/StillImage"/>
<dc:title/>
</cc:Work>
</rdf:RDF>
</metadata>
<g transform="translate(123,924.64)">
<use opacity="0.75" xlink:href="#g7586" transform="translate(1571,0)" height="1085" width="5033" y="0" x="0"/>
<text font-weight="normal" xml:space="preserve" font-size="8px" font-style="normal" font-stretch="normal" font-variant="normal" y="-1109.14" x="382.125" font-family="Sans" fill="black"><tspan y="-1109.14" x="382.125"/></text>
<g transform="matrix(1.0000042,0,0,1,-1394.0016,768.99814)">
<g transform="translate(2,0)">
<g fill-rule="nonzero" transform="matrix(1.00001,0,0,0.999844,1308.99,-261.184)" fill="url(#linearGradient27412)">
<path style="direction:ltr;text-indent:0pt;text-align:start;text-transform:none;" d="m-39.993-1184.6c0,3.8673,3.6224,7.9298,7.7569,7.9298h191.99c4.627,0,8.2495-3.8705,8.2495-7.7455v-149.21c0-4.2249-0.51199-6.1833-3.4999-9.171l-85.324-85.298c-2.9882-2.9873-5.2737-4.5274-9.4996-4.5307l-101.74-0.08c-4.1335,0-7.9337,3.6832-7.9337,8.1221v239.99z"/>
<path style="direction:ltr;text-indent:0pt;text-align:start;text-transform:none;" d="m103.26-1421.9,53.19,53.442c4.3386,4.3589,11.554,3.3243,11.554-3.5507v-52.442c0-4.2273-3.8264-8.1968-8.0317-8.1968h-53.19c-6.8375,0-7.1374,7.1146-3.5218,10.747z"/>
</g>
<path d="m1283-1677.5v226c60,0,120-0.0001,180,0v-140.44c-28.986-29.202-58.078-58.298-87-87.562-31-0.0001-62,0-93,0v1,1z" fill="url(#linearGradient31097)"/>
<path style="direction:ltr;text-indent:0pt;text-align:start;text-transform:none;" d="m1277-1683.6v238h192v-151.41c-29.383-29.502-58.745-59.026-88.062-88.594-34.646-0.0001-69.292,0-103.94,0v1,1z" fill-rule="nonzero" fill="url(#linearGradient31127)"/>
<path d="m1283-1677.5v226c60,0,120-0.0001,180,0v-140.44c-28.986-29.202-58.078-58.298-87-87.562-31-0.0001-62,0-93,0v1,1z" fill="url(#linearGradient31097)"/>
<path opacity="0.15" style="direction:ltr;text-indent:0pt;text-align:start;text-transform:none;" d="m1277-1685.6,0,1,0,1,0,238,192,0,0-151.41c-29.383-29.502-58.745-59.026-88.062-88.594-34.646-0.0001-69.292,0-103.94,0zm1,1c34.167,0,68.333-0.0001,102.5,0,29.148,29.362,58.296,58.725,87.5,88.031v149.97c-63.333,0-126.67-0.0001-190,0v-237-1z" fill-rule="nonzero" fill="#FFF"/>
<rect opacity="0.15" fill-rule="nonzero" transform="scale(-1,1)" height="64" width="64" y="-1515.6" x="-1347" fill="url(#linearGradient31187)"/>
<rect opacity="0.2" fill-rule="nonzero" height="1" width="100" y="-1451.6" x="1322" fill="url(#linearGradient31207)"/>
<rect opacity="0.2" fill-rule="nonzero" transform="matrix(0,1,-1,0,0,0)" height="1" width="228" y="-1283" x="-1679.6" fill="url(#linearGradient31227)"/>
<rect opacity="0.5" fill-rule="nonzero" transform="matrix(0,1,-1,0,0,0)" height="1" width="139.6" y="-1470" x="-1592.7" fill="url(#linearGradient31247)"/>
<rect opacity="0.5" fill-rule="nonzero" height="1" width="100" y="-1445.6" x="1322" fill="url(#linearGradient31267)"/>
<path opacity="0.15" d="m1284-1502.6,0,49,0,1,1,0,49,0,0-1-49,0,0-49-1,0z" fill-rule="nonzero" fill="url(#linearGradient31293)"/>
<path opacity="0.1" d="m1282-1630.6,0-49,0-1,1,0,49,0,0,1-49,0,0,49-1,0z" fill-rule="nonzero" fill="url(#linearGradient31313)"/>
<rect opacity="0.4" fill-rule="nonzero" transform="matrix(0.70710678,0.70710678,-0.70710678,0.70710678,0,0)" height="1" width="84.375" y="-2169.2" x="-193.96" fill="url(#linearGradient31333)"/>
<rect opacity="0.1" fill-rule="nonzero" transform="matrix(0.70710678,0.70710678,-0.70710678,0.70710678,0,0)" height="1" width="84.375" y="-2161.4" x="-194.67" fill="url(#linearGradient31353)"/>
<rect opacity="0.4" fill-rule="nonzero" transform="matrix(0.70710678,0.70710678,-0.70710678,0.70710678,0,0)" height="1" width="84.375" y="-2189.7" x="-194.67" fill="url(#linearGradient31373)"/>
<rect opacity="0.5" fill-rule="nonzero" transform="matrix(0,1,-1,0,0,0)" height="1" width="228" y="-1277" x="-1679.6" fill="url(#linearGradient31393)"/>
<rect opacity="0.2" fill-rule="nonzero" transform="matrix(0,1,1,0,0,0)" height="1" width="144.75" y="1463" x="-1596.3" fill="url(#linearGradient31413)"/>
<rect opacity="0.15" fill-rule="nonzero" height="64" width="64" y="-1515.6" x="1399" fill="url(#linearGradient31433)"/>
<path opacity="0.15" d="m1462-1502.6,0,49,0,1-1,0-49,0,0-1,49,0,0-49,1,0z" fill-rule="nonzero" fill="url(#linearGradient31453)"/>
</g>
<g transform="translate(2,0)">
<path d="m1307-1602.6,0,6,28,0,0-6-28,0zm32,0,0,6,30,0,0-6-30,0zm34,0,0,6,30,0,0-6-30,0zm34,0,0,6,28,0,0-6-28,0zm-100,10,0,8,28,0,0-8-28,0zm32,0,0,8,30,0,0-8-30,0zm34,0,0,8,30,0,0-8-30,0zm34,0,0,8,28,0,0-8-28,0zm-100,12,0,8,28,0,0-8-28,0zm32,0,0,8,30,0,0-8-30,0zm34,0,0,8,30,0,0-8-30,0zm34,0,0,8,28,0,0-8-28,0zm-100,12,0,8,28,0,0-8-28,0zm32,0,0,8,30,0,0-8-30,0zm34,0,0,8,30,0,0-8-30,0zm34,0,0,8,28,0,0-8-28,0zm-100,12,0,8,28,0,0-8-28,0zm32,0,0,8,30,0,0-8-30,0zm34,0,0,8,30,0,0-8-30,0zm34,0,0,8,28,0,0-8-28,0zm-100,12,0,8,28,0,0-8-28,0zm32,0,0,8,30,0,0-8-30,0zm34,0,0,8,30,0,0-8-30,0zm34,0,0,8,28,0,0-8-28,0zm-100,12,0,8,28,0,0-8-28,0zm32,0,0,8,30,0,0-8-30,0zm34,0,0,8,30,0,0-8-30,0zm34,0,0,8,28,0,0-8-28,0zm-100,12,0,8,28,0,0-8-28,0zm32,0,0,8,30,0,0-8-30,0zm34,0,0,8,30,0,0-8-30,0zm34,0,0,8,28,0,0-8-28,0zm-100,12,0,8,28,0,0-8-28,0zm32,0,0,8,30,0,0-8-30,0zm34,0,0,8,30,0,0-8-30,0zm34,0,0,8,28,0,0-8-28,0zm-100,12,0,6,28,0,0-6-28,0zm32,0,0,6,30,0,0-6-30,0zm34,0,0,6,30,0,0-6-30,0zm34,0,0,6,28,0,0-6-28,0z" fill-rule="nonzero" fill="url(#linearGradient27418)"/>
<path opacity="0.25" d="m1307-1602.6,0,1,28,0,0-1-28,0zm32,0,0,1,30,0,0-1-30,0zm34,0,0,1,30,0,0-1-30,0zm34,0,0,1,28,0,0-1-28,0zm-100,10,0,1,28,0,0-1-28,0zm32,0,0,1,30,0,0-1-30,0zm34,0,0,1,30,0,0-1-30,0zm34,0,0,1,28,0,0-1-28,0zm-100,12,0,1,28,0,0-1-28,0zm32,0,0,1,30,0,0-1-30,0zm34,0,0,1,30,0,0-1-30,0zm34,0,0,1,28,0,0-1-28,0zm-100,12,0,1,28,0,0-1-28,0zm32,0,0,1,30,0,0-1-30,0zm34,0,0,1,30,0,0-1-30,0zm34,0,0,1,28,0,0-1-28,0zm-100,12,0,1,28,0,0-1-28,0zm32,0,0,1,30,0,0-1-30,0zm34,0,0,1,30,0,0-1-30,0zm34,0,0,1,28,0,0-1-28,0zm-100,12,0,1,28,0,0-1-28,0zm32,0,0,1,30,0,0-1-30,0zm34,0,0,1,30,0,0-1-30,0zm34,0,0,1,28,0,0-1-28,0zm-100,12,0,1,28,0,0-1-28,0zm32,0,0,1,30,0,0-1-30,0zm34,0,0,1,30,0,0-1-30,0zm34,0,0,1,28,0,0-1-28,0zm-100,12,0,1,28,0,0-1-28,0zm32,0,0,1,30,0,0-1-30,0zm34,0,0,1,30,0,0-1-30,0zm34,0,0,1,28,0,0-1-28,0zm-100,12,0,1,28,0,0-1-28,0zm32,0,0,1,30,0,0-1-30,0zm34,0,0,1,30,0,0-1-30,0zm34,0,0,1,28,0,0-1-28,0zm-100,12,0,1,28,0,0-1-28,0zm32,0,0,1,30,0,0-1-30,0zm34,0,0,1,30,0,0-1-30,0zm34,0,0,1,28,0,0-1-28,0z" fill-rule="nonzero" fill="purple"/>
<path opacity="0.5" style="direction:ltr;text-indent:0pt;text-align:start;text-transform:none;" d="m1336.9-1582.9c-4.4225,1.1052-8.0003,2.6406-10.563,4.2813-2.5623,1.6406-4.2094,3.5916-4.2187,5.9375-0.078,19.65-0.062,38.386-0.062,54,0,2.2938,1.6506,4.2616,4.2188,5.9062,2.5682,1.6445,6.1886,3.057,10.594,4.25,8.8102,2.3861,20.86,3.8438,34.188,3.8438s25.377-1.4577,34.188-3.8438c4.4051-1.193,8.0254-2.6054,10.594-4.25,2.5682-1.6445,4.1959-3.6233,4.1959-5.9171v-54c0-2.3459-1.6956-4.286-4.2578-5.9266-2.5623-1.6407-6.1626-3.0896-10.563-4.2813-8.7998-2.3834-20.826-3.7812-34.156-3.7812-13.42,0-24.7,1.4179-34.157,3.7812zm34.156-1.7812c13.188-0.024,25.115,1.4594,33.688,3.7812,4.2863,1.1609,7.7357,2.5926,10.031,4.0625,2.2956,1.47,3.4615,2.9179,3.3437,4.1563-0.2099,2.2051-2.5786,3.7353-4.2498,4.6877-2.7109,1.5447-5.9518,2.7094-8.875,3.4682-9.9807,2.5907-19.947,3.5351-29.531,3.7808-13.261,0.2127-26.41-0.7313-38.531-3.8423-2.8126-0.7333-5.249-1.6374-7.6562-2.8437-2.1609-1.0829-5.0631-2.882-5.2805-5.2495-0.117-1.2738,1.048-2.6864,3.3437-4.1563,2.2956-1.47,5.6973-3.0942,10.031-4.0625,11.926-2.6645,23.654-3.7638,33.686-3.7824zm-47,16.125c0.633,0.635,1.3925,1.2732,2.2812,1.8125,3.29,1.9964,7.3084,3.4876,10.563,4.2812,13.105,3.0399,26.118,4.0856,38.625,3.7191,10.112-0.3193,20.321-1.0694,29.687-3.7191,4.6348-1.3113,9.5649-2.8964,12.844-6.0937v12.875c0,0.5819,0,1.2208-0.125,1.7187-0.2732,1.1053-1.3688,2.437-3.3438,3.5938-3.2639,1.9117-6.8389,3.0829-9.9998,3.9374-11.232,2.7397-22.916,3.7351-33.531,3.75-11.456-0.088-23.536-1.1252-33.688-3.7813-4.3563-1.3747-8.7244-2.5615-11.874-5.4685-0.7253-0.677-1.1339-1.4058-1.3125-2.0313-0.1617-0.5663-0.124-1.122-0.124-1.7187v-12.875-0.0001zm0,18.031c0.3881,0.384,0.8349,0.7645,1.3125,1.125,3.8328,2.6485,8.599,4.1875,12.75,5.2191,11.482,2.6061,21.651,3.4771,32.938,3.4992,11.353-0.2328,22.474-0.8133,32.938-3.4995,3.7047-0.9664,7.6813-2.3851,10.688-3.9063,1.1439-0.5788,2.9374-2.034,3.375-2.4378v12.844c0,0.5819,0,1.2208-0.125,1.7187-0.2732,1.1053-1.4022,2.3818-3.3438,3.5938-4.2885,2.5159-9.373,3.9033-13.844,4.8749-10.389,2.0162-19.909,2.7984-29.688,2.8125-4.946,0-9.7115-0.172-14.188-0.5938-10.05-1.2286-18.982-2.1518-27.5-6.0625-1.4518-0.6725-2.7953-1.6037-3.8745-2.5935-0.7312-0.6706-1.117-1.4108-1.3125-2.0313-0.075-0.2376-0.1224-0.5025-0.124-0.7187-0.035-4.6145,0-9.2292,0-13.844v0.0002zm0,18c1.5656,1.541,3.6376,2.7051,5.531,3.5003,8.6756,3.5974,18.943,5.0615,27.125,5.7497,4.9351,0.4055,9.7705,0.5946,14.344,0.5933,11.369-0.1838,22.449-0.8859,32.938-3.4995,4.2187-1.1456,8.1701-2.4102,11.657-4.4691,0.9341-0.5547,1.6709-1.1929,2.4062-1.875v12.844,1c0,1.2961-1.0229,2.7528-3.3125,4.2187-2.2896,1.4662-5.7189,2.8405-10,4-8.5625,2.3189-20.506,3.7813-33.688,3.7813s-25.125-1.4623-33.688-3.7813c-4.2812-1.1594-7.7104-2.5339-10-4-2.2896-1.466-3.3125-2.9226-3.3125-4.2187v-13.844l-0.0002,0.0003z" stroke="#FFF" stroke-miterlimit="4" stroke-dasharray="none" stroke-width="2" fill="none"/>
<path opacity="0.35" d="m1322-1602.6,0,6-15,0,0-6,15,0zm0,10,0,8-15,0,0-8,15,0zm0,12,0,8-15,0,0-8,15,0zm0,12,0,8-15,0,0-8,15,0zm0,12,0,8-15,0,0-8,15,0zm0,12,0,8-15,0,0-8,15,0zm0,12,0,8-15,0,0-8,15,0zm0,12,0,8-15,0,0-8,15,0zm0,12,0,8-15,0,0-8,15,0zm0,12,0,6-15,0,0-6,15,0z" fill-rule="nonzero" fill="url(#linearGradient27420)"/>
<path opacity="0.35" d="m1420-1602.6,0,6,15,0,0-6-15,0zm0,10,0,8,15,0,0-8-15,0zm0,12,0,8,15,0,0-8-15,0zm0,12,0,8,15,0,0-8-15,0zm0,12,0,8,15,0,0-8-15,0zm0,12,0,8,15,0,0-8-15,0zm0,12,0,8,15,0,0-8-15,0zm0,12,0,8,15,0,0-8-15,0zm0,12,0,8,15,0,0-8-15,0zm0,12,0,6,15,0,0-6-15,0z" fill-rule="nonzero" fill="url(#linearGradient27422)"/>
<rect opacity="0.5" fill-rule="nonzero" height="30" width="128" y="-1530.6" x="1307" fill="url(#radialGradient27424)"/>
<path d="m1323-1570.6,0,52c0,7.1797,21.49,13,48,13s48-5.8203,48-13v-52h-96z" fill-rule="nonzero" fill="url(#linearGradient27426)"/>
<path style="direction:ltr;text-indent:0pt;text-align:start;text-transform:none;" d="m1336.9-1582.9c-4.4225,1.1052-8.0003,2.6406-10.563,4.2813-2.5623,1.6406-4.2094,3.5916-4.2187,5.9375-0.078,19.65-0.062,38.386-0.062,54,0,2.2938,1.6506,4.2616,4.2188,5.9062,2.5682,1.6445,6.1886,3.057,10.594,4.25,8.8102,2.3861,20.86,3.8438,34.188,3.8438s25.377-1.4577,34.188-3.8438c4.4051-1.193,8.0254-2.6054,10.594-4.25,2.5682-1.6445,4.1959-3.6233,4.1959-5.9171v-54c0-2.3459-1.6956-4.286-4.2578-5.9266-2.5623-1.6407-6.1626-3.0896-10.563-4.2813-8.7998-2.3834-20.826-3.7812-34.156-3.7812-13.42,0-24.7,1.4179-34.157,3.7812zm34.156-1.7812c13.188-0.024,25.115,1.4594,33.688,3.7812,4.2863,1.1609,7.7357,2.5926,10.031,4.0625,2.2956,1.47,3.4615,2.9179,3.3437,4.1563-0.2099,2.2051-2.5786,3.7353-4.2498,4.6877-2.7109,1.5447-5.9518,2.7094-8.875,3.4682-9.9807,2.5907-19.947,3.5351-29.531,3.7808-13.261,0.2127-26.41-0.7313-38.531-3.8423-2.8126-0.7333-5.249-1.6374-7.6562-2.8437-2.1609-1.0829-5.0631-2.882-5.2805-5.2495-0.117-1.2738,1.048-2.6864,3.3437-4.1563,2.2956-1.47,5.6973-3.0942,10.031-4.0625,11.926-2.6645,23.654-3.7638,33.686-3.7824zm-47,16.125c0.633,0.635,1.3925,1.2732,2.2812,1.8125,3.29,1.9964,7.3084,3.4876,10.563,4.2812,13.105,3.0399,26.118,4.0856,38.625,3.7191,10.112-0.3193,20.321-1.0694,29.687-3.7191,4.6348-1.3113,9.5649-2.8964,12.844-6.0937v12.875c0,0.5819,0,1.2208-0.125,1.7187-0.2732,1.1053-1.3688,2.437-3.3438,3.5938-3.2639,1.9117-6.8389,3.0829-9.9998,3.9374-11.232,2.7397-22.916,3.7351-33.531,3.75-11.456-0.088-23.536-1.1252-33.688-3.7813-4.3563-1.3747-8.7244-2.5615-11.874-5.4685-0.7253-0.677-1.1339-1.4058-1.3125-2.0313-0.1617-0.5663-0.124-1.122-0.124-1.7187v-12.875-0.0001zm0,18.031c0.3881,0.384,0.8349,0.7645,1.3125,1.125,3.8328,2.6485,8.599,4.1875,12.75,5.2191,11.482,2.6061,21.651,3.4771,32.938,3.4992,11.353-0.2328,22.474-0.8133,32.938-3.4995,3.7047-0.9664,7.6813-2.3851,10.688-3.9063,1.1439-0.5788,2.9374-2.034,3.375-2.4378v12.844c0,0.5819,0,1.2208-0.125,1.7187-0.2732,1.1053-1.4022,2.3818-3.3438,3.5938-4.2885,2.5159-9.373,3.9033-13.844,4.8749-10.389,2.0162-19.909,2.7984-29.688,2.8125-4.946,0-9.7115-0.172-14.188-0.5938-10.05-1.2286-18.982-2.1518-27.5-6.0625-1.4518-0.6725-2.7953-1.6037-3.8745-2.5935-0.7312-0.6706-1.117-1.4108-1.3125-2.0313-0.075-0.2376-0.1224-0.5025-0.124-0.7187-0.035-4.6145,0-9.2292,0-13.844v0.0002zm0,18c1.5656,1.541,3.6376,2.7051,5.531,3.5003,8.6756,3.5974,18.943,5.0615,27.125,5.7497,4.9351,0.4055,9.7705,0.5946,14.344,0.5933,11.369-0.1838,22.449-0.8859,32.938-3.4995,4.2187-1.1456,8.1701-2.4102,11.657-4.4691,0.9341-0.5547,1.6709-1.1929,2.4062-1.875v12.844,1c0,1.2961-1.0229,2.7528-3.3125,4.2187-2.2896,1.4662-5.7189,2.8405-10,4-8.5625,2.3189-20.506,3.7813-33.688,3.7813s-25.125-1.4623-33.688-3.7813c-4.2812-1.1594-7.7104-2.5339-10-4-2.2896-1.466-3.3125-2.9226-3.3125-4.2187v-13.844l-0.0002,0.0003z" fill-rule="nonzero" fill="url(#linearGradient27428)"/>
<path d="m542.12,730.31c0,3.1411-10.046,5.6875-22.438,5.6875s-22.438-2.5464-22.438-5.6875,10.046-5.6875,22.438-5.6875,22.438,2.5464,22.438,5.6875z" fill-rule="nonzero" transform="matrix(2.09471,0,0,2.10989,282.407,-3113.52)" fill="url(#radialGradient27430)"/>
<path id="path12064" opacity="0.5" stroke-linejoin="miter" d="m1324.5-1567.4,0,11.154v0.9333c0,6.7008,20.816,12.133,46.495,12.133,25.678,0,46.495-5.432,46.495-12.133v-0.9333-11.093c-4.1571,3.7151-19.627,9.1956-46.349,9.1956s-42.752-5.5408-46.641-9.2562z" stroke="#FFF" stroke-miterlimit="4" stroke-dasharray="none" stroke-width="1" fill="none"/>
<path opacity="0.5" stroke-linejoin="miter" d="m542.12,730.31c0,3.1411-10.046,5.6875-22.438,5.6875s-22.438-2.5464-22.438-5.6875,10.046-5.6875,22.438-5.6875,22.438,2.5464,22.438,5.6875z" transform="matrix(2.07242,0,0,2.02198,293.987,-3049.31)" stroke-dashoffset="0" stroke="#FFF" stroke-linecap="butt" stroke-miterlimit="4" stroke-dasharray="none" stroke-width="0.488509" fill="none"/>
<path id="path8855" opacity="0.25" d="m1324.5-1566.9,0,9.1536v0.9333c0,6.7008,20.816,12.133,46.495,12.133,25.678,0,46.495-5.432,46.495-12.133v-0.9333-9.093c-4.1571,3.7151-19.627,9.1956-46.349,9.1956s-42.752-5.5408-46.641-9.2562z" fill="url(#linearGradient52541)"/>
<path opacity="0.25" d="m1336.8-1580.5,71.375,15.074-19.444,3.8901-31.504-22.125-20.428,3.1607z" fill="url(#linearGradient27434)"/>
<use xlink:href="#path12064" transform="translate(0,18)" height="1085" width="5033" y="0" x="0"/>
<use xlink:href="#path8855" transform="translate(0,18)" height="1085" width="5033" y="0" x="0"/>
<use xlink:href="#path12064" transform="translate(0,36)" height="1085" width="5033" y="0" x="0"/>
<use xlink:href="#path8855" transform="translate(0,36)" height="1085" width="5033" y="0" x="0"/>
<path opacity="0.25" d="m1331.7-1563.9s1.2809,21.614,9.4257,36.528,15.245,19.133,15.245,19.133l16.834-1.4495s-17.05-11.448-25.067-27.665c-8.0166-16.217-10.008-24.395-10.008-24.395l-6.43-2.1527z" fill="url(#linearGradient27436)"/>
</g>
</g>
</g>
</svg>
