<svg xmlns:rdf="http://www.w3.org/1999/02/22-rdf-syntax-ns#" xmlns="http://www.w3.org/2000/svg" version="1.1" xmlns:cc="http://creativecommons.org/ns#" xmlns:xlink="http://www.w3.org/1999/xlink" viewBox="0 0 208 256" xmlns:dc="http://purl.org/dc/elements/1.1/">
<defs>
<linearGradient id="linearGradient7303">
<stop stop-color="#000" offset="0"/>
<stop stop-color="#000" stop-opacity="0" offset="1"/>
</linearGradient>
<linearGradient id="linearGradient8074">
<stop stop-color="#000" stop-opacity="0" offset="0"/>
<stop stop-color="#000" offset="0.49306"/>
<stop stop-color="#000" stop-opacity="0" offset="1"/>
</linearGradient>
<linearGradient id="linearGradient7976">
<stop stop-color="#FFF" stop-opacity="0.85" offset="0"/>
<stop stop-color="#FFF" stop-opacity="0.9" offset="1"/>
</linearGradient>
<linearGradient id="linearGradient7931">
<stop stop-color="#000" offset="0"/>
<stop stop-color="#000" stop-opacity="0.360784" offset="0.45461"/>
<stop stop-color="#000" stop-opacity="0" offset="1"/>
</linearGradient>
<linearGradient id="linearGradient10292">
<stop stop-color="#666" offset="0"/>
<stop stop-color="#333" offset="1"/>
</linearGradient>
<linearGradient id="linearGradient22171-1" y2="-1543.6" gradientUnits="userSpaceOnUse" x2="815.13" gradientTransform="matrix(1.64102,0,0,0.500001,2374.52,-746.817)" y1="-1491.6" x1="815.13">
<stop stop-color="#727272" offset="0"/>
<stop stop-color="#B3B3B3" offset="1"/>
</linearGradient>
<linearGradient id="linearGradient22173-7" y2="-1561.4" gradientUnits="userSpaceOnUse" x2="3793.2" y1="-1603.6" x1="3793.2">
<stop stop-color="#CCC" offset="0"/>
<stop stop-color="#B3B3B3" offset="1"/>
</linearGradient>
<linearGradient id="linearGradient22175-4" y2="-1117.8" gradientUnits="userSpaceOnUse" x2="3658.2" gradientTransform="matrix(1.90625,0,0,1.85714,-3264.03,477.832)" y1="-1076.6" x1="3658.2">
<stop stop-color="#FFF6DD" offset="0"/>
<stop stop-color="#FEF8F4" offset="1"/>
</linearGradient>
<linearGradient id="linearGradient22179-7" y2="-1494.8" gradientUnits="userSpaceOnUse" x2="3682" gradientTransform="matrix(1.01667,0,0,1.1,-62.1745,148.467)" y1="-1515" x1="3682">
<stop stop-color="#FFF" offset="0"/>
<stop stop-color="#F2F2F2" offset="1"/>
</linearGradient>
<linearGradient id="linearGradient10412-4">
<stop stop-color="#000" offset="0"/>
<stop stop-color="#4D4D4D" offset="1"/>
</linearGradient>
<linearGradient id="linearGradient22181-0" y2="-1073.6" xlink:href="#linearGradient10412-4" gradientUnits="userSpaceOnUse" x2="3669.5" y1="-1068.8" x1="3669.5"/>
<linearGradient id="linearGradient22197-3" y2="695.85" gradientUnits="userSpaceOnUse" x2="3715.9" gradientTransform="matrix(12.0378,0,0,12.0329,-41007.4,-9931.87)" y1="693.04" x1="3715.9">
<stop stop-color="#666" offset="0"/>
<stop stop-color="#808080" offset="1"/>
</linearGradient>
<linearGradient id="linearGradient22199-0" y2="696.5" gradientUnits="userSpaceOnUse" x2="3715.9" gradientTransform="matrix(12.0378,0,0,12.0329,-41007.4,-9931.87)" y1="694.66" x1="3715.9">
<stop stop-color="#666" offset="0"/>
<stop stop-color="#808080" offset="1"/>
</linearGradient>
<linearGradient id="linearGradient22201-5" y2="-1194.6" gradientUnits="userSpaceOnUse" x2="144" gradientTransform="matrix(0.745342,0,0,1,3682.67,-329)" y1="-1194.6" x1="-17">
<stop stop-color="#E9B913" stop-opacity="0" offset="0"/>
<stop stop-color="#FC5C00" offset="0.49306"/>
<stop stop-color="#E9B913" stop-opacity="0" offset="1"/>
</linearGradient>
<linearGradient id="linearGradient31105" y2="-782.64" xlink:href="#linearGradient7976" gradientUnits="userSpaceOnUse" x2="209.06" gradientTransform="matrix(8,0,0,8,1980,4583.47)" y1="-754.09" x1="209.06"/>
<linearGradient id="linearGradient31113" y2="992.42" xlink:href="#linearGradient10292" gradientUnits="userSpaceOnUse" x2="121.31" gradientTransform="matrix(15.9995,0,0,15.9955,-1815.94,-17050.2)" y1="976.38" x1="121.31"/>
<linearGradient id="linearGradient31115" y2="992.38" xlink:href="#linearGradient10292" gradientUnits="userSpaceOnUse" x2="110.97" gradientTransform="matrix(16.0634,0,0,16.1473,-1839.92,-17198.3)" y1="976.3" x1="110.97"/>
<linearGradient id="linearGradient31135" y2="243.14" gradientUnits="userSpaceOnUse" x2="294.42" gradientTransform="matrix(15.958,0,0,16.0248,-1037.13,-5573.42)" y1="256.58" x1="294.34">
<stop stop-color="#999" offset="0"/>
<stop stop-color="#E6E6E6" offset="1"/>
</linearGradient>
<linearGradient id="linearGradient31195" y2="-1230.8" xlink:href="#linearGradient7931" gradientUnits="userSpaceOnUse" x2="113.88" gradientTransform="matrix(0.780488,0,0,0.780488,-3760.6341,-520.799)" y1="-1192.6" x1="152"/>
<linearGradient id="linearGradient31215" y2="-1194.6" xlink:href="#linearGradient8074" gradientUnits="userSpaceOnUse" x2="144" gradientTransform="matrix(0.621118,0,0,1,3691.559,-257)" y1="-1194.6" x1="-17"/>
<linearGradient id="linearGradient31235" y2="-1194.6" xlink:href="#linearGradient8074" gradientUnits="userSpaceOnUse" x2="144" gradientTransform="matrix(1.41615,0,0,1,-1655.56,-2447.36)" y1="-1194.6" x1="-17"/>
<linearGradient id="linearGradient31255" y2="-1194.6" xlink:href="#linearGradient8074" gradientUnits="userSpaceOnUse" x2="144" gradientTransform="matrix(0.867106,0,0,1,-1578,-2634.36)" y1="-1194.6" x1="-17"/>
<linearGradient id="linearGradient31275" y2="-1194.6" xlink:href="#linearGradient8074" gradientUnits="userSpaceOnUse" x2="144" gradientTransform="matrix(0.621118,0,0,1,3691.559,-251)" y1="-1194.6" x1="-17"/>
<linearGradient id="linearGradient31301" y2="276.58" xlink:href="#linearGradient7303" gradientUnits="userSpaceOnUse" x2="389.1" gradientTransform="translate(3278,-1753.64)" y1="300.82" x1="364.87"/>
<linearGradient id="linearGradient31321" y2="276.58" xlink:href="#linearGradient7303" gradientUnits="userSpaceOnUse" x2="389.1" gradientTransform="matrix(1,0,0,-1,3276,-1379.64)" y1="300.82" x1="364.87"/>
<linearGradient id="linearGradient31341" y2="-1194.6" xlink:href="#linearGradient8074" gradientUnits="userSpaceOnUse" x2="144" gradientTransform="matrix(0.52406816,0,0,1.0000003,1483.0173,-2642.6286)" y1="-1194.6" x1="-17"/>
<linearGradient id="linearGradient31361" y2="-1194.6" xlink:href="#linearGradient8074" gradientUnits="userSpaceOnUse" x2="144" gradientTransform="matrix(0.52406816,0,0,1.0000003,1482.3073,-2634.8504)" y1="-1194.6" x1="-17"/>
<linearGradient id="linearGradient31381" y2="-1194.6" xlink:href="#linearGradient8074" gradientUnits="userSpaceOnUse" x2="144" gradientTransform="matrix(0.52406816,0,0,1.0000003,1482.3073,-2663.1347)" y1="-1194.6" x1="-17"/>
<linearGradient id="linearGradient31401" y2="-1194.6" xlink:href="#linearGradient8074" gradientUnits="userSpaceOnUse" x2="144" gradientTransform="matrix(1.41615,0,0,1,-1655.56,-2441.36)" y1="-1194.6" x1="-17"/>
<linearGradient id="linearGradient31421" y2="-1194.6" xlink:href="#linearGradient8074" gradientUnits="userSpaceOnUse" x2="144" gradientTransform="matrix(0.899038,0,0,1,-1580.99,5016.64)" y1="-1194.6" x1="-17"/>
<linearGradient id="linearGradient31441" y2="-1230.8" xlink:href="#linearGradient7931" gradientUnits="userSpaceOnUse" x2="113.88" gradientTransform="matrix(0.780488,0,0,0.780488,3703.3659,-520.799)" y1="-1192.6" x1="152"/>
<linearGradient id="linearGradient31461" y2="276.58" xlink:href="#linearGradient7303" gradientUnits="userSpaceOnUse" x2="389.1" gradientTransform="matrix(-1,0,0,1,4186,-1753.64)" y1="300.82" x1="364.87"/>
<linearGradient id="linearGradient58971" y2="-1574.6" gradientUnits="userSpaceOnUse" x2="535" gradientTransform="matrix(2.5,0,0,6.33333,2347.5,8412.07)" y1="-1568.6" x1="529.25">
<stop stop-color="#FC5C00" offset="0"/>
<stop stop-color="#CCC" stop-opacity="0" offset="1"/>
</linearGradient>
<linearGradient id="linearGradient58973" y2="-1194.6" gradientUnits="userSpaceOnUse" x2="144" gradientTransform="matrix(0.459627,0,0,1,-1589.82,-2476.36)" y1="-1194.6" x1="-17">
<stop stop-color="#E9B913" stop-opacity="0" offset="0"/>
<stop stop-color="#FC5C00" offset="0.49306"/>
<stop stop-color="#E9B913" stop-opacity="0" offset="1"/>
</linearGradient>
<linearGradient id="linearGradient58975" y2="-1194.6" xlink:href="#linearGradient8074" gradientUnits="userSpaceOnUse" x2="144" gradientTransform="matrix(0.482919,0,0,1,-1591.18,-2474.36)" y1="-1194.6" x1="-17"/>
<linearGradient id="linearGradient58977" y2="-1230.8" gradientUnits="userSpaceOnUse" x2="113.88" gradientTransform="matrix(0.243902,0,0,0.243902,3752.93,-1205.75)" y1="-1192.6" x1="152">
<stop stop-color="#000" offset="0"/>
<stop stop-color="#000" stop-opacity="0.360784" offset="0.45461"/>
<stop stop-color="#000" stop-opacity="0" offset="1"/>
</linearGradient>
<linearGradient id="linearGradient58979" y2="276.58" gradientUnits="userSpaceOnUse" x2="389.1" gradientTransform="translate(3301,-1793.64)" y1="300.82" x1="364.87">
<stop stop-color="#000" offset="0"/>
<stop stop-color="#000" stop-opacity="0" offset="1"/>
</linearGradient>
<linearGradient id="linearGradient58981" y2="-1194.6" xlink:href="#linearGradient8074" gradientUnits="userSpaceOnUse" x2="144" gradientTransform="matrix(0.136646,0,0,0.999984,-1515.31,-2474.38)" y1="-1194.6" x1="-17"/>
</defs>
<metadata>
<rdf:RDF>
<cc:Work rdf:about="">
<dc:format>image/svg+xml</dc:format>
<dc:type rdf:resource="http://purl.org/dc/dcmitype/StillImage"/>
<dc:title/>
</cc:Work>
</rdf:RDF>
</metadata>
<g transform="translate(123,924.64)">
<use opacity="0.75" xlink:href="#g7586" transform="translate(1571,0)" height="1085" width="5033" y="0" x="0"/>
<text font-weight="normal" xml:space="preserve" font-size="8px" font-style="normal" font-stretch="normal" font-variant="normal" y="-1109.14" x="382.125" font-family="Sans" fill="black"><tspan y="-1109.14" x="382.125"/></text>
</g>
<g transform="translate(0,-829)">
<g transform="matrix(1.0000042,0,0,1,-3630.0154,2522.6381)">
<g transform="translate(2,0)">
<path d="m3642-1677.5v226c60,0,120-0.0001,180,0v-140.44c-28.986-29.202-58.078-58.298-87-87.562-31-0.0001-62,0-93,0v1,1z" fill="url(#linearGradient31105)"/>
<g transform="matrix(1.00001,0,0,0.999844,3667.9939,-261.184)">
<path style="direction:ltr;text-indent:0pt;text-align:start;text-transform:none;" fill="url(#linearGradient31113)" d="m-39.993-1184.6c0,3.8673,3.6224,7.9298,7.7569,7.9298h191.99c4.627,0,8.2495-3.8705,8.2495-7.7455v-149.21c0-4.2249-0.51199-6.1833-3.4999-9.171l-85.324-85.298c-2.9882-2.9873-5.2737-4.5274-9.4996-4.5307l-101.74-0.08c-4.1335,0-7.9337,3.6832-7.9337,8.1221v239.99z"/>
<path style="direction:ltr;text-indent:0pt;text-align:start;text-transform:none;" d="m103.26-1421.9,53.19,53.442c4.3386,4.3589,11.554,3.3243,11.554-3.5507v-52.442c0-4.2273-3.8264-8.1968-8.0317-8.1968h-53.19c-6.8375,0-7.1374,7.1146-3.5218,10.747z" fill-rule="nonzero" fill="url(#linearGradient31115)"/>
</g>
<path style="direction:ltr;text-indent:0pt;text-align:start;text-transform:none;" d="m3636-1683.6v238h192v-151.41c-29.383-29.502-58.745-59.026-88.062-88.594-34.646-0.0001-69.292,0-103.94,0v1,1z" fill-rule="nonzero" fill="url(#linearGradient31135)"/>
<path d="m3642-1677.5v226c60,0,120-0.0001,180,0v-140.44c-28.986-29.202-58.078-58.298-87-87.562-31-0.0001-62,0-93,0v1,1z" fill="url(#linearGradient31105)"/>
<path opacity="0.15" style="direction:ltr;text-indent:0pt;text-align:start;text-transform:none;" d="m3636-1685.6,0,1,0,1,0,238,192,0,0-151.41c-29.383-29.502-58.745-59.026-88.062-88.594-34.646-0.0001-69.292,0-103.94,0zm1,1c34.167,0,68.333-0.0001,102.5,0,29.148,29.362,58.296,58.725,87.5,88.031v149.97c-63.333,0-126.67-0.0001-190,0v-237-1z" fill-rule="nonzero" fill="#FFF"/>
<rect opacity="0.15" fill-rule="nonzero" transform="scale(-1,1)" height="64" width="64" y="-1515.6" x="-3706" fill="url(#linearGradient31195)"/>
<rect opacity="0.2" fill-rule="nonzero" height="1" width="100" y="-1451.6" x="3681" fill="url(#linearGradient31215)"/>
<rect opacity="0.2" fill-rule="nonzero" transform="matrix(0,1,-1,0,0,0)" height="1" width="228" y="-3642" x="-1679.6" fill="url(#linearGradient31235)"/>
<rect opacity="0.5" fill-rule="nonzero" transform="matrix(0,1,-1,0,0,0)" height="1" width="139.6" y="-3829" x="-1592.7" fill="url(#linearGradient31255)"/>
<rect opacity="0.5" fill-rule="nonzero" height="1" width="100" y="-1445.6" x="3681" fill="url(#linearGradient31275)"/>
<path opacity="0.15" d="m3643-1502.6,0,49,0,1,1,0,49,0,0-1-49,0,0-49-1,0z" fill-rule="nonzero" fill="url(#linearGradient31301)"/>
<path opacity="0.1" d="m3641-1630.6,0-49,0-1,1,0,49,0,0,1-49,0,0,49-1,0z" fill-rule="nonzero" fill="url(#linearGradient31321)"/>
<rect opacity="0.4" fill-rule="nonzero" transform="matrix(0.70710678,0.70710678,-0.70710678,0.70710678,0,0)" height="1" width="84.375" y="-3837.3" x="1474.1" fill="url(#linearGradient31341)"/>
<rect opacity="0.1" fill-rule="nonzero" transform="matrix(0.70710678,0.70710678,-0.70710678,0.70710678,0,0)" height="1" width="84.375" y="-3829.5" x="1473.4" fill="url(#linearGradient31361)"/>
<rect opacity="0.4" fill-rule="nonzero" transform="matrix(0.70710678,0.70710678,-0.70710678,0.70710678,0,0)" height="1" width="84.375" y="-3857.8" x="1473.4" fill="url(#linearGradient31381)"/>
<rect opacity="0.5" fill-rule="nonzero" transform="matrix(0,1,-1,0,0,0)" height="1" width="228" y="-3636" x="-1679.6" fill="url(#linearGradient31401)"/>
<rect opacity="0.2" fill-rule="nonzero" transform="matrix(0,1,1,0,0,0)" height="1" width="144.75" y="3822" x="-1596.3" fill="url(#linearGradient31421)"/>
<rect opacity="0.15" fill-rule="nonzero" height="64" width="64" y="-1515.6" x="3758" fill="url(#linearGradient31441)"/>
<path opacity="0.15" d="m3821-1502.6,0,49,0,1-1,0-49,0,0-1,49,0,0-49,1,0z" fill-rule="nonzero" fill="url(#linearGradient31461)"/>
</g>
<g transform="translate(2,0)">
<rect opacity="0.15" fill-rule="nonzero" height="28" width="128" y="-1518.6" x="3666" fill="#000"/>
<rect fill-rule="nonzero" height="28" width="128" y="-1520.6" x="3666" fill="url(#linearGradient22171-1)"/>
<rect fill-rule="nonzero" height="84" width="128" y="-1602.6" x="3666" fill="url(#linearGradient22173-7)"/>
<rect fill-rule="nonzero" rx="1" ry="1" height="78" width="122" y="-1599.6" x="3669" fill="url(#linearGradient22175-4)"/>
<rect id="rect10222" opacity="0.25" rx="2" fill-rule="nonzero" ry="2" height="76" width="30" y="-1598.6" x="3670" fill="url(#linearGradient58971)"/>
<rect fill-rule="nonzero" height="22" width="122" y="-1517.6" x="3669" fill="url(#linearGradient22179-7)"/>
<g font-size="8.76535988px" transform="matrix(2.0003,0,0,2,-3609.1,631.134)" font-stretch="normal" font-variant="normal" font-style="normal" font-weight="normal" fill="#FFF">
<path d="m3655.3-1071.4,0,0.7704c-0.2254-0.1313-0.4523-0.2297-0.6805-0.2953-0.2283-0.066-0.4608-0.099-0.6977-0.099-0.3566,0-0.6234,0.059-0.8003,0.1755-0.1741,0.1141-0.2611,0.2896-0.2611,0.5264,0,0.214,0.066,0.3738,0.1969,0.4794,0.1312,0.1056,0.4579,0.2083,0.9801,0.3082l0.3167,0.06c0.3909,0.074,0.6862,0.2225,0.886,0.4451,0.2025,0.2225,0.3038,0.5122,0.3038,0.8688,0,0.4737-0.1683,0.8446-0.505,1.1128-0.3367,0.2654-0.8046,0.398-1.4038,0.398-0.2369,0-0.4851-0.026-0.7447-0.077-0.2597-0.049-0.5407-0.1227-0.8432-0.2225v-0.8132c0.2939,0.1512,0.575,0.2653,0.8432,0.3424,0.2682,0.074,0.5221,0.1112,0.7618,0.1112,0.3481,0,0.6177-0.07,0.8089-0.2097,0.1912-0.1426,0.2868-0.341,0.2868-0.5949,0-0.3652-0.3496-0.6177-1.0486-0.7576l-0.034-0.01-0.2953-0.06c-0.4537-0.089-0.7846-0.2369-0.9929-0.4451-0.2083-0.2112-0.3125-0.4979-0.3125-0.8603,0-0.4594,0.1555-0.8132,0.4665-1.0614,0.3111-0.2511,0.7547-0.3767,1.3311-0.3767,0.2568,0,0.5036,0.024,0.7404,0.073,0.2369,0.046,0.4694,0.1155,0.6977,0.2097"/>
<path d="m3657.8-1069.1c0,0.6106,0.096,1.0714,0.2867,1.3824,0.1941,0.311,0.4808,0.4665,0.8603,0.4665s0.6663-0.1555,0.8603-0.4665c0.1969-0.3139,0.2953-0.7747,0.2953-1.3824,0-0.6078-0.098-1.0672-0.2953-1.3782-0.194-0.3139-0.4808-0.4708-0.8603-0.4708s-0.6662,0.1555-0.8603,0.4665c-0.1911,0.311-0.2867,0.7718-0.2867,1.3825m2.3026,1.7804c-0.1284,0.2368-0.3024,0.4195-0.5222,0.5478-0.2168,0.1256-0.4693,0.1884-0.7575,0.1884-0.5735,0-1.0272-0.2212-1.361-0.6634-0.331-0.4451-0.4965-1.0572-0.4965-1.8361,0-0.7932,0.1655-1.4138,0.4965-1.8618s0.7846-0.672,1.361-0.672c0.2853,0,0.5364,0.063,0.7533,0.1884,0.2197,0.1226,0.3951,0.3024,0.5264,0.5392v-0.612h0.7918v6.6168h-0.7918v-2.4353"/>
<path d="m3666.5-1070.4c-0.1683-0.1313-0.3395-0.2268-0.5136-0.2868-0.174-0.06-0.3652-0.09-0.5735-0.09-0.4908,0-0.866,0.154-1.1256,0.4622-0.2597,0.3082-0.3895,0.7533-0.3895,1.3353v2.384h-0.7918v-4.7936h0.7918v0.9373c0.1312-0.3395,0.3324-0.5992,0.6035-0.7789,0.2739-0.1826,0.5977-0.2739,0.9715-0.2739,0.194,0,0.3752,0.024,0.5436,0.073,0.1683,0.049,0.3295,0.1241,0.4836,0.2269v0.8046"/>
<path d="m3669.9-1072.8,0,1.3611,1.789,0,0,0.612-1.789,0,0,2.6022c0,0.3538,0.067,0.6006,0.2011,0.7405,0.1341,0.1398,0.3681,0.2097,0.7019,0.2097h0.886v0.6291h-0.963c-0.5906,0-1.0072-0.1184-1.2498-0.3552-0.2425-0.2368-0.3638-0.6449-0.3638-1.2241v-2.6022h-1.2797v-0.612h1.2797v-1.3611h0.7876"/>
<path d="m3677.2-1066.2,0,0.6163-0.2739,0c-0.7105,0-1.187-0.1055-1.4295-0.3167-0.2397-0.2111-0.3596-0.632-0.3595-1.2626v-1.0229c-0.0001-0.4308-0.077-0.729-0.2312-0.8945-0.1512-0.1655-0.4265-0.2482-0.826-0.2482h-0.2654v-0.6121h0.2654c0.4023,0,0.6791-0.081,0.8303-0.2439,0.1512-0.1627,0.2268-0.458,0.2269-0.886v-1.0272c-0.0001-0.6305,0.1198-1.05,0.3595-1.2583,0.2425-0.2111,0.719-0.3167,1.4295-0.3167h0.2739v0.612h-0.2996c-0.3995,0.0001-0.6606,0.063-0.7832,0.1884-0.1199,0.1227-0.1798,0.3866-0.1798,0.7918v1.0614c0,0.448-0.066,0.7732-0.1969,0.9758-0.1284,0.2026-0.3495,0.3396-0.6634,0.4109,0.3167,0.077,0.5393,0.2168,0.6677,0.4194s0.1926,0.5265,0.1926,0.9716v1.0614c0,0.408,0.06,0.6734,0.1798,0.7961,0.1226,0.1227,0.3837,0.184,0.7832,0.184h0.2996"/>
<path d="m3682.5-1071.5-1.7163,2.294,1.8832,2.4995-0.9116,0-1.4039-1.9217-1.3995,1.9217-0.9116,0,1.8831-2.4995-1.7162-2.294,0.8731,0,1.2711,1.7334,1.2626-1.7334,0.886,0"/>
<path d="m3683.9-1066.2,0.291,0c0.4024,0,0.6649-0.063,0.7876-0.1883,0.1227-0.1255,0.184-0.3895,0.184-0.7918v-1.0614c0-0.4451,0.064-0.769,0.1926-0.9716,0.1284-0.2026,0.351-0.3424,0.6677-0.4194-0.3139-0.071-0.5365-0.2083-0.6677-0.4109-0.1284-0.2026-0.1926-0.5278-0.1926-0.9758v-1.0614c0-0.4024-0.061-0.6663-0.184-0.7918-0.1227-0.1256-0.3852-0.1883-0.7876-0.1884h-0.291v-0.612h0.2654c0.7104,0,1.1855,0.1056,1.4252,0.3167,0.2397,0.2083,0.3595,0.6278,0.3595,1.2583v1.0272c0,0.428,0.076,0.7233,0.2269,0.886,0.154,0.1626,0.4322,0.2439,0.8345,0.2439h0.274v0.6121h-0.274c-0.4023,0-0.6805,0.083-0.8345,0.2482-0.1513,0.1655-0.2269,0.4637-0.2269,0.8945v1.0229c0,0.6306-0.1198,1.0515-0.3595,1.2626-0.2397,0.2112-0.7148,0.3167-1.4252,0.3167h-0.2654v-0.6163"/>
</g>
<g opacity="0.15" font-size="8.76535988px" transform="matrix(2.0003,0,0,2,-3609.1,634.134)" font-stretch="normal" font-variant="normal" font-style="normal" font-weight="normal" fill="#000">
<path d="m3655.3-1071.4,0,0.7704c-0.2254-0.1313-0.4523-0.2297-0.6805-0.2953-0.2283-0.066-0.4608-0.099-0.6977-0.099-0.3566,0-0.6234,0.059-0.8003,0.1755-0.1741,0.1141-0.2611,0.2896-0.2611,0.5264,0,0.214,0.066,0.3738,0.1969,0.4794,0.1312,0.1056,0.4579,0.2083,0.9801,0.3082l0.3167,0.06c0.3909,0.074,0.6862,0.2225,0.886,0.4451,0.2025,0.2225,0.3038,0.5122,0.3038,0.8688,0,0.4737-0.1683,0.8446-0.505,1.1128-0.3367,0.2654-0.8046,0.398-1.4038,0.398-0.2369,0-0.4851-0.026-0.7447-0.077-0.2597-0.049-0.5407-0.1227-0.8432-0.2225v-0.8132c0.2939,0.1512,0.575,0.2653,0.8432,0.3424,0.2682,0.074,0.5221,0.1112,0.7618,0.1112,0.3481,0,0.6177-0.07,0.8089-0.2097,0.1912-0.1426,0.2868-0.341,0.2868-0.5949,0-0.3652-0.3496-0.6177-1.0486-0.7576l-0.034-0.01-0.2953-0.06c-0.4537-0.089-0.7846-0.2369-0.9929-0.4451-0.2083-0.2112-0.3125-0.4979-0.3125-0.8603,0-0.4594,0.1555-0.8132,0.4665-1.0614,0.3111-0.2511,0.7547-0.3767,1.3311-0.3767,0.2568,0,0.5036,0.024,0.7404,0.073,0.2369,0.046,0.4694,0.1155,0.6977,0.2097"/>
<path d="m3657.8-1069.1c0,0.6106,0.096,1.0714,0.2867,1.3824,0.1941,0.311,0.4808,0.4665,0.8603,0.4665s0.6663-0.1555,0.8603-0.4665c0.1969-0.3139,0.2953-0.7747,0.2953-1.3824,0-0.6078-0.098-1.0672-0.2953-1.3782-0.194-0.3139-0.4808-0.4708-0.8603-0.4708s-0.6662,0.1555-0.8603,0.4665c-0.1911,0.311-0.2867,0.7718-0.2867,1.3825m2.3026,1.7804c-0.1284,0.2368-0.3024,0.4195-0.5222,0.5478-0.2168,0.1256-0.4693,0.1884-0.7575,0.1884-0.5735,0-1.0272-0.2212-1.361-0.6634-0.331-0.4451-0.4965-1.0572-0.4965-1.8361,0-0.7932,0.1655-1.4138,0.4965-1.8618s0.7846-0.672,1.361-0.672c0.2853,0,0.5364,0.063,0.7533,0.1884,0.2197,0.1226,0.3951,0.3024,0.5264,0.5392v-0.612h0.7918v6.6168h-0.7918v-2.4353"/>
<path d="m3666.5-1070.4c-0.1683-0.1313-0.3395-0.2268-0.5136-0.2868-0.174-0.06-0.3652-0.09-0.5735-0.09-0.4908,0-0.866,0.154-1.1256,0.4622-0.2597,0.3082-0.3895,0.7533-0.3895,1.3353v2.384h-0.7918v-4.7936h0.7918v0.9373c0.1312-0.3395,0.3324-0.5992,0.6035-0.7789,0.2739-0.1826,0.5977-0.2739,0.9715-0.2739,0.194,0,0.3752,0.024,0.5436,0.073,0.1683,0.049,0.3295,0.1241,0.4836,0.2269v0.8046"/>
<path d="m3669.9-1072.8,0,1.3611,1.789,0,0,0.612-1.789,0,0,2.6022c0,0.3538,0.067,0.6006,0.2011,0.7405,0.1341,0.1398,0.3681,0.2097,0.7019,0.2097h0.886v0.6291h-0.963c-0.5906,0-1.0072-0.1184-1.2498-0.3552-0.2425-0.2368-0.3638-0.6449-0.3638-1.2241v-2.6022h-1.2797v-0.612h1.2797v-1.3611h0.7876"/>
<path d="m3677.2-1066.2,0,0.6163-0.2739,0c-0.7105,0-1.187-0.1055-1.4295-0.3167-0.2397-0.2111-0.3596-0.632-0.3595-1.2626v-1.0229c-0.0001-0.4308-0.077-0.729-0.2312-0.8945-0.1512-0.1655-0.4265-0.2482-0.826-0.2482h-0.2654v-0.6121h0.2654c0.4023,0,0.6791-0.081,0.8303-0.2439,0.1512-0.1627,0.2268-0.458,0.2269-0.886v-1.0272c-0.0001-0.6305,0.1198-1.05,0.3595-1.2583,0.2425-0.2111,0.719-0.3167,1.4295-0.3167h0.2739v0.612h-0.2996c-0.3995,0.0001-0.6606,0.063-0.7832,0.1884-0.1199,0.1227-0.1798,0.3866-0.1798,0.7918v1.0614c0,0.448-0.066,0.7732-0.1969,0.9758-0.1284,0.2026-0.3495,0.3396-0.6634,0.4109,0.3167,0.077,0.5393,0.2168,0.6677,0.4194s0.1926,0.5265,0.1926,0.9716v1.0614c0,0.408,0.06,0.6734,0.1798,0.7961,0.1226,0.1227,0.3837,0.184,0.7832,0.184h0.2996"/>
<path d="m3682.5-1071.5-1.7163,2.294,1.8832,2.4995-0.9116,0-1.4039-1.9217-1.3995,1.9217-0.9116,0,1.8831-2.4995-1.7162-2.294,0.8731,0,1.2711,1.7334,1.2626-1.7334,0.886,0"/>
<path d="m3683.9-1066.2,0.291,0c0.4024,0,0.6649-0.063,0.7876-0.1883,0.1227-0.1255,0.184-0.3895,0.184-0.7918v-1.0614c0-0.4451,0.064-0.769,0.1926-0.9716,0.1284-0.2026,0.351-0.3424,0.6677-0.4194-0.3139-0.071-0.5365-0.2083-0.6677-0.4109-0.1284-0.2026-0.1926-0.5278-0.1926-0.9758v-1.0614c0-0.4024-0.061-0.6663-0.184-0.7918-0.1227-0.1256-0.3852-0.1883-0.7876-0.1884h-0.291v-0.612h0.2654c0.7104,0,1.1855,0.1056,1.4252,0.3167,0.2397,0.2083,0.3595,0.6278,0.3595,1.2583v1.0272c0,0.428,0.076,0.7233,0.2269,0.886,0.154,0.1626,0.4322,0.2439,0.8345,0.2439h0.274v0.6121h-0.274c-0.4023,0-0.6805,0.083-0.8345,0.2482-0.1513,0.1655-0.2269,0.4637-0.2269,0.8945v1.0229c0,0.6306-0.1198,1.0515-0.3595,1.2626-0.2397,0.2112-0.7148,0.3167-1.4252,0.3167h-0.2654v-0.6163"/>
</g>
<g opacity="0.9" transform="matrix(2.0003,0,0,2,-3609.1,632.134)" font-style="normal" font-stretch="normal" font-size="8.76535988px" font-variant="normal" font-weight="normal" fill="url(#linearGradient22181-0)">
<path d="m3655.3-1071.4,0,0.7704c-0.2254-0.1313-0.4523-0.2297-0.6805-0.2953-0.2283-0.066-0.4608-0.099-0.6977-0.099-0.3566,0-0.6234,0.059-0.8003,0.1755-0.1741,0.1141-0.2611,0.2896-0.2611,0.5264,0,0.214,0.066,0.3738,0.1969,0.4794,0.1312,0.1056,0.4579,0.2083,0.9801,0.3082l0.3167,0.06c0.3909,0.074,0.6862,0.2225,0.886,0.4451,0.2025,0.2225,0.3038,0.5122,0.3038,0.8688,0,0.4737-0.1683,0.8446-0.505,1.1128-0.3367,0.2654-0.8046,0.398-1.4038,0.398-0.2369,0-0.4851-0.026-0.7447-0.077-0.2597-0.049-0.5407-0.1227-0.8432-0.2225v-0.8132c0.2939,0.1512,0.575,0.2653,0.8432,0.3424,0.2682,0.074,0.5221,0.1112,0.7618,0.1112,0.3481,0,0.6177-0.07,0.8089-0.2097,0.1912-0.1426,0.2868-0.341,0.2868-0.5949,0-0.3652-0.3496-0.6177-1.0486-0.7576l-0.034-0.01-0.2953-0.06c-0.4537-0.089-0.7846-0.2369-0.9929-0.4451-0.2083-0.2112-0.3125-0.4979-0.3125-0.8603,0-0.4594,0.1555-0.8132,0.4665-1.0614,0.3111-0.2511,0.7547-0.3767,1.3311-0.3767,0.2568,0,0.5036,0.024,0.7404,0.073,0.2369,0.046,0.4694,0.1155,0.6977,0.2097"/>
<path d="m3657.8-1069.1c0,0.6106,0.096,1.0714,0.2867,1.3824,0.1941,0.311,0.4808,0.4665,0.8603,0.4665s0.6663-0.1555,0.8603-0.4665c0.1969-0.3139,0.2953-0.7747,0.2953-1.3824,0-0.6078-0.098-1.0672-0.2953-1.3782-0.194-0.3139-0.4808-0.4708-0.8603-0.4708s-0.6662,0.1555-0.8603,0.4665c-0.1911,0.311-0.2867,0.7718-0.2867,1.3825m2.3026,1.7804c-0.1284,0.2368-0.3024,0.4195-0.5222,0.5478-0.2168,0.1256-0.4693,0.1884-0.7575,0.1884-0.5735,0-1.0272-0.2212-1.361-0.6634-0.331-0.4451-0.4965-1.0572-0.4965-1.8361,0-0.7932,0.1655-1.4138,0.4965-1.8618s0.7846-0.672,1.361-0.672c0.2853,0,0.5364,0.063,0.7533,0.1884,0.2197,0.1226,0.3951,0.3024,0.5264,0.5392v-0.612h0.7918v6.6168h-0.7918v-2.4353"/>
<path d="m3666.5-1070.4c-0.1683-0.1313-0.3395-0.2268-0.5136-0.2868-0.174-0.06-0.3652-0.09-0.5735-0.09-0.4908,0-0.866,0.154-1.1256,0.4622-0.2597,0.3082-0.3895,0.7533-0.3895,1.3353v2.384h-0.7918v-4.7936h0.7918v0.9373c0.1312-0.3395,0.3324-0.5992,0.6035-0.7789,0.2739-0.1826,0.5977-0.2739,0.9715-0.2739,0.194,0,0.3752,0.024,0.5436,0.073,0.1683,0.049,0.3295,0.1241,0.4836,0.2269v0.8046"/>
<path d="m3669.9-1072.8,0,1.3611,1.789,0,0,0.612-1.789,0,0,2.6022c0,0.3538,0.067,0.6006,0.2011,0.7405,0.1341,0.1398,0.3681,0.2097,0.7019,0.2097h0.886v0.6291h-0.963c-0.5906,0-1.0072-0.1184-1.2498-0.3552-0.2425-0.2368-0.3638-0.6449-0.3638-1.2241v-2.6022h-1.2797v-0.612h1.2797v-1.3611h0.7876"/>
<path d="m3677.2-1066.2,0,0.6163-0.2739,0c-0.7105,0-1.187-0.1055-1.4295-0.3167-0.2397-0.2111-0.3596-0.632-0.3595-1.2626v-1.0229c-0.0001-0.4308-0.077-0.729-0.2312-0.8945-0.1512-0.1655-0.4265-0.2482-0.826-0.2482h-0.2654v-0.6121h0.2654c0.4023,0,0.6791-0.081,0.8303-0.2439,0.1512-0.1627,0.2268-0.458,0.2269-0.886v-1.0272c-0.0001-0.6305,0.1198-1.05,0.3595-1.2583,0.2425-0.2111,0.719-0.3167,1.4295-0.3167h0.2739v0.612h-0.2996c-0.3995,0.0001-0.6606,0.063-0.7832,0.1884-0.1199,0.1227-0.1798,0.3866-0.1798,0.7918v1.0614c0,0.448-0.066,0.7732-0.1969,0.9758-0.1284,0.2026-0.3495,0.3396-0.6634,0.4109,0.3167,0.077,0.5393,0.2168,0.6677,0.4194s0.1926,0.5265,0.1926,0.9716v1.0614c0,0.408,0.06,0.6734,0.1798,0.7961,0.1226,0.1227,0.3837,0.184,0.7832,0.184h0.2996"/>
<path d="m3682.5-1071.5-1.7163,2.294,1.8832,2.4995-0.9116,0-1.4039-1.9217-1.3995,1.9217-0.9116,0,1.8831-2.4995-1.7162-2.294,0.8731,0,1.2711,1.7334,1.2626-1.7334,0.886,0"/>
<path d="m3683.9-1066.2,0.291,0c0.4024,0,0.6649-0.063,0.7876-0.1883,0.1227-0.1255,0.184-0.3895,0.184-0.7918v-1.0614c0-0.4451,0.064-0.769,0.1926-0.9716,0.1284-0.2026,0.351-0.3424,0.6677-0.4194-0.3139-0.071-0.5365-0.2083-0.6677-0.4109-0.1284-0.2026-0.1926-0.5278-0.1926-0.9758v-1.0614c0-0.4024-0.061-0.6663-0.184-0.7918-0.1227-0.1256-0.3852-0.1883-0.7876-0.1884h-0.291v-0.612h0.2654c0.7104,0,1.1855,0.1056,1.4252,0.3167,0.2397,0.2083,0.3595,0.6278,0.3595,1.2583v1.0272c0,0.428,0.076,0.7233,0.2269,0.886,0.154,0.1626,0.4322,0.2439,0.8345,0.2439h0.274v0.6121h-0.274c-0.4023,0-0.6805,0.083-0.8345,0.2482-0.1513,0.1655-0.2269,0.4637-0.2269,0.8945v1.0229c0,0.6306-0.1198,1.0515-0.3595,1.2626-0.2397,0.2112-0.7148,0.3167-1.4252,0.3167h-0.2654v-0.6163"/>
</g>
<use xlink:href="#rect10222" transform="matrix(-1,0,0,1,7460,0)" height="1085" width="5033" y="0" x="0"/>
<path opacity="0.75" stroke-linejoin="miter" d="m3672.5-1527.1,115.01,0m-115.01-45,115.01,0m-115.01-20,115.01,0" stroke="#FFF" stroke-linecap="square" stroke-width="1px" fill="none"/>
<path opacity="0.25" stroke-linejoin="miter" d="m3781.5-1597.1,0,72.999m-103-72.999,0,72.999m51-72.999,0,72.999m-57.004-4,115.01,0m-115.01-45,115.01,0m-115.01-20,115.01,0" stroke-dashoffset="0" stroke="#f87019" stroke-linecap="square" stroke-miterlimit="4" stroke-dasharray="1, 1" stroke-width="1" fill="none"/>
<path fill="#FFF" d="m3722-1592.6,60.032,0,0,12-6.0033,0,0-4-48.286,0-24.365,58-5.0992,0-14.814-31.545-5.8739,3.2928-2.1997-7.5648,0.6725-1.5554,12.075-3.6375,12.594,24.58,21.262-49.57"/>
<path opacity="0.7" stroke-linejoin="miter" d="m3781.5-1597.1,0,72.999m-103-72.999,0,72.999m51-72.999,0,72.999m-57.004-4,115.01,0m-115.01-45,115.01,0m-115.01-20,115.01,0" stroke-dashoffset="0" stroke="#f87019" stroke-linecap="square" stroke-miterlimit="4" stroke-dasharray="1, 3" stroke-width="1" fill="none"/>
<path opacity="0.8" d="m3722-1593.6,60.032,0,0,12-6.0033,0,0-4-49.02,0-24.458,58-3.5523,0-14.98-31.966-5.8335,3.0573-2.1523-7.4951,12.106-4.6063,12.594,24.58,21.262-49.57" fill="url(#linearGradient22197-3)"/>
<path d="m3778.9-1572.6-10.459,0-12.19,15.997-0.3098,0-11.777-15.997-11.275,0,16.872,22.43,0,0.285-16.96,23.285,10.624,0,12.309-16.709,0.31,0,12.398,16.709,11.362,0-17.364-23.665,0-0.2852,16.459-22.05" fill-rule="nonzero" fill="#FFF"/>
<path opacity="0.8" d="m3778.4-1573.6-9.9172,0-12.19,15.997-0.3098,0-11.777-15.997-10.744,0,16.872,22.43,0,0.285-17.492,23.285,9.9173,0,13.016-17.328,0.31,0,13.017,17.328,10.744,0-17.905-23.665,0-0.2852,16.459-22.05" fill-rule="nonzero" fill="url(#linearGradient22199-0)"/>
<path opacity="0.25" fill="#000" d="m3722-1593.6-21.281,49.562-12.594-24.562-12.094,4.5937,0.3125,1.125,11.188-4.375,13.188,25.875,22.094-51.219,58.219,0,0,11,1,0,0-12-60.031,0zm54.031,8,0,4,1.0938,0,0-3.125-1.0626-0.875-0.031,0-0.0002,0z"/>
<path opacity="0.25" d="m3733.4-1573.6,0.75,1,9.4688,0,11.781,16,1.4063,0,12.188-16,8.5938,0,0.75-1-9.9063,0-12.188,16-0.3125,0-11.781-16-10.75,0zm28.5,22.062-0.4687,1.2812,17.156,22.656,1.2187,0-17.906-23.656,0-0.2812zm-11.625,0.5,0,0.1562-17.469,23.281,1.3125,0,16.719-22.281-0.5626-1.1562z" fill-rule="nonzero" fill="#000"/>
<rect opacity="0.35" fill-rule="nonzero" height="1" width="120" y="-1523.6" x="3670" fill="url(#linearGradient22201-5)"/>
<rect id="rect10312" opacity="0.35" fill-rule="nonzero" transform="matrix(0,1,-1,0,0,0)" height="1" width="74" y="-3671" x="-1597.6" fill="url(#linearGradient58973)"/>
<use xlink:href="#rect10312" transform="translate(119,0)" height="1085" width="5033" y="0" x="0"/>
<rect id="rect10352" opacity="0.25" fill-rule="nonzero" transform="matrix(0,1,-1,0,0,0)" height="1" width="77.75" y="-3669" x="-1599.4" fill="url(#linearGradient58975)"/>
<use xlink:href="#rect10352" transform="translate(123,0)" height="1085" width="5033" y="0" x="0"/>
<use id="use10386" xlink:href="#rect10352" transform="matrix(0,1,-1.56913,0,1280.85,-5189.64)" height="1085" width="5033" y="0" x="0"/>
<use id="use10408" xlink:href="#use10386" transform="translate(0,26)" height="1085" width="5033" y="0" x="0"/>
<use opacity="0.5" xlink:href="#use10408" transform="translate(0,-23)" height="1085" width="5033" y="0" x="0"/>
<rect id="rect10420" opacity="0.15" fill-rule="nonzero" height="20" width="20" y="-1516.6" x="3770" fill="url(#linearGradient58977)"/>
<use xlink:href="#rect10420" transform="matrix(-1,0,0,1,7460,0)" height="1085" width="5033" y="0" x="0"/>
<use opacity="0.5" xlink:href="#rect10352" transform="matrix(0,1,-1.56913,0,1280.85,-5188.64)" height="1085" width="5033" y="0" x="0"/>
<use opacity="0.5" xlink:href="#rect10352" transform="matrix(0,1,-1.56913,0,1280.85,-5268.64)" height="1085" width="5033" y="0" x="0"/>
<path id="path8482-9" opacity="0.5" d="m3666-1542.6,0,49,0,1,1,0,49,0,0-1-49,0,0-49-1,0z" fill-rule="nonzero" fill="url(#linearGradient58979)"/>
<use xlink:href="#path8482-9" transform="matrix(-1,0,0,1,7460,0)" height="1085" width="5033" y="0" x="0"/>
<use opacity="0.25" xlink:href="#path8482-9" transform="matrix(-1,0,0,-1,7460,-3095.28)" height="1085" width="5033" y="0" x="0"/>
<use opacity="0.25" xlink:href="#path8482-9" transform="matrix(1,0,0,-1,0,-3095.28)" height="1085" width="5033" y="0" x="0"/>
<rect id="rect10501" opacity="0.5" fill-rule="nonzero" transform="matrix(0,1,-1,0,0,0)" height="1" width="22" y="-3669" x="-1517.6" fill="url(#linearGradient58981)"/>
<use xlink:href="#rect10501" transform="matrix(1.04544,0,0,1.04544,-43.6665,67.9588)" height="1085" width="5033" y="0" x="0"/>
</g>
</g>
</g>
</svg>
