<svg xmlns:rdf="http://www.w3.org/1999/02/22-rdf-syntax-ns#" xmlns="http://www.w3.org/2000/svg" version="1.1" xmlns:cc="http://creativecommons.org/ns#" xmlns:xlink="http://www.w3.org/1999/xlink" viewBox="0 0 208 256" xmlns:dc="http://purl.org/dc/elements/1.1/">
<defs>
<linearGradient id="linearGradient9014">
<stop stop-color="#FFF" stop-opacity="0" offset="0"/>
<stop stop-color="#FFF" offset="0.49306"/>
<stop stop-color="#FFF" stop-opacity="0" offset="1"/>
</linearGradient>
<linearGradient id="linearGradient7303">
<stop stop-color="#000" offset="0"/>
<stop stop-color="#000" stop-opacity="0" offset="1"/>
</linearGradient>
<linearGradient id="linearGradient8074">
<stop stop-color="#000" stop-opacity="0" offset="0"/>
<stop stop-color="#000" offset="0.49306"/>
<stop stop-color="#000" stop-opacity="0" offset="1"/>
</linearGradient>
<linearGradient id="linearGradient7976">
<stop stop-color="#FFF" stop-opacity="0.85" offset="0"/>
<stop stop-color="#FFF" stop-opacity="0.9" offset="1"/>
</linearGradient>
<linearGradient id="linearGradient7931">
<stop stop-color="#000" offset="0"/>
<stop stop-color="#000" stop-opacity="0.360784" offset="0.45461"/>
<stop stop-color="#000" stop-opacity="0" offset="1"/>
</linearGradient>
<linearGradient id="linearGradient13785-8">
<stop stop-color="#A33E03" offset="0"/>
<stop stop-color="#622502" offset="1"/>
</linearGradient>
<linearGradient id="linearGradient27298" y2="1008.8" xlink:href="#linearGradient13785-8" gradientUnits="userSpaceOnUse" x2="74.178" gradientTransform="matrix(15.9995,0,0,15.9955,-1038.94,-17312.2)" y1="992.75" x1="74.178"/>
<radialGradient id="radialGradient27306" gradientUnits="userSpaceOnUse" cy="-754.64" cx="152.33" gradientTransform="matrix(3.84067e-6,0.270741,-4.04344,0,-2201.98,-1535.94)" r="15">
<stop stop-color="#808080" stop-opacity="0.502" offset="0"/>
<stop stop-color="#000" stop-opacity="0" offset="1"/>
</radialGradient>
<linearGradient id="linearGradient27310" y2="-1510.6" gradientUnits="userSpaceOnUse" x2="850.25" y1="-1506.6" x1="850.25">
<stop stop-color="#808080" offset="0"/>
<stop stop-color="#333" offset="1"/>
</linearGradient>
<linearGradient id="linearGradient27312" y2="-1116.8" gradientUnits="userSpaceOnUse" x2="809.62" gradientTransform="matrix(2.03333,0,0,2.04762,-752.267,686.81)" y1="-1074.8" x1="809.62">
<stop stop-color="#D36118" offset="0"/>
<stop stop-color="#F09E6F" offset="1"/>
</linearGradient>
<linearGradient id="linearGradient27314" y2="-1115.6" gradientUnits="userSpaceOnUse" x2="812" gradientTransform="matrix(2.03333,0,0,2.15,-752.267,798.982)" y1="-1075.6" x1="812">
<stop stop-color="#EDBFA1" offset="0"/>
<stop stop-color="#FDF1EA" offset="1"/>
</linearGradient>
<radialGradient id="radialGradient27318" gradientUnits="userSpaceOnUse" cy="-853" cx="-1535.5" gradientTransform="matrix(-3.31574,0,0,-3.2,-6604.01,-3579.6)" r="10">
<stop stop-color="#FFF" offset="0"/>
<stop stop-color="#FFD5D5" stop-opacity="0" offset="1"/>
</radialGradient>
<linearGradient id="linearGradient27320" y2="-1525.6" gradientUnits="userSpaceOnUse" x2="825.25" y1="-1559.6" x1="825.25">
<stop stop-color="#B84603" offset="0"/>
<stop stop-color="#622502" offset="1"/>
</linearGradient>
<linearGradient id="linearGradient27322" y2="735.75" gradientUnits="userSpaceOnUse" x2="895.5" y1="647.81" x1="895.5">
<stop stop-color="#E67325" offset="0"/>
<stop stop-color="#C8400C" offset="1"/>
</linearGradient>
<linearGradient id="linearGradient27324" y2="-1589.1" gradientUnits="userSpaceOnUse" x2="902" y1="-1589.1" x1="798.25">
<stop stop-color="#8E2103" offset="0"/>
<stop stop-color="#E46F1F" offset="0.16905"/>
<stop stop-color="#E66D20" offset="0.83809"/>
<stop stop-color="#922504" offset="1"/>
</linearGradient>
<linearGradient id="linearGradient27326" y2="-1524.4" gradientUnits="userSpaceOnUse" x2="902.25" y1="-1534.4" x1="902.25">
<stop stop-color="#808080" offset="0"/>
<stop stop-color="#606060" offset="1"/>
</linearGradient>
<linearGradient id="linearGradient27328" y2="-1079.2" gradientUnits="userSpaceOnUse" x2="714" gradientTransform="matrix(1.17949,0,0,1.5,10.8462,67.8194)" y1="-1063.6" x1="714">
<stop stop-color="#FFF" stop-opacity="0" offset="0"/>
<stop stop-color="#FFF" stop-opacity="0.862745" offset="1"/>
</linearGradient>
<linearGradient id="linearGradient27330" y2="-1042.6" gradientUnits="userSpaceOnUse" x2="879" gradientTransform="matrix(2,0,0,2,-898,556.638)" y1="-1054.6" x1="889">
<stop stop-color="#18A303" offset="0"/>
<stop stop-color="#106802" offset="1"/>
</linearGradient>
<linearGradient id="linearGradient27332" y2="-1575.7" gradientUnits="userSpaceOnUse" x2="882.24" y1="-1575.7" x1="818.03">
<stop stop-color="#8E2103" offset="0"/>
<stop stop-color="#E45C1F" offset="0.16905"/>
<stop stop-color="#E45C1F" offset="0.83809"/>
<stop stop-color="#922504" offset="1"/>
</linearGradient>
<linearGradient id="linearGradient27334" y2="-1194.6" xlink:href="#linearGradient9014" gradientUnits="userSpaceOnUse" x2="144" gradientTransform="matrix(0.726708,0,0,1,802.354,-405)" y1="-1194.6" x1="-17"/>
<linearGradient id="linearGradient27338" y2="709.5" gradientUnits="userSpaceOnUse" x2="895.5" y1="621.56" x1="895.5">
<stop stop-color="#E67325" offset="0"/>
<stop stop-color="#C8400C" offset="1"/>
</linearGradient>
<linearGradient id="linearGradient27342" y2="683.25" gradientUnits="userSpaceOnUse" x2="895.5" y1="595.31" x1="895.5">
<stop stop-color="#E67325" offset="0"/>
<stop stop-color="#C8400C" offset="1"/>
</linearGradient>
<linearGradient id="linearGradient27346" y2="657" gradientUnits="userSpaceOnUse" x2="895.5" y1="569.06" x1="895.5">
<stop stop-color="#E67325" offset="0"/>
<stop stop-color="#C8400C" offset="1"/>
</linearGradient>
<linearGradient id="linearGradient27348" y2="-1194.6" xlink:href="#linearGradient8074" gradientUnits="userSpaceOnUse" x2="144" gradientTransform="matrix(0.645963,0,0,1,808.981,-396)" y1="-1194.6" x1="-17"/>
<linearGradient id="linearGradient27350" y2="-1194.6" xlink:href="#linearGradient8074" gradientUnits="userSpaceOnUse" x2="144" gradientTransform="matrix(0.397516,0,0,1,824.758,-386)" y1="-1194.6" x1="-17"/>
<linearGradient id="linearGradient27352" y2="-1194.6" xlink:href="#linearGradient8074" gradientUnits="userSpaceOnUse" x2="144" gradientTransform="matrix(0.720497,0,0,1,804.248,-319)" y1="-1194.6" x1="-17"/>
<linearGradient id="linearGradient27356" y2="-1194.6" xlink:href="#linearGradient9014" gradientUnits="userSpaceOnUse" x2="144" gradientTransform="matrix(0.286106,0,0,1,858.013,-333.937)" y1="-1194.6" x1="-17"/>
<linearGradient id="linearGradient27362" y2="-1048.6" gradientUnits="userSpaceOnUse" x2="887" gradientTransform="matrix(2,0,0,2,-898,556.638)" y1="-1042.6" x1="881">
<stop stop-color="#78DB67" offset="0"/>
<stop stop-color="#CCF4C6" offset="1"/>
</linearGradient>
<linearGradient id="linearGradient31093" y2="-782.64" xlink:href="#linearGradient7976" gradientUnits="userSpaceOnUse" x2="209.06" gradientTransform="matrix(8,0,0,8,-900,4583.47)" y1="-754.09" x1="209.06"/>
<linearGradient id="linearGradient31123" y2="243.14" gradientUnits="userSpaceOnUse" x2="294.42" gradientTransform="matrix(15.958,0,0,16.0248,-3917.13,-5573.42)" y1="256.58" x1="294.34">
<stop stop-color="#999" offset="0"/>
<stop stop-color="#E6E6E6" offset="1"/>
</linearGradient>
<linearGradient id="linearGradient31183" y2="-1230.8" xlink:href="#linearGradient7931" gradientUnits="userSpaceOnUse" x2="113.88" gradientTransform="matrix(0.780488,0,0,0.780488,-880.6341,-520.799)" y1="-1192.6" x1="152"/>
<linearGradient id="linearGradient31203" y2="-1194.6" xlink:href="#linearGradient8074" gradientUnits="userSpaceOnUse" x2="144" gradientTransform="matrix(0.621118,0,0,1,811.559,-257)" y1="-1194.6" x1="-17"/>
<linearGradient id="linearGradient31223" y2="-1194.6" xlink:href="#linearGradient8074" gradientUnits="userSpaceOnUse" x2="144" gradientTransform="matrix(1.41615,0,0,1,-1655.56,432.64)" y1="-1194.6" x1="-17"/>
<linearGradient id="linearGradient31243" y2="-1194.6" xlink:href="#linearGradient8074" gradientUnits="userSpaceOnUse" x2="144" gradientTransform="matrix(0.867106,0,0,1,-1578,245.64)" y1="-1194.6" x1="-17"/>
<linearGradient id="linearGradient31263" y2="-1194.6" xlink:href="#linearGradient8074" gradientUnits="userSpaceOnUse" x2="144" gradientTransform="matrix(0.621118,0,0,1,811.559,-251)" y1="-1194.6" x1="-17"/>
<linearGradient id="linearGradient31289" y2="276.58" xlink:href="#linearGradient7303" gradientUnits="userSpaceOnUse" x2="389.1" gradientTransform="translate(398,-1753.64)" y1="300.82" x1="364.87"/>
<linearGradient id="linearGradient31309" y2="276.58" xlink:href="#linearGradient7303" gradientUnits="userSpaceOnUse" x2="389.1" gradientTransform="matrix(1,0,0,-1,396,-1379.64)" y1="300.82" x1="364.87"/>
<linearGradient id="linearGradient31329" y2="-1194.6" xlink:href="#linearGradient8074" gradientUnits="userSpaceOnUse" x2="144" gradientTransform="matrix(0.52406816,0,0,1.0000003,-553.4502,-606.16106)" y1="-1194.6" x1="-17"/>
<linearGradient id="linearGradient31349" y2="-1194.6" xlink:href="#linearGradient8074" gradientUnits="userSpaceOnUse" x2="144" gradientTransform="matrix(0.52406816,0,0,1.0000003,-554.1602,-598.38286)" y1="-1194.6" x1="-17"/>
<linearGradient id="linearGradient31369" y2="-1194.6" xlink:href="#linearGradient8074" gradientUnits="userSpaceOnUse" x2="144" gradientTransform="matrix(0.52406816,0,0,1.0000003,-554.1602,-626.66717)" y1="-1194.6" x1="-17"/>
<linearGradient id="linearGradient31389" y2="-1194.6" xlink:href="#linearGradient8074" gradientUnits="userSpaceOnUse" x2="144" gradientTransform="matrix(1.41615,0,0,1,-1655.56,438.64)" y1="-1194.6" x1="-17"/>
<linearGradient id="linearGradient31409" y2="-1194.6" xlink:href="#linearGradient8074" gradientUnits="userSpaceOnUse" x2="144" gradientTransform="matrix(0.899038,0,0,1,-1580.99,2136.64)" y1="-1194.6" x1="-17"/>
<linearGradient id="linearGradient31429" y2="-1230.8" xlink:href="#linearGradient7931" gradientUnits="userSpaceOnUse" x2="113.88" gradientTransform="matrix(0.780488,0,0,0.780488,823.3659,-520.799)" y1="-1192.6" x1="152"/>
<linearGradient id="linearGradient31449" y2="276.58" xlink:href="#linearGradient7303" gradientUnits="userSpaceOnUse" x2="389.1" gradientTransform="matrix(-1,0,0,1,1306,-1753.64)" y1="300.82" x1="364.87"/>
<radialGradient id="radialGradient50461" gradientUnits="userSpaceOnUse" cy="-754.64" cx="152.33" gradientTransform="matrix(7.93527e-7,0.169213,-0.835421,0,197.029,-1517.95)" r="15">
<stop stop-color="#000" stop-opacity="0.501961" offset="0"/>
<stop stop-color="#000" stop-opacity="0" offset="1"/>
</radialGradient>
<linearGradient id="linearGradient50465" y2="-1574.6" gradientUnits="userSpaceOnUse" x2="535" gradientTransform="matrix(1.66667,0,0,7,-91.6668,9465.83)" y1="-1568.6" x1="529.25">
<stop stop-color="#F00" offset="0"/>
<stop stop-color="#FFC600" stop-opacity="0" offset="1"/>
</linearGradient>
<linearGradient id="linearGradient50467" y2="-1194.6" xlink:href="#linearGradient8074" gradientUnits="userSpaceOnUse" x2="144" gradientTransform="matrix(0.286106,0,0,1,857.864,-364)" y1="-1194.6" x1="-17"/>
<linearGradient id="linearGradient50469" y2="-1194.6" xlink:href="#linearGradient8074" gradientUnits="userSpaceOnUse" x2="144" gradientTransform="matrix(0.186336,0,0,1,813.168,-365)" y1="-1194.6" x1="-17"/>
<linearGradient id="linearGradient50471" y2="-1194.6" gradientUnits="userSpaceOnUse" x2="144" gradientTransform="matrix(0.509317,0,0,1,-1588.98,403.638)" y1="-1194.6" x1="-17">
<stop stop-color="#D40000" stop-opacity="0" offset="0"/>
<stop stop-color="#D40000" offset="0.49306"/>
<stop stop-color="#D40000" stop-opacity="0" offset="1"/>
</linearGradient>
</defs>
<metadata>
<rdf:RDF>
<cc:Work rdf:about="">
<dc:format>image/svg+xml</dc:format>
<dc:type rdf:resource="http://purl.org/dc/dcmitype/StillImage"/>
<dc:title/>
</cc:Work>
</rdf:RDF>
</metadata>
<g transform="translate(123,924.64)">
<use opacity="0.75" xlink:href="#g7586" transform="translate(1571,0)" height="1085" width="5033" y="0" x="0"/>
<text font-weight="normal" xml:space="preserve" font-size="8px" font-style="normal" font-stretch="normal" font-variant="normal" y="-1109.14" x="382.125" font-family="Sans" fill="black"><tspan y="-1109.14" x="382.125"/></text>
<g transform="matrix(1.0000042,0,0,1,-872.0034,768.99814)">
<g transform="translate(1,0)">
<g fill-rule="nonzero" transform="matrix(1.00001,0,0,0.999844,787.994,-261.184)" fill="url(#linearGradient27298)">
<path style="direction:ltr;text-indent:0pt;text-align:start;text-transform:none;" d="m-39.993-1184.6c0,3.8673,3.6224,7.9298,7.7569,7.9298h191.99c4.627,0,8.2495-3.8705,8.2495-7.7455v-149.21c0-4.2249-0.51199-6.1833-3.4999-9.171l-85.324-85.298c-2.9882-2.9873-5.2737-4.5274-9.4996-4.5307l-101.74-0.08c-4.1335,0-7.9337,3.6832-7.9337,8.1221v239.99z"/>
<path style="direction:ltr;text-indent:0pt;text-align:start;text-transform:none;" d="m103.26-1421.9,53.19,53.442c4.3386,4.3589,11.554,3.3243,11.554-3.5507v-52.442c0-4.2273-3.8264-8.1968-8.0317-8.1968h-53.19c-6.8375,0-7.1374,7.1146-3.5218,10.747z"/>
</g>
<path d="m762-1677.5v226c60,0,120-0.0001,180,0v-140.44c-28.986-29.202-58.078-58.298-87-87.562-31-0.0001-62,0-93,0v1,1z" fill="url(#linearGradient31093)"/>
<path style="direction:ltr;text-indent:0pt;text-align:start;text-transform:none;" d="m756-1683.6v238h192v-151.41c-29.383-29.502-58.745-59.026-88.062-88.594-34.646-0.0001-69.292,0-103.94,0v1,1z" fill-rule="nonzero" fill="url(#linearGradient31123)"/>
<path d="m762-1677.5v226c60,0,120-0.0001,180,0v-140.44c-28.986-29.202-58.078-58.298-87-87.562-31-0.0001-62,0-93,0v1,1z" fill="url(#linearGradient31093)"/>
<path opacity="0.15" style="direction:ltr;text-indent:0pt;text-align:start;text-transform:none;" d="m756-1685.6,0,1,0,1,0,238,192,0,0-151.41c-29.383-29.502-58.745-59.026-88.062-88.594-34.646-0.0001-69.292,0-103.94,0zm1,1c34.167,0,68.333-0.0001,102.5,0,29.148,29.362,58.296,58.725,87.5,88.031v149.97c-63.333,0-126.67-0.0001-190,0v-237-1z" fill-rule="nonzero" fill="#FFF"/>
<rect opacity="0.15" fill-rule="nonzero" transform="scale(-1,1)" height="64" width="64" y="-1515.6" x="-826" fill="url(#linearGradient31183)"/>
<rect opacity="0.2" fill-rule="nonzero" height="1" width="100" y="-1451.6" x="801" fill="url(#linearGradient31203)"/>
<rect opacity="0.2" fill-rule="nonzero" transform="matrix(0,1,-1,0,0,0)" height="1" width="228" y="-762" x="-1679.6" fill="url(#linearGradient31223)"/>
<rect opacity="0.5" fill-rule="nonzero" transform="matrix(0,1,-1,0,0,0)" height="1" width="139.6" y="-949" x="-1592.7" fill="url(#linearGradient31243)"/>
<rect opacity="0.5" fill-rule="nonzero" height="1" width="100" y="-1445.6" x="801" fill="url(#linearGradient31263)"/>
<path opacity="0.15" d="m763-1502.6,0,49,0,1,1,0,49,0,0-1-49,0,0-49-1,0z" fill-rule="nonzero" fill="url(#linearGradient31289)"/>
<path opacity="0.1" d="m761-1630.6,0-49,0-1,1,0,49,0,0,1-49,0,0,49-1,0z" fill-rule="nonzero" fill="url(#linearGradient31309)"/>
<rect opacity="0.4" fill-rule="nonzero" transform="matrix(0.70710678,0.70710678,-0.70710678,0.70710678,0,0)" height="1" width="84.375" y="-1800.8" x="-562.36" fill="url(#linearGradient31329)"/>
<rect opacity="0.1" fill-rule="nonzero" transform="matrix(0.70710678,0.70710678,-0.70710678,0.70710678,0,0)" height="1" width="84.375" y="-1793" x="-563.07" fill="url(#linearGradient31349)"/>
<rect opacity="0.4" fill-rule="nonzero" transform="matrix(0.70710678,0.70710678,-0.70710678,0.70710678,0,0)" height="1" width="84.375" y="-1821.3" x="-563.07" fill="url(#linearGradient31369)"/>
<rect opacity="0.5" fill-rule="nonzero" transform="matrix(0,1,-1,0,0,0)" height="1" width="228" y="-756" x="-1679.6" fill="url(#linearGradient31389)"/>
<rect opacity="0.2" fill-rule="nonzero" transform="matrix(0,1,1,0,0,0)" height="1" width="144.75" y="942" x="-1596.3" fill="url(#linearGradient31409)"/>
<rect opacity="0.15" fill-rule="nonzero" height="64" width="64" y="-1515.6" x="878" fill="url(#linearGradient31429)"/>
<path opacity="0.15" d="m941-1502.6,0,49,0,1-1,0-49,0,0-1,49,0,0-49,1,0z" fill-rule="nonzero" fill="url(#linearGradient31449)"/>
</g>
<g transform="translate(1,0)">
<rect id="rect10490" opacity="0.5" fill-rule="nonzero" height="5" width="25" y="-1494.6" x="815" fill="url(#radialGradient50461)"/>
<rect opacity="0.4" fill-rule="nonzero" height="8" width="121" y="-1498.6" x="789" fill="url(#radialGradient27306)"/>
<path id="path10476" d="m846.24-1508.6-24.242,16,9.7688,0,3.3981-1.114,18.833-14.886-7.7576,0z" fill="#4d4d4d"/>
<use xlink:href="#path10476" transform="matrix(-1,0,0,1,1699,0)" height="1085" width="5033" y="0" x="0"/>
<path d="m854-1508.6,24,16-10.011,0-3.0862-0.878-18.903-15.122,8,0z" fill="#4d4d4d"/>
<path id="path9896" d="m844.24-1508.6-24.242,16,11.758,0,20.242-16-7.7576,0z" fill="url(#linearGradient27310)"/>
<rect fill-rule="nonzero" height="6.0001" width="12" y="-1512.6" x="844" fill="url(#linearGradient27310)"/>
<rect fill-rule="nonzero" rx="1" ry="1" height="92" width="128" y="-1602.6" x="786" fill="#a33e03"/>
<rect fill-rule="nonzero" rx="2" ry="2" height="86" width="122" y="-1599.6" x="789" fill="url(#linearGradient27312)"/>
<rect fill-rule="nonzero" rx="2" ry="2" height="86" width="122" y="-1599.6" x="789" fill="url(#linearGradient27314)"/>
<rect id="rect10082" opacity="0.35" fill-rule="nonzero" rx="2" ry="2" height="84" width="20" y="-1598.6" x="790" fill="url(#linearGradient50465)"/>
<rect opacity="0.5" fill-rule="nonzero" height="36" width="52" y="-1559.6" x="850" fill="#FFF"/>
<rect fill-rule="nonzero" transform="matrix(0,1,-1,0,0,0)" height="64" width="32" y="-882" x="-1545.6" fill="url(#radialGradient27318)"/>
<g opacity="0.5" fill-rule="nonzero" fill="#FFF">
<rect height="4" width="30" y="-1558.6" x="810"/>
<rect height="4" width="30" y="-1548.6" x="810"/>
<rect height="4" width="30" y="-1538.6" x="810"/>
<rect height="4" width="30" y="-1528.6" x="810"/>
</g>
<rect fill-rule="nonzero" height="4" width="30" y="-1559.6" x="810" fill="url(#linearGradient27320)"/>
<path d="m901,651.75c0,2.8995-2.4624,5.25-5.5,5.25s-5.5-2.3505-5.5-5.25,2.4624-5.25,5.5-5.25,5.5,2.3505,5.5,5.25z" fill-rule="nonzero" transform="matrix(0.363636,0,0,0.380952,476.364,-1794.92)" fill="#FFF"/>
<path d="m901,651.75c0,2.8995-2.4624,5.25-5.5,5.25s-5.5-2.3505-5.5-5.25,2.4624-5.25,5.5-5.25,5.5,2.3505,5.5,5.25z" fill-rule="nonzero" transform="matrix(0.363636,0,0,0.380952,476.364,-1784.92)" fill="#FFF"/>
<path d="m901,651.75c0,2.8995-2.4624,5.25-5.5,5.25s-5.5-2.3505-5.5-5.25,2.4624-5.25,5.5-5.25,5.5,2.3505,5.5,5.25z" fill-rule="nonzero" transform="matrix(0.363636,0,0,0.380952,476.364,-1804.92)" fill="#FFF"/>
<path d="m901,651.75c0,2.8995-2.4624,5.25-5.5,5.25s-5.5-2.3505-5.5-5.25,2.4624-5.25,5.5-5.25,5.5,2.3505,5.5,5.25z" fill-rule="nonzero" transform="matrix(0.363636,0,0,0.380952,476.364,-1774.92)" fill="#FFF"/>
<path d="m901,651.75c0,2.8995-2.4624,5.25-5.5,5.25s-5.5-2.3505-5.5-5.25,2.4624-5.25,5.5-5.25,5.5,2.3505,5.5,5.25z" fill-rule="nonzero" transform="matrix(0.363636,0,0,0.380952,476.364,-1805.92)" fill="url(#linearGradient27322)"/>
<rect fill-rule="nonzero" height="5" width="104" y="-1589.6" x="798" fill="#FFF"/>
<rect fill-rule="nonzero" height="5" width="104" y="-1590.6" x="798" fill="url(#linearGradient27324)"/>
<rect fill-rule="nonzero" height="36" width="52" y="-1560.6" x="850" fill="url(#linearGradient27326)"/>
<rect fill-rule="nonzero" height="30" width="46" y="-1557.6" x="853" fill="#dfdfdf"/>
<rect fill-rule="nonzero" height="30" width="46" y="-1557.6" x="853" fill="url(#linearGradient27328)"/>
<rect id="rect9936" opacity="0.05" fill-rule="nonzero" height="2" width="40" y="-1552.6" x="856" fill="#000"/>
<path stroke-linejoin="round" d="m859-1533.6,11-11,8,8,15-15" stroke="url(#linearGradient27330)" stroke-linecap="round" stroke-width="3" fill="none"/>
<rect fill-rule="nonzero" height="5" width="64" y="-1579.6" x="818" fill="#FFF"/>
<rect fill-rule="nonzero" height="5" width="64" y="-1580.6" x="818" fill="url(#linearGradient27332)"/>
<rect fill-rule="nonzero" height="1" width="117" y="-1599.6" x="790" fill="url(#linearGradient27334)"/>
<rect fill-rule="nonzero" height="4" width="30" y="-1549.6" x="810" fill="url(#linearGradient27320)"/>
<path d="m901,651.75c0,2.8995-2.4624,5.25-5.5,5.25s-5.5-2.3505-5.5-5.25,2.4624-5.25,5.5-5.25,5.5,2.3505,5.5,5.25z" fill-rule="nonzero" transform="matrix(0.363636,0,0,0.380952,476.364,-1795.92)" fill="url(#linearGradient27338)"/>
<rect fill-rule="nonzero" height="4" width="30" y="-1539.6" x="810" fill="url(#linearGradient27320)"/>
<path d="m901,651.75c0,2.8995-2.4624,5.25-5.5,5.25s-5.5-2.3505-5.5-5.25,2.4624-5.25,5.5-5.25,5.5,2.3505,5.5,5.25z" fill-rule="nonzero" transform="matrix(0.363636,0,0,0.380952,476.364,-1785.92)" fill="url(#linearGradient27342)"/>
<rect fill-rule="nonzero" height="4" width="30" y="-1529.6" x="810" fill="url(#linearGradient27320)"/>
<path d="m901,651.75c0,2.8995-2.4624,5.25-5.5,5.25s-5.5-2.3505-5.5-5.25,2.4624-5.25,5.5-5.25,5.5,2.3505,5.5,5.25z" fill-rule="nonzero" transform="matrix(0.363636,0,0,0.380952,476.364,-1775.92)" fill="url(#linearGradient27346)"/>
<rect opacity="0.25" fill-rule="nonzero" height="1" width="104" y="-1590.6" x="798" fill="url(#linearGradient27348)"/>
<rect opacity="0.5" fill-rule="nonzero" height="1" width="64" y="-1580.6" x="818" fill="url(#linearGradient27350)"/>
<rect opacity="0.5" fill-rule="nonzero" height="1" width="116" y="-1513.6" x="792" fill="url(#linearGradient27352)"/>
<rect id="rect10629" opacity="0.25" fill-rule="nonzero" height="1" width="46.063" y="-1558.6" x="853" fill="url(#linearGradient50467)"/>
<rect fill-rule="nonzero" height="1" width="46.063" y="-1528.6" x="853.15" fill="url(#linearGradient27356)"/>
<rect id="rect10652" opacity="0.25" fill-rule="nonzero" height="1" width="30" y="-1559.6" x="810" fill="url(#linearGradient50469)"/>
<rect id="rect11596" opacity="0.15" fill-rule="nonzero" transform="matrix(0,1,-1,0,0,0)" height="1" width="82" y="-791" x="-1597.6" fill="url(#linearGradient50471)"/>
<use xlink:href="#rect11596" transform="translate(119,0)" height="1085" width="5033" y="0" x="0"/>
<use xlink:href="#rect10082" transform="matrix(-1,0,0,1,1700,0)" height="1085" width="5033" y="0" x="0"/>
<use xlink:href="#rect10652" transform="translate(0,10)" height="1085" width="5033" y="0" x="0"/>
<use xlink:href="#rect10652" transform="translate(0,20)" height="1085" width="5033" y="0" x="0"/>
<use xlink:href="#rect10652" transform="translate(0,30)" height="1085" width="5033" y="0" x="0"/>
<use xlink:href="#rect10629" transform="translate(0,31)" height="1085" width="5033" y="0" x="0"/>
<use xlink:href="#rect9936" transform="translate(0,6)" height="1085" width="5033" y="0" x="0"/>
<use xlink:href="#rect9936" transform="translate(0,12)" height="1085" width="5033" y="0" x="0"/>
<use xlink:href="#rect9936" transform="translate(0,17)" height="1085" width="5033" y="0" x="0"/>
<path stroke-linejoin="round" d="m859-1533.6,11-11,8,8,15-15" stroke="url(#linearGradient27362)" stroke-linecap="round" stroke-width="1.5" fill="none"/>
<use xlink:href="#rect10490" transform="matrix(-1,0,0,1,1699,0)" height="1085" width="5033" y="0" x="0"/>
<use xlink:href="#path9896" transform="matrix(-1,0,0,1,1699,0)" height="1085" width="5033" y="0" x="0"/>
</g>
</g>
</g>
</svg>
