<svg xmlns="http://www.w3.org/2000/svg"><symbol xmlns:rdf="http://www.w3.org/1999/02/22-rdf-syntax-ns#" xmlns:cc="http://creativecommons.org/ns#" xmlns:dc="http://purl.org/dc/elements/1.1/" version="1.1" xml:space="preserve" height="100%" width="100%" enable-background="new 0 0 134.658 131.646" y="0px" x="0px" viewBox="0 0 134.658 131.646" id="Google_plus"><path fill="#DC4A38" d="m126.52 4.109h-118.38c-2.177 0-3.94 1.763-3.94 3.938v115.55c0 2.179 1.763 3.942 3.94 3.942h118.37c2.177 0 3.94-1.764 3.94-3.942v-115.54c0-2.176-1.77-3.939-3.94-3.939z"></path><path fill="#FFF" d="m70.479 71.845l-3.983-3.093c-1.213-1.006-2.872-2.334-2.872-4.765 0-2.441 1.659-3.993 3.099-5.43 4.64-3.652 9.276-7.539 9.276-15.73 0-8.423-5.3-12.854-7.84-14.956h6.849l7.189-4.517h-21.779c-5.976 0-14.588 1.414-20.893 6.619-4.752 4.1-7.07 9.753-7.07 14.842 0 8.639 6.633 17.396 18.346 17.396 1.106 0 2.316-0.109 3.534-0.222-0.547 1.331-1.1 2.439-1.1 4.32 0 3.431 1.763 5.535 3.317 7.528-4.977 0.342-14.268 0.893-21.117 5.103-6.523 3.879-8.508 9.525-8.508 13.51 0 8.202 7.731 15.842 23.762 15.842 19.01 0 29.074-10.519 29.074-20.932 0.001-7.649-4.419-11.415-9.284-15.513zm-14.479-12.738c-9.51 0-13.818-12.294-13.818-19.712 0-2.888 0.547-5.87 2.428-8.199 1.773-2.218 4.861-3.657 7.744-3.657 9.168 0 13.923 12.404 13.923 20.382 0 1.996-0.22 5.533-2.762 8.09-1.778 1.774-4.753 3.096-7.515 3.096zm0.109 44.543c-11.826 0-19.452-5.657-19.452-13.523 0-7.864 7.071-10.524 9.504-11.405 4.64-1.561 10.611-1.779 11.607-1.779 1.105 0 1.658 0 2.538 0.111 8.407 5.983 12.056 8.965 12.056 14.629 0 6.859-5.639 11.967-16.253 11.967z"></path><polygon points="98.393 58.938 98.393 47.863 92.923 47.863 92.923 58.938 81.866 58.938 81.866 64.469 92.923 64.469 92.923 75.612 98.393 75.612 98.393 64.469 109.51 64.469 109.51 58.938" fill="#FFF"></polygon></symbol><symbol xmlns:rdf="http://www.w3.org/1999/02/22-rdf-syntax-ns#" xmlns:cc="http://creativecommons.org/ns#" xmlns:dc="http://purl.org/dc/elements/1.1/" xml:space="preserve" height="100%" width="100%" version="1.1" y="0px" x="0px" viewBox="0 0 266.893 266.895" id="Facebook"><path d="m248.08 262.31c7.854 0 14.223-6.369 14.223-14.225v-229.27c0-7.857-6.368-14.224-14.223-14.224h-229.27c-7.857 0-14.224 6.367-14.224 14.224v229.27c0 7.855 6.366 14.225 14.224 14.225h229.27z" fill="#3C5A99"></path><path d="m182.41 262.31v-99.803h33.499l5.016-38.895h-38.515v-24.843c0-11.261 3.127-18.935 19.275-18.935l20.596-0.009v-34.788c-3.562-0.474-15.788-1.533-30.012-1.533-29.695 0-50.025 18.126-50.025 51.413v28.684h-33.585v38.895h33.585v99.803h40.149z" fill="#FFF"></path></symbol><symbol xmlns:rdf="http://www.w3.org/1999/02/22-rdf-syntax-ns#" xmlns:cc="http://creativecommons.org/ns#" xmlns:dc="http://purl.org/dc/elements/1.1/" xml:space="preserve" height="100%" width="100%" version="1.1" viewBox="0 0 341.7375 277.725" id="twitter"><g transform="matrix(1.25 0 0 -1.25 0 277.72)"><g transform="scale(.1)"><path fill="#6babe1" d="m859.8 0c-316.75 0-611.57 92.852-859.8 251.99 43.879-5.179 88.527-7.828 133.8-7.828 262.78 0 504.63 89.672 696.59 240.1-245.44 4.527-452.58 166.69-523.95 389.53 34.246-6.551 69.382-10.059 105.53-10.059 51.148 0 100.7 6.852 147.77 19.668-256.59 51.524-449.93 278.22-449.93 549.98 0 2.37 0.008 4.71 0.047 7.05 75.628-42.01 162.11-67.24 254.05-70.15-150.5 100.58-249.52 272.26-249.52 466.85 0 102.8 27.652 199.14 75.933 281.98 276.64-339.34 689.93-562.64 1156.1-586.03-9.56 41.05-14.53 83.86-14.53 127.82 0 309.75 251.14 560.88 560.91 560.88 161.32 0 307.09-68.12 409.41-177.13 127.76 25.16 247.8 71.84 356.17 136.12-41.88-130.98-130.81-240.9-246.62-310.32 113.46 13.56 221.56 43.71 322.15 88.32-75.2-112.48-170.3-211.27-279.88-290.35 1.08-24.05 1.62-48.24 1.62-72.56 0-741.19-564.16-1595.9-1595.8-1595.9"></path></g></g></symbol><symbol xmlns:rdf="http://www.w3.org/1999/02/22-rdf-syntax-ns#" xmlns:cc="http://creativecommons.org/ns#" xmlns:dc="http://purl.org/dc/elements/1.1/" height="100%" viewBox="0 0 100 99.148132" width="100%" version="1.1" y="0px" x="0px" id="YouTube"><path d="m84.184 0h-69.211c-8.2694 0-14.973 6.7036-14.973 14.973v69.203c0 8.2694 6.7036 14.973 14.973 14.973h69.21c8.2698 0 14.973-6.7036 15.817-14.691v-69.202c-0.84344-8.5508-7.5475-15.255-15.816-15.255z" fill="#e5e5e5"></path><g transform="matrix(.42193 0 0 .42193 -162.08 -138.75)"><path d="m433.28 353.76h15.304l1.97 7.879 1.667 5.818 1.364 5.697 1.364 5.939 1.061 4.97h0.606l1.061-4.97 1.212-5.939 1.515-5.697 1.515-5.818 2.121-7.879h14.849l-15.758 47.274v33.577h-14.091v-33.577l-15.76-47.274z"></path><path d="m497.83 373.64c11.97 0 18.031 5.697 18.031 16.97v27.88c0 11.273-6.061 16.97-18.031 16.97s-18.031-5.697-18.031-16.97v-27.88c0-11.272 6.06-16.97 18.031-16.97zm0 9.698c-3.182 0-4.849 1.939-4.849 5.576v31.272c0 3.515 1.818 5.576 4.849 5.576s4.849-2.061 4.849-5.576v-31.272c-0.001-3.637-1.819-5.576-4.849-5.576z"></path><path d="m553.43 434.61-1.061-5.212c-5.455 4.485-8.638 6.061-12.426 6.061-3.182 0-6.515-1.455-8.029-3.394-1.668-2.061-2.121-4.243-2.121-10.425v-47.274h13.182v46.911c0 3.03 1.061 4.485 3.484 4.485 1.668 0 3.183-0.606 5.91-2.424v-48.972h13.183v60.244h-12.122z"></path></g><path d="m21.2 49.254h56.148c8.2698 0 14.973 6.707 14.973 14.977v13.055c0 8.2698-6.7044 14.973-14.973 14.973h-56.148c-8.2694 0-14.973-6.7044-14.973-14.973v-13.055c0-8.2698 6.7036-14.977 14.973-14.977z" fill="#cb322c"></path><g transform="matrix(.42193 0 0 .42193 -4.4286 -4.4324)" fill="#linearGradient3805"><g fill="#FFF"><path d="m56.337 150.48h-11.983v-9.588h37.328v9.588h-12.535v63.914h-12.81v-63.914z"></path><path d="m105.37 214.4-0.964-4.737c-4.958 4.077-7.851 5.51-11.294 5.51-2.893 0-5.923-1.321-7.3-3.086-1.515-1.873-1.929-3.856-1.929-9.478v-42.978h11.984v42.646c0 2.756 0.964 4.078 3.168 4.078 1.515 0 2.893-0.552 5.372-2.203v-44.521h11.984v54.77h-11.021v-0.001z"></path><path d="m129.34 140.9h11.983v23.914c4.683-4.188 7.851-5.841 11.433-5.841 2.756 0 5.785 1.322 7.162 3.085 1.516 1.983 1.93 3.969 1.93 9.809v30.414c0 5.73-0.414 7.715-1.93 9.697-1.377 1.875-4.406 3.196-7.3 3.196-3.582 0-6.612-1.653-11.295-5.951v5.181h-11.983v-73.504zm17.355 65.459c2.203 0 3.168-1.322 3.168-4.078v-30.416c0-2.864-0.965-4.076-3.168-4.076-1.516 0-2.894 0.551-5.372 2.203v34.162c2.48 1.653 3.857 2.205 5.372 2.205z"></path><path d="m207.16 195.22v1.983c0.138 1.433 0.138 2.425 0.138 2.976 0 9.697-5.923 14.987-16.805 14.987-10.33 0-16.115-5.51-16.115-15.428v-25.456c0-10.358 5.51-15.317 16.666-15.317 9.918 0 16.116 5.179 16.116 13.664v16.089h-20.799v12.012c0 3.969 1.239 5.621 4.407 5.621 1.516 0 2.893-0.662 3.58-1.652 0.689-0.992 0.828-2.204 0.828-6.171v-3.308h11.984zm-11.983-14.216v-9.257c0-2.534-1.652-3.967-4.408-3.967-2.754 0-4.406 1.433-4.406 3.967v9.257h8.814z"></path></g></g></symbol><symbol xmlns:rdf="http://www.w3.org/1999/02/22-rdf-syntax-ns#" xmlns:cc="http://creativecommons.org/ns#" xmlns:dc="http://purl.org/dc/elements/1.1/" xml:space="preserve" height="100%" width="100%" version="1.1" viewBox="0 0 114.86033 114.85804" id="git"><title>Git Logo</title><g transform="matrix(1.25 0 0 -1.25 .00061094 114.86)"><g transform="scale(.1)"><path fill="#f03c2e" d="m901.54 500.35-401.19 401.18c-23.094 23.11-60.567 23.11-83.692 0l-83.3-83.32 105.67-105.67c24.563 8.293 52.727 2.727 72.297-16.847 19.688-19.696 25.203-48.102 16.699-72.75l101.85-101.85c24.648 8.496 53.066 3.004 72.754-16.711 27.5-27.492 27.5-72.059 0-99.574-27.52-27.516-72.078-27.516-99.61 0-20.683 20.703-25.8 51.097-15.312 76.582l-95 94.992v-249.97c6.699-3.32 13.027-7.742 18.613-13.312 27.5-27.497 27.5-72.059 0-99.598-27.5-27.488-72.09-27.488-99.57 0-27.5 27.539-27.5 72.101 0 99.598 6.797 6.789 14.668 11.925 23.066 15.363v252.28c-8.398 3.438-16.25 8.531-23.066 15.367-20.828 20.821-25.84 51.395-15.156 76.977l-104.18 104.2-275.1-275.07c-23.105-23.129-23.105-60.602 0-83.711l401.22-401.18c23.098-23.105 60.559-23.105 83.692 0l399.31 399.32c23.113 23.113 23.113 60.605 0 83.711"></path></g></g></symbol><symbol height="100%" width="100%" version="1.1" viewBox="0 0 90 85" id="people"><g id="g4" fill="#333" transform="translate(0,-967.3622)"><g id="g6" fill="#333" transform="matrix(1.25,0,0,1.25,0,-263.09055)" fill-rule="nonzero"><path id="path8" d="m23.989,984.36c-13.993,0-15.992,5.6375-15.992,16.905v1.879c0,8.3244,8.9482,25.228,16.005,25.228,7.0569,0,15.978-16.904,15.978-25.228v-1.879c0-11.268-1.999-16.905-15.992-16.905z"></path><path id="path10" d="M12.25,1024.4c-9.7854,0.2-12.25,1.9-12.25,13.2v9.7499c0,5.003,1.5918,5,6.375,5h35.25c4.7986,0,6.375,0,6.375-4.875v-9.8749c0-11.318-2.5144-12.786-12.375-13-1.0678,1.4295-2.1486,2.8515-3.375,4-2.2444,2.102-4.854,3.8749-8.25,3.8749s-6.1437-1.7684-8.375-3.8749c-1.2828-1.211-2.2998-2.7345-3.375-4.25z"></path><path id="path12" d="m55.898,996.36c-10.459,0-11.954,3.9945-11.954,11.977v1.3315c0,5.898,6.6886,17.875,11.963,17.875,5.2749,0,11.944-11.977,11.944-17.875v-1.3315c0-7.9829-1.4942-11.977-11.954-11.977z"></path><path id="path14" d="m65.875,1024.9c-0.95518,1.3265-1.9457,2.577-3.125,3.625-1.7603,1.5645-3.9631,2.875-6.75,2.875-1.8153,0-3.3914-0.555-4.75-1.375,0.46445,2.1914,0.625,4.7474,0.625,7.6249v6.75h15.625c3.3655,0,4.5-0.05,4.5-3.5v-7c0-6.8974-1.3663-8.5519-6.125-8.9999z"></path></g></g></symbol><symbol xmlns:rdf="http://www.w3.org/1999/02/22-rdf-syntax-ns#" xmlns:cc="http://creativecommons.org/ns#" xmlns:dc="http://purl.org/dc/elements/1.1/" height="100%" width="100%" version="1.1" viewBox="0 0 99.999597 100.0002" id="copyleft"><g transform="matrix(.10204 0 0 .10204 .000017250 -.000017250)"><circle r="440" stroke="#333" cy="490" cx="490" stroke-width="100" fill="none"></circle><path d="m486 215c-130 0-239 91-267 213h131c24-52 76-88 136-88 83 0 150 67 150 150s-67 150-150 150c-60 0-112-36-136-87h-131c28 121 137 212 267 212 152 0 275-123 275-275s-123-275-275-275z" fill="#333"></path></g></symbol><symbol xmlns:rdf="http://www.w3.org/1999/02/22-rdf-syntax-ns#" xmlns:cc="http://creativecommons.org/ns#" xmlns:dc="http://purl.org/dc/elements/1.1/" height="100%" width="100%" version="1.0" viewBox="0 0 119.99902 42.001411" id="CreativeCommons"><g transform="translate(-.0038370 -.00035942)"><g transform="matrix(.99378 0 0 .99367 -177.69 -74.436)"><path fill="#aab2ab" d="m182.24 75.39 114.06 0.203c1.59 0 3.02-0.237 3.02 3.18l-0.14 37.567h-119.82v-37.706c0-1.685 0.16-3.244 2.88-3.244z" nodetypes="ccccccc"></path><g transform="matrix(.87292 0 0 .87292 50.125 143.21)"><path d="m187.21-55.679c0.01 8.68-7.03 15.721-15.71 15.727-8.68 0.005-15.72-7.028-15.73-15.708v-0.019c0-8.682 7.03-15.722 15.71-15.727 8.68-0.006 15.72 7.028 15.73 15.708v0.019z" rx="22.939548" ry="22.939548" cy="264.3577" cx="296.35416" type="arc" fill="#fff"></path><g transform="translate(-289.62 99.065)"><path d="m473.88-167.55c3.49 3.49 5.23 7.76 5.23 12.81 0 5.04-1.71 9.27-5.14 12.66-3.63 3.58-7.93 5.37-12.88 5.37-4.9 0-9.12-1.78-12.67-5.32-3.55-3.55-5.32-7.79-5.32-12.71 0-4.93 1.77-9.2 5.32-12.81 3.46-3.48 7.68-5.23 12.67-5.23 5.04 0 9.31 1.75 12.79 5.23zm-23.11 2.35c-2.95 2.97-4.42 6.46-4.42 10.46s1.46 7.46 4.37 10.37c2.92 2.92 6.39 4.38 10.42 4.38s7.53-1.48 10.5-4.42c2.83-2.74 4.24-6.18 4.24-10.33 0-4.12-1.43-7.61-4.3-10.48-2.87-2.88-6.35-4.31-10.44-4.31s-7.55 1.44-10.37 4.33zm7.75 8.7c-0.45-0.98-1.12-1.47-2.02-1.47-1.59 0-2.39 1.07-2.39 3.21s0.8 3.21 2.39 3.21c1.05 0 1.8-0.53 2.25-1.57l2.2 1.17c-1.05 1.87-2.63 2.8-4.73 2.8-1.62 0-2.91-0.49-3.89-1.49-0.97-0.99-1.46-2.36-1.46-4.1 0-1.72 0.5-3.08 1.51-4.09 1-1.01 2.25-1.51 3.75-1.51 2.22 0 3.81 0.87 4.78 2.62l-2.39 1.22zm10.36 0c-0.45-0.98-1.11-1.47-1.98-1.47-1.62 0-2.43 1.07-2.43 3.21s0.81 3.21 2.43 3.21c1.05 0 1.79-0.53 2.21-1.57l2.25 1.17c-1.05 1.87-2.62 2.8-4.72 2.8-1.61 0-2.91-0.49-3.88-1.49-0.98-0.99-1.46-2.36-1.46-4.1 0-1.72 0.49-3.08 1.48-4.09s2.25-1.51 3.77-1.51c2.22 0 3.81 0.87 4.77 2.62l-2.44 1.22z"></path></g></g><path d="m297.3 74.911h-116.23c-1.25 0-2.26 1.014-2.26 2.261v39.498c0 0.28 0.22 0.51 0.51 0.51h119.73c0.28 0 0.51-0.23 0.51-0.51v-39.498c0-1.247-1.02-2.261-2.26-2.261zm-116.23 1.021h116.23c0.68 0 1.24 0.556 1.24 1.24v27.418h-83.08c-3.04 5.51-8.91 9.24-15.64 9.24-6.74 0-12.6-3.73-15.65-9.24h-4.34v-27.418c0-0.684 0.55-1.24 1.24-1.24z"></path><g enable-background="new    " fill="#fff"><path d="m265.61 112.88c0.08 0.16 0.19 0.29 0.32 0.38 0.13 0.1 0.29 0.17 0.47 0.22 0.18 0.04 0.37 0.07 0.56 0.07 0.13 0 0.27-0.01 0.42-0.04 0.15-0.02 0.29-0.06 0.42-0.12s0.24-0.15 0.32-0.26c0.09-0.11 0.13-0.25 0.13-0.41 0-0.18-0.05-0.33-0.17-0.44-0.11-0.12-0.26-0.21-0.45-0.28-0.19-0.08-0.4-0.14-0.63-0.2-0.24-0.06-0.48-0.12-0.72-0.19-0.25-0.06-0.49-0.13-0.73-0.22-0.23-0.09-0.45-0.21-0.63-0.35-0.19-0.15-0.34-0.33-0.45-0.54-0.12-0.22-0.18-0.48-0.18-0.78 0-0.34 0.08-0.64 0.22-0.89 0.15-0.25 0.34-0.46 0.58-0.63 0.23-0.17 0.5-0.3 0.8-0.38s0.59-0.12 0.89-0.12c0.35 0 0.69 0.04 1.01 0.12 0.31 0.08 0.6 0.2 0.85 0.38 0.25 0.17 0.44 0.4 0.59 0.67s0.22 0.6 0.22 0.98h-1.42c-0.01-0.2-0.06-0.36-0.13-0.49s-0.16-0.24-0.28-0.31c-0.12-0.08-0.25-0.13-0.4-0.16-0.16-0.03-0.32-0.05-0.5-0.05-0.12 0-0.24 0.02-0.35 0.04-0.12 0.03-0.23 0.07-0.32 0.13-0.1 0.06-0.18 0.14-0.24 0.23-0.06 0.1-0.09 0.22-0.09 0.36 0 0.13 0.02 0.24 0.07 0.32s0.15 0.15 0.29 0.22c0.15 0.07 0.35 0.14 0.61 0.21s0.59 0.15 1.01 0.26c0.12 0.02 0.3 0.07 0.52 0.13 0.22 0.07 0.44 0.17 0.65 0.32 0.22 0.14 0.41 0.33 0.57 0.57s0.24 0.55 0.24 0.92c0 0.31-0.06 0.59-0.18 0.85s-0.3 0.49-0.53 0.68-0.52 0.33-0.87 0.44c-0.34 0.11-0.74 0.16-1.2 0.16-0.36 0-0.72-0.05-1.06-0.14-0.35-0.09-0.65-0.23-0.92-0.42-0.26-0.2-0.47-0.44-0.63-0.74-0.15-0.3-0.23-0.65-0.22-1.07h1.42c0 0.23 0.04 0.42 0.12 0.57z"></path><path d="m273.87 107.87 2.49 6.66h-1.52l-0.51-1.48h-2.49l-0.52 1.48h-1.48l2.52-6.66h1.51zm0.08 4.08-0.84-2.44h-0.02l-0.87 2.44h1.73z"></path></g><g enable-background="new    " fill="#fff"><path d="m239.18 107.87c0.32 0 0.61 0.03 0.87 0.08 0.26 0.06 0.48 0.15 0.67 0.28 0.19 0.12 0.33 0.29 0.44 0.5 0.1 0.22 0.15 0.48 0.15 0.79 0 0.33-0.08 0.61-0.23 0.84-0.15 0.22-0.38 0.4-0.68 0.55 0.41 0.12 0.72 0.32 0.93 0.62 0.2 0.29 0.3 0.65 0.3 1.07 0 0.33-0.07 0.63-0.2 0.87-0.13 0.25-0.3 0.45-0.52 0.6-0.23 0.16-0.48 0.27-0.76 0.35-0.29 0.07-0.58 0.11-0.88 0.11h-3.23v-6.66h3.14zm-0.19 2.69c0.26 0 0.48-0.06 0.65-0.18 0.16-0.13 0.25-0.33 0.25-0.61 0-0.15-0.03-0.28-0.09-0.38-0.05-0.1-0.13-0.18-0.22-0.23-0.09-0.06-0.2-0.1-0.32-0.12s-0.25-0.03-0.38-0.03h-1.37v1.55h1.48zm0.09 2.83c0.14 0 0.28-0.01 0.41-0.04s0.24-0.08 0.34-0.14c0.1-0.07 0.18-0.16 0.24-0.27s0.09-0.25 0.09-0.43c0-0.34-0.1-0.58-0.29-0.73-0.19-0.14-0.45-0.22-0.77-0.22h-1.59v1.83h1.57z"></path><path d="m241.89 107.87h1.64l1.56 2.63 1.55-2.63h1.64l-2.48 4.1v2.56h-1.46v-2.59l-2.45-4.07z"></path></g><g transform="matrix(0.625 0 0 0.625 391.23 176.93)"><path d="m-175.01-139.12c0.01 9.42-7.62 17.05-17.03 17.06s-17.05-7.62-17.05-17.03v-0.03c-0.01-9.41 7.62-17.04 17.03-17.05s17.05 7.62 17.05 17.03v0.02z" rx="29.209877" ry="29.209877" cy="252.08646" cx="475.97119" type="arc" fill="#fff"></path><g transform="translate(-23.952 -89.73)"><path d="m-168.22-68.055c-5.17 0-9.55 1.804-13.13 5.413-3.68 3.734-5.52 8.153-5.52 13.256s1.84 9.492 5.52 13.163c3.67 3.672 8.05 5.508 13.13 5.508 5.14 0 9.59-1.852 13.37-5.555 3.55-3.516 5.32-7.888 5.32-13.116 0-5.226-1.8-9.647-5.42-13.256-3.61-3.609-8.04-5.413-13.27-5.413zm0.05 3.36c4.23 0 7.83 1.493 10.79 4.48 2.99 2.957 4.49 6.566 4.49 10.829 0 4.294-1.46 7.857-4.39 10.689-3.09 3.05-6.72 4.574-10.89 4.574-4.18 0-7.78-1.509-10.8-4.527-3.02-3.019-4.53-6.597-4.53-10.736 0-4.138 1.52-7.748 4.58-10.829 2.93-2.987 6.51-4.48 10.75-4.48z"></path><path d="m-176.5-52.021c0.75-4.698 4.06-7.208 8.2-7.208 5.96 0 9.59 4.325 9.59 10.092 0 5.627-3.86 9.999-9.68 9.999-4.01 0-7.59-2.465-8.25-7.301h4.71c0.14 2.511 1.77 3.395 4.1 3.395 2.65 0 4.37-2.465 4.37-6.233 0-3.952-1.49-6.045-4.28-6.045-2.05 0-3.82 0.744-4.19 3.301l1.37-0.007-3.71 3.702-3.7-3.702 1.47 0.007z"></path></g></g><circle cy="90.225" cx="242.56" r="10.806" fill="#fff"></circle><path d="m245.69 87.098c0-0.417-0.34-0.754-0.75-0.754h-4.78c-0.41 0-0.75 0.337-0.75 0.754v4.773h1.33v5.652h3.62v-5.652h1.33v-4.773z"></path><circle cy="84.083" cx="242.55" r="1.6323"></circle><path fill-rule="evenodd" clip-rule="evenodd" d="m242.53 78.318c-3.23 0-5.96 1.128-8.2 3.384-2.3 2.333-3.45 5.095-3.45 8.284s1.15 5.932 3.45 8.227c2.29 2.297 5.03 3.447 8.2 3.447 3.22 0 6-1.16 8.36-3.476 2.22-2.197 3.33-4.93 3.33-8.198 0-3.267-1.13-6.028-3.39-8.284s-5.02-3.384-8.3-3.384zm0.03 2.1c2.65 0 4.9 0.934 6.75 2.801 1.87 1.847 2.81 4.103 2.81 6.767 0 2.684-0.92 4.911-2.75 6.681-1.93 1.906-4.2 2.858-6.81 2.858s-4.85-0.942-6.74-2.829c-1.89-1.886-2.84-4.123-2.84-6.71 0-2.586 0.96-4.842 2.87-6.767 1.83-1.867 4.07-2.801 6.71-2.801z"></path></g></g></symbol><symbol xmlns:rdf="http://www.w3.org/1999/02/22-rdf-syntax-ns#" xmlns:cc="http://creativecommons.org/ns#" xmlns:dc="http://purl.org/dc/elements/1.1/" viewBox="0 0 362.73401 512" height="100%" width="100%" version="1.1" id="html5"><title>HTML5 Logo</title><polygon points="404.32 470.82 255.78 512 107.64 470.88 74.633 100.62 437.37 100.62" fill="#e44d26" transform="translate(-74.633)"></polygon><polygon points="256 130.89 256 480.52 376.03 447.25 404.27 130.89" fill="#f16529" transform="translate(-74.633)"></polygon><polygon points="256 221.72 256 176.3 255.84 176.3 142.13 176.3 143.22 188.49 154.38 313.63 256 313.63 256 268.22 195.91 268.22 191.76 221.72" fill="#ebebeb" transform="translate(-74.633)"></polygon><polygon points="201.99 336.33 177.42 336.33 156.41 336.33 162.77 407.63 255.79 433.46 256 433.4 256 386.15 255.8 386.21 205.23 372.55" fill="#ebebeb" transform="translate(-74.633)"></polygon><path d="m33.749 0h23.077v22.8h21.11v-22.8h23.078v69.044h-23.077v-23.12h-21.11v23.12h-23.077v-69.044z"></path><path d="m131.36 22.896h-20.316v-22.896h63.72v22.896h-20.325v46.148h-23.078v-46.148z"></path><path d="m184.88 0h24.06l14.8 24.26 14.79-24.26h24.072v69.044h-22.982v-34.222l-15.877 24.549h-0.397l-15.888-24.549v34.222h-22.58v-69.044z"></path><path d="m274.09 0h23.084v46.222h32.453v22.822h-55.537v-69.044z"></path><polygon points="306.49 372.52 255.84 386.19 255.84 433.44 348.94 407.63 349.62 399.96 360.29 280.41 361.4 268.22 349.16 268.22 255.84 268.22 255.84 313.63 311.76 313.63" fill="#fff" transform="translate(-74.633)"></polygon><polygon points="255.84 221.72 365.38 221.72 365.38 221.72 365.53 221.72 366.44 211.51 368.51 188.49 369.6 176.3 255.84 176.3 255.84 204.51 255.84 221.6" fill="#fff" transform="translate(-74.633)"></polygon></symbol><symbol xmlns:rdf="http://www.w3.org/1999/02/22-rdf-syntax-ns#" xmlns:cc="http://creativecommons.org/ns#" xmlns:dc="http://purl.org/dc/elements/1.1/" viewBox="0 0 297.45001 419.87601" height="100%" width="100%" version="1.1" id="css3"><title>CSS3 Logo</title><g fill="none" transform="translate(-.071 -.135)"><path fill="#131313" d="m233.16 15.681h-24.688l25.674 27.859v13.261h-52.882v-15.526h25.669l-25.669-27.86v-13.28h51.896v15.546zm-62.378 0h-24.688l25.673 27.859v13.261h-52.882v-15.526h25.672l-25.672-27.86v-13.28h51.897v15.546zm-61.768 0.631h-26.64v24.313h26.64v16.176h-45.574v-56.666h45.574v16.177z"></path><path fill="#1572b6" d="m27.142 386.29-27.071-303.62h297.45l-27.096 303.57-121.81 33.77-121.47-33.72z"></path><path fill="#33a9dc" d="m148.8 394.2 98.427-27.288 23.157-259.42h-121.58v286.7z"></path><g transform="translate(55,142)"><path fill="#fff" d="m93.797 75.496h49.275l3.403-38.132h-52.678v-37.239h0.129 93.246l-0.893 9.991-9.152 102.62h-83.33v-37.236z"></path><path fill="#ebebeb" d="m94.02 172.2-0.163 0.046-41.472-11.199-2.652-29.698h-20.151-17.228l5.216 58.467 76.278 21.176 0.172-0.048v-38.744z"></path><path fill="#fff" d="m139.91 111.16-4.484 49.87-41.532 11.21v38.742l76.339-21.158 0.56-6.29 6.478-72.374h-37.361z"></path><path fill="#ebebeb" d="m93.926 0.125v23.128 14.019 0.092h-89.828-0.119l-0.747-8.37-1.697-18.878-0.89-9.991h93.281z"></path><path fill="#ebebeb" d="m93.797 75.5v23.129 14.017 0.092h-40.828-0.119l-0.746-8.369-1.698-18.878-0.89-9.991h44.281z"></path></g></g></symbol><symbol xmlns:rdf="http://www.w3.org/1999/02/22-rdf-syntax-ns#" xmlns:cc="http://creativecommons.org/ns#" xmlns:dc="http://purl.org/dc/elements/1.1/" height="100%" viewBox="0 0 1 1" width="100%" version="1.1" preserveAspectRatio="xMidYMid" id="bitcoin"><defs><linearGradient id="coin-gradient" x2="0%" y2="100%"><stop stop-color="#f9aa4b" offset="0"></stop><stop stop-color="#f7931a" offset="1"></stop></linearGradient></defs><g transform="scale(.015625)"><path d="m63.036 39.741c-4.274 17.143-21.637 27.576-38.782 23.301-17.138-4.274-27.571-21.638-23.295-38.78 4.272-17.145 21.635-27.579 38.775-23.305 17.144 4.274 27.576 21.64 23.302 38.784z" fill="url(#coin-gradient)"></path><path d="m46.101 27.441c0.637-4.258-2.605-6.547-7.038-8.074l1.438-5.768-3.511-0.875-1.4 5.616c-0.923-0.23-1.871-0.447-2.813-0.662l1.41-5.653-3.509-0.875-1.439 5.766c-0.764-0.174-1.514-0.346-2.242-0.527l0.004-0.018-4.842-1.209-0.934 3.75s2.605 0.597 2.55 0.634c1.422 0.355 1.679 1.296 1.636 2.042l-1.638 6.571c0.098 0.025 0.225 0.061 0.365 0.117-0.117-0.029-0.242-0.061-0.371-0.092l-2.296 9.205c-0.174 0.432-0.615 1.08-1.609 0.834 0.035 0.051-2.552-0.637-2.552-0.637l-1.743 4.019 4.569 1.139c0.85 0.213 1.683 0.436 2.503 0.646l-1.453 5.834 3.507 0.875 1.439-5.772c0.958 0.26 1.888 0.5 2.798 0.726l-1.434 5.745 3.511 0.875 1.453-5.823c5.987 1.133 10.489 0.676 12.384-4.739 1.527-4.36-0.076-6.875-3.226-8.515 2.294-0.529 4.022-2.038 4.483-5.155zm-8.022 11.249c-1.085 4.36-8.426 2.003-10.806 1.412l1.928-7.729c2.38 0.594 10.012 1.77 8.878 6.317zm1.086-11.312c-0.99 3.966-7.1 1.951-9.082 1.457l1.748-7.01c1.982 0.494 8.365 1.416 7.334 5.553z" fill="#FFF"></path></g></symbol><symbol xmlns:rdf="http://www.w3.org/1999/02/22-rdf-syntax-ns#" xmlns:cc="http://creativecommons.org/ns#" xmlns:dc="http://purl.org/dc/elements/1.1/" version="1.1" viewBox="0 0 1052 1052" id="javascript" width="100%" height="100%"><rect width="1052" height="1052" fill="#F0DB4F"></rect><path d="m965.9 801.1c-7.7-48-39-88.3-131.7-125.9-32.2-14.8-68.1-25.4-78.8-49.8-3.8-14.2-4.3-22.2-1.9-30.8 6.9-27.9 40.2-36.6 66.6-28.6 17 5.7 33.1 18.8 42.8 39.7 45.4-29.4 45.3-29.2 77-49.4-11.6-18-17.8-26.3-25.4-34-27.3-30.5-64.5-46.2-124-45-10.3 1.3-20.7 2.7-31 4-29.7 7.5-58 23.1-74.6 44-49.8 56.5-35.6 155.4 25 196.1 59.7 44.8 147.4 55 158.6 96.9 10.9 51.3-37.7 67.9-86 62-35.6-7.4-55.4-25.5-76.8-58.4-39.4 22.8-39.4 22.8-79.9 46.1 9.6 21 19.7 30.5 35.8 48.7 76.2 77.3 266.9 73.5 301.1-43.5 1.4-4 10.6-30.8 3.2-72.1zm-394-317.6h-98.4c0 85-0.4 169.4-0.4 254.4 0 54.1 2.8 103.7-6 118.9-14.4 29.9-51.7 26.2-68.7 20.4-17.3-8.5-26.1-20.6-36.3-37.7-2.8-4.9-4.9-8.7-5.6-9-26.7 16.3-53.3 32.7-80 49 13.3 27.3 32.9 51 58 66.4 37.5 22.5 87.9 29.4 140.6 17.3 34.3-10 63.9-30.7 79.4-62.2 22.4-41.3 17.6-91.3 17.4-146.6 0.5-90.2 0-180.4 0-270.9z" fill="#323330"></path></symbol><symbol xmlns:rdf="http://www.w3.org/1999/02/22-rdf-syntax-ns#" xmlns:cc="http://creativecommons.org/ns#" xmlns:dc="http://purl.org/dc/elements/1.1/" height="100%" width="100%" version="1.1" viewBox="0 0 64 64" id="linkedin"><path d="m12.8 51.2v-26.816h8.192v26.816h-8.192m8.448-34.24c0.064 2.304-1.664 4.16-4.416 4.16-2.56 0-4.224-1.856-4.224-4.16 0-2.368 1.728-4.16 4.352-4.16s4.288 1.792 4.288 4.16m21.504 34.24v-14.848c0-3.456-1.152-5.824-4.16-5.824-2.24 0-3.584 1.6-4.224 3.136-0.192 0.576-0.256 1.344-0.256 2.112v15.424h-8.192v-18.24c0-3.328-0.128-6.144-0.192-8.576h7.104l0.384 3.776h0.128c1.088-1.792 3.776-4.352 8.192-4.352 5.376 0 9.472 3.648 9.472 11.584v15.808h-8.256m21.248-45.568c0-3.072-2.56-5.632-5.632-5.632h-52.736c-3.072 0-5.632 2.56-5.632 5.632v52.736c0 3.072 2.56 5.632 5.632 5.632h52.736c3.072 0 5.632-2.56 5.632-5.632v-52.736" fill="#1d87bd"></path></symbol><symbol xmlns:rdf="http://www.w3.org/1999/02/22-rdf-syntax-ns#" xmlns:cc="http://creativecommons.org/ns#" xmlns:dc="http://purl.org/dc/elements/1.1/" height="100%" viewBox="0 0 100 100" width="100%" version="1.1" id="close"><g transform="translate(.000016071 -952.36)" fill="#333"><g fill="#333" transform="translate(-735.82 643.94)"><rect transform="matrix(.70678 -.70743 .70718 .70703 0 0)" height="114.73" width="26.688" y="751.87" x="288.79"></rect><rect transform="matrix(.70693 -.70728 .70703 .70718 0 0)" height="26.129" width="114.35" y="796.11" x="245.13"></rect></g></g></symbol><symbol xmlns:rdf="http://www.w3.org/1999/02/22-rdf-syntax-ns#" xmlns:cc="http://creativecommons.org/ns#" xmlns:dc="http://purl.org/dc/elements/1.1/" y="0px" xml:space="preserve" height="100%" viewBox="0 0 66.666664 100" width="100%" version="1.1" enable-background="new 0 0 14 21" x="0px" id="next"><g transform="scale(4.7619)" fill="#333"><path fill="#333" d="m13.998 10.5l0.002 0.002v-0.002h-0.002zm-5.859-5.01c-0.775-0.867-1.516-1.772-2.226-2.716s-1.337-1.869-1.879-2.774h-4.034c0.543 0.905 1.208 1.882 1.995 2.929 0.787 1.048 1.622 2.082 2.502 3.104 0.883 1.022 1.778 1.972 2.688 2.852 0.627 0.608 1.232 1.143 1.815 1.615-0.583 0.473-1.188 1.009-1.815 1.616-0.909 0.88-1.805 1.83-2.688 2.852-0.88 1.022-1.715 2.057-2.502 3.104-0.787 1.048-1.452 2.023-1.995 2.928h4.034c0.542-0.905 1.168-1.829 1.878-2.773s1.451-1.85 2.226-2.717c0.775-0.866 1.562-1.661 2.361-2.385 0.688-0.621 2.531-1.949 3.498-2.625-0.967-0.675-2.81-2.002-3.498-2.624-0.798-0.724-1.585-1.519-2.36-2.386z"></path></g></symbol><symbol xmlns:rdf="http://www.w3.org/1999/02/22-rdf-syntax-ns#" xmlns:cc="http://creativecommons.org/ns#" xmlns:dc="http://purl.org/dc/elements/1.1/" y="0px" height="100%" viewBox="0 0 66.666664 100" width="100%" version="1.1" enable-background="new 0 0 14 21" x="0px" id="prev"><g transform="scale(4.7619)" fill="#333"><path fill="#333" d="m0 10.501c0.001 0 0.001-0.001 0.002-0.001-0.001 0-0.001-0.001-0.002-0.001v0.002zm9.503 4.466c-0.883-1.021-1.778-1.972-2.687-2.852-0.628-0.607-1.233-1.142-1.816-1.615 0.583-0.473 1.188-1.008 1.816-1.615 0.909-0.88 1.804-1.83 2.687-2.852 0.882-1.022 1.716-2.056 2.503-3.104 0.786-1.048 1.451-2.024 1.994-2.929h-4.034c-0.542 0.905-1.168 1.83-1.878 2.774-0.711 0.944-1.452 1.849-2.227 2.716-0.775 0.866-1.562 1.661-2.362 2.386-0.687 0.622-2.53 1.948-3.497 2.624 0.967 0.676 2.81 2.002 3.497 2.624 0.8 0.724 1.587 1.52 2.362 2.387 0.774 0.866 1.516 1.771 2.227 2.716 0.71 0.943 1.336 1.868 1.878 2.773h4.034c-0.543-0.905-1.208-1.882-1.994-2.929-0.787-1.048-1.621-2.082-2.503-3.104z"></path></g></symbol><symbol xmlns:rdf="http://www.w3.org/1999/02/22-rdf-syntax-ns#" xmlns:cc="http://creativecommons.org/ns#" xmlns:dc="http://purl.org/dc/elements/1.1/" height="100%" viewBox="0 0 90 85" width="100%" version="1.1" id="chat"><g transform="matrix(5 0 0 4.9987 -15 -5160.5)" fill="#333"><g fill="#333" transform="translate(-789 604.36)"><path style="color:black" transform="translate(789,424)" d="m7.3125 4c-3.541 0.0684-4.3125 0.625-4.3125 5v3c0 5 1 5 6 5h6c5 0 6 0 6-5v-3c0-5-1-5-6-5h-6c-0.625 0-1.1816-0.0098-1.6875 0zm-1.3125 3h12v1h-12v-1zm0 2h12v1h-12v-1zm0 2h8v1h-8v-1z"></path><path d="m796 440v5l5-5z"></path></g></g></symbol><symbol xmlns:rdf="http://www.w3.org/1999/02/22-rdf-syntax-ns#" xmlns:cc="http://creativecommons.org/ns#" xmlns:dc="http://purl.org/dc/elements/1.1/" height="100%" viewBox="0 0 656.81 591.75" width="100%" version="1.0" id="cart"><g transform="matrix(-1 0 0 1 708.18 -114.17)"><g transform="matrix(.5478 0 0 .5478 165.3 314.13)"><path d="m39.598 563.04c190.45-82.02 519.49-59.39 692.96 53.74 63.17-78.25 41.49-266.81-31.11-288.5 49.97-191.39-49.97-600.56 192.33-613.76 97.11 103.71 157.42-126.34 2.83-70.71-319.58 30.77-208.15 428.58-282.84 664.68-267.76-58.46-716.54 69.76-625.08 141.42 265.87-71.66 593.97-157.45 712.76 87.68-131.99-131.99-620.37-108.42-661.85 25.45z"></path><path d="m59.397 319.8c-212.14-178.19-690.59-697.5 574.17-444.06-930.55-50.92-808.93 28.281-574.17 444.06z"></path><path d="m-98.995 36.957c207.42-68.825 457.26-95.224 684.48-50.912-214-15.085-461.96 37.713-661.84 104.65-7.54-17.911-15.082-35.825-22.625-53.738z"></path><path d="m-31.113 167.06c10.371 19.8 20.742 39.6 31.113 59.4 140.48-90.51 334.7-130.11 534.57-118.79-148.02-76.37-335.64-48.086-565.68 59.39z"></path><path d="m-87.681-107.29c27.341-12.26 54.683-24.52 82.024-36.77 118.8 143.3 181.02 292.27 220.62 446.89-75.42-145.19-159.33-276.24-302.64-410.12z"></path><path d="m82.024-158.2c23.566-0.95 47.136-1.89 70.716-2.83 107.48 130.1 152.73 263.04 152.73 398.81-40.54-132-103.71-263.99-223.45-395.98z"></path><path d="m280.01-155.38c22.63 0.95 45.26 1.89 67.89 2.83 43.37 112.2 75.42 218.73 70.71 336.59-15.09-118.8-69.77-223.45-138.6-339.42z"></path><path d="m102.33 514.65c-17.015 0.24-32.892 5.09-45.622 14.97-37.032 28.75-33.575 89.26 7.719 135.09 41.293 45.83 104.87 59.72 141.9 30.97s33.58-89.29-7.72-135.12c-27.09-30.08-63.79-46.38-96.28-45.91zm29.13 57.41c14.22-0.22 30.29 7.49 42.15 21.68 18.09 21.62 19.63 50.16 3.41 63.72s-44.07 7.03-62.16-14.59c-18.078-21.62-19.587-50.19-3.37-63.75 5.57-4.66 12.52-6.95 19.97-7.06z"></path><path d="m607.21 514.65c-17.02 0.24-32.9 5.09-45.63 14.97-37.03 28.75-33.57 89.26 7.72 135.09 41.3 45.83 104.88 59.72 141.91 30.97s33.57-89.29-7.72-135.12c-27.1-30.08-63.79-46.38-96.28-45.91zm29.12 57.41c14.23-0.22 30.29 7.49 42.16 21.68 18.08 21.62 19.62 50.16 3.41 63.72-16.22 13.56-44.08 7.03-62.16-14.59s-19.59-50.19-3.38-63.75c5.58-4.66 12.52-6.95 19.97-7.06z"></path></g></g></symbol><symbol xmlns:rdf="http://www.w3.org/1999/02/22-rdf-syntax-ns#" xmlns:cc="http://creativecommons.org/ns#" xmlns:dc="http://purl.org/dc/elements/1.1/" height="100%" width="100%" version="1.1" viewBox="0 0 64 58.249732" id="map"><defs><filter id="filter4037" height="1.2421" width="1.0798" y="-.12104" x="-.039886" color-interpolation-filters="sRGB"><feGaussianBlur stdDeviation="11.868751"></feGaussianBlur></filter></defs><g transform="matrix(.082995 0 0 .082995 -5.7035 -4.8624)"><path filter="url(#filter4037)" d="m169.86 507.87c-20.785 77.131-51.799 144.5-72.654 221.61 2.1015 4.6742 8.8667 1.0502 12.719 2.1875 233.25-0.083 466.56 0.1667 699.78-0.125 4.2968-2.5855-1.1212-8.655-1.0077-12.491-20.23-74.16-48.44-142.55-68.69-216.7-196.02 0-373.71 4.0362-569.73 4.0362l-0.27 0.96z"></path><path d="m746.45 498.58 62.933 230.64c0.0643 0.2358-0.23656 0.4411-0.53041 0.4411h-708.94c-0.29385 0-0.59221-0.2046-0.53041-0.4411l62.067-230.64z" fill="#dcd3ba"></path><path opacity=".48560" d="m726.73 727.45c0-1.1136-3.3217-4.2151-5.067-4.7311-2.3188-0.6855-9.2187-4.8201-9.2187-5.5241 0-0.3098-0.40179-0.5771-0.89286-0.5938-2.6563-0.091-10.236-9.2779-11.922-14.45-0.64973-1.9935-1.5989-3.0627-3.6462-4.1071-1.5223-0.7766-3.2689-1.4121-3.8812-1.4121-0.61236 0-2.7948-0.8905-4.8499-1.979s-5.6651-2.5678-8.0222-3.2874c-6.7148-2.0498-10.022-3.9058-14.701-8.2492-3.3438-3.1039-4.6508-4.927-5.6893-7.9356-0.74155-2.1483-1.3588-4.4202-1.3716-5.0487-0.0129-0.6286-0.94749-2.4186-2.077-3.9779s-2.2762-3.5361-2.5481-4.3929c-0.27195-0.8568-0.79421-1.5578-1.1606-1.5578-0.36637 0-0.66615-0.631-0.66615-1.4021 0-1.9039-6.7557-8.343-10.714-10.212-1.7679-0.8347-3.4713-1.938-3.7855-2.4518-0.31417-0.5137-1.7606-0.9343-3.2143-0.9345-4.633-0.0009-20.857-4.9085-20.857-6.309 0-0.3169-0.95919-1.6505-2.1315-2.9636s-2.3386-3.0398-2.5917-3.8372c-0.25309-0.7974-1.7046-3.4831-3.2256-5.9681-2.6817-4.3813-2.7658-4.718-2.7762-11.113-0.01-6.0881-0.73063-9.7693-2.5034-12.786-0.3851-0.6554-3.2716-2.4385-6.4145-3.9625-3.1429-1.5239-6.6229-3.3712-7.7334-4.105-1.6882-1.1156-4.0881-1.4192-14.643-1.8523-13.358-0.5482-19.644-1.8523-23.824-4.9423-1.0759-0.7955-2.2261-1.4463-2.556-1.4463-0.32984 0-1.0065-1.125-1.5037-2.5s-1.3654-2.5-1.9292-2.5c-0.56386 0-1.0252-0.3147-1.0252-0.6993 0-0.9196-7.8027-8.5865-8.7386-8.5865-0.61877 0-8.4709-3.756-13.047-6.2409-0.78572-0.4267-3.3571-1.1475-5.7143-1.6018-4.7721-0.9197-10.318-3.3679-10.867-4.7968-0.19667-0.5126-0.72498-0.9319-1.174-0.9319-1.4014 0-4.496-4.5161-5.0237-7.3312-0.27717-1.4785-0.52833-7.8783-0.55812-14.222-0.0534-11.366-0.0832-11.579-2.0572-14.692-1.1017-1.7372-3.3923-4.5684-5.0902-6.2916s-4.6155-4.7108-6.4835-6.6392-4.8349-4.8322-6.5931-6.4529l-2.7909-3.8435h275l31.093 115.19c16.88 62.534 29.839 114.01 29.861 114.11 0.022 0.098-18.121 0.1786-40.317 0.1786s-40.357-0.2745-40.357-0.61z" fill="#89d375"></path><path d="m589.45 498.58h45l9.933 231.08h-65z" fill="#f7fd9f"></path><g transform="translate(105.02,-618.78)" fill="#FFF"><path d="m676.43 1242.4 10 40h-590l10-35z"></path><path d="m116.43 1117.4h40l-36.067 165.08h-50z"></path></g><path d="m746.45 498.58 62.933 230.64c0.0643 0.2358-0.23656 0.4411-0.53041 0.4411h-708.94c-0.29385 0-0.59221-0.2046-0.53041-0.4411l62.067-230.64z" fill="none"></path><path opacity=".8" d="m746.45 498.58 62.933 230.64c0.0643 0.2358-0.23656 0.4411-0.53041 0.4411h-708.94c-0.29385 0-0.59221-0.2046-0.53041-0.4411l62.067-230.64z" stroke="#000" stroke-width="10" fill="none"></path><path stroke="#000" stroke-width="10.397" d="m452.08 63.785c-99.484 0-179.81 80.41-179.81 179.59 0 31.186 7.9688 60.528 21.938 86.094l157.88 264.31 157.88-264.31c13.969-25.566 21.938-54.908 21.938-86.094 0-99.184-80.328-179.59-179.81-179.59zm-2 104.37c0.6674-0.0169 1.3285 0 2 0 42.975 0 77.812 34.838 77.812 77.813s-34.838 77.812-77.812 77.812c-42.975 0-77.812-34.838-77.812-77.812 0-42.303 33.766-76.747 75.812-77.813z" fill="#e52626"></path></g></symbol><symbol xmlns:rdf="http://www.w3.org/1999/02/22-rdf-syntax-ns#" xmlns:cc="http://creativecommons.org/ns#" xmlns:dc="http://purl.org/dc/elements/1.1/" height="100%" viewBox="0 0 90 80" width="100%" version="1.1" id="photo"><g transform="translate(0 -972.36)" fill="#333"><g fill="#333" transform="translate(-60 548)"><path style="color:black" d="m81.562 434.39c-17.705 0.27-21.562 2.5-21.562 19.99v29.989c0 19.992 5 19.992 30 19.992h30c25 0 30 0 30-19.992v-29.989c0-19.992-5-19.992-30-19.992h-30c-3.125 0-5.9082-0.04-8.4375 0zm30.938 4.9981c15.188 0 27.5 12.308 27.5 27.49s-12.312 27.49-27.5 27.49-27.5-12.308-27.5-27.49 12.312-27.49 27.5-27.49z"></path><path d="m100.94 424.39c-1.1797 0.2504-2.2815 0.85638-3.125 1.7181l-7.815 7.81c-1.409 1.401-2.0727 3.5118-1.7188 5.4667h48.438c0.3539-1.9549-0.30975-4.0657-1.7188-5.4667l-7.8125-7.8096c-1.1591-1.1134-2.7677-1.7451-4.375-1.7181h-20.625c-0.41525-0.04-0.83477-0.04-1.25 0z"></path><path style="color:black" d="m112.5 446.88c-11.046 0-20 8.951-20 19.993s8.9543 19.992 20 19.992 20-8.9509 20-19.992c0-11.042-8.9543-19.993-20-19.993zm-5 9.9963c2.7614 0 5 2.2378 5 4.9981 0 2.7604-2.2386 4.9981-5 4.9981s-5-2.2377-5-4.9981 2.2386-4.9981 5-4.9981z"></path></g></g></symbol><symbol xmlns:rdf="http://www.w3.org/1999/02/22-rdf-syntax-ns#" xmlns:cc="http://creativecommons.org/ns#" xmlns:dc="http://purl.org/dc/elements/1.1/" height="100%" viewBox="0 0 100 94.45" width="100%" version="1.1" id="music"><path style="color:#000000" d="m47.344 0c-9.953 0.20816-14 1.8294-14 13.906v2.75h66.656v-2.75c0-13.889-5.323-13.906-18.656-13.906h-34zm-14 16.688v49.593c-3.531-3.101-8.451-5.031-13.906-5.031-10.739 0-19.438 7.452-19.438 16.656 4.737e-15 9.205 8.6987 16.656 19.438 16.656 10.738 0 19.437-7.451 19.437-16.656 0-0.287 0.017-0.559 0-0.844v-49.281h55.563v38.469c-3.529-3.084-8.437-5-13.876-5-10.738 0-19.437 7.452-19.437 16.656 0 9.205 8.699 16.656 19.437 16.656 10.739 0 19.438-7.451 19.438-16.656v-61.218h-5.562v5.531h-55.563v-5.531h-5.531z" transform="translate(-.0000016155)" fill="#333"></path></symbol><symbol xmlns:rdf="http://www.w3.org/1999/02/22-rdf-syntax-ns#" xmlns:cc="http://creativecommons.org/ns#" xmlns:dc="http://purl.org/dc/elements/1.1/" height="100%" viewBox="0 0 99 82.5" width="100%" version="1.1" id="video"><path d="m26.125 0c-1.448-0.0085863-2.802-0.0030952-4.125 0.03125-18.528 0.35032-22 3.075-22 24.219v36.25c0 21.967 4.381 22 30.781 22h37.469c26.4 0 30.75-0.008 30.75-22v-36.25c0-24.164-4.35-24.219-30.75-24.219h-37.469c-1.65 0-3.208-0.022664-4.656-0.03125zm11.719 5.5c1.284 0.0086 2.638 0.0312 4.094 0.0312h15.124c23.353 0 25.543 0.0068 25.438 19.25v35.375c0 16.993-2.084 17.032-25.438 17.032h-15.124c-23.287 0-25.438-0.023-25.438-17.032v-35.375c0-16.859 1.711-18.986 17.719-19.25 1.143-0.0343 2.341-0.0398 3.625-0.0312zm-32.344 5.688h5.5v5.343h-5.5v-5.343zm82.5 0h5.5v5.343h-5.5v-5.343zm-52.219 10.781c-0.164 0.015-0.304 0.039-0.406 0.093-3.251 1.728-3.251 36.68 0 38.407s36.125-15.733 36.125-19.188c0-3.239-28.866-18.797-35.156-19.312-0.21-0.014-0.399-0.016-0.563 0zm-30.281 0.219h5.5v5.343h-5.5v-5.343zm82.5 0h5.5v5.343h-5.5v-5.343zm-82.5 11h5.5v5.343h-5.5v-5.343zm82.5 0h5.5v5.343h-5.5v-5.343zm-82.5 11h5.5v5.312h-5.5v-5.312zm82.5 0h5.5v5.312h-5.5v-5.312zm-82.5 11h5.5v5.312h-5.5v-5.312zm82.5 0h5.5v5.312h-5.5v-5.312zm-82.5 11h5.5v5.312h-5.5v-5.312zm82.5 0h5.5v5.312h-5.5v-5.312z" style="color:#000000" fill="#333"></path></symbol><symbol xmlns:rdf="http://www.w3.org/1999/02/22-rdf-syntax-ns#" xmlns:cc="http://creativecommons.org/ns#" xmlns:dc="http://purl.org/dc/elements/1.1/" height="100%" width="100%" version="1.1" viewBox="0 0 90.681 129.84329" id="telephone"><path fill-rule="evenodd" d="m26.37 34.581-0.001-32.484a35 35 0 0 0 -25.995 30.832l0.000053-0.000011a100 100 0 0 0 42.329 90.601l0.000098 0.00003a35 35 0 0 0 40.328 -0.16l-24.915-20.84-3.3974 1.5873a10 10 0 0 1 -13.293 -4.827l-23.281-49.83a10 10 0 0 1 4.827 -13.293l3.398-1.589zm5 1.8426v-36.423l10 4.6721v27.079l-10 4.6721zm28.542 61.09 27.937 23.371 2.8329-10.668-20.77-17.375-10 4.6721z"></path></symbol><symbol xmlns:rdf="http://www.w3.org/1999/02/22-rdf-syntax-ns#" xmlns:cc="http://creativecommons.org/ns#" xmlns:dc="http://purl.org/dc/elements/1.1/" style="enable-background:new 0 0 134.544 127.644;" space="preserve" viewBox="0 0 134.544 127.644" height="100%" width="100%" version="1.1" id="settings"><defs><linearGradient id="XMLID_7_" y2="63.737" gradientUnits="userSpaceOnUse" y1="63.737" x2="133.89" x1="7.0522"><stop stop-color="#EAEAEA" offset="0"></stop><stop stop-color="#E1E1E1" offset="0.1981"></stop><stop stop-color="#C9C8C8" offset="0.5226"></stop><stop stop-color="#A1A0A0" offset="0.9311"></stop><stop stop-color="#9A9999" offset="1"></stop></linearGradient><linearGradient id="XMLID_8_" y2="455.83" gradientUnits="userSpaceOnUse" y1="455.83" gradientTransform="matrix(-211.4047,211.9190,211.9190,211.4047,-146204.4,-46500.47)" x2="-233.92" x1="-235.55"><stop stop-color="#FFF" offset="0"></stop><stop stop-color="#000" offset="1"></stop></linearGradient><linearGradient id="XMLID_10_" y2="455.6" gradientUnits="userSpaceOnUse" y1="455.6" gradientTransform="matrix(-211.4047,211.9190,211.9190,211.4047,-146204.4,-46500.47)" x2="-233.78" x1="-235.61"><stop stop-color="#C6C6C6" offset="0"></stop><stop stop-color="#000" offset="1"></stop></linearGradient><linearGradient id="XMLID_11_" y2="455.82" gradientUnits="userSpaceOnUse" y1="455.82" gradientTransform="matrix(-211.4047,211.9190,211.9190,211.4047,-146204.4,-46500.47)" x2="-233.93" x1="-235.54"><stop stop-color="#C6C6C6" offset="0"></stop><stop stop-color="#000" offset="1"></stop></linearGradient></defs><path fill="url(#XMLID_7_)" d="M109.08,81.232c-9.452-9.441-21.299-15.809-31.939-23.731-5.87-4.37-15.309-10.283-16.672-18.151-0.848-4.896,1.591-9.764,0.886-14.939-0.718-5.291-3.022-10.31-6.55-14.316-7.609-8.64-20.183-11.606-30.849-7.224l11.407,11.407c5.395,5.396,4.612,9.253-0.65,14.5-4.896,4.881-8.723,4.604-13.444-0.112-3.937-3.932-7.871-7.863-11.808-11.795-4.668,10.252-2.406,22.596,5.546,30.545,3.756,3.754,8.593,6.372,13.8,7.438,2.498,0.511,5.071,0.67,7.615,0.471,2.709-0.213,6.506-2.252,8.979-1.574,8.634,2.359,14.464,10.677,19.334,17.692,7.66,11.027,12.911,23.254,22.639,32.767,8.008,7.83,16.846,15.99,27.106,20.8,7.81,3.66,13.9,0.88,18.28-6.73,2.51-4.35,0.41-8.42-2.1-12.33-5.88-9.16-13.93-17.063-21.58-24.718m-3.15,22.168c-4.84,0-4.83-7.514,0-7.514,4.84,0.034,4.86,7.514,0,7.514"></path><path fill="url(#XMLID_8_)" d="M72.698,52.866c-0.396,0.395-0.793,0.792-1.188,1.188,3.334,2.845,5.444,2.622,9.313,5.351-0.281,0.296-0.563,0.594-0.845,0.889,14.662,9.591,27.492,19.62,39.222,32.692,4.78,5.243,10.2,10.934,13.05,17.544,2.12,4.92-0.38,8.21-3.89,11.8-8.46,8.64-19.68-1.03-27.11-6.9-14.178-11.2-26.268-25.019-34.527-41.176-0.34,0.357-0.681,0.717-1.021,1.074-2.014-4.167-2.271-7.269-4.97-10.499-2.109,2.102,2.567,6.314,3.905,8.963,2.299,4.554,5.041,8.8,7.849,13.055,6.597,9.993,14.207,18.423,23.302,26.213,6.212,5.32,13.092,10.9,20.862,13.77,6.67,2.46,11.46-0.96,15.52-6.17,7.61-9.77-4.98-21.306-11.19-28.184-6.52-7.217-13.28-14.381-20.97-20.365-8.781-6.827-18.931-11.963-27.312-19.245m-38.5-52.866c-1.117,0-12.8,1.62-10.827,3.456,0.072,0.804,2.794,2.797,3.337,3.34,3.387,3.393,7.798,6.723,10.604,10.615,4.395,4.396-2.842,12.46-7.247,14.238-5.052,2.038-10.382-5.742-13.376-8.739-0.644-0.644-7.123-8.213-7.986-6.39-4.167,9.165-3.038,20.09,2.911,28.199,5.264,7.177,13.789,11.521,22.693,11.521,4.303,0,8.532-2.432,12.553-1.151,3.928,1.25,6.672,4.059,9.363,7.074,3.517-3.518-8.538-8.648-11.637-9.495-1.723-0.442-5.826,1.604-7.795,1.792-3.89,0.368-7.853-0.134-11.523-1.472-13.913-5.069-20.892-20.87-15.442-34.587,3.97,3.973,7.942,7.944,11.914,11.916,5.405,5.404,9.86,2.75,14.476-1.867,2.335-2.335,4.793-4.618,4.255-8.286-1.567-2.223-3.313-4.088-5.228-6.003-3.593-3.591-7.186-7.184-10.779-10.777,0.957,0.367,1.845,0.86,2.663,1.481l-1.598-1.598c13.529-4.813,28.722,2.306,33.642,15.822,2.453,6.74,0.117,11.735,0.143,18.328,0.494,3.318,5.677,15.986,9.543,12.119-3.694-3.248-6.907-6.004-7.691-11.013-0.43-2.755,0.931-5.359,1.173-8.153,0.322-3.745-0.152-7.563-1.342-11.125-3.81-11.421-14.787-19.245-26.799-19.245"></path><path fill="#e5e5e5" d="M11.881,21.244c-0.223-0.881-0.782-1.391-1.677-1.53-2.405,6.787-1.443,14.537,2.289,20.661-2.992-6.04-3.265-12.958-0.612-19.131m48.25,6.359c0.008-7.884-3.868-15.379-10.194-20.056-2.91-2.151-6.272-3.674-9.806-4.447-1.624-0.356-13.428-1.411-13.405,0.843,0.036,3.46,8.174,2.006,9.697,2.122,4.861,0.367,9.566,2.182,13.398,5.194,8.738,6.87,11.665,19.119,6.707,29.131,2.335-3.845,3.618-8.284,3.603-12.787"></path><path fill="#e5e5e5" d="M38.564,31.626c1.519-1.519,3.918-3.793,4.301-6.057,0.645-3.792-5.041,1.243-5.321,1.585-1.737,2.13-3.398,4.283-5.642,5.915-0.506,0.369-3.112,1.376-3.309,2.022-0.244,0.804,2.544,0.734,2.758,0.709,2.809-0.337,5.281-2.24,7.213-4.174"></path><path fill="url(#XMLID_10_)" d="M24.464,3.383c5.396,5.394,11.601,10.534,16.007,16.78-0.481-3.237-3.596-5.551-5.765-7.721-2.953-2.952-6.207-7.609-10.242-9.059"></path><path fill="#b2b2b2" d="M42.396,24.593c0.099,0.524,0.195,1.046,0.293,1.57,0.357-0.72,0.258-1.242-0.293-1.57"></path><path fill="#e5e5e5" d="M26.256,35.833c-1.023,1.025-17.446-15.347-16.398-16.399,0.362-0.363,16.752,16.046,16.398,16.399"></path><path fill="#e5e5e5" d="M131.96,114.9c3.62-3.64-34.908-37.813-38.923-41.091-9.73-7.946-20.975-13.859-29.757-23.014-1.597-1.665-3.312-3.513-4.231-5.664-0.023-0.059-0.444-1.816-0.221-1.7,0.173,0.09-0.377,0.693-0.418,0.734-0.255,0.259,8.754,8.281,9.283,8.685,10.813,8.242,22.997,14.23,33.537,22.948,8.87,7.343,17.26,15.537,24.24,24.722,1.53,2.02,9.45,11.42,6.49,14.38"></path><path fill="#9a9a9a" d="M99.574,88.352c-1.573,0-3.071,0.258-4.547,0.798,4.688,0,8.163-0.436,12.243,2.703,2.82,2.172,4.73,5.209,6.45,8.277,0.43,0.79,2.7,6.7,3.82,6.7,2.61,0-3.36-10.186-3.79-10.702-3.57-4.272-8.39-7.776-14.176-7.776"></path><path fill="#e5e5e5" d="M104.4,107.66c2.23,1.54,4.88,2.21,7.55,2.33,0.59,0.02,5.01-0.58,5.31,0.13,1.96,4.67-11.76,1.4-12.76,0.82-6.157-3.51-11.054-10.34-11.105-17.59-0.03-3.91,1.366-6.361,1.87-0.955,0.6,6.462,3.805,11.565,9.135,15.265"></path><path fill="#d82a2a" d="M56.106,65.645c8.814,8.784-12.75,27.312-17.566,32.206-7.438,7.559-15.314,15.929-24.656,21.179-3.08,1.74-7.064,3.34-10.242,0.96-10.102-7.56,8.551-24.703,13.17-29.574,8.061-8.503,16.708-17.64,26.902-23.634,3.507-2.063,8.913-4.63,12.392-1.137"></path><path fill="#b20d0d" d="M56.106,65.645c-0.554-0.394-1.109-0.787-1.663-1.181,6.218,9.163-13.687,26.113-18.559,31.057-7.218,7.329-14.752,15.169-23.603,20.559-2.924,1.78-7.023,3.94-10.417,2.1,7.942,11.46,28.348-12.07,32.98-16.63,5.05-4.977,30.806-26.395,21.262-35.905"></path><path fill="#ef5656" d="M50.061,68.252c1.19,1.189-19.442,19.272-20.657,20.475-6.626,6.564-13.116,13.273-19.315,20.243-0.539,0.6-3.332,4.71-4.512,4.13-5.282-2.56,12.201-19.62,13.334-20.8,2.264-2.36,25.946-29.257,31.15-24.048"></path><path fill="#970f00" d="M21.607,84.615c-4.188,4.188-33.355,31.575-16.307,36.925,6.423,2.02,14.411-5.49,18.82-9.24,8.531-7.25,16.578-15.298,23.931-23.741,4.321-4.96,15.407-16.414,8.495-23.351-9.243-9.242-29.807,14.276-34.939,19.407m-18.534,34.065c-5.303-5.25,2.725-14.55,5.958-18.57,7.805-9.691,16.899-18.767,26.493-26.684,4.077-3.363,17.131-14.582,21.506-5.543,1.644,3.397-0.833,7.569-2.603,10.368-6.237,9.867-15.167,18.312-23.559,26.299-4.577,4.36-20.057,21.9-27.795,14.13"></path><path fill="#c6c6c6" d="M112.7,9.215c5.44,5.441-1.74,9.104-5.59,12.961-3.62,3.63-8.277,4.547-12.034,8.308-4.229,4.232-8.46,8.463-12.689,12.694-6.863,6.863-13.729,13.727-20.594,20.589-1.478,1.478-2.954,2.954-4.431,4.43-0.674,0.675-1.538,0.741-2.424,0.407-3.403-1.283-0.995-4.162,0.5-5.655,9.582-9.577,19.165-19.154,28.745-28.734,2.343-2.342,4.685-4.684,7.026-7.025,1.445-1.444,3.574-2.957,4.414-4.863,0.812-1.843,0.643-4.465,2.143-5.967,4.304-4.302,8.814-13.145,14.934-7.145"></path><path fill="#FFF" d="M94.426,26.611c0.503,0.503-38.888,39.939-39.413,39.414-0.238-0.238,38.481-40.256,39.413-39.414"></path><path fill="#9a9a9a" d="M98.729,26.611c-6.407,1.639-42.162,42.753-42.899,42.022,5.496-1.883,42.011-42.91,42.899-42.022"></path><path fill="#e5e5e5" d="M112.61,13.094c0,4.24-13.416,13.159-13.416,5.804,0-0.594,5.556-1.447,6.936-2.331,0.5-0.321,6.48-4.21,6.48-3.473"></path><path fill="#9a9a9a" d="M108.61,7.109c-1.54,0-10.286,9.531-10.174,9.645,1.015,1.012,9.114-9.645,10.174-9.645"></path><path fill="#DDD" d="M108.06,7.95c0.31-0.316,3.72,4.755,4.41,4.755,0.12-2.107-2.15-4.748-4.41-4.755"></path><path fill="#c4c4c4" d="M108.06,7.95"></path><path fill="#9a9a9a" d="M73.073,59.401c-2.022,2.023-4.045,4.047-6.067,6.071-3.913,3.916-2.947,3.583-0.285,8.781,3.62-3.813,7.24-7.624,10.86-11.438-1.519-1.117-3.024-2.252-4.508-3.414m2.281-2.284c-0.203,0.202-0.407,0.407-0.609,0.609,1.603,1.018,3.226,2,4.867,2.954,0.121-0.128,0.243-0.258,0.365-0.386-1.565-1.024-3.115-2.071-4.623-3.177"></path><path fill="url(#XMLID_11_)" d="M63.712,68.77c-1.454,1.672,1.062,4.641,1.989,6.558,2.214-1.388-0.989-5.03-1.989-6.558m12.561-12.574c-0.308,0.307-0.612,0.614-0.919,0.921,1.721,1.264,3.743,3.759,5.468,2.288-1.516-1.07-3.033-2.14-4.549-3.209"></path><path fill="#b2b2b2" d="M74.745,57.726c-0.633,0.362-1.153,1.155-1.672,1.676,2.27,1.775,4.613,5.014,6.539,1.278-1.642-0.954-3.265-1.937-4.867-2.954"></path></symbol><symbol height="100%" width="100%" id="mark-github" viewBox="0 0 16 16">  <path d="M8 0C3.58 0 0 3.58 0 8c0 3.54 2.29 6.53 5.47 7.59 0.4 0.07 0.55-0.17 0.55-0.38 0-0.19-0.01-0.82-0.01-1.49-2.01 0.37-2.53-0.49-2.69-0.94-0.09-0.23-0.48-0.94-0.82-1.13-0.28-0.15-0.68-0.52-0.01-0.53 0.63-0.01 1.08 0.58 1.23 0.82 0.72 1.21 1.87 0.87 2.33 0.66 0.07-0.52 0.28-0.87 0.51-1.07-1.78-0.2-3.64-0.89-3.64-3.95 0-0.87 0.31-1.59 0.82-2.15-0.08-0.2-0.36-1.02 0.08-2.12 0 0 0.67-0.21 2.2 0.82 0.64-0.18 1.32-0.27 2-0.27 0.68 0 1.36 0.09 2 0.27 1.53-1.04 2.2-0.82 2.2-0.82 0.44 1.1 0.16 1.92 0.08 2.12 0.51 0.56 0.82 1.27 0.82 2.15 0 3.07-1.87 3.75-3.65 3.95 0.29 0.25 0.54 0.73 0.54 1.48 0 1.07-0.01 1.93-0.01 2.2 0 0.21 0.15 0.46 0.55 0.38C13.71 14.53 16 11.53 16 8 16 3.58 12.42 0 8 0z"></path></symbol><symbol height="100%" width="100%" id="alert" viewBox="0 0 16 16">  <path d="M15.72 12.5l-6.85-11.98C8.69 0.21 8.36 0.02 8 0.02s-0.69 0.19-0.87 0.5l-6.85 11.98c-0.18 0.31-0.18 0.69 0 1C0.47 13.81 0.8 14 1.15 14h13.7c0.36 0 0.69-0.19 0.86-0.5S15.89 12.81 15.72 12.5zM9 12H7V10h2V12zM9 9H7V5h2V9z"></path></symbol><symbol height="100%" width="100%" id="issue-opened" viewBox="0 0 14 16">  <path d="M7 2.3c3.14 0 5.7 2.56 5.7 5.7S10.14 13.7 7 13.7 1.3 11.14 1.3 8s2.56-5.7 5.7-5.7m0-1.3C3.14 1 0 4.14 0 8s3.14 7 7 7 7-3.14 7-7S10.86 1 7 1z m1 3H6v5h2V4z m0 6H6v2h2V10z"></path></symbol><symbol height="100%" width="100%" id="git-commit" viewBox="0 0 14 16">  <path d="M10.86 7c-0.45-1.72-2-3-3.86-3s-3.41 1.28-3.86 3H0v2h3.14c0.45 1.72 2 3 3.86 3s3.41-1.28 3.86-3h3.14V7H10.86zM7 10.2c-1.22 0-2.2-0.98-2.2-2.2s0.98-2.2 2.2-2.2 2.2 0.98 2.2 2.2-0.98 2.2-2.2 2.2z"></path></symbol><symbol height="100%" width="100%" id="info" viewBox="0 0 14 16">  <path d="M6.3 5.69c-0.19-0.19-0.28-0.42-0.28-0.7s0.09-0.52 0.28-0.7 0.42-0.28 0.7-0.28 0.52 0.09 0.7 0.28 0.28 0.42 0.28 0.7-0.09 0.52-0.28 0.7-0.42 0.3-0.7 0.3-0.52-0.11-0.7-0.3z m1.7 2.3c-0.02-0.25-0.11-0.48-0.31-0.69-0.2-0.19-0.42-0.3-0.69-0.31h-1c-0.27 0.02-0.48 0.13-0.69 0.31-0.2 0.2-0.3 0.44-0.31 0.69h1v3c0.02 0.27 0.11 0.5 0.31 0.69 0.2 0.2 0.42 0.31 0.69 0.31h1c0.27 0 0.48-0.11 0.69-0.31 0.2-0.19 0.3-0.42 0.31-0.69h-1V7.98z m-1-5.69C3.86 2.3 1.3 4.84 1.3 7.98s2.56 5.7 5.7 5.7 5.7-2.55 5.7-5.7-2.56-5.69-5.7-5.69m0-1.31c3.86 0 7 3.14 7 7S10.86 14.98 7 14.98 0 11.86 0 7.98 3.14 0.98 7 0.98z"></path></symbol><symbol height="100%" width="100%" id="mail" viewBox="0 0 14 16">  <path d="M0 4v8c0 0.55 0.45 1 1 1h12c0.55 0 1-0.45 1-1V4c0-0.55-0.45-1-1-1H1c-0.55 0-1 0.45-1 1z m13 0L7 9 1 4h12zM1 5.5l4 3L1 11.5V5.5z m1 6.5l3.5-3 1.5 1.5 1.5-1.5 3.5 3H2z m11-0.5L9 8.5l4-3v6z"></path></symbol><symbol height="100%" width="100%" id="question" viewBox="0 0 14 16">  <path d="M6 10h2v2H6V10z m4-3.5c0 2.14-2 2.5-2 2.5H6c0-0.55 0.45-1 1-1h0.5c0.28 0 0.5-0.22 0.5-0.5v-1c0-0.28-0.22-0.5-0.5-0.5h-1c-0.28 0-0.5 0.22-0.5 0.5v0.5H4c0-1.5 1.5-3 3-3s3 1 3 2.5zM7 2.3c3.14 0 5.7 2.56 5.7 5.7S10.14 13.7 7 13.7 1.3 11.14 1.3 8s2.56-5.7 5.7-5.7m0-1.3C3.14 1 0 4.14 0 8s3.14 7 7 7 7-3.14 7-7S10.86 1 7 1z"></path></symbol><symbol height="100%" width="100%" id="rss" viewBox="0 0 10 16">  <path d="M2 13H0V11c1.11 0 2 0.89 2 2zM0 3v1c4.97 0 9 4.03 9 9h1c0-5.52-4.48-10-10-10z m0 4v1c2.75 0 5 2.25 5 5h1c0-3.31-2.69-6-6-6z"></path></symbol><symbol height="100%" width="100%" id="search" viewBox="0 0 16 16">  <path d="M15.7 14.3L11.89 10.47c0.7-0.98 1.11-2.17 1.11-3.47 0-3.31-2.69-6-6-6S1 3.69 1 7s2.69 6 6 6c1.3 0 2.48-0.41 3.47-1.11l3.83 3.81c0.19 0.2 0.45 0.3 0.7 0.3s0.52-0.09 0.7-0.3c0.39-0.39 0.39-1.02 0-1.41zM7 11.7c-2.59 0-4.7-2.11-4.7-4.7s2.11-4.7 4.7-4.7 4.7 2.11 4.7 4.7-2.11 4.7-4.7 4.7z"></path></symbol><symbol height="100%" width="100%" id="sign-in" viewBox="0 0 14 16">  <path d="M6 6.75v5.25h4V8h1v4c0 0.55-0.45 1-1 1H6v3L0.55 13.28c-0.33-0.17-0.55-0.52-0.55-0.91V1C0 0.45 0.45 0 1 0h9c0.55 0 1 0.45 1 1v3h-1V1H2l4 2v2.25l3-2.25v2h4v2H9v2L6 6.75z"></path></symbol><symbol height="100%" width="100%" id="sign-out" viewBox="0 0 16 16">  <path d="M12 9V7H8V5h4V3l4 3-4 3zM10 12H6V3L2 1h8v3h1V1c0-0.55-0.45-1-1-1H1C0.45 0 0 0.45 0 1v11.38c0 0.39 0.22 0.73 0.55 0.91l5.45 2.72V13h4c0.55 0 1-0.45 1-1V8h-1v4z"></path></symbol><symbol height="100%" width="100%" id="x" viewBox="0 0 12 16">  <path d="M7.48 8l3.75 3.75-1.48 1.48-3.75-3.75-3.75 3.75-1.48-1.48 3.75-3.75L0.77 4.25l1.48-1.48 3.75 3.75 3.75-3.75 1.48 1.48-3.75 3.75z"></path></symbol><symbol height="100%" width="100%" id="check" viewBox="0 0 12 16">  <path d="M12 5L4 13 0 9l1.5-1.5 2.5 2.5 6.5-6.5 1.5 1.5z"></path></symbol><symbol height="100%" width="100%" id="home" viewBox="0 0 16 16">  <path d="M16 9L13 6V2H11v2L8 1 0 9h2l1 5c0 0.55 0.45 1 1 1h8c0.55 0 1-0.45 1-1l1-5h2zM12 14H9V10H7v4H4l-1.19-6.31 5.19-5.19 5.19 5.19-1.19 6.31z"></path></symbol><symbol height="100%" width="100%" id="history" viewBox="0 0 14 16">  <path d="M8 13H6V6h5v2H8v5zM7 1c-2.19 0-4.13 1.02-5.41 2.59L0 2v4h4l-1.5-1.5c1.05-1.33 2.67-2.2 4.5-2.2 3.14 0 5.7 2.56 5.7 5.7S10.14 13.7 7 13.7 1.3 11.14 1.3 8c0-0.34 0.03-0.67 0.09-1H0.08c-0.05 0.33-0.08 0.66-0.08 1 0 3.86 3.14 7 7 7s7-3.14 7-7S10.86 1 7 1z"></path></symbol><symbol height="100%" width="100%" id="code" viewBox="0 0 14 16">  <path d="M9.5 3l-1.5 1.5 3.5 3.5L8 11.5l1.5 1.5 4.5-5L9.5 3zM4.5 3L0 8l4.5 5 1.5-1.5L2.5 8l3.5-3.5L4.5 3z"></path></symbol><symbol height="100%" width="100%" id="device-mobile" viewBox="0 0 10 16">  <path d="M9 0H1C0.45 0 0 0.45 0 1v14c0 0.55 0.45 1 1 1h8c0.55 0 1-0.45 1-1V1c0-0.55-0.45-1-1-1zM5 15.3c-0.72 0-1.3-0.58-1.3-1.3s0.58-1.3 1.3-1.3 1.3 0.58 1.3 1.3-0.58 1.3-1.3 1.3z m4-3.3H1V2h8v10z"></path></symbol><symbol height="100%" width="100%" id="device-desktop" viewBox="0 0 16 16">  <path d="M15 2H1c-0.55 0-1 0.45-1 1v9c0 0.55 0.45 1 1 1h5.34c-0.25 0.61-0.86 1.39-2.34 2h8c-1.48-0.61-2.09-1.39-2.34-2h5.34c0.55 0 1-0.45 1-1V3c0-0.55-0.45-1-1-1z m0 9H1V3h14v8z"></path></symbol><symbol height="100%" width="100%" id="list-ordered" viewBox="0 0 12 16">  <path d="M12 13c0 0.59 0 1-0.59 1H4.59c-0.59 0-0.59-0.41-0.59-1s0-1 0.59-1h6.81c0.59 0 0.59 0.41 0.59 1zM4.59 4h6.81c0.59 0 0.59-0.41 0.59-1s0-1-0.59-1H4.59c-0.59 0-0.59 0.41-0.59 1s0 1 0.59 1z m6.81 3H4.59c-0.59 0-0.59 0.41-0.59 1s0 1 0.59 1h6.81c0.59 0 0.59-0.41 0.59-1s0-1-0.59-1zM2 1H1.28C0.98 1.19 0.7 1.25 0.25 1.34v0.66h0.75v2.14H0.16v0.86h2.84v-0.86h-1V1z m0.25 8.13c-0.17 0-0.45 0.03-0.66 0.06 0.53-0.56 1.14-1.25 1.14-1.89-0.02-0.78-0.56-1.3-1.36-1.3-0.59 0-0.97 0.2-1.38 0.64l0.58 0.58c0.19-0.19 0.38-0.38 0.64-0.38 0.28 0 0.48 0.16 0.48 0.52 0 0.53-0.77 1.2-1.7 2.06v0.58h3l-0.09-0.88h-0.66z m-0.08 3.78v-0.03c0.44-0.19 0.64-0.47 0.64-0.86 0-0.7-0.56-1.11-1.44-1.11-0.48 0-0.89 0.19-1.28 0.52l0.55 0.64c0.25-0.2 0.44-0.31 0.69-0.31 0.27 0 0.42 0.13 0.42 0.36 0 0.27-0.2 0.44-0.86 0.44v0.75c0.83 0 0.98 0.17 0.98 0.47 0 0.25-0.23 0.38-0.58 0.38-0.28 0-0.56-0.14-0.81-0.38L0 14.44c0.3 0.36 0.77 0.56 1.41 0.56 0.83 0 1.53-0.41 1.53-1.16 0-0.5-0.31-0.81-0.77-0.94z"></path></symbol><symbol height="100%" width="100%" id="list-unordered" viewBox="0 0 12 16">  <path d="M2 13c0 0.59 0 1-0.59 1H0.59c-0.59 0-0.59-0.41-0.59-1s0-1 0.59-1h0.81c0.59 0 0.59 0.41 0.59 1z m2.59-9h6.81c0.59 0 0.59-0.41 0.59-1s0-1-0.59-1H4.59c-0.59 0-0.59 0.41-0.59 1s0 1 0.59 1zM1.41 7H0.59c-0.59 0-0.59 0.41-0.59 1s0 1 0.59 1h0.81c0.59 0 0.59-0.41 0.59-1s0-1-0.59-1z m0-5H0.59c-0.59 0-0.59 0.41-0.59 1s0 1 0.59 1h0.81c0.59 0 0.59-0.41 0.59-1s0-1-0.59-1z m10 5H4.59c-0.59 0-0.59 0.41-0.59 1s0 1 0.59 1h6.81c0.59 0 0.59-0.41 0.59-1s0-1-0.59-1z m0 5H4.59c-0.59 0-0.59 0.41-0.59 1s0 1 0.59 1h6.81c0.59 0 0.59-0.41 0.59-1s0-1-0.59-1z"></path></symbol><symbol height="100%" width="100%" id="location" viewBox="0 0 12 16">  <path d="M6 0C2.69 0 0 2.5 0 5.5c0 4.52 6 10.5 6 10.5s6-5.98 6-10.5C12 2.5 9.31 0 6 0z m0 14.55C4.14 12.52 1 8.44 1 5.5 1 3.02 3.25 1 6 1c1.34 0 2.61 0.48 3.56 1.36 0.92 0.86 1.44 1.97 1.44 3.14 0 2.94-3.14 7.02-5 9.05z m2-9.05c0 1.11-0.89 2-2 2s-2-0.89-2-2 0.89-2 2-2 2 0.89 2 2z"></path></symbol><symbol height="100%" width="100%" id="tag" viewBox="0 0 14 16">  <path d="M6.73 2.73c-0.47-0.47-1.11-0.73-1.77-0.73H2.5C1.13 2 0 3.13 0 4.5v2.47c0 0.66 0.27 1.3 0.73 1.77l6.06 6.06c0.39 0.39 1.02 0.39 1.41 0l4.59-4.59c0.39-0.39 0.39-1.02 0-1.41L6.73 2.73zM1.38 8.09c-0.31-0.3-0.47-0.7-0.47-1.13V4.5c0-0.88 0.72-1.59 1.59-1.59h2.47c0.42 0 0.83 0.16 1.13 0.47l6.14 6.13-4.73 4.73L1.38 8.09z m0.63-4.09h2v2H2V4z"></path></symbol><symbol height="100%" width="100%" id="sync" viewBox="0 0 12.000796875 16">  <path d="M10.24 7.4c0.19 1.28-0.2 2.62-1.2 3.6-1.47 1.45-3.74 1.63-5.41 0.54l1.17-1.14L0.5 9.8 1.1 14l1.31-1.26c2.36 1.74 5.7 1.57 7.84-0.54 1.24-1.23 1.81-2.85 1.74-4.46L10.24 7.4zM2.96 5c1.47-1.45 3.74-1.63 5.41-0.54l-1.17 1.14 4.3 0.6L10.9 2l-1.31 1.26C7.23 1.52 3.89 1.69 1.74 3.8 0.5 5.03-0.06 6.65 0.01 8.26l1.75 0.35C1.57 7.33 1.96 5.98 2.96 5z"></path></symbol><symbol height="100%" width="100%" id="terminal" viewBox="0 0 14 16">  <path d="M7 10h4v1H7v-1z m-3 1l3-3-3-3-0.75 0.75 2.25 2.25-2.25 2.25 0.75 0.75z m10-8v10c0 0.55-0.45 1-1 1H1c-0.55 0-1-0.45-1-1V3c0-0.55 0.45-1 1-1h12c0.55 0 1 0.45 1 1z m-1 0H1v10h12V3z"></path></symbol></svg>
