<svg xmlns="http://www.w3.org/2000/svg" version="1" viewBox="0 0 1713 1070"><defs><radialGradient id="a" cy="339.93" cx="998.44" gradientTransform="matrix(1.33818 0 0 1.22585 -99.064 58.145)" r="381.45"><stop stop-color="#FFF" offset="0"/><stop stop-color="#FFF" stop-opacity=".169" offset="1"/></radialGradient></defs><path d="M0 0h1713v1070H0z"/><path d="M490.43 313.34c-35.11.22-69.75 11.17-99.49 36.21-20.14 16.97-36.03 42.58-41.73 69.34-5.7 26.75-1.18 54.7 19.61 76.06 8.36 8.59 20.84 15.43 33.54 17.48 12.7 2.06 25.7-.74 34.75-11.5 2.94-3.49 5.33-8.71 5.81-13.88h-.2c-.46 4.84-3.37 10.08-6.11 13.34-8.72 10.36-21.67 12.7-34.04 10.71-12.37-2-24.64-8.7-32.79-17.07-20.45-21.01-21.69-48.76-16.05-75.18 5.63-26.43 20.61-48.94 40.52-65.7 42.89-36.13 91.19-35.85 141.26-23.17s88.29 45.11 118.85 85.65c59.05 78.32 63.21 157.5 38.43 244.46-24.78 86.97-79.23 153.74-153.35 204.91-85.06 58.73-176.54 77.09-266.92 66.91 56.05-11.82 106.93-42.92 138.16-95.13 16.78-28.06 25.38-62.2 24.09-95.27-.04-1.06-.11-2.11-.17-3.17-.28-4.87-.78-9.73-1.5-14.51-5.78-38.29-25.74-73.33-62.69-93.38-19.15-10.4-43.16-14.46-64.98-10.5-21.83 3.96-41.47 15.97-51.82 37.76-4.82 10.15-6.49 22.9-3.97 34.29 2.52 11.4 9.23 19.18 21.08 23.8 4.76 1.85 10.8 2.28 16.1.83 5.29-1.45 8.25-4.8 9.87-10.58.52-1.87.51-4.35-.21-6.44l-.09.04c.68 1.96.49 4.53 0 6.28-1.55 5.56-4.54 8.75-9.7 10.16-5.15 1.41-11.12.97-15.76-.84-11.66-4.54-17.05-12.79-19.53-24.04-2.49-11.26-.63-22.68 4.14-32.7 10.26-21.62 29.04-30.03 50.72-33.96s42.28 1.88 61.31 12.21c36.77 19.96 52.37 49.97 58.13 88.11 5.75 38.14-3.57 73.7-23.3 106.68-55.45 92.69-168.64 98.26-266.05 64.15C34.23 853.3-61.12 780.01-137.6 694.55l-24.29 66.08C-4.14 936.91 262.2 1023.6 480.44 924.72c18.22-2.69 38.39-5.68 59.25-8.41 89.53-9.84 174.41 4.94 250.07 54.45 75.67 49.54 124.29 112.14 130.94 209.94 3.44 50.7-4.16 100.2-33.71 142.5-29.54 42.4-65.87 74.3-121.94 75.1-26.02.3-52.12-6.9-73.68-23.2-33.85-24.7-49.05-66.3-23.46-101.7 8.04-9.6 19.36-16.3 32.74-14.2 4.21.7 9.87 2.7 13.38 6.1l.13-.1c-3.75-3.6-9-6-13.51-6.7-13.88-2.2-25.49 4.2-33.75 14.1-28.06 37-10.85 77.2 21.04 105.5 21.82 16.5 50.65 25.4 76.98 25 56.54-.8 101.33-30.9 131.06-73.5 29.74-42.7 44.49-97.9 41.03-148.8-6.68-98.3-61.89-175.1-137.84-224.76a373.76 373.76 0 0 0-29.39-17.39c-2.21-1.18-4.42-2.3-6.65-3.43-68.74-34.8-149.21-49.88-224.94-41.86 4.65-2.98 9.29-6.03 13.88-9.2 63.06-43.54 114.53-108 143.9-179.78.94-2.32 1.86-4.61 2.76-6.94 4.12-10.65 7.76-21.46 10.87-32.37 24.87-87.28 16.33-181.47-42.99-260.15-30.75-40.79-78.03-72.8-128.42-85.56-15.75-3.99-31.8-6.13-47.76-6.02zM1162.3-123.13c-3.4 0-6.7.01-10.1.08-60.3 1.25-121.3 14.18-180.46 40.817-186.77 84.012-304.99 308.36-213.06 503.57 61.42 130.44 241.42 202.27 357.72 145.24 42.1-20.61 86.4-61.38 105.2-107.43 18.4-44.76 14.2-92.55-10.2-138.84-15-28.43-40.8-51.66-70.3-63.56-29.6-11.91-62.9-12.47-93 4.55-17.4 9.88-31.7 26.43-38.8 45.17-7.1 18.73-6.9 39.69 4.5 58.21 6.2 10.01 16.2 18.21 27.5 22.12 11.2 3.91 23.7 3.53 34.4-3.81 5.2-3.62 9.6-9.39 11.5-15.68 2-6.29 1.5-13.17-2.9-18.86-2-2.49-5-4.54-8.2-5.39-1.7-.46-3.6-.55-5.3-.13.9.25 1.8.63 2.7 1.09.7.04 1.5.14 2.2.33 2.9.77 5.3 3.15 7.1 5.4 4.1 5.31 3.5 10.76 1.7 16.73-1.9 5.97-5.8 10.31-10.8 13.75-10.4 7.08-20.7 6.36-31.7 2.56-10.9-3.81-16.1-10.42-22.1-20.16-11.2-18.14-9.6-36.7-2.7-55.12 7-18.42 19-29.96 36.2-39.68 29.6-16.81 56.9-14.12 86.2-2.34 29.2 11.78 47 29.96 61.1 58.5 47.7 97.18-12.1 186.65-87 224.23-109.1 54.7-270.54-19.99-321.78-129.43-78.63-167.96 37.4-417.72 225.28-468.07 322.3-86.36 542.4 124.28 614.2 392.46l60.7-36.21c-7.9-29.65-18-58.73-30.2-86.9-86.2-199.72-287.9-343.02-499.6-343.2zm225.2 468.15c-20.4-.06-40.6 4.23-59.7 11.92-40.8 16.42-76.4 48.45-97 87.65-33.7 63.84-39.4 129.77-14.1 191.49 26 63.52 87.1 119.78 145 148.2 114.3 56 273 21.89 385.5-67.28v-49.52c-98.4 99.12-262.6 151.21-381.7 91.5-103.3-51.83-185.8-175.29-119.9-309.33 19.3-39.37 43.9-64.42 84.3-80.66 40.3-16.25 77.9-19.97 118.8 3.22 23.7 13.4 40.2 29.33 49.8 54.74 9.6 25.4 11.9 51-3.6 76.02-8.3 13.43-15.5 22.56-30.5 27.81-15.1 5.25-29.4 6.24-43.7-3.51-6.9-4.75-12.3-10.79-14.8-19.03-2.6-8.23-3.4-15.68 2.3-23 2.4-3.1 5.6-6.43 9.7-7.48 1-.28 2.1-.41 3.1-.46 1.2-.64 2.4-1.17 3.8-1.51-2.5-.58-5-.43-7.4.21-4.5 1.17-8.6 3.96-11.3 7.4-6.1 7.84-6.8 17.38-4.1 26.05 2.7 8.68 8.7 16.63 16 21.62 14.7 10.12 31.9 10.63 47.4 5.23s29.4-16.67 37.9-30.48c15.8-25.55 16-54.46 6.2-80.3s-29.5-48.68-53.5-62.31c-22.1-12.47-45.4-18.11-68.5-18.19z" fill-rule="evenodd" fill="url(#a)"/></svg>