<!-- Created with Inkscape (http://www.inkscape.org/) -->
<svg xmlns:rdf="http://www.w3.org/1999/02/22-rdf-syntax-ns#" xmlns="http://www.w3.org/2000/svg" version="1.0" xmlns:cc="http://creativecommons.org/ns#" xmlns:xlink="http://www.w3.org/1999/xlink" viewBox="0 0 1680 1050" xmlns:dc="http://purl.org/dc/elements/1.1/">
<defs>
<filter id="filter7478">
<feGaussianBlur stdDeviation="1.56"/>
</filter>
<radialGradient id="radialGradient7978" gradientUnits="userSpaceOnUse" cy="339.93" cx="998.44" gradientTransform="matrix(1.3381832,0,0,1.2258498,-99.064242,58.144763)" r="381.45">
<stop stop-color="#8ae234" offset="0"/>
<stop stop-color="#8ae234" stop-opacity="0.16949153" offset="1"/>
</radialGradient>
<radialGradient id="radialGradient7990" gradientUnits="userSpaceOnUse" cy="647.44" cx="294.06" gradientTransform="matrix(1.3381832,0,0,1.3265288,-5.7016232,-0.615376)" r="411.78">
<stop stop-color="#8ae234" offset="0"/>
<stop stop-color="#8ae234" stop-opacity="0.33333334" offset="1"/>
</radialGradient>
<radialGradient id="radialGradient7993" gradientUnits="userSpaceOnUse" cy="312.3" cx="498.2" gradientTransform="matrix(0.6711193,-0.2099824,0.2227818,0.7120275,117.99598,408.23043)" r="410.78">
<stop stop-color="#FFF" offset="0"/>
<stop stop-color="#FFF" stop-opacity="0" offset="1"/>
</radialGradient>
<linearGradient id="linearGradient7996" y2="713.84" gradientUnits="userSpaceOnUse" x2="654.49" gradientTransform="matrix(1.3381832,0,0,1.3381832,-60.701846,-8.1608479)" y1="495.84" x1="654.49">
<stop stop-color="#1f1f1f" offset="0"/>
<stop stop-color="#1f1f1f" stop-opacity="0" offset="1"/>
</linearGradient>
<linearGradient id="linearGradient8000" y2="950.41" gradientUnits="userSpaceOnUse" x2="774.47" gradientTransform="matrix(1.3381832,0,0,1.3381832,-5.7456458,-8.5311499)" y1="740.4" x1="774.47">
<stop stop-color="#000" offset="0"/>
<stop stop-color="#AAA" offset="1"/>
</linearGradient>
</defs>
<g>
<rect fill-rule="nonzero" height="1070.5" width="1712.9" y="-7.193" x="-4.4074" fill="url(#linearGradient8000)"/>
</g>
<g>
<path opacity="0.5" d="M371.66-6.9063c309.12,120.1,530.57,406.88,391.88,781.25-82.01,221.35-396.77,333.36-590.81,219.46-126.44-74.22-198.57-277.67-120.19-403.29,53.838-86.3,168.66-148.47,280.69-79.83,32.9,20.16,52.92,43.77,63.85,80.41,10.94,36.65,11.1,69.94-12.54,103.88-13.68,19.63-29.03,32.84-52.07,39.18-23.04,6.35-45.58,6.17-66.24-9.4-11.08-8.36-18.5-15.45-21.87-29.07-3.36-13.62-3.06-26.22,6.65-37.89,4.72-5.67,10.44-9.97,17.86-11.54s14.04-1.64,19.99,3.98c2.51,2.37,5.13,5.47,5.73,9.07,0.15,0.93,0.2,1.89,0.16,2.8,0.46,1.08,0.81,2.21,1.01,3.39,0.7-2.08,0.82-4.31,0.46-6.48-0.67-4-2.86-7.82-5.65-10.46-6.36-6.01-14.6-7.38-22.41-5.73-7.82,1.66-15.27,6.24-20.24,12.21-10.07,12.1-11.95,27.1-8.49,41.11,3.46,14.02,12.22,27.12,23.62,35.71,21.09,15.9,46.41,18.38,69.84,11.92,23.43-6.45,45.02-21.78,58.92-41.73,23.95-34.38,27.03-74.75,15.98-111.78s-36.23-70.77-68.88-92.09c-53.16-34.7-110.43-45.14-166.56-28.06-57.76,17.59-112,66.55-141.64,115-21.665,35.43-32.967,77.25-35.086,121.24v31.15c5.3696,114.24,68.69,236.23,170.24,296.2,20.33,12,41.14,21.9,62.27,29.9h294.31c113.84-40,214.81-123.09,275.75-230.59,38.85-68.52,61.37-140.74,69.67-213.44,0.47-4.05,0.84-8.11,1.21-12.17,0.51-5.48,0.91-10.94,1.26-16.43,1.19,1.94,2.37,3.85,3.6,5.77,1.5,2.37,3.03,4.73,4.6,7.07,27.97,41.88,64.45,79.01,109.81,108.72,143.05,93.73,354.15,76.12,450.25-76.31,64.2-101.86,33.9-260.85-58.5-317.11-33.4-20.33-82.1-33.19-122.9-25.76-39.8,7.21-71.5,31.6-93.1,69.58-13.3,23.33-18.1,51.89-13.2,78.04,4.9,26.14,19.5,49.89,45,63.39,14.8,7.84,32.8,10.46,49.2,7.03s31.1-12.94,39-29.32c4.3-8.85,5.5-19.6,3.2-29.27s-8.1-18.22-18.1-22.45c-4.9-2.1-10.9-2.58-16.2-1.13s-10,4.85-12,10.53c-0.9,2.5-1,5.54-0.1,8.2,0.5,1.44,1.2,2.76,2.3,3.81-0.3-0.79-0.4-1.59-0.5-2.39-0.3-0.54-0.6-1.13-0.8-1.75-0.7-2.4-0.1-5.12,0.7-7.36,1.9-5.31,5.9-7.33,11-8.7,5-1.38,9.9-0.57,14.6,1.42,9.6,4.09,13.7,11.68,16,21.08,2.2,9.39-0.1,16.06-4.3,24.67-7.7,16.03-21.5,23.27-37.6,26.64s-29.6,0.09-44.2-7.61c-25.2-13.33-35.5-33.76-40.4-59.64-4.8-25.87,0-46.59,13.8-69.29,46.9-77.29,136.8-75.38,196.9-39.52,87.5,52.21,107.5,199.37,53.5,284.62-82.9,130.83-310.9,161.43-430.75,51.77-72.12-65.97-112.87-139.52-128.63-214.57-31.75-182.9-145.4-353.12-305.27-458.04h-185.59zm1013.7,0c9.6,20.384,15.9,41.913,18.2,64.191,10,96.055-39.9,209.6-163.8,223.48-36.4,4.08-65.2-2-94.7-23.08-29.6-21.09-49.1-45.92-51.2-85.14-1.2-22.68,2.6-41.49,16.2-59.68,13.5-18.185,30.6-31.242,55.1-31.613,13.2-0.2,22.9,0.786,33.3,9.032,10.5,8.246,17.6,17.881,17.2,32.281-0.3,7.01-2.1,13.53-6.7,19.03-4.7,5.5-9.6,9.4-17.3,8.66-3.3-0.32-7-1.04-9.6-3.39-0.6-0.61-1.2-1.35-1.7-2.05-1-0.54-1.9-1.19-2.8-1.97,0.7,1.97,2,3.73,3.5,5.15,2.9,2.61,6.6,4.25,10.3,4.6,8.3,0.79,15.3-3.03,20.2-8.83,4.9-5.79,7.7-13.57,8-20.95,0.5-14.93-6.9-27.308-17.6-35.793-10.8-8.484-25-13.126-38.5-12.921-25.1,0.379-45.6,13.203-59.4,31.694-13.8,18.5-21,42.6-19.7,65.66,1.1,21.1,7.6,40.07,17.9,56.37,9.2,14.38,21.3,26.73,35.3,36.72,29.8,21.3,68.4,31.95,105.3,28.89,60-4.98,109-30.58,141.1-76.11,33-46.85,45.2-115.15,39.1-168.73-2.1-18.871-6.9-37.482-14-55.492h-23.7zm-1194.2,120.69c-14.57,0.36-29.29,3.76-43.57,10.83-17.65,8.75-32.8,24.21-41.07,42.32-8.264,18.12-9.592,38.96,0.96,57.92,5.22,9.37,14.17,17.47,24.34,21.7,10.18,4.24,21.75,4.56,31.91-1.96,4.46-2.86,8.29-7.55,10.2-12.8,1.04-2.85,1.56-5.95,1.13-8.95-0.56,1.55-1.36,3.1-2.26,4.44-0.17,1.24-0.43,2.49-0.87,3.72-1.73,4.73-6.15,8.25-10.17,10.83-9.49,6.09-18.4,4.23-28.06,0.21-9.65-4.02-16.37-11.18-21.32-20.08-10.19-18.29-7.37-35.54,0.67-53.15,8.03-17.6,19.89-25.28,37.05-33.79,31.96-15.83,62.68-10.25,92.29,4.23s46.94,36.27,60.47,66.36c23.39,52.04,14.68,97.06-9.49,143.94s-57.19,73.82-106.93,92.76c-70.09,26.67-135.13,22.86-190.9-0.05v29.95c61.67,20.64,128.28,16.32,195.33-11.42,49.7-20.56,92.37-60.01,116.8-107.39,11.45-22.21,18.94-46.2,21.16-70.84,2.51-27.93-1.72-56.68-14.3-84.68-13.76-30.59-39.1-56.96-69.21-71.68-16.94-8.28-35.42-12.88-54.16-12.42z" fill-rule="evenodd" fill="url(#linearGradient7996)"/>
<path opacity="0.52328766" d="M490.43,313.34c-35.11,0.22-69.75,11.17-99.49,36.21-20.14,16.97-36.03,42.58-41.73,69.34-5.7,26.75-1.18,54.7,19.61,76.06,8.36,8.59,20.84,15.43,33.54,17.48,12.7,2.06,25.7-0.74,34.75-11.5,2.94-3.49,5.33-8.71,5.81-13.88h-0.2c-0.46,4.84-3.37,10.08-6.11,13.34-8.72,10.36-21.67,12.7-34.04,10.71-12.37-2-24.64-8.7-32.79-17.07-20.45-21.01-21.69-48.76-16.05-75.18,5.63-26.43,20.61-48.94,40.52-65.7,42.89-36.13,91.19-35.85,141.26-23.17s88.29,45.11,118.85,85.65c59.05,78.32,63.21,157.5,38.43,244.46-24.78,86.97-79.23,153.74-153.35,204.91-85.06,58.73-176.54,77.09-266.92,66.91,56.05-11.82,106.93-42.92,138.16-95.13,16.78-28.06,25.38-62.2,24.09-95.27-0.04-1.06-0.11-2.11-0.17-3.17-0.28-4.87-0.78-9.73-1.5-14.51-5.78-38.29-25.74-73.33-62.69-93.38-19.15-10.4-43.16-14.46-64.98-10.5-21.83,3.96-41.47,15.97-51.82,37.76-4.82,10.15-6.49,22.9-3.97,34.29,2.52,11.4,9.23,19.18,21.08,23.8,4.76,1.85,10.8,2.28,16.1,0.83,5.29-1.45,8.25-4.8,9.87-10.58,0.52-1.87,0.51-4.35-0.21-6.44l-0.09,0.04c0.68,1.96,0.49,4.53,0,6.28-1.55,5.56-4.54,8.75-9.7,10.16-5.15,1.41-11.12,0.97-15.76-0.84-11.66-4.54-17.05-12.79-19.53-24.04-2.49-11.26-0.63-22.68,4.14-32.7,10.26-21.62,29.04-30.03,50.72-33.96s42.28,1.88,61.31,12.21c36.77,19.96,52.37,49.97,58.13,88.11,5.75,38.14-3.57,73.7-23.3,106.68-55.45,92.69-168.64,98.26-266.05,64.15-102.12-42.4-197.47-115.69-273.95-201.15l-24.29,66.08c157.75,176.28,424.09,262.97,642.33,164.09,18.22-2.69,38.39-5.68,59.25-8.41,89.53-9.84,174.41,4.94,250.07,54.45,75.67,49.54,124.29,112.14,130.94,209.94,3.44,50.7-4.16,100.2-33.71,142.5-29.54,42.4-65.87,74.3-121.94,75.1-26.02,0.3-52.12-6.9-73.68-23.2-33.85-24.7-49.05-66.3-23.46-101.7,8.04-9.6,19.36-16.3,32.74-14.2,4.21,0.7,9.87,2.7,13.38,6.1l0.13-0.1c-3.75-3.6-9-6-13.51-6.7-13.88-2.2-25.49,4.2-33.75,14.1-28.06,37-10.85,77.2,21.04,105.5,21.82,16.5,50.65,25.4,76.98,25,56.54-0.8,101.33-30.9,131.06-73.5,29.74-42.7,44.49-97.9,41.03-148.8-6.68-98.3-61.89-175.1-137.84-224.76-9.49-6.21-19.31-12.04-29.39-17.39-2.21-1.18-4.42-2.3-6.65-3.43-68.74-34.8-149.21-49.88-224.94-41.86,4.65-2.98,9.29-6.03,13.88-9.2,63.06-43.54,114.53-108,143.9-179.78,0.94-2.32,1.86-4.61,2.76-6.94,4.12-10.65,7.76-21.46,10.87-32.37,24.87-87.28,16.33-181.47-42.99-260.15-30.75-40.79-78.03-72.8-128.42-85.56-15.75-3.99-31.8-6.13-47.76-6.02z" fill-rule="evenodd" fill="url(#radialGradient7993)"/>
<path opacity="0.52328766" d="M490.43,313.34c-35.11,0.22-69.75,11.17-99.49,36.21-20.14,16.97-36.03,42.58-41.73,69.34-5.7,26.75-1.18,54.7,19.61,76.06,8.36,8.59,20.84,15.43,33.54,17.48,12.7,2.06,25.7-0.74,34.75-11.5,2.94-3.49,5.33-8.71,5.81-13.88h-0.2c-0.46,4.84-3.37,10.08-6.11,13.34-8.72,10.36-21.67,12.7-34.04,10.71-12.37-2-24.64-8.7-32.79-17.07-20.45-21.01-21.69-48.76-16.05-75.18,5.63-26.43,20.61-48.94,40.52-65.7,42.89-36.13,91.19-35.85,141.26-23.17s88.29,45.11,118.85,85.65c59.05,78.32,63.21,157.5,38.43,244.46-24.78,86.97-79.23,153.74-153.35,204.91-85.06,58.73-176.54,77.09-266.92,66.91,56.05-11.82,106.93-42.92,138.16-95.13,16.78-28.06,25.38-62.2,24.09-95.27-0.04-1.06-0.11-2.11-0.17-3.17-0.28-4.87-0.78-9.73-1.5-14.51-5.78-38.29-25.74-73.33-62.69-93.38-19.15-10.4-43.16-14.46-64.98-10.5-21.83,3.96-41.47,15.97-51.82,37.76-4.82,10.15-6.49,22.9-3.97,34.29,2.52,11.4,9.23,19.18,21.08,23.8,4.76,1.85,10.8,2.28,16.1,0.83,5.29-1.45,8.25-4.8,9.87-10.58,0.52-1.87,0.51-4.35-0.21-6.44l-0.09,0.04c0.68,1.96,0.49,4.53,0,6.28-1.55,5.56-4.54,8.75-9.7,10.16-5.15,1.41-11.12,0.97-15.76-0.84-11.66-4.54-17.05-12.79-19.53-24.04-2.49-11.26-0.63-22.68,4.14-32.7,10.26-21.62,29.04-30.03,50.72-33.96s42.28,1.88,61.31,12.21c36.77,19.96,52.37,49.97,58.13,88.11,5.75,38.14-3.57,73.7-23.3,106.68-55.45,92.69-168.64,98.26-266.05,64.15-102.12-42.4-197.47-115.69-273.95-201.15l-24.29,66.08c157.75,176.28,424.09,262.97,642.33,164.09,16.1-6.13,37.11-9.78,58.97-12.03,89.59-9.18,174.69,8.56,250.35,58.07,75.67,49.54,124.29,112.14,130.94,209.94,3.44,50.7-4.16,100.2-33.71,142.5-29.54,42.4-65.87,74.3-121.94,75.1-26.02,0.3-52.12-6.9-73.68-23.2-33.85-24.7-49.05-66.3-23.46-101.7,8.04-9.6,19.36-16.3,32.74-14.2,4.21,0.7,9.87,2.7,13.38,6.1l0.13-0.1c-3.75-3.6-9-6-13.51-6.7-13.88-2.2-25.49,4.2-33.75,14.1-28.06,37-10.85,77.2,21.04,105.5,21.82,16.5,50.65,25.4,76.98,25,56.54-0.8,101.33-30.9,131.06-73.5,29.74-42.7,44.49-97.9,41.03-148.8-6.68-98.3-61.89-175.1-137.84-224.76-9.49-6.21-19.31-12.04-29.39-17.39-2.21-1.18-4.42-2.3-6.65-3.43-68.74-34.8-149.21-49.88-224.94-41.86,4.65-2.98,9.29-6.03,13.88-9.2,63.06-43.54,114.53-108,143.9-179.78,0.94-2.32,1.86-4.61,2.76-6.94,4.12-10.65,7.76-21.46,10.87-32.37,24.87-87.28,16.33-181.47-42.99-260.15-30.75-40.79-78.03-72.8-128.42-85.56-15.75-3.99-31.8-6.13-47.76-6.02z" fill-rule="nonzero" fill="url(#radialGradient7990)"/>
<rect opacity="0.57787" fill-rule="nonzero" height="0" width="1.3382" y="67.981" x="1568.7" fill="#FFF"/>
<rect opacity="0.57787" fill-rule="nonzero" height="0" width="1.3382" y="31.144" x="1521.7" fill="#FFF"/>
<path opacity="0.43835617" d="M1162.3-123.13c-3.4,0-6.7,0.01-10.1,0.08-60.3,1.25-121.3,14.18-180.46,40.817-186.77,84.012-304.99,308.36-213.06,503.57,61.42,130.44,241.42,202.27,357.72,145.24,42.1-20.61,86.4-61.38,105.2-107.43,18.4-44.76,14.2-92.55-10.2-138.84-15-28.43-40.8-51.66-70.3-63.56-29.6-11.91-62.9-12.47-93,4.55-17.4,9.88-31.7,26.43-38.8,45.17-7.1,18.73-6.9,39.69,4.5,58.21,6.2,10.01,16.2,18.21,27.5,22.12,11.2,3.91,23.7,3.53,34.4-3.81,5.2-3.62,9.6-9.39,11.5-15.68,2-6.29,1.5-13.17-2.9-18.86-2-2.49-5-4.54-8.2-5.39-1.7-0.46-3.6-0.55-5.3-0.13,0.9,0.25,1.8,0.63,2.7,1.09,0.7,0.04,1.5,0.14,2.2,0.33,2.9,0.77,5.3,3.15,7.1,5.4,4.1,5.31,3.5,10.76,1.7,16.73-1.9,5.97-5.8,10.31-10.8,13.75-10.4,7.08-20.7,6.36-31.7,2.56-10.9-3.81-16.1-10.42-22.1-20.16-11.2-18.14-9.6-36.7-2.7-55.12,7-18.42,19-29.96,36.2-39.68,29.6-16.81,56.9-14.12,86.2-2.34,29.2,11.78,47,29.96,61.1,58.5,47.7,97.18-12.1,186.65-87,224.23-109.1,54.7-270.54-19.99-321.78-129.43-78.63-167.96,37.4-417.72,225.28-468.07,322.3-86.36,542.4,124.28,614.2,392.46l60.7-36.21c-7.9-29.65-18-58.73-30.2-86.9-86.2-199.72-287.9-343.02-499.6-343.2zm225.2,468.15c-20.4-0.06-40.6,4.23-59.7,11.92-40.8,16.42-76.4,48.45-97,87.65-33.7,63.84-39.4,129.77-14.1,191.49,26,63.52,87.1,119.78,145,148.2,114.3,56,273,21.89,385.5-67.28v-49.52c-98.4,99.12-262.6,151.21-381.7,91.5-103.3-51.83-185.8-175.29-119.9-309.33,19.3-39.37,43.9-64.42,84.3-80.66,40.3-16.25,77.9-19.97,118.8,3.22,23.7,13.4,40.2,29.33,49.8,54.74,9.6,25.4,11.9,51-3.6,76.02-8.3,13.43-15.5,22.56-30.5,27.81-15.1,5.25-29.4,6.24-43.7-3.51-6.9-4.75-12.3-10.79-14.8-19.03-2.6-8.23-3.4-15.68,2.3-23,2.4-3.1,5.6-6.43,9.7-7.48,1-0.28,2.1-0.41,3.1-0.46,1.2-0.64,2.4-1.17,3.8-1.51-2.5-0.58-5-0.43-7.4,0.21-4.5,1.17-8.6,3.96-11.3,7.4-6.1,7.84-6.8,17.38-4.1,26.05,2.7,8.68,8.7,16.63,16,21.62,14.7,10.12,31.9,10.63,47.4,5.23s29.4-16.67,37.9-30.48c15.8-25.55,16-54.46,6.2-80.3s-29.5-48.68-53.5-62.31c-22.1-12.47-45.4-18.11-68.5-18.19z" fill-rule="evenodd" fill="url(#radialGradient7978)"/>
</g>
<g>
</g>
</svg>
