<svg xmlns="http://www.w3.org/2000/svg" viewBox="0 0 1052.3622 744.09448"><title>Cyan Nova</title><defs><radialGradient id="a" gradientUnits="userSpaceOnUse" cy="372.047" cx="526.181" gradientTransform="matrix(1 0 0 .70707 0 108.984)" r="526.181"><stop stop-color="#21d6d6" offset="0"/><stop stop-color="#141414" offset="1"/></radialGradient><radialGradient id="f" gradientUnits="userSpaceOnUse" cx="-431.335" cy="-162.012" r="211.622" gradientTransform="matrix(1 0 0 .90453 0 -15.467)"><stop stop-color="#001aef" offset="0"/><stop stop-color="#00b4ff" offset=".822"/><stop stop-color="#0d60ff" stop-opacity=".863" offset=".911"/><stop stop-color="#1bf7ff" stop-opacity=".706" offset="1"/></radialGradient><linearGradient id="b" y2="340.033" spreadMethod="reflect" gradientUnits="userSpaceOnUse" x2="52.589" y1="679.445" x1="76.772"><stop stop-color="#001a06" offset="0"/><stop stop-color="#009bff" offset="0"/><stop stop-color="#0dc9ff" offset=".492"/><stop stop-color="#1bf7ff" offset="1"/></linearGradient><linearGradient id="c" y2="340.033" spreadMethod="reflect" gradientUnits="userSpaceOnUse" y1="679.445" gradientTransform="matrix(-1 0 0 1 1046.362 6)" x2="52.589" x1="76.772"><stop stop-color="#001a06" offset="0"/><stop stop-color="#009bff" offset="0"/><stop stop-color="#0dc9ff" offset=".492"/><stop stop-color="#1bf7ff" offset="1"/></linearGradient><linearGradient id="d" y2="340.033" spreadMethod="reflect" gradientUnits="userSpaceOnUse" y1="679.445" gradientTransform="rotate(-90 446.114 291.98)" x2="52.589" x1="76.772"><stop stop-color="#001a06" offset="0"/><stop stop-color="#009bff" offset="0"/><stop stop-color="#0dc9ff" offset=".492"/><stop stop-color="#1bf7ff" offset="1"/></linearGradient><linearGradient id="e" y2="340.033" spreadMethod="reflect" gradientUnits="userSpaceOnUse" y1="679.445" gradientTransform="matrix(0 1 1 0 154.134 6)" x2="52.589" x1="76.772"><stop stop-color="#001a06" offset="0"/><stop stop-color="#009bff" offset="0"/><stop stop-color="#0dc9ff" offset=".492"/><stop stop-color="#1bf7ff" offset="1"/></linearGradient></defs><path fill="url(#a)" d="M0 0h1052.362v744.094H0z"/><g stroke-linejoin="round" stroke-width="12" fill="none"><path opacity=".444" d="M0 744.094C1052.362 372.047 0 0 0 0" stroke="url(#b)"/><path opacity=".444" d="M1046.362 750.094C0 372.047 1046.362 6 1046.362 6" stroke="url(#c)"/><path opacity=".444" d="M1052.362 744.094C526.182 0 0 744.094 0 744.094" stroke="url(#d)"/><path opacity=".444" d="M1052.362 0C526.182 744.094 0 0 0 0" stroke="url(#e)"/></g><path d="M-220.213-162.012a211.122 190.92 0 1 1-422.244 0 211.122 190.92 0 1 1 422.244 0z" transform="matrix(.94732 0 0 1.04757 934.794 541.766)" fill="url(#f)"/></svg>