<!-- Created with Inkscape (http://www.inkscape.org/) -->
<svg xmlns:rdf="http://www.w3.org/1999/02/22-rdf-syntax-ns#" xmlns="http://www.w3.org/2000/svg" version="1.1" xmlns:cc="http://creativecommons.org/ns#" xmlns:xlink="http://www.w3.org/1999/xlink" viewBox="0 0 745.91 419.43" xmlns:dc="http://purl.org/dc/elements/1.1/">
<defs>
<radialGradient id="radialGradient3952" gradientUnits="userSpaceOnUse" cy="244.58" cx="-268.99" gradientTransform="matrix(1,0,0,0.5623103,2.5097655e-6,107.05231)" r="372.96">
<stop stop-color="#FFF" offset="0"/>
<stop stop-color="#000" offset="1"/>
</radialGradient>
<linearGradient id="linearGradient4125" y2="200.58" gradientUnits="userSpaceOnUse" x2="176.81" gradientTransform="translate(-641.94342,34.867949)" y1="0.69962" x1="-0.5">
<stop stop-color="#000" offset="0"/>
<stop stop-color="#000" stop-opacity="0" offset="1"/>
</linearGradient>
<linearGradient id="linearGradient4187" y2="200.58" gradientUnits="userSpaceOnUse" y1="0.69962" gradientTransform="matrix(-1,0,0,-1,105.34299,458.06427)" x2="176.81" x1="-0.5">
<stop stop-color="#000" offset="0"/>
<stop stop-color="#000" stop-opacity="0" offset="1"/>
</linearGradient>
<radialGradient id="radialGradient4237" gradientUnits="userSpaceOnUse" cy="333.84" cx="368.52" r="51.767">
<stop stop-color="#FFF" offset="0"/>
<stop stop-color="#FFF" stop-opacity="0" offset="1"/>
</radialGradient>
<linearGradient id="linearGradient4661" y2="1.1996" gradientUnits="userSpaceOnUse" x2="478.71" y1="44.253" x1="637.6">
<stop stop-color="#FFF" offset="0"/>
<stop stop-color="#FFF" stop-opacity="0" offset="1"/>
</linearGradient>
<linearGradient id="linearGradient4669" y2="90.382" gradientUnits="userSpaceOnUse" x2="407.98" y1="67.83" x1="634.53">
<stop stop-color="#FFF" offset="0"/>
<stop stop-color="#FFF" stop-opacity="0" offset="1"/>
</linearGradient>
<linearGradient id="linearGradient4677" y2="250.81" gradientUnits="userSpaceOnUse" x2="495.12" gradientTransform="translate(-639.94342,32.86795)" y1="97.558" x1="654">
<stop stop-color="#FFF" offset="0"/>
<stop stop-color="#FFF" stop-opacity="0" offset="1"/>
</linearGradient>
<linearGradient id="linearGradient4685" y2="319.29" gradientUnits="userSpaceOnUse" x2="677.58" gradientTransform="translate(-641.94342,28.86795)" y1="122.16" x1="677.58">
<stop stop-color="#FFF" offset="0"/>
<stop stop-color="#FFF" stop-opacity="0" offset="1"/>
</linearGradient>
<filter id="filter4691">
<feGaussianBlur stdDeviation="3.4064246"/>
</filter>
<filter id="filter4695">
<feGaussianBlur stdDeviation="4.0490827"/>
</filter>
<filter id="filter4699">
<feGaussianBlur stdDeviation="3.4750357"/>
</filter>
<filter id="filter4703" height="1.3074286" width="1.0568811" y="-0.15371428" x="-0.028440529">
<feGaussianBlur stdDeviation="2.7574766"/>
</filter>
</defs>
<g transform="translate(641.94342,-34.86795)">
<rect ry="0" height="419.43" width="745.91" y="34.868" x="-641.94" fill="url(#radialGradient3952)"/>
<path fill="url(#linearGradient4187)" d="m104.32,154.46s-85.637,117.51-172.21,180.41c-84.929,61.709-245,121.99-245,121.99h418.23l-1.0251-302.4z"/>
<path d="m420.28,333.84c0,28.59-23.177,51.767-51.767,51.767s-51.767-23.177-51.767-51.767,23.177-51.767,51.767-51.767,51.767,23.177,51.767,51.767z" fill-rule="nonzero" transform="matrix(1.6930693,0,0,1.6930693,-1117.7449,-425.0997)" fill="url(#radialGradient4237)"/>
<path fill="url(#linearGradient4125)" d="m-640.92,338.47s85.637-117.51,172.21-180.41c84.929-61.709,245-121.99,245-121.99h-418.23l1.0251,302.4z"/>
<path d="m420.28,333.84c0,28.59-23.177,51.767-51.767,51.767s-51.767-23.177-51.767-51.767,23.177-51.767,51.767-51.767,51.767,23.177,51.767,51.767z" fill-rule="nonzero" transform="matrix(1.0594059,0,0,1.0594059,-962.13509,25.286761)" fill="url(#radialGradient4237)"/>
<path d="m420.28,333.84c0,28.59-23.177,51.767-51.767,51.767s-51.767-23.177-51.767-51.767,23.177-51.767,51.767-51.767,51.767,23.177,51.767,51.767z" fill-rule="nonzero" transform="matrix(0.83168313,0,0,0.83168313,-781.85727,66.456749)" fill="url(#radialGradient4237)"/>
<path d="m420.28,333.84c0,28.59-23.177,51.767-51.767,51.767s-51.767-23.177-51.767-51.767,23.177-51.767,51.767-51.767,51.767,23.177,51.767,51.767z" fill-rule="nonzero" transform="matrix(0.64356432,0,0,0.64356432,-629.50031,123.10772)" fill="url(#radialGradient4237)"/>
<path d="m420.28,333.84c0,28.59-23.177,51.767-51.767,51.767s-51.767-23.177-51.767-51.767,23.177-51.767,51.767-51.767,51.767,23.177,51.767,51.767z" fill-rule="nonzero" transform="matrix(0.45544551,0,0,0.45544551,-499.69521,199.23529)" fill="url(#radialGradient4237)"/>
<path d="m420.28,333.84c0,28.59-23.177,51.767-51.767,51.767s-51.767-23.177-51.767-51.767,23.177-51.767,51.767-51.767,51.767,23.177,51.767,51.767z" fill-rule="nonzero" transform="matrix(0.31683165,0,0,0.31683165,-407.09763,266.52429)" fill="url(#radialGradient4237)"/>
<path d="m420.28,333.84c0,28.59-23.177,51.767-51.767,51.767s-51.767-23.177-51.767-51.767,23.177-51.767,51.767-51.767,51.767,23.177,51.767,51.767z" fill-rule="nonzero" transform="matrix(1.0594059,0,0,1.0594059,-348.62216,-261.22427)" fill="url(#radialGradient4237)"/>
<path d="M640.68,22.726,602.75,1.1996,404.91,2.2247,632.48,44.253" transform="translate(-641.94342,34.86795)" filter="url(#filter4703)" fill="url(#linearGradient4661)"/>
<path d="M631.45,61.68,407.98,29.902,422.33,150.86,634.53,78.081" transform="translate(-641.94342,34.86795)" filter="url(#filter4699)" fill="url(#linearGradient4669)"/>
<path filter="url(#filter4695)" fill="url(#linearGradient4677)" d="M-2.341,130.43-195.06,222.68-86.398,326.22,14.06,144.78-2.341,130.43z"/>
<path filter="url(#filter4691)" fill="url(#linearGradient4685)" d="m-36.119,343.74,141.41,4.4148,2.0982-72.07-48.179-124.04-28.702-1.0251-66.63,192.72z"/>
</g>
</svg>
