<svg xmlns="http://www.w3.org/2000/svg" viewBox="0 0 745.91 419.43"><defs><radialGradient id="a" gradientUnits="userSpaceOnUse" cy="244.58" cx="-268.99" gradientTransform="matrix(1 0 0 .5623 0 107.052)" r="372.96"><stop stop-color="#FFF" offset="0"/><stop offset="1"/></radialGradient><linearGradient id="d" y2="200.58" gradientUnits="userSpaceOnUse" x2="176.81" gradientTransform="translate(-641.943 34.868)" y1=".7" x1="-.5"><stop offset="0"/><stop stop-opacity="0" offset="1"/></linearGradient><linearGradient id="b" y2="200.58" gradientUnits="userSpaceOnUse" y1=".7" gradientTransform="rotate(180 52.67 229.032)" x2="176.81" x1="-.5"><stop offset="0"/><stop stop-opacity="0" offset="1"/></linearGradient><radialGradient id="c" gradientUnits="userSpaceOnUse" cy="333.84" cx="368.52" r="51.767"><stop stop-color="#FFF" offset="0"/><stop stop-color="#FFF" stop-opacity="0" offset="1"/></radialGradient><linearGradient id="f" y2="1.2" gradientUnits="userSpaceOnUse" x2="478.71" y1="44.253" x1="637.6"><stop stop-color="#FFF" offset="0"/><stop stop-color="#FFF" stop-opacity="0" offset="1"/></linearGradient><linearGradient id="h" y2="90.382" gradientUnits="userSpaceOnUse" x2="407.98" y1="67.83" x1="634.53"><stop stop-color="#FFF" offset="0"/><stop stop-color="#FFF" stop-opacity="0" offset="1"/></linearGradient><linearGradient id="j" y2="250.81" gradientUnits="userSpaceOnUse" x2="495.12" gradientTransform="translate(-639.943 32.868)" y1="97.558" x1="654"><stop stop-color="#FFF" offset="0"/><stop stop-color="#FFF" stop-opacity="0" offset="1"/></linearGradient><linearGradient id="l" y2="319.29" gradientUnits="userSpaceOnUse" x2="677.58" gradientTransform="translate(-641.943 28.868)" y1="122.16" x1="677.58"><stop stop-color="#FFF" offset="0"/><stop stop-color="#FFF" stop-opacity="0" offset="1"/></linearGradient><filter id="k"><feGaussianBlur stdDeviation="3.406"/></filter><filter id="i"><feGaussianBlur stdDeviation="4.049"/></filter><filter id="g"><feGaussianBlur stdDeviation="3.475"/></filter><filter id="e" height="1.307" width="1.057" y="-.154" x="-.028"><feGaussianBlur stdDeviation="2.757"/></filter></defs><g transform="translate(641.943 -34.868)"><rect ry="0" height="419.43" width="745.91" y="34.868" x="-641.94" fill="url(#a)"/><path fill="url(#b)" d="M104.32 154.46S18.683 271.97-67.89 334.87c-84.93 61.71-245 121.99-245 121.99h418.23l-1.025-302.4z"/><path d="M420.28 333.84c0 28.59-23.177 51.767-51.767 51.767s-51.767-23.177-51.767-51.767 23.177-51.767 51.767-51.767 51.767 23.177 51.767 51.767z" transform="matrix(1.69307 0 0 1.69307 -1117.745 -425.1)" fill="url(#c)"/><path fill="url(#d)" d="M-640.92 338.47s85.637-117.51 172.21-180.41c84.93-61.71 245-121.99 245-121.99h-418.23l1.025 302.4z"/><path d="M420.28 333.84c0 28.59-23.177 51.767-51.767 51.767s-51.767-23.177-51.767-51.767 23.177-51.767 51.767-51.767 51.767 23.177 51.767 51.767z" transform="matrix(1.0594 0 0 1.0594 -962.135 25.287)" fill="url(#c)"/><path d="M420.28 333.84c0 28.59-23.177 51.767-51.767 51.767s-51.767-23.177-51.767-51.767 23.177-51.767 51.767-51.767 51.767 23.177 51.767 51.767z" transform="matrix(.83168 0 0 .83168 -781.857 66.457)" fill="url(#c)"/><path d="M420.28 333.84c0 28.59-23.177 51.767-51.767 51.767s-51.767-23.177-51.767-51.767 23.177-51.767 51.767-51.767 51.767 23.177 51.767 51.767z" transform="matrix(.64356 0 0 .64356 -629.5 123.108)" fill="url(#c)"/><path d="M420.28 333.84c0 28.59-23.177 51.767-51.767 51.767s-51.767-23.177-51.767-51.767 23.177-51.767 51.767-51.767 51.767 23.177 51.767 51.767z" transform="matrix(.45545 0 0 .45545 -499.695 199.235)" fill="url(#c)"/><path d="M420.28 333.84c0 28.59-23.177 51.767-51.767 51.767s-51.767-23.177-51.767-51.767 23.177-51.767 51.767-51.767 51.767 23.177 51.767 51.767z" transform="translate(-407.098 266.524) scale(.31683)" fill="url(#c)"/><path d="M420.28 333.84c0 28.59-23.177 51.767-51.767 51.767s-51.767-23.177-51.767-51.767 23.177-51.767 51.767-51.767 51.767 23.177 51.767 51.767z" transform="matrix(1.0594 0 0 1.0594 -348.622 -261.224)" fill="url(#c)"/><path d="M640.68 22.726L602.75 1.2 404.91 2.225l227.57 42.028" transform="translate(-641.943 34.868)" filter="url(#e)" fill="url(#f)"/><path d="M631.45 61.68L407.98 29.902l14.35 120.958 212.2-72.78" transform="translate(-641.943 34.868)" filter="url(#g)" fill="url(#h)"/><path filter="url(#i)" fill="url(#j)" d="M-2.34 130.43l-192.72 92.25 108.662 103.54L14.06 144.78l-16.4-14.35z"/><path filter="url(#k)" fill="url(#l)" d="M-36.12 343.74l141.41 4.415 2.1-72.07-48.18-124.04-28.702-1.025-66.63 192.72z"/></g></svg>