<svg xmlns="http://www.w3.org/2000/svg" viewBox="0 0 550 400" version="1"><defs><linearGradient id="d" y2="537.35" gradientUnits="userSpaceOnUse" x2="634.54" gradientTransform="matrix(1.09107 0 0 1.09862 -102.53 -246.648)" y1="537.35" x1="153.29"><stop stop-color="#450027" offset="0"/><stop stop-color="#b04937" offset=".5"/><stop stop-color="#45001d" offset="1"/></linearGradient><filter id="e"><feGaussianBlur stdDeviation="6.763"/></filter><filter id="f"><feGaussianBlur stdDeviation="2"/></filter><linearGradient id="c" y2="454.73" gradientUnits="userSpaceOnUse" x2="354" gradientTransform="matrix(1.09107 0 0 1.10202 -102.53 -248.615)" y1="311.75" x1="350.42"><stop stop-color="#ff7800" offset="0"/><stop stop-color="#510000" offset="1"/></linearGradient><filter id="h"><feGaussianBlur stdDeviation="2"/></filter><filter id="g"><feGaussianBlur stdDeviation="2"/></filter><filter id="i"><feGaussianBlur stdDeviation="2"/></filter><filter id="a"><feGaussianBlur stdDeviation="5"/></filter><filter id="b"><feGaussianBlur stdDeviation="3"/></filter></defs><path d="M358.58 117.34a48.833 38.853 0 1 1-97.66 0 48.833 38.853 0 1 1 97.66 0z" transform="matrix(1.88072 0 0 1.81184 -268.716 -78.984)" filter="url(#a)" fill="#F60"/><path d="M358.58 117.34a48.833 38.853 0 1 1-97.66 0 48.833 38.853 0 1 1 97.66 0z" transform="matrix(1.48764 0 0 1.50236 -146.945 -33.497)" filter="url(#b)" fill="#F00"/><path stroke-linejoin="round" stroke="#666" stroke-linecap="square" stroke-width="1.097" fill="url(#c)" d="M1.02.548h548.21v399.9H1.02z"/><path d="M358.58 117.34a48.833 38.853 0 1 1-97.66 0 48.833 38.853 0 1 1 97.66 0z" transform="matrix(1.46094 0 0 1.4705 -137.376 -29.754)" filter="url(#b)" fill="#ffd42a"/><path stroke-linejoin="round" d="M1.02 299.24c182.74 0 365.48-12.272 548.22-12.272v113.48H1.02c.005-37.825.005-63.38.005-101.2z" stroke="#666" stroke-linecap="square" stroke-width="1.095" fill="url(#d)"/><path filter="url(#e)" fill="#ff6000" d="M245.02 278.56l138.84-3.08-1.6 106.51H245.02V278.56z" transform="translate(-26.45 -20.696) scale(1.09862)"/><path filter="url(#e)" fill="#ffd42a" d="M255.3 278.56l118.28-3.08-1.36 106.51H255.3V278.56z" transform="translate(-26.45 -20.696) scale(1.09862)"/><path filter="url(#e)" fill="#FEA" d="M265.57 278.56l97.74-3.08-1.13 106.51h-96.61V278.56z" transform="translate(-26.45 -20.696) scale(1.09862)"/><path d="M.712 212.33c5.208 0 9.705-17.88 14.913-17.88H31.25c5.21 0 13.262 6.44 18.47 6.44 5.21 0 8.283-12.16 13.492-12.16 5.208 0 9.705-10.72 14.913-10.72 5.21 0 10.42 4.29 15.63 4.29 5.2 0 11.12-5.72 16.33-5.72s7.57 10.72 12.78 10.72 12.55-5 17.76-5 10.42 7.15 15.63 7.15c5.2 0 10.41-7.15 15.62-7.15s10.42-8.58 15.63-8.58c5.2 0 10.41 13.58 15.62 13.58s10.42-5 15.63-5c5.2 0 10.41 3.57 15.62 3.57s8.99-8.57 14.2-8.57 11.84 8.57 17.05 8.57 10.42-3.57 15.63-3.57c5.2 0 10.41-7.15 15.62-7.15s8.99 10.72 14.2 10.72 11.84-3.57 17.05-3.57 8.28 7.86 13.49 7.86 10.42-7.86 17.05-12.86c4.16-3.15 11.13 1.42 16.34 1.42 5.2 0 9.7 9.3 14.91 9.3s8.99 1.43 14.2 1.43 11.84-10.73 17.05-10.73 10.42-8.57 15.62-8.57c5.21 0 11.13 14.29 16.34 14.29s10.42 8.58 15.63 8.58c5.2 0 10.41-14.3 15.62-14.3s10.42 15.02 15.63 15.02v77.92c-166.67 0-333.34 9.3-500 9.3-.005-29.79.707-38.85.707-68.63z" transform="matrix(1.09862 0 0 1.09862 .473 0)" filter="url(#f)" fill="#2b0000"/><path d="M263.72 126.99c7.16-2.59-3.98-21.5-14.83-21.14s-21.93 3.61-23.85 1.67-22.29 4.92-21.05.97c1.23-3.95 15.37-11.87 11.94-13.34-3.44-1.47-9.37-.24-15.58 1.15-6.21 1.4-12.7 2.95-17.24 2.13s-18.12.59-21.65-8.04c-3.53-8.623-9.29-2.71-14.52-2.71-5.24 0-4.06-14.517-10.89-9.035-6.83 5.48-8.88 24.135-13.42 24.965-4.54.82-11.33-4.72-17.34-9.56-15.7-5.6 3.57 18.41-36.332 28.56 3.59 2.11 7.662 4.15 9.582 6.09s-.52 3.3-2.58 4.53c-2.06 1.24-3.742 2.36-.31 3.82 3.44 1.47 10.15 6.25 17.13 10.86 6.99 4.61 14.25 9.06 18.79 9.88 4.54.83 10.38-5.07 16.39-11.18 6.02-6.1 10.67-2.85 15.91-2.85 2.66 0 13.66 4.6 20.46 1.28 6.57-3.2 8.95-14.34 11.44-13.55 5.07 1.62 9.45 22.14 13.99 21.32s-.48-22.48 6.5-20.4c6.98 2.07 13.17 14.91 16.6 13.44 3.44-1.47 25.58-2.4 27.93-4.12 2.34-1.73-16.65-4.26-14.73-6.2 1.93-1.95 8.53-10.81 15.16-14.29 6.64-3.48 22.5 7.99 22.5 5.75z" transform="matrix(1.09862 0 0 1.09862 .473 0)" filter="url(#g)" fill="#803300"/><path d="M379.75 24.662c-.41 0-.82.01-1.22.062-6.33.86-16.44 5.528-26.19 10.344-9.74 4.817-19.08 9.778-23.87 11.313-4.79 1.535-2.47 2.71.41 4 2.87 1.29 6.27 2.722 3.59 4.75-2.68 2.03-8.34 4.137-13.35 6.344-5 2.208-9.34 4.504-9.34 6.844s-3.88 10.783-7.09 19.154c-3.22 8.38 2.78 4.57 1.19 14.44-.54 3.32 10.76-14.13 19.37-11.16 8.61 2.98 12.74-11.28 17.53-9.746 4.79 1.534 18.88 16.386 29 10.276 8.39-5.05 17.86-10.822 24.19-9.964 6.33.86 9.2 20.334 18.72 26.064 9.52 5.72 7.88-9.44 15.19-9.44 7.3 0 15.32 6.2 20.24-2.81 4.93-9.01 23.89-7.55 30.22-8.41 5.63-.76 13.39.46 21.13 1.75V50.318c-.92.398-1.87.728-2.81.938-9.73 2.167-2.73-20.454-9.07-21.313-6.33-.858-12.43 20.564-19.5 22.25-3.47.828-6.81-10.782-15.97-14.125-9.49-3.465-24.81 1.313-28.53 1.313-7.3 0-13.8 3.406-22.18-2.968-7.87-5.975-15.52-11.757-21.66-11.75z" transform="matrix(1.09862 0 0 1.09862 .473 0)" filter="url(#h)" fill="#803300"/><path d="M285.84 56.72c9.45 2.55-5.26 21.246-19.58 20.89-14.33-.358-28.95-3.572-31.48-1.652-2.54 1.92-29.43-4.86-27.8-.958s20.3 11.732 15.76 13.182c-4.53 1.46-12.36.24-20.56-1.14-8.2-1.37-16.76-2.908-22.76-2.096-5.99.816-23.92-.58-28.58 7.946-4.67 8.52-12.26 2.68-19.17 2.68-6.92 0-5.36 14.35-14.37 8.93-9.02-5.42-11.72-23.86-17.72-24.673-5.99-.814-14.96 4.657-22.89 9.442-9.585 5.78-22.92-8.282-27.455-9.735-4.534-1.452-8.458 12.045-16.606 9.225s-18.843 13.68-18.334 10.54c1.512-9.34-4.177-5.72-1.135-13.65 3.043-7.922 6.72-15.922 6.72-18.137 0-2.214 4.105-4.377 8.845-6.466s10.114-4.106 12.65-6.026-.684-3.258-3.405-4.48c-2.72-1.22-4.942-2.326-.408-3.778 4.534-1.453 13.39-6.17 22.612-10.73 9.222-4.56 18.806-8.958 24.796-9.77 6-.813 13.71 5.017 21.65 11.05s14.08 2.822 21 2.822c3.52 0 18.03-4.543 27.01-1.263 8.67 3.165 11.82 14.17 15.1 13.387 6.69-1.597 12.47-21.883 18.47-21.07 5.99.812-.63 22.218 8.58 20.167s17.38-14.74 21.92-13.287c4.53 1.452 33.77 2.368 36.86 4.076 3.1 1.707-21.97 4.207-19.43 6.127 2.53 1.92 11.25 10.683 20.01 14.12 8.76 3.44 29.7-7.893 29.7-5.678z" transform="matrix(1.09862 0 0 1.09862 .473 0)" filter="url(#i)" fill="#803300"/><path d="M62.183 77.412c-3.947-.062-3.77 10.28-8.188 10.28-5.237 0-10.998-5.936-14.53 2.69-3.535 8.62-17.118 7.24-21.658 8.06-4.54.82-11.04-.73-17.25-2.12-.042-.01-.082-.03-.124-.04v38.6c1.363-1.14 2.77-2.04 4.218-2.47 6.978-2.07 1.962 19.58 6.5 20.41 4.54.82 8.934-19.7 14-21.32 2.49-.79 4.873 10.33 11.44 13.54 6.804 3.31 17.802-1.29 20.467-1.29 5.237 0 9.892-3.22 15.907 2.88 6.01 6.1 11.83 11.98 16.37 11.15 4.54-.82 11.83-5.26 18.82-9.87 6.98-4.61 13.69-9.37 17.12-10.84 3.44-1.47 1.75-2.61-.31-3.85-2.06-1.23-4.52-2.59-2.59-4.53 1.92-1.94 6-3.98 9.59-6.09-39.91-10.15-20.64-34.13-36.35-28.53-6.01 4.84-12.8 10.35-17.34 9.53-4.537-.82-6.578-19.458-13.404-24.94-1.067-.857-1.957-1.238-2.687-1.25z" transform="matrix(1.09862 0 0 1.09862 .473 0)" filter="url(#g)" fill="#803300"/></svg>