<svg id="svg2" xmlns:rdf="http://www.w3.org/1999/02/22-rdf-syntax-ns#" xmlns="http://www.w3.org/2000/svg" viewBox="0 0 550 400" height="100%" width="100%" version="1.0" xmlns:cc="http://creativecommons.org/ns#" xmlns:dc="http://purl.org/dc/elements/1.1/">
<defs id="defs5">
<linearGradient id="linearGradient2768" y2="537.35" gradientUnits="userSpaceOnUse" x2="634.54" gradientTransform="matrix(1.0910692,0,0,1.0986167,-102.53119,-246.64818)" y1="537.35" x1="153.29">
<stop id="stop2764" stop-color="#450027" offset="0"/>
<stop id="stop2770" stop-color="#b04937" offset="0.5"/>
<stop id="stop2766" stop-color="#45001d" offset="1"/>
</linearGradient>
<filter id="filter3788">
<feGaussianBlur id="feGaussianBlur3790" stdDeviation="6.76328502"/>
</filter>
<filter id="filter5675">
<feGaussianBlur id="feGaussianBlur5677" stdDeviation="2"/>
</filter>
<linearGradient id="linearGradient6570" y2="454.73" gradientUnits="userSpaceOnUse" x2="354" gradientTransform="matrix(1.0910692,0,0,1.1020224,-102.53009,-248.61471)" y1="311.75" x1="350.42">
<stop id="stop6566" stop-color="#ff7800" offset="0"/>
<stop id="stop6568" stop-color="#510000" offset="1"/>
</linearGradient>
<filter id="filter11048">
<feGaussianBlur id="feGaussianBlur11050" stdDeviation="2"/>
</filter>
<filter id="filter11937">
<feGaussianBlur id="feGaussianBlur11939" stdDeviation="2"/>
</filter>
<filter id="filter13727">
<feGaussianBlur id="feGaussianBlur13729" stdDeviation="2"/>
</filter>
<filter id="filter14650">
<feGaussianBlur id="feGaussianBlur14652" stdDeviation="5"/>
</filter>
<filter id="filter15539">
<feGaussianBlur id="feGaussianBlur15541" stdDeviation="3"/>
</filter>
</defs>
<path id="path11941" d="m358.58,117.34a48.833,38.853,0,1,1,-97.66,0,48.833,38.853,0,1,1,97.66,0z" transform="matrix(1.8807219,0,0,1.8118387,-268.71563,-78.983899)" filter="url(#filter14650)" fill="#F60"/>
<path id="path12836" d="m358.58,117.34a48.833,38.853,0,1,1,-97.66,0,48.833,38.853,0,1,1,97.66,0z" transform="matrix(1.4876368,0,0,1.5023583,-146.94496,-33.496773)" filter="url(#filter15539)" fill="#F00"/>
<rect id="rect1871" stroke-linejoin="round" height="399.9" width="548.21" stroke="#666" stroke-linecap="square" y="0.54826" x="1.0211" stroke-width="1.0965" fill="url(#linearGradient6570)"/>
<path id="path15543" d="m358.58,117.34a48.833,38.853,0,1,1,-97.66,0,48.833,38.853,0,1,1,97.66,0z" transform="matrix(1.4609405,0,0,1.4704984,-137.37601,-29.753786)" filter="url(#filter15539)" fill="#ffd42a"/>
<path id="rect1873" stroke-linejoin="round" d="m1.0211,299.24c182.74,0,365.48-12.272,548.22-12.272v113.48h-548.22c0.00439-37.825,0.00439-63.379,0.00439-101.2z" stroke="#666" stroke-linecap="square" stroke-width="1.09485936" fill="url(#linearGradient2768)"/>
<g id="g8360" transform="matrix(1.0986167,0,0,1.0986167,-26.448687,-20.695692)">
<path id="rect2772" filter="url(#filter3788)" fill="#ff6000" d="m245.02,278.56,138.84-3.08-1.6,106.51h-137.24v-103.43z"/>
<path id="path4777" filter="url(#filter3788)" fill="#ffd42a" d="m255.3,278.56,118.28-3.08-1.36,106.51h-116.92v-103.43z"/>
<path id="path4779" filter="url(#filter3788)" fill="#FEA" d="m265.57,278.56,97.74-3.08-1.13,106.51h-96.61v-103.43z"/>
</g>
<path id="rect4783" d="m0.71205,212.33c5.208,0,9.705-17.88,14.913-17.88h15.625c5.209,0,13.262,6.44,18.47,6.44,5.209,0,8.283-12.16,13.492-12.16,5.208,0,9.705-10.72,14.913-10.72,5.21,0,10.42,4.29,15.63,4.29,5.2,0,11.12-5.72,16.33-5.72s7.57,10.72,12.78,10.72,12.55-5,17.76-5,10.42,7.15,15.63,7.15c5.2,0,10.41-7.15,15.62-7.15s10.42-8.58,15.63-8.58c5.2,0,10.41,13.58,15.62,13.58s10.42-5,15.63-5c5.2,0,10.41,3.57,15.62,3.57s8.99-8.57,14.2-8.57,11.84,8.57,17.05,8.57,10.42-3.57,15.63-3.57c5.2,0,10.41-7.15,15.62-7.15s8.99,10.72,14.2,10.72,11.84-3.57,17.05-3.57,8.28,7.86,13.49,7.86,10.42-7.86,17.05-12.86c4.16-3.15,11.13,1.42,16.34,1.42,5.2,0,9.7,9.3,14.91,9.3s8.99,1.43,14.2,1.43,11.84-10.73,17.05-10.73,10.42-8.57,15.62-8.57c5.21,0,11.13,14.29,16.34,14.29s10.42,8.58,15.63,8.58c5.2,0,10.41-14.3,15.62-14.3s10.42,15.02,15.63,15.02v77.92c-166.67,0-333.34,9.3-500,9.3-0.005-29.79,0.707-38.85,0.707-68.63z" transform="matrix(1.0986167,0,0,1.0986167,0.47286511,0)" filter="url(#filter5675)" fill="#2b0000"/>
<path id="path9253" d="m263.72,126.99c7.16-2.59-3.98-21.5-14.83-21.14s-21.93,3.61-23.85,1.67-22.29,4.92-21.05,0.97c1.23-3.95,15.37-11.87,11.94-13.34-3.44-1.47-9.37-0.24-15.58,1.15-6.21,1.4-12.7,2.95-17.24,2.13s-18.12,0.59-21.65-8.04c-3.53-8.623-9.29-2.71-14.52-2.71-5.24,0-4.06-14.517-10.89-9.035-6.83,5.481-8.88,24.135-13.42,24.965-4.54,0.82-11.33-4.72-17.34-9.56-15.7-5.6,3.57,18.41-36.332,28.56,3.591,2.11,7.662,4.15,9.582,6.09s-0.52,3.3-2.58,4.53c-2.059,1.24-3.742,2.36-0.31,3.82,3.44,1.47,10.15,6.25,17.13,10.86,6.99,4.61,14.25,9.06,18.79,9.88,4.54,0.83,10.38-5.07,16.39-11.18,6.02-6.1,10.67-2.85,15.91-2.85,2.66,0,13.66,4.6,20.46,1.28,6.57-3.2,8.95-14.34,11.44-13.55,5.07,1.62,9.45,22.14,13.99,21.32s-0.48-22.48,6.5-20.4c6.98,2.07,13.17,14.91,16.6,13.44,3.44-1.47,25.58-2.4,27.93-4.12,2.34-1.73-16.65-4.26-14.73-6.2,1.93-1.95,8.53-10.81,15.16-14.29,6.64-3.48,22.5,7.99,22.5,5.75z" transform="matrix(1.0986167,0,0,1.0986167,0.47286511,0)" filter="url(#filter11937)" fill="#803300"/>
<path id="path9255" d="m379.75,24.662c-0.41,0-0.82,0.009-1.22,0.062-6.33,0.859-16.44,5.528-26.19,10.344-9.74,4.817-19.08,9.778-23.87,11.313-4.79,1.534-2.47,2.709,0.41,4,2.87,1.29,6.27,2.721,3.59,4.75-2.68,2.028-8.34,4.136-13.35,6.343-5,2.208-9.34,4.504-9.34,6.844s-3.88,10.783-7.09,19.154c-3.22,8.38,2.78,4.57,1.19,14.44-0.54,3.32,10.76-14.13,19.37-11.16,8.61,2.98,12.74-11.281,17.53-9.746,4.79,1.534,18.88,16.386,29,10.276,8.39-5.05,17.86-10.822,24.19-9.964,6.33,0.859,9.2,20.334,18.72,26.064,9.52,5.72,7.88-9.44,15.19-9.44,7.3,0,15.32,6.2,20.24-2.81,4.93-9.01,23.89-7.55,30.22-8.41,5.63-0.76,13.39,0.46,21.13,1.75v-38.154c-0.92,0.398-1.87,0.728-2.81,0.938-9.73,2.167-2.73-20.454-9.07-21.313-6.33-0.858-12.43,20.564-19.5,22.25-3.47,0.828-6.81-10.782-15.97-14.125-9.49-3.465-24.81,1.313-28.53,1.313-7.3,0-13.8,3.405-22.18-2.969-7.87-5.975-15.52-11.757-21.66-11.75z" transform="matrix(1.0986167,0,0,1.0986167,0.47286511,0)" filter="url(#filter11048)" fill="#803300"/>
<path id="path12840" d="m285.84,56.719c9.45,2.552-5.26,21.247-19.58,20.89-14.33-0.357-28.95-3.571-31.48-1.651-2.54,1.92-29.43-4.859-27.8-0.958s20.3,11.732,15.76,13.182c-4.53,1.46-12.36,0.24-20.56-1.14-8.2-1.37-16.76-2.908-22.76-2.096-5.99,0.816-23.92-0.581-28.58,7.946-4.67,8.52-12.26,2.68-19.17,2.68-6.92,0-5.36,14.35-14.37,8.93-9.02-5.42-11.72-23.861-17.72-24.673-5.99-0.813-14.96,4.658-22.89,9.443-9.585,5.78-22.921-8.282-27.455-9.735-4.534-1.452-8.458,12.045-16.606,9.225s-18.842,13.68-18.333,10.54c1.512-9.34-4.177-5.72-1.135-13.65,3.042-7.922,6.718-15.922,6.718-18.137,0-2.214,4.106-4.377,8.846-6.466s10.114-4.105,12.65-6.025-0.684-3.258-3.405-4.479c-2.72-1.222-4.942-2.327-0.408-3.779,4.534-1.453,13.391-6.171,22.612-10.73,9.222-4.559,18.806-8.958,24.796-9.77,6-0.813,13.71,5.017,21.65,11.05s14.08,2.822,21,2.822c3.52,0,18.03-4.543,27.01-1.263,8.67,3.165,11.82,14.171,15.1,13.387,6.69-1.597,12.47-21.883,18.47-21.071,5.99,0.813-0.63,22.219,8.58,20.168s17.38-14.739,21.92-13.286c4.53,1.452,33.77,2.368,36.86,4.076,3.1,1.708-21.97,4.208-19.43,6.128,2.53,1.92,11.25,10.683,20.01,14.121,8.76,3.439,29.7-7.894,29.7-5.679z" transform="matrix(1.0986167,0,0,1.0986167,0.47286511,0)" filter="url(#filter13727)" fill="#803300"/>
<path id="path15545" d="m62.183,77.412c-3.947-0.062-3.769,10.28-8.188,10.28-5.237,0-10.998-5.936-14.531,2.69-3.534,8.62-17.117,7.24-21.657,8.06-4.539,0.82-11.039-0.73-17.25-2.12-0.042-0.01-0.082-0.03-0.124-0.04v38.6c1.363-1.14,2.769-2.04,4.218-2.47,6.977-2.07,1.961,19.58,6.5,20.41,4.54,0.82,8.933-19.7,14-21.32,2.488-0.79,4.872,10.33,11.438,13.54,6.805,3.31,17.803-1.29,20.468-1.29,5.237,0,9.892-3.22,15.907,2.88,6.011,6.1,11.831,11.98,16.371,11.15,4.54-0.82,11.83-5.26,18.82-9.87,6.98-4.61,13.69-9.37,17.12-10.84,3.44-1.47,1.75-2.61-0.31-3.85-2.06-1.23-4.52-2.59-2.59-4.53,1.92-1.94,6-3.98,9.59-6.09-39.91-10.15-20.64-34.13-36.35-28.53-6.01,4.84-12.8,10.35-17.34,9.53-4.538-0.82-6.579-19.458-13.405-24.94-1.067-0.857-1.957-1.238-2.687-1.25z" transform="matrix(1.0986167,0,0,1.0986167,0.47286511,0)" filter="url(#filter11937)" fill="#803300"/>
<metadata id="metadata39">
<rdf:RDF>
<cc:Work>
<dc:format>image/svg+xml</dc:format>
<dc:type rdf:resource="http://purl.org/dc/dcmitype/StillImage"/>
<cc:license rdf:resource="http://creativecommons.org/licenses/publicdomain/"/>
<dc:publisher>
<cc:Agent rdf:about="http://openclipart.org/">
<dc:title>Openclipart</dc:title>
</cc:Agent>
</dc:publisher>
<dc:title/>
<dc:date>2006-11-09T03:43:34</dc:date>
<dc:description>clip art, clipart, image, landscape, landscape, media, png, public domain, river, river, sunset, sunset, svg,</dc:description>
<dc:source>http://openclipart.org/detail/1341/pôr-do-sol-by-marcelomotta</dc:source>
<dc:creator>
<cc:Agent>
<dc:title>marcelomotta</dc:title>
</cc:Agent>
</dc:creator>
<dc:subject>
<rdf:Bag>
<rdf:li>clip art</rdf:li>
<rdf:li>clipart</rdf:li>
<rdf:li>image</rdf:li>
<rdf:li>landscape</rdf:li>
<rdf:li>media</rdf:li>
<rdf:li>png</rdf:li>
<rdf:li>public domain</rdf:li>
<rdf:li>river</rdf:li>
<rdf:li>sunset</rdf:li>
<rdf:li>svg</rdf:li>
</rdf:Bag>
</dc:subject>
</cc:Work>
<cc:License rdf:about="http://creativecommons.org/licenses/publicdomain/">
<cc:permits rdf:resource="http://creativecommons.org/ns#Reproduction"/>
<cc:permits rdf:resource="http://creativecommons.org/ns#Distribution"/>
<cc:permits rdf:resource="http://creativecommons.org/ns#DerivativeWorks"/>
</cc:License>
</rdf:RDF>
</metadata>
</svg>
