<!-- Created with Inkscape (http://www.inkscape.org/) -->
<svg xmlns:rdf="http://www.w3.org/1999/02/22-rdf-syntax-ns#" xmlns="http://www.w3.org/2000/svg" version="1.1" xmlns:cc="http://creativecommons.org/ns#" xmlns:xlink="http://www.w3.org/1999/xlink" viewBox="0 0 746 419" xmlns:dc="http://purl.org/dc/elements/1.1/">
<metadata>
<rdf:RDF>
<cc:Work rdf:about="">
<dc:format>image/svg+xml</dc:format>
<dc:type rdf:resource="http://purl.org/dc/dcmitype/StillImage"/>
<dc:title/>
</cc:Work>
</rdf:RDF>
</metadata>
<defs>
<radialGradient id="radialGradient4680" gradientUnits="userSpaceOnUse" cy="302.16" cx="-94.324" gradientTransform="matrix(1.5480918,1.3530863,-0.48554469,0.55552088,215.80436,277.80574)" r="48.932">
<stop stop-color="#c70000" offset="0"/>
<stop stop-color="#c70000" stop-opacity="0" offset="1"/>
</radialGradient>
<filter id="filter4657-0" color-interpolation-filters="sRGB">
<feGaussianBlur stdDeviation="1.411811"/>
</filter>
<filter id="filter4657" color-interpolation-filters="sRGB">
<feGaussianBlur stdDeviation="1.411811"/>
</filter>
<radialGradient id="radialGradient4553-54" gradientUnits="userSpaceOnUse" cy="97.558" cx="500.24" r="52.279">
<stop stop-color="#b70000" offset="0"/>
<stop stop-color="#b70000" stop-opacity="0" offset="1"/>
</radialGradient>
<radialGradient id="radialGradient4337" gradientUnits="userSpaceOnUse" cy="97.558" cx="500.24" r="52.279">
<stop stop-color="#ba0000" offset="0"/>
<stop stop-color="#ba0000" stop-opacity="0" offset="1"/>
</radialGradient>
<linearGradient id="linearGradient4887" y2="185.51" gradientUnits="userSpaceOnUse" x2="197.28" gradientTransform="matrix(-1,0,0,-1,747.26314,419.3377)" y1="-0.90153" x1="39.457">
<stop stop-color="#000" offset="0"/>
<stop stop-color="#000" stop-opacity="0" offset="1"/>
</linearGradient>
<linearGradient id="linearGradient4868" y2="185.51" gradientUnits="userSpaceOnUse" y1="-0.90153" x2="197.28" x1="39.457">
<stop stop-color="#000" offset="0"/>
<stop stop-color="#000" stop-opacity="0" offset="1"/>
</linearGradient>
<filter id="filter4083" color-interpolation-filters="sRGB">
<feGaussianBlur stdDeviation="6.4682143"/>
</filter>
<filter id="filter4079" color-interpolation-filters="sRGB">
<feGaussianBlur stdDeviation="6.4682143"/>
</filter>
<filter id="filter4075" color-interpolation-filters="sRGB">
<feGaussianBlur stdDeviation="6.4682143"/>
</filter>
<radialGradient id="radialGradient3952" cx="-268.99" gradientUnits="userSpaceOnUse" cy="244.58" r="372.96" gradientTransform="matrix(1,0,0,0.5623103,0,107.05231)">
<stop stop-color="#D00" offset="0"/>
<stop stop-color="#4a0000" offset="1"/>
</radialGradient>
</defs>
<g transform="translate(4.1015642e-7,-1.23923)">
<g transform="translate(641.94342,-34.86795)">
<rect ry="0" height="419.43" width="745.91" y="34.868" x="-641.94" fill="url(#radialGradient3952)"/>
<g transform="matrix(0.41092341,0,0,0.41092341,-378.15384,16.430658)" filter="url(#filter4083)" stroke="#2f2f2f" stroke-miterlimit="4" stroke-dasharray="none" fill="#000">
<path d="m132.44,543.78c-57.215,0-105.47,38.443-120.31,90.906,19.588-33.439,55.885-55.906,97.438-55.906,62.329,0,112.88,50.546,112.88,112.88,0,41.553-22.467,77.849-55.906,97.438,52.463-14.841,90.906-63.098,90.906-120.31,0-69.036-55.964-125-125-125z" stroke-width="8.34948826"/>
<path d="m106.66,607.38c-45.93,1.1636-82.812,38.789-82.812,85,0,46.944,38.056,85,85,85s85-38.056,85-85c0-6.2348-0.66329-12.335-1.9375-18.188,0.29054,2.6812,0.4375,5.429,0.4375,8.1875,0,41.377-33.529,74.906-74.906,74.906s-74.938-33.529-74.938-74.906c0-40.22,31.694-73.039,71.469-74.844-1.6934-0.10059-3.4063-0.15625-5.125-0.15625-0.7335,0-1.4584-0.0185-2.1875,0z" stroke-width="8.34948826"/>
<path d="m-255.71,798.08c0,39.449-31.98,71.429-71.429,71.429s-71.429-31.98-71.429-71.429,31.98-71.429,71.429-71.429,71.429,31.98,71.429,71.429z" transform="matrix(0.75000003,0,0,0.75000003,364.2143,82.376226)" stroke-width="11.13265038"/>
<path d="m369.77,539.71c57.215,0,105.47,38.443,120.31,90.906-19.588-33.439-55.885-55.906-97.438-55.906-62.329,0-112.88,50.546-112.88,112.88,0,41.553,22.467,77.849,55.906,97.438-52.463-14.841-90.906-63.098-90.906-120.31,0-69.036,55.964-125,125-125z" stroke-width="8.34948826"/>
<path d="m401.55,603.3c45.93,1.1636,82.812,38.789,82.812,85,0,46.944-38.056,85-85,85s-85-38.056-85-85c0-6.2348,0.66329-12.335,1.9375-18.188-0.29054,2.6812-0.4375,5.429-0.4375,8.1875,0,41.377,33.529,74.906,74.906,74.906s74.938-33.529,74.938-74.906c0-40.22-31.694-73.039-71.469-74.844,1.6934-0.10059,3.4063-0.15625,5.125-0.15625,0.7335,0,1.4584-0.0185,2.1875,0z" stroke-width="8.34948826"/>
<path d="m-255.71,798.08c0,39.449-31.98,71.429-71.429,71.429s-71.429-31.98-71.429-71.429,31.98-71.429,71.429-71.429,71.429,31.98,71.429,71.429z" transform="matrix(-0.75000003,0,0,0.75000003,143.99553,78.300908)" stroke-width="11.13265038"/>
<path d="m156.1,547.57c-39.866-41.04-45.914-102.44-18.624-149.64-10.337,37.35-1.1625,79.04,27.79,108.85,43.429,44.708,114.9,45.746,159.61,2.3167,29.806-28.953,40.186-70.359,30.938-107.99,25.909,47.972,18.081,109.17-22.959,149.04-49.519,48.102-128.66,46.953-176.76-2.5656z" stroke-width="8.34948826"/>
<path d="m188.45,489.04c-33.482-31.463-35.928-84.093-5.1466-118.56,31.27-35.013,85.003-38.048,120.02-6.7781,35.013,31.27,38.048,85.003,6.7781,120.02-4.153,4.6502-8.7109,8.758-13.56,12.275,2.0027-1.8063,3.9426-3.7578,5.7801-5.8152,27.562-30.862,24.888-78.203-5.9732-105.76-30.862-27.562-78.226-24.909-105.79,5.9524-26.791,29.998-25.013,75.588,3.451,103.43-1.3301-1.053-2.6447-2.1524-3.9266-3.2973-0.54709-0.4886-1.1001-0.95769-1.6316-1.4571z" stroke-width="8.34948826"/>
<path d="m-255.71,798.08c0,39.449-31.98,71.429-71.429,71.429s-71.429-31.98-71.429-71.429,31.98-71.429,71.429-71.429,71.429,31.98,71.429,71.429z" transform="matrix(0.52257744,0.53797106,0.53797106,-0.52257744,-11.36762,1035.3197)" stroke-width="11.13265038"/>
<path stroke-linejoin="miter" d="m224.29,580.93-700-367.14,587.5,331.79" stroke-linecap="butt" stroke-width="8.34948826"/>
<path stroke-linejoin="miter" d="m225.71,581.65-700-367.14,603.57,292.86" stroke-linecap="butt" stroke-width="8.34948826"/>
<path stroke-linejoin="miter" d="M275,579.86,975,212.72,392.86,542.01" stroke-linecap="butt" stroke-width="8.34948826"/>
<path stroke-linejoin="miter" d="m273.57,580.58,700-367.14-613.93,297.86" stroke-linecap="butt" stroke-width="8.34948826"/>
<path stroke-linejoin="miter" d="m249.64,630.93,1.7857,287.14,14.286-184.29" stroke-linecap="butt" stroke-width="8.34948826"/>
<path stroke-linejoin="miter" d="m250.36,629.86,1.0714,288.21-13.929-184.64" stroke-linecap="butt" stroke-width="8.34948826"/>
</g>
<g fill-rule="nonzero" transform="matrix(0.41092341,0,0,0.41092341,-490.69048,-455.03702)" stroke="#000" fill="#000">
<path d="m498.83,1729.4-700-367.14,587.5,331.79"/>
<path d="m500.26,1730.1-700-367.14,603.57,292.86"/>
<path d="M549.54,1728.3,1249.5,1361.1,667.4,1690.4"/>
<path d="m548.12,1729,700-367.14-613.93,297.86"/>
<path d="m524.19,1779.4,1.7857,287.14,14.286-184.29"/>
<path d="m524.9,1778.3,1.0714,288.21-13.929-184.64"/>
<path d="m407.62,1692.2c-57.215,0-105.47,38.443-120.31,90.906,19.588-33.439,55.885-55.906,97.438-55.906,62.329,0,112.88,50.546,112.88,112.88,0,41.553-22.467,77.849-55.906,97.438,52.463-14.841,90.906-63.098,90.906-120.31,0-69.036-55.964-125-125-125z"/>
<path d="m381.84,1755.8c-45.93,1.1637-82.812,38.789-82.812,85,0,46.944,38.056,85,85,85s85-38.056,85-85c0-6.2348-0.66329-12.335-1.9375-18.188,0.29054,2.6813,0.4375,5.429,0.4375,8.1875,0,41.378-33.529,74.906-74.906,74.906s-74.938-33.529-74.938-74.906c0-40.22,31.694-73.039,71.469-74.844-1.6934-0.1006-3.4063-0.1563-5.125-0.1563-0.7335,0-1.4584-0.019-2.1875,0z"/>
<path d="m-255.71,798.08c0,39.449-31.98,71.429-71.429,71.429s-71.429-31.98-71.429-71.429,31.98-71.429,71.429-71.429,71.429,31.98,71.429,71.429z" transform="matrix(0.75000003,0,0,0.75000003,639.39889,1230.7925)"/>
<path d="m644.96,1688.1c57.215,0,105.47,38.443,120.31,90.906-19.588-33.439-55.885-55.906-97.438-55.906-62.329,0-112.88,50.546-112.88,112.88,0,41.553,22.467,77.849,55.906,97.438-52.463-14.841-90.906-63.098-90.906-120.31,0-69.036,55.964-125,125-125z"/>
<path d="m676.74,1751.7c45.93,1.1636,82.812,38.789,82.812,85,0,46.944-38.056,85-85,85s-85-38.056-85-85c0-6.2348,0.6633-12.335,1.9375-18.188-0.2906,2.6812-0.4375,5.429-0.4375,8.1875,0,41.378,33.529,74.906,74.906,74.906,41.378,0,74.938-33.529,74.938-74.906,0-40.22-31.694-73.039-71.469-74.844,1.6934-0.1005,3.4063-0.1562,5.125-0.1562,0.7335,0,1.4584-0.019,2.1875,0z"/>
<path d="m-255.71,798.08c0,39.449-31.98,71.429-71.429,71.429s-71.429-31.98-71.429-71.429,31.98-71.429,71.429-71.429,71.429,31.98,71.429,71.429z" transform="matrix(-0.75000003,0,0,0.75000003,419.18011,1226.7172)"/>
<path d="m431.29,1696c-39.866-41.04-45.914-102.44-18.624-149.64-10.337,37.35-1.1625,79.04,27.79,108.85,43.429,44.708,114.9,45.746,159.61,2.3168,29.806-28.953,40.186-70.359,30.938-107.99,25.909,47.972,18.081,109.17-22.959,149.04-49.519,48.102-128.66,46.953-176.76-2.5656z"/>
<path d="m463.63,1637.5c-33.482-31.463-35.928-84.093-5.1466-118.56,31.27-35.014,85.003-38.048,120.02-6.7781,35.014,31.27,38.048,85.003,6.7782,120.02-4.1531,4.6502-8.711,8.7579-13.56,12.275,2.0027-1.8063,3.9426-3.7578,5.7801-5.8153,27.562-30.862,24.888-78.203-5.9732-105.76-30.862-27.562-78.226-24.909-105.79,5.9524-26.791,29.998-25.013,75.588,3.451,103.43-1.3301-1.0529-2.6447-2.1524-3.9266-3.2972-0.54709-0.4886-1.1001-0.9577-1.6316-1.4571z"/>
<path d="m-255.71,798.08c0,39.449-31.98,71.429-71.429,71.429s-71.429-31.98-71.429-71.429,31.98-71.429,71.429-71.429,71.429,31.98,71.429,71.429z" transform="matrix(0.52257744,0.53797106,0.53797106,-0.52257744,263.81696,2183.736)"/>
</g>
<g transform="matrix(0.41092341,0,0,0.41092341,-378.15384,16.430658)" filter="url(#filter4079)" stroke="#2f2f2f" stroke-miterlimit="4" stroke-dasharray="none" stroke-width="8.42979431" fill="#000">
<path d="m727.12,623.03c-56.289,0-101.94,45.648-101.94,101.94,0,56.289,45.648,101.91,101.94,101.91,1.8744,0,3.713-0.0563,5.5625-0.15625-42.625-6.3745-75.312-43.131-75.312-87.531,0-48.887,39.644-88.5,88.531-88.5,35.951,0,66.89,21.434,80.75,52.219-10.075-45.691-50.812-79.875-99.531-79.875z"/>
<path stroke-linejoin="miter" d="m913.3,429.45-354.16,203.84,0,280.14,23.914-267.61,330.25-216.37z" stroke-linecap="butt"/>
<path d="m744.19,674.12c-35.626,0-64.5,28.874-64.5,64.5,0,27.029,16.637,50.153,40.219,59.75l197.93,95.69-115.34-183.09c-2.1867-4.6015-4.9281-8.8894-8.0938-12.812l-0.6875-1.0938-0.0937,0.125c-11.84-14.11-29.59-23.08-49.44-23.08z"/>
</g>
<path d="m-79.594,272.68c-23.131,0-41.889,18.758-41.889,41.889s18.758,41.876,41.889,41.876c0.77028,0,1.5258-0.0231,2.2858-0.0642-17.516-2.6194-30.948-17.723-30.948-35.969,0-20.089,16.291-36.367,36.38-36.367,14.773,0,27.487,8.8077,33.182,21.458-4.1401-18.776-20.88-32.823-40.9-32.823z" stroke="#000" stroke-width="0.41092342" fill="#000"/>
<path d="m-3.0894,193.14-145.53,83.763,0,115.12,9.827-109.97,135.71-88.911z" stroke="#000" stroke-width="0.41092342" fill="#000"/>
<path d="m-72.583,293.68c-14.639,0-26.505,11.865-26.505,26.505,0,11.107,6.8367,20.609,16.527,24.553l81.337,39.32-47.397-75.238c-0.89852-1.8909-2.025-3.6529-3.3259-5.265l-0.28251-0.44944-0.03863,0.0514c-4.8625-5.7945-12.159-9.4769-20.315-9.4769z" stroke="#000" stroke-width="0.41092342" fill="#000"/>
<g transform="matrix(-0.41092341,0,0,0.41092341,-171.54933,16.430658)" filter="url(#filter4075)" stroke="#2f2f2f" stroke-miterlimit="4" stroke-dasharray="none" stroke-width="8.42979431" fill="#000">
<path d="m727.12,623.03c-56.289,0-101.94,45.648-101.94,101.94,0,56.289,45.648,101.91,101.94,101.91,1.8744,0,3.713-0.0563,5.5625-0.15625-42.625-6.3745-75.312-43.131-75.312-87.531,0-48.887,39.644-88.5,88.531-88.5,35.951,0,66.89,21.434,80.75,52.219-10.075-45.691-50.812-79.875-99.531-79.875z"/>
<path stroke-linejoin="miter" d="m913.3,429.45-354.16,203.84,0,280.14,23.914-267.61,330.25-216.37z" stroke-linecap="butt"/>
<path d="m744.19,674.12c-35.626,0-64.5,28.874-64.5,64.5,0,27.029,16.637,50.153,40.219,59.75l197.93,95.69-115.34-183.09c-2.1867-4.6015-4.9281-8.8894-8.0938-12.812l-0.6875-1.0938-0.0937,0.125c-11.84-14.11-29.59-23.08-49.44-23.08z"/>
</g>
<g fill="#000" transform="matrix(-0.41092341,0,0,0.41092341,57.747183,33.276938)" stroke="#000">
<path d="m1284.6,582.6c-56.289,0-101.94,45.648-101.94,101.94,0,56.289,45.648,101.91,101.94,101.91,1.8745,0,3.713-0.0563,5.5625-0.15625-42.625-6.3745-75.312-43.131-75.312-87.531,0-48.887,39.644-88.5,88.531-88.5,35.951,0,66.89,21.434,80.75,52.219-10.075-45.691-50.812-79.875-99.531-79.875z"/>
<path d="m1470.7,389.02-354.16,203.84,0,280.14,23.914-267.61,330.25-216.37z"/>
<path d="m1301.6,633.7c-35.626,0-64.5,28.874-64.5,64.5,0,27.029,16.637,50.153,40.219,59.75l197.94,95.688-115.34-183.09c-2.1866-4.6015-4.928-8.8894-8.0937-12.812l-0.6875-1.0938-0.094,0.125c-11.833-14.101-29.589-23.062-49.438-23.062z"/>
</g>
<path d="m552.52,97.558c0,28.873-23.406,52.279-52.279,52.279s-52.279-23.406-52.279-52.279,23.406-52.279,52.279-52.279,52.279,23.406,52.279,52.279z" fill-rule="nonzero" transform="matrix(0.87254903,0,0,0.87254903,-668.80682,22.18719)" fill="url(#radialGradient4337)"/>
<path d="m552.52,97.558c0,28.873-23.406,52.279-52.279,52.279s-52.279-23.406-52.279-52.279,23.406-52.279,52.279-52.279,52.279,23.406,52.279,52.279z" fill-rule="nonzero" transform="matrix(0.59803923,0,0,0.59803923,-449.06679,34.103972)" fill="url(#radialGradient4553-54)"/>
<path d="m552.52,97.558c0,28.873-23.406,52.279-52.279,52.279s-52.279-23.406-52.279-52.279,23.406-52.279,52.279-52.279,52.279,23.406,52.279,52.279z" fill-rule="nonzero" transform="matrix(0.47058826,0,0,0.47058826,-326.36822,24.498464)" fill="url(#radialGradient4553-54)"/>
<path d="m552.52,97.558c0,28.873-23.406,52.279-52.279,52.279s-52.279-23.406-52.279-52.279,23.406-52.279,52.279-52.279,52.279,23.406,52.279,52.279z" fill-rule="nonzero" transform="matrix(1.0686274,0,0,1.0686274,-878.21527,-3.6047845)" fill="url(#radialGradient4337)"/>
<path d="m552.52,97.558c0,28.873-23.406,52.279-52.279,52.279s-52.279-23.406-52.279-52.279,23.406-52.279,52.279-52.279,52.279,23.406,52.279,52.279z" fill-rule="nonzero" transform="matrix(0.47058826,0,0,0.47058826,-511.28358,152.17162)" fill="url(#radialGradient4553-54)"/>
<path d="m552.52,97.558c0,28.873-23.406,52.279-52.279,52.279s-52.279-23.406-52.279-52.279,23.406-52.279,52.279-52.279,52.279,23.406,52.279,52.279z" fill-rule="nonzero" transform="matrix(0.47058826,0,0,0.47058826,-453.20419,249.62881)" fill="url(#radialGradient4553-54)"/>
<path d="m552.52,97.558c0,28.873-23.406,52.279-52.279,52.279s-52.279-23.406-52.279-52.279,23.406-52.279,52.279-52.279,52.279,23.406,52.279,52.279z" fill-rule="nonzero" transform="matrix(0.47058826,0,0,0.47058826,-564.33789,250.46735)" fill="url(#radialGradient4553-54)"/>
<path d="m-72.536,293.86c-14.639,0-26.505,11.865-26.505,26.505,0,11.107,6.8367,20.609,16.527,24.553l81.337,39.32-47.397-75.238c-0.89852-1.8909-2.025-3.6529-3.3259-5.265l-0.28251-0.44944-0.0386,0.0514c-4.8624-5.7945-12.159-9.4769-20.315-9.4769z" transform="matrix(1.0261127,0,0,1.0261127,2.6746844,-7.5850671)" filter="url(#filter4657)" fill="url(#radialGradient4680)"/>
<path d="m-72.536,293.86c-14.639,0-26.505,11.865-26.505,26.505,0,11.107,6.8367,20.609,16.527,24.553l81.337,39.32-47.397-75.238c-0.89852-1.8909-2.025-3.6529-3.3259-5.265l-0.28251-0.44944-0.0386,0.0514c-4.8624-5.7945-12.159-9.4769-20.315-9.4769z" transform="matrix(-1.0261127,0,0,1.0261127,-552.27186,-8.5972767)" filter="url(#filter4657-0)" fill="url(#radialGradient4680)"/>
</g>
<path d="m0.80524-0.90153,0,249.62s54.49-82.997,117.57-116.76c63.07-33.759,121.58-33.012,180.36-63.611,58.79-30.599,95.02-67.64,95.02-67.64l-392.95-1.6105z" fill="url(#linearGradient4868)"/>
<path d="m746.46,420.24,0-249.62s-54.49,82.997-117.57,116.76c-63.075,33.763-121.59,33.015-180.37,63.614-58.783,30.599-95.018,67.64-95.018,67.64l392.96,1.6105z" fill="url(#linearGradient4887)"/>
</g>
</svg>
