<svg xmlns="http://www.w3.org/2000/svg" viewBox="0 0 746 419"><defs><radialGradient id="h" gradientUnits="userSpaceOnUse" cy="302.16" cx="-94.324" gradientTransform="matrix(1.5481 1.3531 -.48554 .55552 215.804 277.806)" r="48.932"><stop stop-color="#c70000" offset="0"/><stop stop-color="#c70000" stop-opacity="0" offset="1"/></radialGradient><filter id="i" color-interpolation-filters="sRGB"><feGaussianBlur stdDeviation="1.412"/></filter><filter id="g" color-interpolation-filters="sRGB"><feGaussianBlur stdDeviation="1.412"/></filter><radialGradient id="f" gradientUnits="userSpaceOnUse" cy="97.558" cx="500.24" r="52.279"><stop stop-color="#b70000" offset="0"/><stop stop-color="#b70000" stop-opacity="0" offset="1"/></radialGradient><radialGradient id="e" gradientUnits="userSpaceOnUse" cy="97.558" cx="500.24" r="52.279"><stop stop-color="#ba0000" offset="0"/><stop stop-color="#ba0000" stop-opacity="0" offset="1"/></radialGradient><linearGradient id="k" y2="185.51" gradientUnits="userSpaceOnUse" x2="197.28" gradientTransform="rotate(180 373.632 209.67)" y1="-.902" x1="39.457"><stop offset="0"/><stop stop-opacity="0" offset="1"/></linearGradient><linearGradient id="j" y2="185.51" gradientUnits="userSpaceOnUse" y1="-.902" x2="197.28" x1="39.457"><stop offset="0"/><stop stop-opacity="0" offset="1"/></linearGradient><filter id="b" color-interpolation-filters="sRGB"><feGaussianBlur stdDeviation="6.468"/></filter><filter id="c" color-interpolation-filters="sRGB"><feGaussianBlur stdDeviation="6.468"/></filter><filter id="d" color-interpolation-filters="sRGB"><feGaussianBlur stdDeviation="6.468"/></filter><radialGradient id="a" cx="-268.99" gradientUnits="userSpaceOnUse" cy="244.58" r="372.96" gradientTransform="matrix(1 0 0 .5623 0 107.052)"><stop stop-color="#D00" offset="0"/><stop stop-color="#4a0000" offset="1"/></radialGradient></defs><g transform="translate(641.943 -36.107)"><rect ry="0" height="419.43" width="745.91" y="34.868" x="-641.94" fill="url(#a)"/><g transform="matrix(.41092 0 0 .41092 -378.154 16.43)" filter="url(#b)" stroke="#2f2f2f"><path d="M132.44 543.78c-57.215 0-105.47 38.443-120.31 90.906 19.588-33.44 55.885-55.906 97.438-55.906 62.33 0 112.88 50.546 112.88 112.88 0 41.553-22.467 77.85-55.906 97.438 52.463-14.84 90.906-63.098 90.906-120.31 0-69.036-55.964-125-125-125z" stroke-width="8.349"/><path d="M106.66 607.38c-45.93 1.164-82.812 38.79-82.812 85 0 46.944 38.056 85 85 85s85-38.056 85-85a85.53 85.53 0 0 0-1.938-18.188c.29 2.68.438 5.43.438 8.188 0 41.377-33.53 74.906-74.906 74.906s-74.938-33.53-74.938-74.906c0-40.22 31.694-73.04 71.47-74.844a86.515 86.515 0 0 0-5.126-.157c-.734 0-1.458-.02-2.188 0z" stroke-width="8.349"/><path d="M172.432 680.936c0 29.587-23.985 53.572-53.572 53.572s-53.572-23.985-53.572-53.572 23.985-53.572 53.572-53.572 53.572 23.985 53.572 53.572z" stroke-width="8.34975"/><path d="M369.77 539.71c57.215 0 105.47 38.443 120.31 90.906-19.588-33.44-55.885-55.906-97.438-55.906-62.33 0-112.88 50.546-112.88 112.88 0 41.553 22.467 77.85 55.906 97.438-52.463-14.84-90.906-63.098-90.906-120.31 0-69.036 55.964-125 125-125z" stroke-width="8.349"/><path d="M401.55 603.3c45.93 1.164 82.812 38.79 82.812 85 0 46.944-38.056 85-85 85s-85-38.056-85-85a85.53 85.53 0 0 1 1.938-18.188c-.29 2.68-.438 5.43-.438 8.188 0 41.377 33.53 74.906 74.906 74.906s74.938-33.53 74.938-74.906c0-40.22-31.694-73.04-71.47-74.844 1.694-.1 3.407-.157 5.126-.157.734 0 1.458-.02 2.188 0z" stroke-width="8.349"/><path d="M335.778 676.86c0 29.588 23.985 53.573 53.572 53.573s53.572-23.985 53.572-53.572-23.985-53.57-53.572-53.57-53.572 23.984-53.572 53.57z" stroke-width="8.34975"/><path d="M156.1 547.57c-39.866-41.04-45.914-102.44-18.624-149.64-10.337 37.35-1.163 79.04 27.79 108.85 43.43 44.708 114.9 45.746 159.61 2.317 29.806-28.953 40.186-70.36 30.938-107.99 25.91 47.972 18.08 109.17-22.96 149.04-49.518 48.102-128.66 46.953-176.76-2.566z" stroke-width="8.349"/><path d="M188.45 489.04c-33.482-31.463-35.928-84.093-5.147-118.56 31.27-35.013 85.003-38.048 120.02-6.778 35.013 31.27 38.048 85.003 6.78 120.02a85.542 85.542 0 0 1-13.562 12.275 76.225 76.225 0 0 0 5.782-5.815c27.562-30.862 24.888-78.203-5.974-105.76-30.862-27.562-78.226-24.91-105.79 5.952-26.79 29.998-25.013 75.588 3.45 103.43a86.465 86.465 0 0 1-3.925-3.297c-.547-.49-1.1-.958-1.632-1.457z" stroke-width="8.349"/><path d="M284.348 480.697c21.222-20.616 21.715-54.532 1.1-75.754s-54.532-21.715-75.754-1.1-21.715 54.532-1.1 75.754 54.532 21.715 75.754 1.1z" stroke-width="8.34975"/><path d="M224.29 580.93l-700-367.14 587.5 331.79M225.71 581.65l-700-367.14 603.57 292.86M275 579.86l700-367.14-582.14 329.29M273.57 580.58l700-367.14L359.64 511.3M249.64 630.93l1.786 287.14 14.286-184.29" stroke-width="8.349"/><path d="M250.36 629.86l1.07 288.21-13.928-184.64" stroke-width="8.349"/></g><g stroke="#000"><path d="M-285.71 255.614l-287.646-150.866 241.418 136.34M-285.122 255.902l-287.646-150.867 248.02 120.343M-264.872 255.162l287.63-150.89-239.198 135.316" stroke-width=".41092"/><path d="M-265.455 255.45L22.19 104.583-230.086 226.98M-275.29 276.16l.735 117.993 5.87-75.73" stroke-width=".41092"/><path d="M-274.997 275.708l.44 118.432-5.723-75.873" stroke-width=".41092"/><path d="M-323.19 240.328c-23.51 0-43.34 15.797-49.438 37.355 8.05-13.74 22.964-22.973 40.04-22.973 25.612 0 46.385 20.77 46.385 46.385 0 17.075-9.233 31.99-22.974 40.04 21.56-6.1 37.356-25.93 37.356-49.44 0-28.367-22.998-51.364-51.367-51.364z" stroke-width=".41092"/><path d="M-333.783 266.462c-18.874.478-34.03 15.94-34.03 34.93 0 19.29 15.638 34.927 34.93 34.927s34.927-15.64 34.927-34.93c0-2.56-.272-5.068-.796-7.473.12 1.102.18 2.23.18 3.364 0 17.005-13.778 30.782-30.78 30.782s-30.795-13.778-30.795-30.78c0-16.528 13.024-30.014 29.37-30.756-.697-.04-1.4-.064-2.107-.064-.302 0-.6-.008-.9 0z" stroke-width=".41092"/><path d="M-306.754 296.687c0 12.158-9.856 22.014-22.014 22.014s-22.014-9.855-22.014-22.013 9.856-22.014 22.014-22.014 22.014 9.856 22.014 22.014z" stroke-width=".30819"/><path d="M-225.66 238.643c23.51 0 43.34 15.797 49.437 37.355-8.05-13.74-22.965-22.973-40.04-22.973-25.612 0-46.385 20.77-46.385 46.385 0 17.075 9.233 31.99 22.973 40.04-21.558-6.1-37.355-25.93-37.355-49.438 0-28.37 22.997-51.366 51.365-51.366z" stroke-width=".41092"/><path d="M-212.602 264.778c18.874.478 34.03 15.94 34.03 34.928 0 19.29-15.64 34.928-34.93 34.928s-34.928-15.638-34.928-34.928c0-2.562.273-5.07.796-7.474a31.31 31.31 0 0 0-.18 3.365c0 17.003 13.778 30.78 30.78 30.78 17.004 0 30.795-13.778 30.795-30.78 0-16.528-13.023-30.014-29.367-30.756.696-.04 1.4-.063 2.106-.063.3 0 .598-.008.898 0z" stroke-width=".41092"/><path d="M-239.632 295.012c0 12.158 9.856 22.014 22.014 22.014s22.014-9.856 22.014-22.014-9.856-22.014-22.014-22.014-22.014 9.856-22.014 22.014z" stroke-width=".30819"/><path d="M-313.463 241.89c-16.382-16.865-18.867-42.096-7.653-61.49-4.248 15.346-.478 32.478 11.42 44.728 17.845 18.37 47.214 18.798 65.587.952 12.25-11.898 16.514-28.913 12.714-44.376 10.646 19.713 7.43 44.86-9.435 61.244-20.35 19.766-52.87 19.294-72.635-1.054z" stroke-width=".41092"/><path d="M-300.174 217.85c-13.76-12.93-14.764-34.556-2.115-48.72 12.85-14.387 34.93-15.634 49.32-2.784 14.388 12.85 15.635 34.93 2.785 49.32a35.157 35.157 0 0 1-5.572 5.043 31.316 31.316 0 0 0 2.375-2.39c11.326-12.683 10.228-32.136-2.454-43.46-12.682-11.326-32.145-10.236-43.472 2.446-11.01 12.327-10.278 31.06 1.418 42.502a35.53 35.53 0 0 1-1.613-1.355c-.225-.2-.452-.394-.67-.6z" stroke-width=".41092"/><path d="M-260.765 214.404c8.72-8.472 8.923-22.41.45-31.13s-22.407-8.923-31.128-.45-8.923 22.407-.45 31.128 22.407 8.923 31.128.452z" stroke-width=".30819"/></g><g transform="matrix(.41092 0 0 .41092 -378.154 16.43)" filter="url(#c)" stroke="#2f2f2f" stroke-width="8.43"><path d="M727.12 623.03c-56.29 0-101.94 45.648-101.94 101.94 0 56.29 45.648 101.91 101.94 101.91 1.874 0 3.713-.056 5.563-.156-42.625-6.375-75.312-43.13-75.312-87.53 0-48.888 39.645-88.5 88.532-88.5 35.95 0 66.89 21.433 80.75 52.218-10.075-45.69-50.812-79.875-99.53-79.875z"/><path d="M913.3 429.45L559.14 633.29v280.14l23.914-267.61 330.25-216.37z"/><path d="M744.19 674.12c-35.626 0-64.5 28.874-64.5 64.5 0 27.03 16.637 50.153 40.22 59.75l197.93 95.69L802.5 710.97c-2.188-4.602-4.93-8.89-8.095-12.812l-.687-1.094-.094.125c-11.84-14.11-29.59-23.08-49.44-23.08z"/></g><path d="M-79.594 272.68c-23.13 0-41.89 18.758-41.89 41.89s18.76 41.875 41.89 41.875c.77 0 1.526-.023 2.286-.064-17.516-2.62-30.948-17.722-30.948-35.968 0-20.09 16.29-36.367 36.38-36.367 14.773 0 27.487 8.807 33.182 21.458-4.14-18.776-20.88-32.823-40.9-32.823z" stroke="#000" stroke-width=".411"/><path d="M-3.09 193.14l-145.53 83.763v115.12l9.828-109.97 135.71-88.91z" stroke="#000" stroke-width=".411"/><path d="M-72.583 293.68c-14.64 0-26.505 11.865-26.505 26.505 0 11.107 6.837 20.61 16.527 24.553l81.336 39.32-47.397-75.238a26.523 26.523 0 0 0-3.327-5.265l-.282-.45-.038.052c-4.863-5.795-12.16-9.477-20.315-9.477z" stroke="#000" stroke-width=".411"/><g transform="matrix(-.41092 0 0 .41092 -171.55 16.43)" filter="url(#d)" stroke="#2f2f2f" stroke-width="8.43"><path d="M727.12 623.03c-56.29 0-101.94 45.648-101.94 101.94 0 56.29 45.648 101.91 101.94 101.91 1.874 0 3.713-.056 5.563-.156-42.625-6.375-75.312-43.13-75.312-87.53 0-48.888 39.645-88.5 88.532-88.5 35.95 0 66.89 21.433 80.75 52.218-10.075-45.69-50.812-79.875-99.53-79.875z"/><path d="M913.3 429.45L559.14 633.29v280.14l23.914-267.61 330.25-216.37z"/><path d="M744.19 674.12c-35.626 0-64.5 28.874-64.5 64.5 0 27.03 16.637 50.153 40.22 59.75l197.93 95.69L802.5 710.97c-2.188-4.602-4.93-8.89-8.095-12.812l-.687-1.094-.094.125c-11.84-14.11-29.59-23.08-49.44-23.08z"/></g><g stroke="#000"><path d="M-470.125 272.68c23.13 0 41.89 18.76 41.89 41.89s-18.758 41.878-41.89 41.878c-.77 0-1.526-.023-2.286-.065 17.515-2.62 30.947-17.723 30.947-35.968 0-20.09-16.29-36.367-36.38-36.367-14.773 0-27.486 8.808-33.182 21.458 4.14-18.775 20.88-32.822 40.9-32.822z" stroke-width=".41092"/><path d="M-546.598 193.134l145.533 83.763v115.116l-9.827-109.967-135.708-88.912z" stroke-width=".41092"/><path d="M-477.11 293.68c14.64 0 26.504 11.864 26.504 26.504 0 11.107-6.837 20.61-16.527 24.552l-81.338 39.32 47.395-75.235c.898-1.89 2.025-3.652 3.326-5.264l.283-.45.04.052c4.86-5.794 12.157-9.477 20.314-9.477z" stroke-width=".41092"/></g><path d="M552.52 97.558c0 28.873-23.406 52.28-52.28 52.28s-52.278-23.407-52.278-52.28 23.406-52.28 52.28-52.28 52.278 23.407 52.278 52.28z" transform="matrix(.87255 0 0 .87255 -668.807 22.187)" fill="url(#e)"/><path d="M552.52 97.558c0 28.873-23.406 52.28-52.28 52.28s-52.278-23.407-52.278-52.28 23.406-52.28 52.28-52.28 52.278 23.407 52.278 52.28z" transform="matrix(.59804 0 0 .59804 -449.067 34.104)" fill="url(#f)"/><path d="M552.52 97.558c0 28.873-23.406 52.28-52.28 52.28s-52.278-23.407-52.278-52.28 23.406-52.28 52.28-52.28 52.278 23.407 52.278 52.28z" transform="matrix(.4706 0 0 .4706 -326.368 24.498)" fill="url(#f)"/><path d="M552.52 97.558c0 28.873-23.406 52.28-52.28 52.28s-52.278-23.407-52.278-52.28 23.406-52.28 52.28-52.28 52.278 23.407 52.278 52.28z" transform="matrix(1.06863 0 0 1.06863 -878.215 -3.605)" fill="url(#e)"/><path d="M552.52 97.558c0 28.873-23.406 52.28-52.28 52.28s-52.278-23.407-52.278-52.28 23.406-52.28 52.28-52.28 52.278 23.407 52.278 52.28z" transform="matrix(.4706 0 0 .4706 -511.284 152.172)" fill="url(#f)"/><path d="M552.52 97.558c0 28.873-23.406 52.28-52.28 52.28s-52.278-23.407-52.278-52.28 23.406-52.28 52.28-52.28 52.278 23.407 52.278 52.28z" transform="matrix(.4706 0 0 .4706 -453.204 249.63)" fill="url(#f)"/><path d="M552.52 97.558c0 28.873-23.406 52.28-52.28 52.28s-52.278-23.407-52.278-52.28 23.406-52.28 52.28-52.28 52.278 23.407 52.278 52.28z" transform="matrix(.4706 0 0 .4706 -564.338 250.467)" fill="url(#f)"/><path d="M-72.536 293.86c-14.64 0-26.505 11.865-26.505 26.505 0 11.107 6.836 20.61 16.526 24.553l81.337 39.32L-48.574 309a26.523 26.523 0 0 0-3.326-5.265l-.282-.45-.04.052c-4.86-5.795-12.158-9.477-20.314-9.477z" transform="matrix(1.0261 0 0 1.0261 2.675 -7.585)" filter="url(#g)" fill="url(#h)"/><path d="M-72.536 293.86c-14.64 0-26.505 11.865-26.505 26.505 0 11.107 6.836 20.61 16.526 24.553l81.337 39.32L-48.574 309a26.523 26.523 0 0 0-3.326-5.265l-.282-.45-.04.052c-4.86-5.795-12.158-9.477-20.314-9.477z" transform="matrix(-1.0261 0 0 1.0261 -552.272 -8.597)" filter="url(#i)" fill="url(#h)"/></g><path d="M.805-.902v249.62s54.49-82.997 117.57-116.76c63.07-33.76 121.58-33.012 180.36-63.61 58.79-30.6 95.02-67.64 95.02-67.64L.805-.903z" fill="url(#j)" transform="translate(0 -1.24)"/><path d="M746.46 420.24V170.62s-54.49 82.997-117.57 116.76c-63.075 33.763-121.59 33.015-180.37 63.614-58.783 30.6-95.018 67.64-95.018 67.64l392.96 1.61z" fill="url(#k)" transform="translate(0 -1.24)"/></svg>