<svg xmlns="http://www.w3.org/2000/svg" xmlns:xlink="http://www.w3.org/1999/xlink" viewBox="0 0 746.46 421.14"><defs><linearGradient id="m" y2="227.54" xlink:href="#a" gradientUnits="userSpaceOnUse" y1="227.54" x2="735.1" x1="636.77"/><radialGradient id="e" gradientUnits="userSpaceOnUse" cy="97.558" cx="500.24" r="52.279"><stop stop-color="#ba0000" offset="0"/><stop stop-color="#ba0000" stop-opacity="0" offset="1"/></radialGradient><radialGradient id="g" gradientUnits="userSpaceOnUse" cy="798.08" cx="-327.14" r="71.929"><stop offset="0"/><stop stop-opacity="0" offset="1"/></radialGradient><radialGradient id="f" cx="500.24" gradientUnits="userSpaceOnUse" cy="97.558" r="52.279"><stop stop-color="#b70000" offset="0"/><stop stop-color="#b70000" stop-opacity="0" offset="1"/></radialGradient><linearGradient id="i" y2="359.47" xlink:href="#a" gradientUnits="userSpaceOnUse" y1="359.47" gradientTransform="matrix(1.54413 0 0 1.54413 -379.41 -220.752)" x2="684.31" x1="439.19"/><linearGradient id="j" y2="334.86" xlink:href="#a" gradientUnits="userSpaceOnUse" y1="334.86" gradientTransform="matrix(1.54413 0 0 1.54413 -379.41 -220.752)" x2="689.43" x1="471.99"/><linearGradient id="k" y2="315.39" xlink:href="#a" gradientUnits="userSpaceOnUse" y1="315.39" gradientTransform="matrix(1.54413 0 0 1.54413 -379.41 -220.752)" x2="698.66" x1="520.17"/><linearGradient id="l" y2="301.55" xlink:href="#a" gradientUnits="userSpaceOnUse" y1="301.55" gradientTransform="matrix(1.54413 0 0 1.54413 -379.41 -220.752)" x2="709.42" x1="589.87"/><radialGradient id="d" cx="-327.14" xlink:href="#b" gradientUnits="userSpaceOnUse" cy="798.08" r="71.929"/><linearGradient id="h" y2="185.51" gradientUnits="userSpaceOnUse" x2="197.28" gradientTransform="rotate(180 373.632 209.67)" y1="-.902" x1="39.457"><stop offset="0"/><stop stop-opacity="0" offset="1"/></linearGradient><linearGradient id="n" y2="177.31" gradientUnits="userSpaceOnUse" y1="-.902" x2="142.95" x1="39.457"><stop offset="0"/><stop stop-opacity="0" offset="1"/></linearGradient><radialGradient id="c" cx="-268.99" gradientUnits="userSpaceOnUse" cy="244.58" r="372.96" gradientTransform="matrix(1 0 0 .5623 0 107.052)"><stop stop-color="#D00" offset="0"/><stop stop-color="#4a0000" offset="1"/></radialGradient><linearGradient id="b"><stop offset="0"/><stop stop-opacity="0" offset="1"/></linearGradient><linearGradient id="a"><stop stop-color="#ff5656" stop-opacity=".139" offset="0"/><stop stop-color="#ff1818" offset="1"/></linearGradient></defs><g transform="translate(641.945 -33.966)"><rect ry="0" height="419.43" width="745.91" y="34.868" x="-641.94" fill="url(#c)"/><path d="M-255.71 798.08c0 39.45-31.98 71.43-71.43 71.43s-71.428-31.98-71.428-71.43 31.98-71.43 71.43-71.43 71.428 31.98 71.428 71.43z" transform="matrix(.6485 0 0 .6485 -370.152 -123.646)" fill="url(#d)"/><path d="M-255.71 798.08c0 39.45-31.98 71.43-71.43 71.43s-71.428-31.98-71.428-71.43 31.98-71.43 71.43-71.43 71.428 31.98 71.428 71.43z" transform="matrix(-.53292 0 0 .53292 -665.01 -56.363)" fill="url(#d)"/><path d="M-255.71 798.08c0 39.45-31.98 71.43-71.43 71.43s-71.428-31.98-71.428-71.43 31.98-71.43 71.43-71.43 71.428 31.98 71.428 71.43z" transform="matrix(.2908 .29936 .29936 -.2908 -551.69 696.51)" fill="url(#d)"/><path d="M552.52 97.558c0 28.873-23.406 52.28-52.28 52.28s-52.278-23.407-52.278-52.28 23.406-52.28 52.28-52.28 52.278 23.407 52.278 52.28z" transform="matrix(.87255 0 0 .87255 -668.807 22.187)" fill="url(#e)"/><path d="M552.52 97.558c0 28.873-23.406 52.28-52.28 52.28s-52.278-23.407-52.278-52.28 23.406-52.28 52.28-52.28 52.278 23.407 52.278 52.28z" transform="matrix(.59804 0 0 .59804 -449.067 34.104)" fill="url(#f)"/><path d="M552.52 97.558c0 28.873-23.406 52.28-52.28 52.28s-52.278-23.407-52.278-52.28 23.406-52.28 52.28-52.28 52.278 23.407 52.278 52.28z" transform="matrix(.4706 0 0 .4706 -326.368 24.498)" fill="url(#f)"/><path d="M552.52 97.558c0 28.873-23.406 52.28-52.28 52.28s-52.278-23.407-52.278-52.28 23.406-52.28 52.28-52.28 52.278 23.407 52.278 52.28z" transform="matrix(1.06863 0 0 1.06863 -878.215 -3.605)" fill="url(#e)"/><path d="M552.52 97.558c0 28.873-23.406 52.28-52.28 52.28s-52.278-23.407-52.278-52.28 23.406-52.28 52.28-52.28 52.278 23.407 52.278 52.28z" transform="matrix(.63725 0 0 .63725 -726.38 303.614)" fill="url(#f)"/><path d="M552.52 97.558c0 28.873-23.406 52.28-52.28 52.28s-52.278-23.407-52.278-52.28 23.406-52.28 52.28-52.28 52.278 23.407 52.278 52.28z" transform="matrix(.81373 0 0 .81373 -898.04 290.472)" fill="url(#f)"/><path d="M552.52 97.558c0 28.873-23.406 52.28-52.28 52.28s-52.278-23.407-52.278-52.28 23.406-52.28 52.28-52.28 52.278 23.407 52.278 52.28z" transform="matrix(.9902 0 0 .9902 -1077.975 296.646)" fill="url(#f)"/><path d="M-255.71 798.08c0 39.45-31.98 71.43-71.43 71.43s-71.428-31.98-71.428-71.43 31.98-71.43 71.43-71.43 71.428 31.98 71.428 71.43z" transform="matrix(.2908 .29936 .29936 -.2908 -475.434 704.05)" fill="url(#g)"/><path d="M552.52 97.558c0 28.873-23.406 52.28-52.28 52.28s-52.278-23.407-52.278-52.28 23.406-52.28 52.28-52.28 52.278 23.407 52.278 52.28z" transform="matrix(.63725 0 0 .63725 -650.124 311.15)" fill="url(#f)"/><path d="M552.52 97.558c0 28.873-23.406 52.28-52.28 52.28s-52.278-23.407-52.278-52.28 23.406-52.28 52.28-52.28 52.278 23.407 52.278 52.28z" transform="matrix(2.33333 0 0 2.33333 -1686.374 -70.345)" fill="url(#e)"/></g><path d="M746.46 420.24V170.62s-54.49 82.997-117.57 116.76c-63.075 33.763-121.59 33.015-180.37 63.614-58.783 30.6-95.018 67.64-95.018 67.64l392.96 1.61z" fill="url(#h)" transform="translate(0 .902)"/><path d="M-255.71 798.08c0 39.45-31.98 71.43-71.43 71.43s-71.428-31.98-71.428-71.43 31.98-71.43 71.43-71.43 71.428 31.98 71.428 71.43z" transform="matrix(.23263 .2395 .2395 -.23263 263.496 621.874)" fill="url(#g)"/><path d="M552.52 97.558c0 28.873-23.406 52.28-52.28 52.28s-52.278-23.407-52.278-52.28 23.406-52.28 52.28-52.28 52.278 23.407 52.278 52.28z" transform="matrix(.5098 0 0 .5098 123.744 307.557)" fill="url(#f)"/><path opacity=".66" d="M674.78 377.05l-373.56-85.48" stroke="url(#i)" stroke-width="4.941" fill="none" transform="translate(0 .902)"/><path opacity=".66" d="M682.69 365.18c-3.17-2.38-330.82-137.71-330.82-137.71" stroke="url(#j)" stroke-width="4.941" fill="none" transform="translate(0 .902)"/><path opacity=".66" d="M696.94 357.26L426.27 175.23" stroke="url(#k)" stroke-width="4.941" fill="none" transform="translate(0 .902)"/><path opacity=".66" d="M713.56 350.93L533.9 138.83" stroke="url(#l)" stroke-width="4.941" fill="none" transform="translate(0 .902)"/><path opacity=".66" d="M732.63 348.63l-93.39-242.17" stroke="url(#m)" stroke-width="4.941" fill="none" transform="translate(0 .902)"/><path d="M-255.71 798.08c0 39.45-31.98 71.43-71.43 71.43s-71.428-31.98-71.428-71.43 31.98-71.43 71.43-71.43 71.428 31.98 71.428 71.43z" transform="matrix(.23263 .2395 .2395 -.23263 319.364 655.19)" fill="url(#g)"/><path d="M552.52 97.558c0 28.873-23.406 52.28-52.28 52.28s-52.278-23.407-52.278-52.28 23.406-52.28 52.28-52.28 52.278 23.407 52.278 52.28z" transform="translate(250.905 351.05) scale(.35294)" fill="url(#f)"/><path d="M.805-.902v249.62s54.49-82.997 117.57-116.76c63.07-33.76 121.58-33.012 180.36-63.61 58.79-30.6 95.02-67.64 95.02-67.64L.805-.903z" fill="url(#n)" transform="translate(0 .902)"/></svg>