<!-- Created with Inkscape (http://www.inkscape.org/) -->
<svg xmlns:rdf="http://www.w3.org/1999/02/22-rdf-syntax-ns#" xmlns="http://www.w3.org/2000/svg" height="100%" width="100%" version="1.1" xmlns:cc="http://creativecommons.org/ns#" xmlns:xlink="http://www.w3.org/1999/xlink" viewBox="0 0 746.46 421.14" xmlns:dc="http://purl.org/dc/elements/1.1/">
<metadata>
<rdf:RDF>
<cc:Work rdf:about="">
<dc:format>image/svg+xml</dc:format>
<dc:type rdf:resource="http://purl.org/dc/dcmitype/StillImage"/>
<dc:title/>
</cc:Work>
</rdf:RDF>
</metadata>
<defs>
<linearGradient id="linearGradient4425" y2="227.54" xlink:href="#linearGradient4053" gradientUnits="userSpaceOnUse" y1="227.54" x2="735.1" x1="636.77"/>
<radialGradient id="radialGradient4402" gradientUnits="userSpaceOnUse" cy="97.558" cx="500.24" r="52.279">
<stop stop-color="#ba0000" offset="0"/>
<stop stop-color="#ba0000" stop-opacity="0" offset="1"/>
</radialGradient>
<radialGradient id="radialGradient4354" gradientUnits="userSpaceOnUse" cy="798.08" cx="-327.14" r="71.929">
<stop stop-color="#000" offset="0"/>
<stop stop-color="#000" stop-opacity="0" offset="1"/>
</radialGradient>
<radialGradient id="radialGradient3357-4-5-0" cx="500.24" gradientUnits="userSpaceOnUse" cy="97.558" r="52.279">
<stop stop-color="#b70000" offset="0"/>
<stop stop-color="#b70000" stop-opacity="0" offset="1"/>
</radialGradient>
<linearGradient id="linearGradient4077" y2="359.47" xlink:href="#linearGradient4053" gradientUnits="userSpaceOnUse" y1="359.47" gradientTransform="matrix(1.5441276,0,0,1.5441276,-379.40988,-220.75201)" x2="684.31" x1="439.19"/>
<linearGradient id="linearGradient4075" y2="334.86" xlink:href="#linearGradient4053" gradientUnits="userSpaceOnUse" y1="334.86" gradientTransform="matrix(1.5441276,0,0,1.5441276,-379.40988,-220.75201)" x2="689.43" x1="471.99"/>
<linearGradient id="linearGradient4073" y2="315.39" xlink:href="#linearGradient4053" gradientUnits="userSpaceOnUse" y1="315.39" gradientTransform="matrix(1.5441276,0,0,1.5441276,-379.40988,-220.75201)" x2="698.66" x1="520.17"/>
<linearGradient id="linearGradient4071" y2="301.55" xlink:href="#linearGradient4053" gradientUnits="userSpaceOnUse" y1="301.55" gradientTransform="matrix(1.5441276,0,0,1.5441276,-379.40988,-220.75201)" x2="709.42" x1="589.87"/>
<radialGradient id="radialGradient4141" cx="-327.14" xlink:href="#linearGradient4131" gradientUnits="userSpaceOnUse" cy="798.08" r="71.929"/>
<linearGradient id="linearGradient4887" y2="185.51" gradientUnits="userSpaceOnUse" x2="197.28" gradientTransform="matrix(-1,0,0,-1,747.26314,419.3377)" y1="-0.90153" x1="39.457">
<stop stop-color="#000" offset="0"/>
<stop stop-color="#000" stop-opacity="0" offset="1"/>
</linearGradient>
<linearGradient id="linearGradient4868" y2="177.31" gradientUnits="userSpaceOnUse" y1="-0.90153" x2="142.95" x1="39.457">
<stop stop-color="#000" offset="0"/>
<stop stop-color="#000" stop-opacity="0" offset="1"/>
</linearGradient>
<radialGradient id="radialGradient3952-0" cx="-268.99" gradientUnits="userSpaceOnUse" cy="244.58" r="372.96" gradientTransform="matrix(1,0,0,0.5623103,0,107.05231)">
<stop stop-color="#D00" offset="0"/>
<stop stop-color="#4a0000" offset="1"/>
</radialGradient>
<linearGradient id="linearGradient4131">
<stop stop-color="#000" offset="0"/>
<stop stop-color="#000" stop-opacity="0" offset="1"/>
</linearGradient>
<linearGradient id="linearGradient4053">
<stop stop-color="#ff5656" stop-opacity="0.13913043" offset="0"/>
<stop stop-color="#ff1818" offset="1"/>
</linearGradient>
</defs>
<g transform="matrix(1.0000028,0,0,0.99999817,4.1015734e-7,0.90154819)">
<g transform="translate(641.94342,-34.86795)">
<rect ry="0" height="419.43" width="745.91" y="34.868" x="-641.94" fill="url(#radialGradient3952-0)"/>
<path d="m-255.71,798.08c0,39.449-31.98,71.429-71.429,71.429s-71.429-31.98-71.429-71.429,31.98-71.429,71.429-71.429,71.429,31.98,71.429,71.429z" fill-rule="nonzero" transform="matrix(0.64848851,0,0,0.64848851,-370.15193,-123.64624)" fill="url(#radialGradient4141)"/>
<path d="m-255.71,798.08c0,39.449-31.98,71.429-71.429,71.429s-71.429-31.98-71.429-71.429,31.98-71.429,71.429-71.429,71.429,31.98,71.429,71.429z" fill-rule="nonzero" transform="matrix(-0.53291631,0,0,0.53291631,-665.01,-56.362748)" fill="url(#radialGradient4141)"/>
<path d="m-255.71,798.08c0,39.449-31.98,71.429-71.429,71.429s-71.429-31.98-71.429-71.429,31.98-71.429,71.429-71.429,71.429,31.98,71.429,71.429z" fill-rule="nonzero" transform="matrix(0.2907928,0.29935871,0.29935871,-0.2907928,-551.69067,696.51101)" fill="url(#radialGradient4141)"/>
<path d="m552.52,97.558c0,28.873-23.406,52.279-52.279,52.279s-52.279-23.406-52.279-52.279,23.406-52.279,52.279-52.279,52.279,23.406,52.279,52.279z" fill-rule="nonzero" transform="matrix(0.87254903,0,0,0.87254903,-668.80682,22.18719)" fill="url(#radialGradient4402)"/>
<path d="m552.52,97.558c0,28.873-23.406,52.279-52.279,52.279s-52.279-23.406-52.279-52.279,23.406-52.279,52.279-52.279,52.279,23.406,52.279,52.279z" fill-rule="nonzero" transform="matrix(0.59803923,0,0,0.59803923,-449.06679,34.103972)" fill="url(#radialGradient3357-4-5-0)"/>
<path d="m552.52,97.558c0,28.873-23.406,52.279-52.279,52.279s-52.279-23.406-52.279-52.279,23.406-52.279,52.279-52.279,52.279,23.406,52.279,52.279z" fill-rule="nonzero" transform="matrix(0.47058826,0,0,0.47058826,-326.36822,24.498464)" fill="url(#radialGradient3357-4-5-0)"/>
<path d="m552.52,97.558c0,28.873-23.406,52.279-52.279,52.279s-52.279-23.406-52.279-52.279,23.406-52.279,52.279-52.279,52.279,23.406,52.279,52.279z" fill-rule="nonzero" transform="matrix(1.0686274,0,0,1.0686274,-878.21527,-3.6047845)" fill="url(#radialGradient4402)"/>
<path d="m552.52,97.558c0,28.873-23.406,52.279-52.279,52.279s-52.279-23.406-52.279-52.279,23.406-52.279,52.279-52.279,52.279,23.406,52.279,52.279z" fill-rule="nonzero" transform="matrix(0.63725492,0,0,0.63725492,-726.38042,303.61364)" fill="url(#radialGradient3357-4-5-0)"/>
<path d="m552.52,97.558c0,28.873-23.406,52.279-52.279,52.279s-52.279-23.406-52.279-52.279,23.406-52.279,52.279-52.279,52.279,23.406,52.279,52.279z" fill-rule="nonzero" transform="matrix(0.8137255,0,0,0.8137255,-898.0405,290.47179)" fill="url(#radialGradient3357-4-5-0)"/>
<path d="m552.52,97.558c0,28.873-23.406,52.279-52.279,52.279s-52.279-23.406-52.279-52.279,23.406-52.279,52.279-52.279,52.279,23.406,52.279,52.279z" fill-rule="nonzero" transform="matrix(0.99019609,0,0,0.99019609,-1077.9754,296.64614)" fill="url(#radialGradient3357-4-5-0)"/>
<path d="m-255.71,798.08c0,39.449-31.98,71.429-71.429,71.429s-71.429-31.98-71.429-71.429,31.98-71.429,71.429-71.429,71.429,31.98,71.429,71.429z" fill-rule="nonzero" transform="matrix(0.2907928,0.29935871,0.29935871,-0.2907928,-475.43423,704.04863)" fill="url(#radialGradient4354)"/>
<path d="m552.52,97.558c0,28.873-23.406,52.279-52.279,52.279s-52.279-23.406-52.279-52.279,23.406-52.279,52.279-52.279,52.279,23.406,52.279,52.279z" fill-rule="nonzero" transform="matrix(0.63725492,0,0,0.63725492,-650.12398,311.15126)" fill="url(#radialGradient3357-4-5-0)"/>
<path d="m552.52,97.558c0,28.873-23.406,52.279-52.279,52.279s-52.279-23.406-52.279-52.279,23.406-52.279,52.279-52.279,52.279,23.406,52.279,52.279z" fill-rule="nonzero" transform="matrix(2.3333333,0,0,2.3333333,-1686.374,-70.345041)" fill="url(#radialGradient4402)"/>
</g>
<path d="m746.46,420.24,0-249.62s-54.49,82.997-117.57,116.76c-63.075,33.763-121.59,33.015-180.37,63.614-58.783,30.599-95.018,67.64-95.018,67.64l392.96,1.6105z" fill="url(#linearGradient4887)"/>
<path d="m-255.71,798.08c0,39.449-31.98,71.429-71.429,71.429s-71.429-31.98-71.429-71.429,31.98-71.429,71.429-71.429,71.429,31.98,71.429,71.429z" fill-rule="nonzero" transform="matrix(0.23263424,0.23948697,0.23948697,-0.23263424,263.49554,620.974)" fill="url(#radialGradient4354)"/>
<path d="m552.52,97.558c0,28.873-23.406,52.279-52.279,52.279s-52.279-23.406-52.279-52.279,23.406-52.279,52.279-52.279,52.279,23.406,52.279,52.279z" fill-rule="nonzero" transform="matrix(0.50980394,0,0,0.50980394,123.74374,306.6561)" fill="url(#radialGradient3357-4-5-0)"/>
<path opacity="0.66000001" stroke-linejoin="miter" d="M674.78,377.05,301.22,291.57" stroke="url(#linearGradient4077)" stroke-linecap="butt" stroke-miterlimit="4" stroke-dasharray="none" stroke-width="4.94120836" fill="none"/>
<path opacity="0.66000001" stroke-linejoin="miter" d="M682.69,365.18c-3.17-2.38-330.82-137.71-330.82-137.71" stroke="url(#linearGradient4075)" stroke-linecap="butt" stroke-miterlimit="4" stroke-dasharray="none" stroke-width="4.94120836" fill="none"/>
<path opacity="0.66000001" stroke-linejoin="miter" d="M696.94,357.26,426.27,175.23" stroke="url(#linearGradient4073)" stroke-linecap="butt" stroke-miterlimit="4" stroke-dasharray="none" stroke-width="4.94120836" fill="none"/>
<path opacity="0.66000001" stroke-linejoin="miter" d="M713.56,350.93,533.9,138.83" stroke="url(#linearGradient4071)" stroke-linecap="butt" stroke-miterlimit="4" stroke-dasharray="none" stroke-width="4.94120836" fill="none"/>
<path opacity="0.66000001" stroke-linejoin="miter" d="M732.63,348.63,639.24,106.46" stroke="url(#linearGradient4425)" stroke-linecap="butt" stroke-miterlimit="4" stroke-dasharray="none" stroke-width="4.94120836" fill="none"/>
<path d="m-255.71,798.08c0,39.449-31.98,71.429-71.429,71.429s-71.429-31.98-71.429-71.429,31.98-71.429,71.429-71.429,71.429,31.98,71.429,71.429z" fill-rule="nonzero" transform="matrix(0.23263424,0.23948697,0.23948697,-0.23263424,319.36264,654.28922)" fill="url(#radialGradient4354)"/>
<path d="m552.52,97.558c0,28.873-23.406,52.279-52.279,52.279s-52.279-23.406-52.279-52.279,23.406-52.279,52.279-52.279,52.279,23.406,52.279,52.279z" fill-rule="nonzero" transform="matrix(0.3529412,0,0,0.3529412,250.90442,350.14904)" fill="url(#radialGradient3357-4-5-0)"/>
<path d="m0.80524-0.90153,0,249.62s54.49-82.997,117.57-116.76c63.07-33.759,121.58-33.012,180.36-63.611,58.79-30.599,95.02-67.64,95.02-67.64l-392.95-1.6105z" fill="url(#linearGradient4868)"/>
</g>
</svg>
