<svg xmlns="http://www.w3.org/2000/svg" xmlns:xlink="http://www.w3.org/1999/xlink" viewBox="0 0 1920 1080"><defs><linearGradient id="a"><stop stop-color="#49c0f6" offset="0"/><stop stop-color="#49c0f6" stop-opacity="0" offset="1"/></linearGradient><filter id="h" height="1.345" width="1.04" y="-.172" x="-.02"><feGaussianBlur stdDeviation="16.074"/></filter><filter id="g" height="2.527" width="2.527" y="-.763" x="-.763"><feGaussianBlur stdDeviation="38.553"/></filter><filter id="j" height="3.4" width="3.4" y="-1.2" x="-1.2"><feGaussianBlur stdDeviation="60.609"/></filter><filter id="i" height="1.456" width="1.456" y="-.228" x="-.228"><feGaussianBlur stdDeviation="11.516"/></filter><radialGradient id="n" xlink:href="#a" gradientUnits="userSpaceOnUse" cy="240.91" cx="932.94" gradientTransform="matrix(.01628 .38498 -.89813 .038 1204.26 178.366)" r="958.63"/><filter id="m" height="1.453" width="1.069" y="-.226" x="-.035"><feGaussianBlur stdDeviation="27.628"/></filter><filter id="f" height="1.856" width="1.191" y="-.428" x="-.095"><feGaussianBlur stdDeviation="76.593"/></filter><filter id="e" height="1.593" width="1.132" y="-.296" x="-.066"><feGaussianBlur stdDeviation="53.026"/></filter><filter id="k" height="1.23" width="1.027" y="-.115" x="-.013"><feGaussianBlur stdDeviation="10.716"/></filter><filter id="l" height="1.46" width="1.054" y="-.23" x="-.027"><feGaussianBlur stdDeviation="21.431"/></filter><filter id="o" height="2.146" width="2.179" y="-.573" x="-.589"><feGaussianBlur stdDeviation="17.364"/></filter><filter id="p" height="2.598" width="2.644" y="-.799" x="-.822"><feGaussianBlur stdDeviation="24.22"/></filter><filter id="c" height="3.367" width="3.434" y="-1.183" x="-1.217"><feGaussianBlur stdDeviation="35.86"/></filter><filter id="d" height="3.117" width="3.177" y="-1.058" x="-1.089"><feGaussianBlur stdDeviation="32.071"/></filter><filter id="y" height="1.44" width="1.344" y="-.22" x="-.172"><feGaussianBlur stdDeviation="8.918"/></filter><filter id="b" height="1.35" width="1.573" y="-.175" x="-.286"><feGaussianBlur stdDeviation="36.485"/></filter><filter id="q" height="1.339" width="3.703" y="-.169" x="-1.352"><feGaussianBlur stdDeviation="39.661"/></filter><filter id="w" height="3.976" width="1.325" y="-1.488" x="-.162"><feGaussianBlur stdDeviation="38.011"/></filter><filter id="t" height="1.408" width="2.441" y="-.204" x="-.721"><feGaussianBlur stdDeviation="47.07"/></filter><filter id="u" height="1.358" width="2.711" y="-.179" x="-.856"><feGaussianBlur stdDeviation="41.517"/></filter><filter id="x" height="1.213" width="1.188" y="-.106" x="-.094"><feGaussianBlur stdDeviation="15.702"/></filter><filter id="v" height="1.343" width="1.133" y="-.172" x="-.067"><feGaussianBlur stdDeviation="20.809"/></filter><linearGradient id="s" y2="537.41" gradientUnits="userSpaceOnUse" x2="1056.6" y1="341.44" x1="961.67"><stop stop-color="#FFF" offset="0"/><stop stop-color="#FFF" stop-opacity="0" offset="1"/></linearGradient><filter id="r" height="1.333" width="1.04" y="-.167" x="-.02"><feGaussianBlur stdDeviation="16.139"/></filter></defs><path fill-rule="evenodd" d="M2.02-2.884h1927.4v1084.9H2.02z"/><path opacity=".529" d="M2.02 702.2L0 1082l1927.4 2.02-4.04-602.05c-627.3 4.53-1267.3 75.7-1921.4 220.25"/><path d="M902.86 525.71l45.714-28.57-305.71-471.43 260 500" transform="matrix(1 0 0 1.1735 0 -106.41)" filter="url(#b)" fill="#5dabd5"/><path d="M1040.5 465.83c0 20.084-15.83 36.365-35.355 36.365s-35.355-16.28-35.355-36.365 15.83-36.365 35.355-36.365 35.355 16.28 35.355 36.365z" fill-rule="evenodd" transform="matrix(1.5158 0 0 1.5158 -518.44 -240.277)" filter="url(#c)" fill="#7ce8fe"/><path d="M1040.5 465.83c0 20.084-15.83 36.365-35.355 36.365s-35.355-16.28-35.355-36.365 15.83-36.365 35.355-36.365 35.355 16.28 35.355 36.365z" fill-rule="evenodd" transform="matrix(1.5158 0 0 1.5158 -518.44 -240.277)" filter="url(#c)" fill="#7ce8fe"/><path d="M1040.5 465.83c0 20.084-15.83 36.365-35.355 36.365s-35.355-16.28-35.355-36.365 15.83-36.365 35.355-36.365 35.355 16.28 35.355 36.365z" fill-rule="evenodd" transform="matrix(1.5158 0 0 1.5158 -518.44 -240.277)" filter="url(#d)" fill="#7ce8fe"/><path opacity=".659" d="M0 698.16c653.45-164.33 1272.7-237.11 1923.3-232.33l4.04-30.305-668.72 18.183c-138-312.27-477.51-185.73-533.31 60.61L2.04 643.618l-2.02 54.55" filter="url(#e)" fill="#63bdf0"/><path opacity=".659" d="M4.04 654.36c653.46-164.33 1272.7-237.12 1923.4-232.33l4.04-30.305-668.72 18.183c-138.1-312.27-477.57-185.73-533.37 60.61L6.12 599.818l-2.02 54.55" filter="url(#f)" fill="#63bdf0" transform="translate(0 27.638)"/><path d="M1056.6 532.5c0 33.474-27.136 60.61-60.61 60.61-33.473 0-60.608-27.137-60.608-60.61 0-33.474 27.136-60.61 60.61-60.61s60.608 27.137 60.608 60.61z" fill-rule="evenodd" transform="translate(0 -36.365)" filter="url(#g)" fill="#FFF"/><path d="M2.02 702.2c644.99-142.04 1285.1-220.24 1919.3-222.23-639.8-13.53-1279.5 57.98-1919.3 222.23" filter="url(#h)" fill="#e9feff"/><path d="M1056.6 532.5c0 33.474-27.136 60.61-60.61 60.61-33.473 0-60.608-27.137-60.608-60.61 0-33.474 27.136-60.61 60.61-60.61s60.608 27.137 60.608 60.61z" fill-rule="evenodd" transform="translate(0 -36.365)" filter="url(#i)" fill="#FFF"/><path filter="url(#h)" fill="#e9feff" d="M8.08 642.24C653.07 500.2 1293.18 422 1927.38 420.01c-639.8-13.53-1279.6 57.98-1919.3 222.23" transform="translate(0 27.638)"/><path opacity=".659" d="M4.04 654.36c653.46-164.33 1272.7-237.12 1923.4-232.33l4.04-30.305-668.72 18.183c-138.1-312.27-477.57-185.73-533.37 60.61L6.12 599.818l-2.02 54.55" transform="matrix(1.12574 0 0 1 -120.252 27.638)" filter="url(#f)" fill="#63bdf0"/><path d="M1056.6 532.5c0 33.474-27.136 60.61-60.61 60.61-33.473 0-60.608-27.137-60.608-60.61 0-33.474 27.136-60.61 60.61-60.61s60.608 27.137 60.608 60.61z" fill-rule="evenodd" transform="translate(0 -38.386)" filter="url(#j)" fill="#FFF"/><path d="M4.04 664.46c644.99-142.04 1285.1-220.24 1919.3-222.23-639.7-13.53-1279.5 57.98-1919.3 222.23" filter="url(#k)" fill="#e9feff" transform="translate(0 27.638)"/><path d="M4.04 656.38c644.99-142.04 1285.1-220.24 1919.3-222.23-636.9-20.08-1267.5 29.73-1919.3 222.23" transform="matrix(1.007 0 0 1 .33 27.638)" filter="url(#l)" fill="#e9feff"/><path opacity=".467" d="M1980.1 586.83l-646.67 70.925c-231.3 431.04-579.16 429.64-871.85 164.95l-441.99 7.06-8.773-25.148c670.27-139.2 1375.4-280.78 1975.8-269.51l-15.526 61.132" transform="matrix(.8975 0 0 .64394 133.02 153.864)" filter="url(#m)" fill="url(#n)"/><path opacity=".467" d="M1919.3 593.11l-585.89 64.65c-269.52 239.61-581.42 62.61-880.85 8.08L6.07 732.51l-2.02-28.29c670.27-139.2 1316.9-227.45 1917.3-216.17l-2.02 105.06" transform="matrix(.8975 0 0 .76737 131 97.885)" filter="url(#m)" fill="url(#n)"/><path d="M1040.5 465.83c0 20.084-15.83 36.365-35.355 36.365s-35.355-16.28-35.355-36.365 15.83-36.365 35.355-36.365 35.355 16.28 35.355 36.365z" fill-rule="evenodd" fill="#FFF"/><path d="M1040.5 465.83c0 20.084-15.83 36.365-35.355 36.365s-35.355-16.28-35.355-36.365 15.83-36.365 35.355-36.365 35.355 16.28 35.355 36.365z" fill-rule="evenodd" filter="url(#o)" fill="#FFF"/><path d="M1040.5 465.83c0 20.084-15.83 36.365-35.355 36.365s-35.355-16.28-35.355-36.365 15.83-36.365 35.355-36.365 35.355 16.28 35.355 36.365z" fill-rule="evenodd" filter="url(#p)" fill="#FFF"/><path d="M1040.5 465.83c0 20.084-15.83 36.365-35.355 36.365s-35.355-16.28-35.355-36.365 15.83-36.365 35.355-36.365 35.355 16.28 35.355 36.365z" fill-rule="evenodd" filter="url(#p)" fill="#FFF"/><path d="M1040.5 465.83c0 20.084-15.83 36.365-35.355 36.365s-35.355-16.28-35.355-36.365 15.83-36.365 35.355-36.365 35.355 16.28 35.355 36.365z" fill-rule="evenodd" filter="url(#c)" fill="#FFF"/><path d="M1040.5 465.83c0 20.084-15.83 36.365-35.355 36.365s-35.355-16.28-35.355-36.365 15.83-36.365 35.355-36.365 35.355 16.28 35.355 36.365z" fill-rule="evenodd" transform="matrix(1.5158 0 0 1.5158 -518.44 -240.277)" filter="url(#c)" fill="#7ce8fe"/><path d="M1040.5 465.83c0 20.084-15.83 36.365-35.355 36.365s-35.355-16.28-35.355-36.365 15.83-36.365 35.355-36.365 35.355 16.28 35.355 36.365z" fill-rule="evenodd" transform="matrix(1.5158 0 0 1.5158 -518.44 -240.277)" filter="url(#c)" fill="#7ce8fe"/><path d="M1040.5 465.83c0 20.084-15.83 36.365-35.355 36.365s-35.355-16.28-35.355-36.365 15.83-36.365 35.355-36.365 35.355 16.28 35.355 36.365z" fill-rule="evenodd" transform="matrix(1.5158 0 0 1.5158 -518.44 -240.277)" filter="url(#c)" fill="#7ce8fe"/><path d="M1040.5 465.83c0 20.084-15.83 36.365-35.355 36.365s-35.355-16.28-35.355-36.365 15.83-36.365 35.355-36.365 35.355 16.28 35.355 36.365z" fill-rule="evenodd" transform="matrix(1.5158 0 0 1.5158 -518.44 -240.277)" filter="url(#c)" fill="#7ce8fe"/><path d="M2.02 702.2c644.99-142.04 1285.1-220.24 1919.3-222.23-259.39-5.486-518.78 3.01-778.18 25.997a7043.025 7043.025 0 0 0-310.41 34.46c-276.87 36.96-553.77 90.68-830.67 161.77" fill="#e9feff"/><path opacity=".467" d="M1919.3 593.11l-585.89 64.65c-269.52 239.61-581.42 62.61-880.85 8.08L6.07 732.51l-2.02-28.29c670.27-139.2 1316.9-227.45 1917.3-216.17l-2.02 105.06" transform="matrix(.8975 0 0 .44454 78.47 369.085)" filter="url(#m)" fill="url(#n)"/><path opacity=".467" d="M1919.3 593.11l-585.89 64.65c-269.52 239.61-581.42 62.61-880.85 8.08L6.07 732.51l-2.02-28.29c670.27-139.2 1316.9-227.45 1917.3-216.17l-2.02 105.06" filter="url(#m)" fill="url(#n)"/><path d="M902.86 525.71l45.714-28.57-305.71-471.43 260 500" transform="matrix(.25663 1.27713 -1.26056 .26 1506.79 -903.6)" filter="url(#q)" fill="#FFF"/><path opacity=".467" d="M1919.3 593.11l-585.89 64.65c-269.5 239.61-557.82 203.79-857.26 149.26l-319.46 29.02-25.61-.046c670.26-139.2 1189.8-359.22 1790.2-347.94l-2.02 105.06" transform="matrix(1.11334 0 0 .64394 -160.628 186.19)" filter="url(#m)" fill="url(#n)"/><path d="M2.02 702.2c644.99-142.04 1285.1-220.24 1919.3-222.23-259.39-5.486-524.85-21.235-784.24 1.753-103.47 9.17-202.9 18.625-306.37 32.44C553.78 551.132 278.9 631.112 2 702.202" filter="url(#r)" fill="url(#s)"/><path d="M902.86 525.71l45.714-28.57-305.71-471.43 260 500" transform="rotate(16.764 1004.286 515.714)" filter="url(#t)" fill="#5dabd5"/><path d="M902.86 525.71l45.714-28.57-305.71-471.43 260 500" transform="matrix(.97205 .35944 -.3744 .93317 293.69 -317.942)" filter="url(#u)" fill="#5dabd5"/><path d="M943.48 524.42l-309.1 2.02 264.66-22.23-177.79-76.77 214.15 68.69-137.38-147.48 165.67 105.06L842.47 164.8l153.54 272.74-6.06-238.4 34.344 238.4 113.14-155.56-68.69 165.67 208.09-129.3-195.97 147.48 284.86-111.12-280.82 133.34 299.01-18.183a4760.428 4760.428 0 0 1-440.43 54.548" filter="url(#v)" fill="#FFF"/><path d="M902.86 525.71l45.714-28.57-305.71-471.43 260 500" transform="rotate(34.653 1027.69 639.06)" filter="url(#q)" fill="#5dabd5"/><path d="M840 538.08l45.71-28.57L580 38.076 840 538.08" transform="matrix(.90887 -.83177 1.3618 .55512 -607.033 849.352)" filter="url(#w)" fill="#5dabd5"/><path d="M942.74 570.7l24.67-18.44-266.63-445.84L942.74 570.7" transform="matrix(.25663 1.27713 -1.26056 .26 1506.79 -903.6)" filter="url(#x)" fill="#FFF"/><path d="M902.86 525.71l45.714-28.57-305.71-471.43 260 500" transform="matrix(.25663 1.27713 -1.26056 .26 1506.79 -903.6)" filter="url(#q)" fill="#5dabd5"/><path d="M2.02 702.2c644.99-142.04 1285.1-220.24 1919.3-222.23-259.39-5.486-518.78 3.01-778.18 25.997a7043.025 7043.025 0 0 0-310.41 34.46c-276.87 36.96-553.77 90.68-830.67 161.77" fill="#FFF"/><path d="M902.86 525.71l45.714-28.57-305.71-471.43 260 500" transform="matrix(-.14946 1.22407 -1.20034 -.1427 1862.378 -606.728)" filter="url(#q)" fill="#5dabd5"/><path d="M1009.3 409.5c-34.32 0-62.156 27.836-62.156 62.156 0 13.023 4.028 25.107 10.875 35.094l108.78-11.53a61.92 61.92 0 0 0 4.655-23.563c0-34.32-27.836-62.156-62.156-62.156z" fill-rule="evenodd" filter="url(#y)" fill="#FFF" transform="translate(0 27.638)"/><path opacity=".467" d="M1919.3 593.11l-585.89 64.65c-269.52 239.61-621.82 66.018-880.85 8.08L8.09 632.55l10.102-43.05c678.18-94.74 1304.9-100.67 1903.1-101.45l-2.02 105.06" transform="matrix(1 0 0 1.7786 0 -327.614)" filter="url(#m)" fill="url(#n)"/><path d="M1009.3 409.5c-34.32 0-62.156 27.836-62.156 62.156 0 13.023 4.028 25.107 10.875 35.094l108.78-11.53a61.92 61.92 0 0 0 4.655-23.563c0-34.32-27.836-62.156-62.156-62.156z" fill-rule="evenodd" filter="url(#y)" fill="#FFF" transform="translate(0 27.638)"/><path fill-rule="evenodd" fill="#FFF" d="M1009.3 448.198c-26.512 0-48.014 21.502-48.014 48.014a47.786 47.786 0 0 0 8.4 27.11l84.032-8.91a47.834 47.834 0 0 0 3.596-18.2c0-26.512-21.502-48.014-48.014-48.014z"/></svg>