<!-- Created with Inkscape (http://www.inkscape.org/) -->
<svg xmlns:rdf="http://www.w3.org/1999/02/22-rdf-syntax-ns#" xmlns="http://www.w3.org/2000/svg" version="1.1" xmlns:cc="http://creativecommons.org/ns#" xmlns:xlink="http://www.w3.org/1999/xlink" viewBox="0 0 1920 1080" xmlns:dc="http://purl.org/dc/elements/1.1/">
<defs>
<linearGradient id="linearGradient4734">
<stop stop-color="#49c0f6" offset="0"/>
<stop stop-color="#49c0f6" stop-opacity="0" offset="1"/>
</linearGradient>
<filter id="filter4234" height="1.3446723" width="1.0401986" y="-0.17233613" x="-0.020099314">
<feGaussianBlur stdDeviation="16.073503"/>
</filter>
<filter id="filter4482" height="2.5266406" width="2.5266406" y="-0.76332028" x="-0.76332028">
<feGaussianBlur stdDeviation="38.553497"/>
</filter>
<filter id="filter4632" height="3.4" width="3.4" y="-1.2" x="-1.2">
<feGaussianBlur stdDeviation="60.609154"/>
</filter>
<filter id="filter4720" height="1.456" width="1.456" y="-0.228" x="-0.228">
<feGaussianBlur stdDeviation="11.515739"/>
</filter>
<radialGradient id="radialGradient4740" xlink:href="#linearGradient4734" gradientUnits="userSpaceOnUse" cy="240.91" cx="932.94" gradientTransform="matrix(0.01628284,0.38497825,-0.89812647,0.03798669,1204.2589,178.36582)" r="958.63"/>
<filter id="filter4770" height="1.4526993" width="1.0691673" y="-0.22634967" x="-0.034583659">
<feGaussianBlur stdDeviation="27.627581"/>
</filter>
<filter id="filter4841" height="1.8563126" width="1.1907502" y="-0.4281563" x="-0.095375098">
<feGaussianBlur stdDeviation="76.593003"/>
</filter>
<filter id="filter4877" height="1.5928318" width="1.1320578" y="-0.2964159" x="-0.066028914">
<feGaussianBlur stdDeviation="53.025925"/>
</filter>
<filter id="filter4887" height="1.2297815" width="1.0267991" y="-0.11489075" x="-0.013399543">
<feGaussianBlur stdDeviation="10.715669"/>
</filter>
<filter id="filter4897" height="1.459563" width="1.0535982" y="-0.2297815" x="-0.026799085">
<feGaussianBlur stdDeviation="21.431338"/>
</filter>
<filter id="filter5121" height="2.14594" width="2.1786811" y="-0.57297" x="-0.58934055">
<feGaussianBlur stdDeviation="17.363612"/>
</filter>
<filter id="filter5207" height="2.5984467" width="2.6441166" y="-0.79922337" x="-0.82205829">
<feGaussianBlur stdDeviation="24.220125"/>
</filter>
<filter id="filter5363" height="3.3666667" width="3.4342857" y="-1.1833334" x="-1.2171428">
<feGaussianBlur stdDeviation="35.860415"/>
</filter>
<filter id="filter5383" height="3.1166038" width="3.1770781" y="-1.0583019" x="-1.0885391">
<feGaussianBlur stdDeviation="32.07139"/>
</filter>
<filter id="filter5592" height="1.4401631" width="1.3443409" y="-0.22008157" x="-0.17217047">
<feGaussianBlur stdDeviation="8.9178886"/>
</filter>
<filter id="filter5633" height="1.3502577" width="1.5728513" y="-0.17512884" x="-0.28642567">
<feGaussianBlur stdDeviation="36.485176"/>
</filter>
<filter id="filter5655" height="1.3389665" width="3.7033669" y="-0.16948325" x="-1.3516834">
<feGaussianBlur stdDeviation="39.661406"/>
</filter>
<filter id="filter5671" height="3.9763099" width="1.3247477" y="-1.4881549" x="-0.16237383">
<feGaussianBlur stdDeviation="38.010925"/>
</filter>
<filter id="filter5711" height="1.4080152" width="2.4414097" y="-0.20400762" x="-0.72070486">
<feGaussianBlur stdDeviation="47.069878"/>
</filter>
<filter id="filter5735" height="1.3576548" width="2.7110583" y="-0.17882741" x="-0.85552914">
<feGaussianBlur stdDeviation="41.51741"/>
</filter>
<filter id="filter5939" height="1.2125209" width="1.1876666" y="-0.10626046" x="-0.093833321">
<feGaussianBlur stdDeviation="15.701608"/>
</filter>
<filter id="filter5991" height="1.3433333" width="1.1332615" y="-0.17166667" x="-0.066630728">
<feGaussianBlur stdDeviation="20.809143"/>
</filter>
<linearGradient id="linearGradient6005" y2="537.41" gradientUnits="userSpaceOnUse" x2="1056.6" y1="341.44" x1="961.67">
<stop stop-color="#FFF" offset="0"/>
<stop stop-color="#FFF" stop-opacity="0" offset="1"/>
</linearGradient>
<filter id="filter6015" height="1.3330411" width="1.040363" y="-0.16652053" x="-0.020181517">
<feGaussianBlur stdDeviation="16.139241"/>
</filter>
</defs>
<g transform="translate(0,27.637818)">
<rect fill-rule="evenodd" transform="translate(0,-27.637818)" height="1084.9" width="1927.4" y="-2.8835" x="2.0203" fill="#000"/>
<path opacity="0.52873563000000001" d="M2.0203,702.2,0,1082l1927.4,2.0203-4.0407-602.05c-627.3,4.53-1267.3,75.7-1921.4,220.25" transform="translate(0,-27.637818)" fill="#000"/>
<path d="m902.86,525.71,45.714-28.571-305.71-471.43,260,500" transform="matrix(1,0,0,1.1735119,0,-134.04894)" filter="url(#filter5633)" fill="#5dabd5"/>
<path d="m1040.5,465.83c0,20.084-15.829,36.365-35.355,36.365s-35.355-16.281-35.355-36.365,15.829-36.365,35.355-36.365,35.355,16.281,35.355,36.365z" fill-rule="evenodd" transform="matrix(1.515807,0,0,1.515807,-518.43852,-267.91476)" filter="url(#filter5363)" fill="#7ce8fe"/>
<path d="m1040.5,465.83c0,20.084-15.829,36.365-35.355,36.365s-35.355-16.281-35.355-36.365,15.829-36.365,35.355-36.365,35.355,16.281,35.355,36.365z" fill-rule="evenodd" transform="matrix(1.515807,0,0,1.515807,-518.43852,-267.91476)" filter="url(#filter5363)" fill="#7ce8fe"/>
<path d="m1040.5,465.83c0,20.084-15.829,36.365-35.355,36.365s-35.355-16.281-35.355-36.365,15.829-36.365,35.355-36.365,35.355,16.281,35.355,36.365z" fill-rule="evenodd" transform="matrix(1.515807,0,0,1.515807,-518.43852,-267.91476)" filter="url(#filter5383)" fill="#7ce8fe"/>
<path opacity="0.65900382999999996" d="M0,698.16c653.45-164.33,1272.7-237.11,1923.3-232.33l4.0407-30.305-668.72,18.183c-138-312.27-477.51-185.73-533.31,60.61l-723.27,129.3-2.0203,54.55" transform="translate(0,-27.637818)" filter="url(#filter4877)" fill="#63bdf0"/>
<path opacity="0.65900388" d="M4.0406,654.36c653.46-164.33,1272.7-237.12,1923.4-232.33l4.0407-30.305-668.72,18.183c-138.1-312.27-477.57-185.73-533.37,60.61l-723.27,129.3-2.0203,54.55" filter="url(#filter4841)" fill="#63bdf0"/>
<path d="m1056.6,532.5c0,33.474-27.136,60.609-60.609,60.609-33.474,0-60.609-27.136-60.609-60.609,0-33.474,27.136-60.609,60.609-60.609s60.609,27.136,60.609,60.609z" fill-rule="evenodd" transform="translate(0,-64.00331)" filter="url(#filter4482)" fill="#FFF"/>
<path d="M2.0203,702.2c644.99-142.04,1285.1-220.24,1919.3-222.23-639.8-13.53-1279.5,57.98-1919.3,222.23" transform="translate(0,-27.637818)" filter="url(#filter4234)" fill="#e9feff"/>
<path d="m1056.6,532.5c0,33.474-27.136,60.609-60.609,60.609-33.474,0-60.609-27.136-60.609-60.609,0-33.474,27.136-60.609,60.609-60.609s60.609,27.136,60.609,60.609z" fill-rule="evenodd" transform="translate(0,-64.00331)" filter="url(#filter4720)" fill="#FFF"/>
<path filter="url(#filter4234)" fill="#e9feff" d="M8.0812,642.24c644.99-142.04,1285.1-220.24,1919.3-222.23-639.8-13.53-1279.6,57.98-1919.3,222.23"/>
<path opacity="0.65900388" d="M4.0406,654.36c653.46-164.33,1272.7-237.12,1923.4-232.33l4.0407-30.305-668.72,18.183c-138.1-312.27-477.57-185.73-533.37,60.61l-723.27,129.3-2.0203,54.55" transform="matrix(1.1257382,0,0,1,-120.2516,0)" filter="url(#filter4841)" fill="#63bdf0"/>
<path d="m1056.6,532.5c0,33.474-27.136,60.609-60.609,60.609-33.474,0-60.609-27.136-60.609-60.609,0-33.474,27.136-60.609,60.609-60.609s60.609,27.136,60.609,60.609z" fill-rule="evenodd" transform="translate(0,-66.023615)" filter="url(#filter4632)" fill="#FFF"/>
<path d="M4.0406,664.46c644.99-142.04,1285.1-220.24,1919.3-222.23-639.7-13.53-1279.5,57.98-1919.3,222.23" filter="url(#filter4887)" fill="#e9feff"/>
<path d="M4.0406,656.38c644.99-142.04,1285.1-220.24,1919.3-222.23-636.9-20.08-1267.5,29.73-1919.3,222.23" transform="matrix(1.0069936,0,0,1,0.33145784,0)" filter="url(#filter4897)" fill="#e9feff"/>
<path opacity="0.46743296" d="m1980.1,586.83-646.67,70.925c-231.3,431.04-579.16,429.64-871.85,164.95l-441.99,7.0588-8.7734-25.147c670.27-139.2,1375.4-280.78,1975.8-269.51l-15.526,61.132" transform="matrix(0.89750057,0,0,0.64393586,133.01887,126.22644)" filter="url(#filter4770)" fill="url(#radialGradient4740)"/>
<path opacity="0.46743296" d="m1919.3,593.11-585.89,64.65c-269.52,239.61-581.42,62.61-880.85,8.0812l-446.49,66.67-2.0203-28.29c670.27-139.2,1316.9-227.45,1917.3-216.17l-2.0203,105.06" transform="matrix(0.89750057,0,0,0.76737143,130.99856,70.246966)" filter="url(#filter4770)" fill="url(#radialGradient4740)"/>
<path d="m1040.5,465.83c0,20.084-15.829,36.365-35.355,36.365s-35.355-16.281-35.355-36.365,15.829-36.365,35.355-36.365,35.355,16.281,35.355,36.365z" fill-rule="evenodd" transform="translate(0,-27.637818)" fill="#FFF"/>
<path d="m1040.5,465.83c0,20.084-15.829,36.365-35.355,36.365s-35.355-16.281-35.355-36.365,15.829-36.365,35.355-36.365,35.355,16.281,35.355,36.365z" fill-rule="evenodd" transform="translate(0,-27.637818)" filter="url(#filter5121)" fill="#FFF"/>
<path d="m1040.5,465.83c0,20.084-15.829,36.365-35.355,36.365s-35.355-16.281-35.355-36.365,15.829-36.365,35.355-36.365,35.355,16.281,35.355,36.365z" fill-rule="evenodd" transform="translate(0,-27.637818)" filter="url(#filter5207)" fill="#FFF"/>
<path d="m1040.5,465.83c0,20.084-15.829,36.365-35.355,36.365s-35.355-16.281-35.355-36.365,15.829-36.365,35.355-36.365,35.355,16.281,35.355,36.365z" fill-rule="evenodd" transform="translate(0,-27.637818)" filter="url(#filter5207)" fill="#FFF"/>
<path d="m1040.5,465.83c0,20.084-15.829,36.365-35.355,36.365s-35.355-16.281-35.355-36.365,15.829-36.365,35.355-36.365,35.355,16.281,35.355,36.365z" fill-rule="evenodd" transform="translate(0,-27.637818)" filter="url(#filter5363)" fill="#FFF"/>
<path d="m1040.5,465.83c0,20.084-15.829,36.365-35.355,36.365s-35.355-16.281-35.355-36.365,15.829-36.365,35.355-36.365,35.355,16.281,35.355,36.365z" fill-rule="evenodd" transform="matrix(1.515807,0,0,1.515807,-518.43852,-267.91476)" filter="url(#filter5363)" fill="#7ce8fe"/>
<path d="m1040.5,465.83c0,20.084-15.829,36.365-35.355,36.365s-35.355-16.281-35.355-36.365,15.829-36.365,35.355-36.365,35.355,16.281,35.355,36.365z" fill-rule="evenodd" transform="matrix(1.515807,0,0,1.515807,-518.43852,-267.91476)" filter="url(#filter5363)" fill="#7ce8fe"/>
<path d="m1040.5,465.83c0,20.084-15.829,36.365-35.355,36.365s-35.355-16.281-35.355-36.365,15.829-36.365,35.355-36.365,35.355,16.281,35.355,36.365z" fill-rule="evenodd" transform="matrix(1.515807,0,0,1.515807,-518.43852,-267.91476)" filter="url(#filter5363)" fill="#7ce8fe"/>
<path d="m1040.5,465.83c0,20.084-15.829,36.365-35.355,36.365s-35.355-16.281-35.355-36.365,15.829-36.365,35.355-36.365,35.355,16.281,35.355,36.365z" fill-rule="evenodd" transform="matrix(1.515807,0,0,1.515807,-518.43852,-267.91476)" filter="url(#filter5363)" fill="#7ce8fe"/>
<path d="M2.0203,702.2c644.99-142.04,1285.1-220.24,1919.3-222.23-259.39-5.4855-518.78,3.0092-778.18,25.997-103.47,9.1696-206.94,20.645-310.41,34.46-276.87,36.96-553.77,90.68-830.67,161.77" transform="translate(0,-27.637818)" fill="#e9feff"/>
<path opacity="0.46743296" d="m1919.3,593.11-585.89,64.65c-269.52,239.61-581.42,62.61-880.85,8.0812l-446.49,66.67-2.0203-28.29c670.27-139.2,1316.9-227.45,1917.3-216.17l-2.0203,105.06" transform="matrix(0.89750057,0,0,0.44453994,78.470628,341.44751)" filter="url(#filter4770)" fill="url(#radialGradient4740)"/>
<path opacity="0.46743295000000001" d="m1919.3,593.11-585.89,64.65c-269.52,239.61-581.42,62.61-880.85,8.0812l-446.49,66.67-2.0203-28.29c670.27-139.2,1316.9-227.45,1917.3-216.17l-2.0203,105.06" transform="translate(0,-27.637818)" filter="url(#filter4770)" fill="url(#radialGradient4740)"/>
<path d="m902.86,525.71,45.714-28.571-305.71-471.43,260,500" transform="matrix(0.25663491,1.2771323,-1.2605579,0.26000926,1506.7897,-931.23765)" filter="url(#filter5655)" fill="#FFF"/>
<path opacity="0.46743296" d="m1919.3,593.11-585.89,64.65c-269.5,239.61-557.82,203.79-857.26,149.26l-319.46,29.021-25.611-0.0474c670.26-139.2,1189.8-359.22,1790.2-347.94l-2.0203,105.06" transform="matrix(1.1133407,0,0,0.64393586,-160.62809,158.55132)" filter="url(#filter4770)" fill="url(#radialGradient4740)"/>
<path d="M2.0203,702.2c644.99-142.04,1285.1-220.24,1919.3-222.23-259.39-5.4855-524.85-21.235-784.24,1.7532-103.47,9.1696-202.9,18.625-306.37,32.439-276.93,36.97-551.81,116.95-828.71,188.04" transform="translate(0,-27.637818)" filter="url(#filter6015)" fill="url(#linearGradient6005)"/>
<path d="m902.86,525.71,45.714-28.571-305.71-471.43,260,500" transform="matrix(0.95750021,0.28843257,-0.28843257,0.95750021,191.43073,-295.38878)" filter="url(#filter5711)" fill="#5dabd5"/>
<path d="m902.86,525.71,45.714-28.571-305.71-471.43,260,500" transform="matrix(0.9720456,0.35943875,-0.3744134,0.93316868,293.69011,-345.57972)" filter="url(#filter5735)" fill="#5dabd5"/>
<path d="M943.48,524.42,634.38,526.44,899.04,504.21,721.25,427.44,935.4,496.13,798.02,348.65,963.69,453.71,842.47,164.8l153.54,272.74-6.0609-238.4,34.345,238.4,113.14-155.56-68.69,165.67,208.09-129.3-195.97,147.48,284.86-111.12-280.82,133.34,299.01-18.183c-101.87,17.471-204.3,31.623-307.09,42.426-44.387,4.6654-88.84,8.7065-133.34,12.122" transform="translate(0,-27.637818)" filter="url(#filter5991)" fill="#FFF"/>
<path d="m902.86,525.71,45.714-28.571-305.71-471.43,260,500" transform="matrix(0.8226131,0.56860151,-0.56860151,0.8226131,545.66876,-498.62381)" filter="url(#filter5655)" fill="#5dabd5"/>
<path d="M840,538.08,885.71,509.51,580,38.076,840,538.08" transform="matrix(0.90886928,-0.83176846,1.3618048,0.55512272,-607.03267,821.71425)" filter="url(#filter5671)" fill="#5dabd5"/>
<path d="M942.74,570.7,967.41,552.26,700.78,106.42,942.74,570.7" transform="matrix(0.25663491,1.2771323,-1.2605579,0.26000926,1506.7897,-931.23765)" filter="url(#filter5939)" fill="#FFF"/>
<path d="m902.86,525.71,45.714-28.571-305.71-471.43,260,500" transform="matrix(0.25663491,1.2771323,-1.2605579,0.26000926,1506.7897,-931.23765)" filter="url(#filter5655)" fill="#5dabd5"/>
<path d="M2.0203,702.2c644.99-142.04,1285.1-220.24,1919.3-222.23-259.39-5.4855-518.78,3.0092-778.18,25.997-103.47,9.1696-206.94,20.645-310.41,34.46-276.87,36.96-553.77,90.68-830.67,161.77" transform="translate(0,-27.637818)" fill="#FFF"/>
<path d="m902.86,525.71,45.714-28.571-305.71-471.43,260,500" transform="matrix(-0.14946038,1.2240709,-1.200336,-0.14270723,1862.3781,-634.36537)" filter="url(#filter5655)" fill="#5dabd5"/>
<path d="m1009.3,409.5c-34.321,0-62.156,27.836-62.156,62.156,0,13.023,4.0281,25.107,10.875,35.094l108.78-11.531c2.9826-7.2694,4.6562-15.218,4.6562-23.562,0-34.321-27.836-62.156-62.156-62.156z" fill-rule="evenodd" filter="url(#filter5592)" fill="#FFF"/>
<path opacity="0.46743296" d="m1919.3,593.11-585.89,64.65c-269.52,239.61-621.82,66.018-880.85,8.0812l-444.47-33.29,10.102-43.05c678.18-94.74,1304.9-100.67,1903.1-101.45l-2.0203,105.06" transform="matrix(1,0,0,1.7785936,0,-355.2522)" filter="url(#filter4770)" fill="url(#radialGradient4740)"/>
<path d="m1009.3,409.5c-34.321,0-62.156,27.836-62.156,62.156,0,13.023,4.0281,25.107,10.875,35.094l108.78-11.531c2.9826-7.2694,4.6562-15.218,4.6562-23.562,0-34.321-27.836-62.156-62.156-62.156z" fill-rule="evenodd" filter="url(#filter5592)" fill="#FFF"/>
<path fill-rule="evenodd" fill="#FFF" d="m1009.3,420.56c-26.512,0-48.014,21.502-48.014,48.014,0,10.06,3.1116,19.395,8.4006,27.109l84.031-8.9076c2.304-5.6154,3.5968-11.756,3.5968-18.201,0-26.512-21.502-48.014-48.014-48.014z"/>
</g>
</svg>
